<svg width="72" height="70" viewBox="0 0 72 70" fill="none" xmlns="http://www.w3.org/2000/svg">
<path d="M36.4669 64.9416C53.5425 64.9416 67.385 50.7588 67.385 33.2633C67.385 15.7678 53.5425 1.58496 36.4669 1.58496C19.3913 1.58496 5.54883 15.7678 5.54883 33.2633C5.54883 50.7588 19.3913 64.9416 36.4669 64.9416Z" fill="black"/>
<path d="M36.4652 66.4767C30.048 66.4817 23.7735 64.5365 18.4355 60.8872C13.0974 57.238 8.93559 52.0486 6.47646 45.9756C4.01734 39.9025 3.37141 33.2186 4.62036 26.7693C5.86932 20.32 8.95705 14.3952 13.493 9.7442C18.0289 5.09321 23.8092 1.92508 30.1028 0.640526C36.3963 -0.644023 42.9203 0.0127255 48.8495 2.52772C54.7787 5.04271 59.8467 9.30293 63.4124 14.7695C66.9781 20.2361 68.8813 26.6634 68.8813 33.2383C68.8748 42.0473 65.4583 50.4939 59.3812 56.7252C53.3041 62.9564 45.0628 66.4634 36.4652 66.4767ZM36.4652 3.09486C30.6368 3.09486 24.9392 4.86571 20.093 8.18345C15.2468 11.5012 11.4697 16.2168 9.23925 21.734C7.0088 27.2512 6.42521 33.3222 7.56229 39.1792C8.69936 45.0362 11.506 50.4162 15.6274 54.6389C19.7487 58.8616 24.9996 61.7373 30.7161 62.9023C36.4325 64.0673 42.3578 63.4694 47.7426 61.1841C53.1274 58.8988 57.7298 55.0288 60.968 50.0635C64.2061 45.0981 65.9344 39.2604 65.9344 33.2887C65.9344 29.3236 65.1722 25.3973 63.6912 21.734C62.2102 18.0707 60.0395 14.7422 57.3031 11.9384C54.5666 9.13467 51.318 6.91061 47.7426 5.39323C44.1672 3.87585 40.3352 3.09486 36.4652 3.09486Z" fill="white"/>
<path d="M35.8432 35.622C38.9075 35.622 41.3916 33.138 41.3916 30.0737C41.3916 27.0095 38.9075 24.5254 35.8432 24.5254C32.779 24.5254 30.2949 27.0095 30.2949 30.0737C30.2949 33.138 32.779 35.622 35.8432 35.622Z" stroke="white" stroke-width="3.69888" stroke-linecap="round" stroke-linejoin="round"/>
<path d="M35.8424 15.2783C31.9184 15.2783 28.1551 16.8371 25.3804 19.6118C22.6057 22.3865 21.0469 26.1498 21.0469 30.0739C21.0469 33.573 21.7904 35.8626 23.821 38.3963L35.8424 52.2672L47.8638 38.3963C49.8945 35.8626 50.6379 33.573 50.6379 30.0739C50.6379 26.1498 49.0791 22.3865 46.3044 19.6118C43.5297 16.8371 39.7664 15.2783 35.8424 15.2783Z" stroke="white" stroke-width="3.69888" stroke-linecap="round" stroke-linejoin="round"/>
</svg>
