<svg width="97" height="93" viewBox="0 0 97 93" fill="none" xmlns="http://www.w3.org/2000/svg">
<path d="M49.3418 89.7946C75.4879 89.7946 96.6835 70.365 96.6835 46.3973C96.6835 22.4296 75.4879 3 49.3418 3C23.1956 3 2 22.4296 2 46.3973C2 70.365 23.1956 89.7946 49.3418 89.7946Z" fill="#0E1013"/>
<path d="M46.3787 35.2251L42.5864 38.1039L49.6292 43.4502H22V47.5627H49.6292L42.5864 52.909L46.3787 55.7878L59.9224 45.5064L46.3787 35.2251ZM70.7573 59.9003H49.0874V64.0129H70.7573C73.737 64.0129 76.1748 62.1622 76.1748 59.9003V31.1125C76.1748 28.8506 73.737 27 70.7573 27H49.0874V31.1125H70.7573V59.9003Z" fill="white"/>
</svg>
