<svg width="41" height="41" viewBox="0 0 41 41" fill="none" xmlns="http://www.w3.org/2000/svg">
<path d="M33.1154 41.0005H7.88462C5.79349 41.0005 3.788 40.1698 2.30935 38.6911C0.830698 37.2124 0 35.207 0 33.1158V11.0389C0 8.94778 0.830698 6.9423 2.30935 5.46365C3.788 3.98499 5.79349 3.1543 7.88462 3.1543H33.1154C35.2065 3.1543 37.212 3.98499 38.6907 5.46365C40.1693 6.9423 41 8.94778 41 11.0389V33.1158C41 35.207 40.1693 37.2124 38.6907 38.6911C37.212 40.1698 35.2065 41.0005 33.1154 41.0005ZM7.88462 6.30814C6.62994 6.30814 5.42665 6.80656 4.53946 7.69375C3.65227 8.58094 3.15385 9.78423 3.15385 11.0389V33.1158C3.15385 34.3705 3.65227 35.5738 4.53946 36.461C5.42665 37.3482 6.62994 37.8466 7.88462 37.8466H33.1154C34.3701 37.8466 35.5734 37.3482 36.4605 36.461C37.3477 35.5738 37.8462 34.3705 37.8462 33.1158V11.0389C37.8462 9.78423 37.3477 8.58094 36.4605 7.69375C35.5734 6.80656 34.3701 6.30814 33.1154 6.30814H7.88462Z" fill="black"/>
<path d="M33.1161 34.692H26.8084C26.3901 34.692 25.989 34.5259 25.6933 34.2301C25.3976 33.9344 25.2314 33.5333 25.2314 33.1151V26.8074C25.2314 26.3892 25.3976 25.9881 25.6933 25.6923C25.989 25.3966 26.3901 25.2305 26.8084 25.2305H33.1161C33.5343 25.2305 33.9354 25.3966 34.2311 25.6923C34.5268 25.9881 34.693 26.3892 34.693 26.8074V33.1151C34.693 33.5333 34.5268 33.9344 34.2311 34.2301C33.9354 34.5259 33.5343 34.692 33.1161 34.692ZM28.3853 31.5382H31.5391V28.3843H28.3853V31.5382Z" fill="black"/>
<path d="M39.4231 15.7691H1.57692C1.1587 15.7691 0.7576 15.6029 0.46187 15.3072C0.16614 15.0115 0 14.6104 0 14.1922C0 13.7739 0.16614 13.3728 0.46187 13.0771C0.7576 12.7814 1.1587 12.6152 1.57692 12.6152H39.4231C39.8413 12.6152 40.2424 12.7814 40.5381 13.0771C40.8339 13.3728 41 13.7739 41 14.1922C41 14.6104 40.8339 15.0115 40.5381 15.3072C40.2424 15.6029 39.8413 15.7691 39.4231 15.7691Z" fill="black"/>
<path d="M12.616 9.46154C12.1978 9.46154 11.7967 9.2954 11.5009 8.99967C11.2052 8.70394 11.0391 8.30284 11.0391 7.88461V1.57692C11.0391 1.1587 11.2052 0.7576 11.5009 0.46187C11.7967 0.16614 12.1978 0 12.616 0C13.0342 0 13.4353 0.16614 13.731 0.46187C14.0268 0.7576 14.1929 1.1587 14.1929 1.57692V7.88461C14.1929 8.30284 14.0268 8.70394 13.731 8.99967C13.4353 9.2954 13.0342 9.46154 12.616 9.46154Z" fill="black"/>
<path d="M28.3845 9.46154C27.9663 9.46154 27.5652 9.2954 27.2695 8.99967C26.9738 8.70394 26.8076 8.30284 26.8076 7.88461V1.57692C26.8076 1.1587 26.9738 0.7576 27.2695 0.46187C27.5652 0.16614 27.9663 0 28.3845 0C28.8028 0 29.2039 0.16614 29.4996 0.46187C29.7953 0.7576 29.9615 1.1587 29.9615 1.57692V7.88461C29.9615 8.30284 29.7953 8.70394 29.4996 8.99967C29.2039 9.2954 28.8028 9.46154 28.3845 9.46154Z" fill="black"/>
</svg>
