<svg width="56" height="63" viewBox="0 0 56 63" fill="none" xmlns="http://www.w3.org/2000/svg">
<path d="M27.6667 0.349609C35.3096 0.349609 41.5 6.54003 41.5 14.1829C41.5 21.8259 35.3096 28.0163 27.6667 28.0163C20.0238 28.0163 13.8333 21.8259 13.8333 14.1829C13.8333 6.54003 20.0238 0.349609 27.6667 0.349609ZM41.5 36.8004C41.5 40.4663 40.5317 49.0084 33.9263 58.5534L31.125 41.8496L34.3758 35.3479C32.2317 35.1059 29.9837 34.9329 27.6667 34.9329C25.3496 34.9329 23.1017 35.1059 20.9575 35.3479L24.2083 41.8496L21.4071 58.5534C14.8017 49.0084 13.8333 40.4663 13.8333 36.8004C5.56792 39.2213 0 43.5788 0 48.7663V62.5996H55.3333V48.7663C55.3333 43.5788 49.8 39.2213 41.5 36.8004Z" fill="white"/>
</svg>
