<svg width="60" height="60" viewBox="0 0 60 60" fill="none" xmlns="http://www.w3.org/2000/svg">
<path d="M56.974 40.5013L43.0946 34.282L43.0563 34.2643C42.3358 33.9561 41.5497 33.8324 40.7694 33.9045C39.989 33.9765 39.2389 34.2419 38.587 34.6768C38.5102 34.7275 38.4364 34.7825 38.366 34.8417L31.195 40.955C26.652 38.7484 21.9617 34.0934 19.755 29.6093L25.8772 22.3293C25.9361 22.2557 25.9921 22.182 26.0451 22.1025C26.4706 21.4523 26.7288 20.707 26.7966 19.9328C26.8645 19.1587 26.7399 18.3799 26.434 17.6656V17.6302L20.1969 3.72721C19.7925 2.79405 19.0972 2.01671 18.2147 1.51121C17.3322 1.00572 16.3099 0.799188 15.3004 0.922453C11.3082 1.44778 7.64383 3.40834 4.99154 6.43797C2.33926 9.4676 0.880504 13.3591 0.887722 17.3857C0.887722 40.7783 19.92 59.8106 43.3126 59.8106C47.3392 59.8178 51.2307 58.359 54.2603 55.7067C57.2899 53.0545 59.2505 49.39 59.7758 45.3979C59.8993 44.3887 59.6932 43.3667 59.1883 42.4842C58.6833 41.6018 57.9066 40.9062 56.974 40.5013ZM43.3126 55.0967C33.3144 55.0858 23.7288 51.1091 16.659 44.0393C9.58914 36.9695 5.61252 27.3839 5.6016 17.3857C5.59051 14.5087 6.62702 11.7261 8.51753 9.55741C10.4081 7.38877 13.0233 5.98241 15.8749 5.60098C15.8737 5.61273 15.8737 5.62457 15.8749 5.63633L22.0619 19.4833L15.9721 26.7722C15.9103 26.8433 15.8542 26.9191 15.8042 26.999C15.3608 27.6794 15.1008 28.4627 15.0491 29.2731C14.9975 30.0835 15.1561 30.8934 15.5096 31.6245C18.1788 37.0838 23.6793 42.543 29.1975 45.2093C29.9339 45.5595 30.7486 45.7126 31.5619 45.6537C32.3752 45.5949 33.1594 45.326 33.8377 44.8735C33.9134 44.8225 33.9861 44.7674 34.0557 44.7085L41.2179 38.5981L55.0649 44.7998H55.0973C54.7205 47.6554 53.3163 50.276 51.1472 52.1712C48.9782 54.0664 46.193 55.1064 43.3126 55.0967Z" fill="white"/>
</svg>
