<svg width="61" height="49" viewBox="0 0 61 49" fill="none" xmlns="http://www.w3.org/2000/svg">
<path d="M3.42737 48.35H6.4688C8.37546 48.35 9.86978 46.881 9.86978 44.9743V40.6453C15.592 41.006 23.8641 41.2633 30.4868 41.2633C37.1359 41.2633 45.408 41.006 51.1302 40.6453V44.9743C51.1302 46.881 52.5993 48.35 54.5312 48.35H57.5726C59.5057 48.35 61 46.881 61 44.9743V30.1048C61 25.7747 60.1236 23.3259 57.7277 20.2339L55.5626 17.4245C54.6093 12.7865 52.9082 7.91537 52.0066 6.00871C50.6398 3.09593 47.9601 1.3685 44.5328 0.905582C42.8064 0.698862 37.1623 0.544922 30.4868 0.544922C23.8388 0.544922 18.1936 0.725252 16.4672 0.905582C13.0399 1.31792 10.3602 3.09593 8.99452 6.00761C8.09287 7.91537 6.39073 12.7865 5.4374 17.4245L3.27233 20.2339C0.875261 23.327 0 25.7747 0 30.1048V44.9743C0 46.881 1.49542 48.35 3.42737 48.35ZM10.6439 15.2858C11.2618 12.4511 12.4989 8.76534 13.3488 7.26992C14.0449 6.06039 14.7926 5.54359 16.1846 5.36436C18.1419 5.08067 22.5237 4.92563 30.4868 4.92563C38.4763 4.92563 42.857 5.02899 44.8165 5.36436C46.1821 5.56998 46.9287 6.05929 47.6512 7.27102C48.5275 8.74005 49.6865 12.45 50.3561 15.2858C50.5892 16.2392 50.2022 16.5998 49.1972 16.5228C44.9198 16.2655 39.8167 15.9819 30.4868 15.9819C21.1844 15.9819 16.0813 16.2655 11.8028 16.5228C10.7978 16.5998 10.4372 16.2392 10.6428 15.2858M11.6984 34.5888C9.25072 34.5888 7.42103 32.7328 7.42103 30.3104C7.42103 27.8617 9.25072 26.0331 11.6984 26.0331C14.1471 26.0331 15.9768 27.8617 15.9768 30.3104C15.9768 32.7328 14.1471 34.5877 11.6995 34.5877M49.3005 34.5877C46.8518 34.5877 45.0232 32.7317 45.0232 30.3093C45.0232 27.8606 46.8518 26.032 49.3005 26.032C51.7229 26.032 53.5779 27.8606 53.5779 30.3093C53.5779 32.7317 51.7229 34.5877 49.3005 34.5877ZM23.6584 33.4013C21.854 33.4013 20.5906 32.1126 20.5906 30.3082C20.5906 28.4785 21.854 27.2162 23.6584 27.2162H37.3427C39.146 27.2162 40.4094 28.4785 40.4094 30.3082C40.4094 32.1115 39.146 33.4013 37.3416 33.4013H23.6584Z" fill="white"/>
</svg>
