<svg width="343" height="325" viewBox="0 0 343 325" fill="none" xmlns="http://www.w3.org/2000/svg">
<g filter="url(#filter0_d_1854_8873)">
<path d="M332.993 127.643C289.292 102.034 239.753 88.06 189.111 87.0555C138.469 86.051 88.4157 98.0496 43.7329 121.905L118.853 266.183C138.96 255.448 161.437 250.695 184.226 251.147C207.015 251.599 232.548 255.966 252.213 267.49L332.993 127.643Z" fill="#3C4043"/>
<path d="M334.874 128.729L335.953 126.86L334.091 125.769C290.069 99.9728 240.168 85.8962 189.154 84.8843C138.141 83.8724 87.7205 95.959 42.7102 119.989L40.8142 121.002L41.8067 122.908L116.927 267.186L117.94 269.132L119.876 268.098C139.62 257.557 161.723 252.872 184.183 253.318C206.789 253.766 231.901 258.104 251.115 269.364L253.001 270.468L254.094 268.576L334.874 128.729Z" stroke="#252829" stroke-width="4.34324"/>
</g>
<path d="M150.846 205.594H155.147C157.843 205.594 159.955 203.517 159.955 200.821V194.7C168.046 195.21 179.743 195.574 189.107 195.574C198.509 195.574 210.205 195.21 218.296 194.7V200.821C218.296 203.517 220.373 205.594 223.105 205.594H227.405C230.139 205.594 232.251 203.517 232.251 200.821V179.796C232.251 173.674 231.012 170.211 227.624 165.839L224.563 161.867C223.215 155.309 220.81 148.422 219.535 145.726C217.603 141.607 213.814 139.165 208.967 138.51C206.526 138.218 198.546 138 189.107 138C179.707 138 171.725 138.255 169.284 138.51C164.438 139.093 160.649 141.607 158.718 145.724C157.443 148.422 155.036 155.309 153.688 161.867L150.627 165.839C147.238 170.213 146 173.674 146 179.796V200.821C146 203.517 148.114 205.594 150.846 205.594ZM161.05 158.843C161.924 154.835 163.673 149.623 164.875 147.509C165.859 145.799 166.916 145.068 168.884 144.814C171.652 144.413 177.848 144.194 189.107 144.194C200.404 144.194 206.598 144.34 209.369 144.814C211.3 145.105 212.355 145.797 213.377 147.51C214.616 149.588 216.255 154.833 217.201 158.843C217.531 160.191 216.984 160.701 215.563 160.592C209.515 160.228 202.299 159.827 189.107 159.827C175.954 159.827 168.738 160.228 162.689 160.592C161.268 160.701 160.758 160.191 161.048 158.843M162.541 186.137C159.08 186.137 156.493 183.512 156.493 180.087C156.493 176.625 159.08 174.039 162.541 174.039C166.003 174.039 168.591 176.625 168.591 180.087C168.591 183.512 166.003 186.135 162.543 186.135M215.709 186.135C212.246 186.135 209.661 183.511 209.661 180.086C209.661 176.623 212.246 174.038 215.709 174.038C219.134 174.038 221.757 176.623 221.757 180.086C221.757 183.511 219.134 186.135 215.709 186.135ZM179.452 184.458C176.901 184.458 175.114 182.635 175.114 180.084C175.114 177.497 176.901 175.712 179.452 175.712H198.801C201.351 175.712 203.137 177.497 203.137 180.084C203.137 182.634 201.351 184.458 198.799 184.458H179.452Z" fill="white"/>
<defs>
<filter id="filter0_d_1854_8873" x="34.1871" y="82.6543" width="308.434" height="198.209" filterUnits="userSpaceOnUse" color-interpolation-filters="sRGB">
<feFlood flood-opacity="0" result="BackgroundImageFix"/>
<feColorMatrix in="SourceAlpha" type="matrix" values="0 0 0 0 0 0 0 0 0 0 0 0 0 0 0 0 0 0 127 0" result="hardAlpha"/>
<feOffset dy="3.70829"/>
<feGaussianBlur stdDeviation="1.85415"/>
<feComposite in2="hardAlpha" operator="out"/>
<feColorMatrix type="matrix" values="0 0 0 0 0 0 0 0 0 0 0 0 0 0 0 0 0 0 0.25 0"/>
<feBlend mode="normal" in2="BackgroundImageFix" result="effect1_dropShadow_1854_8873"/>
<feBlend mode="normal" in="SourceGraphic" in2="effect1_dropShadow_1854_8873" result="shape"/>
</filter>
</defs>
</svg>
