<?xml version="1.0" encoding="UTF-8" standalone="no"?>
<svg
   width="311.5777"
   height="200.22925"
   viewBox="0 0 308.434 198.20901"
   fill="none"
   version="1.1"
   id="svg7"
   sodipodi:docname="car2.svg"
   inkscape:version="1.3.2 (091e20e, 2023-11-25, custom)"
   xmlns:inkscape="http://www.inkscape.org/namespaces/inkscape"
   xmlns:sodipodi="http://sodipodi.sourceforge.net/DTD/sodipodi-0.dtd"
   xmlns="http://www.w3.org/2000/svg"
   xmlns:svg="http://www.w3.org/2000/svg">
  <sodipodi:namedview
     id="namedview7"
     pagecolor="#505050"
     bordercolor="#eeeeee"
     borderopacity="1"
     inkscape:showpageshadow="0"
     inkscape:pageopacity="0"
     inkscape:pagecheckerboard="0"
     inkscape:deskcolor="#505050"
     inkscape:zoom="3.6338462"
     inkscape:cx="137.45766"
     inkscape:cy="79.942845"
     inkscape:window-width="2560"
     inkscape:window-height="1377"
     inkscape:window-x="-8"
     inkscape:window-y="-8"
     inkscape:window-maximized="1"
     inkscape:current-layer="svg7" />
  <g
     filter="url(#filter0_d_1865_8889)"
     id="g2"
     transform="translate(-34.187199,-82.654297)">
    <path
       d="M 332.993,127.643 C 289.292,102.034 239.753,88.06 189.111,87.0555 138.469,86.051 88.4157,98.0496 43.7329,121.905 l 75.1201,144.278 c 20.107,-10.735 42.584,-15.488 65.373,-15.036 22.789,0.452 48.322,4.819 67.987,16.343 z"
       fill="url(#paint0_linear_1865_8889)"
       id="path1"
       style="fill:url(#paint0_linear_1865_8889)" />
    <path
       d="m 334.874,128.729 1.079,-1.869 -1.862,-1.091 C 290.069,99.9728 240.168,85.8962 189.154,84.8843 138.141,83.8724 87.7205,95.959 42.7102,119.989 l -1.896,1.013 0.9925,1.906 75.1203,144.278 1.013,1.946 1.936,-1.034 c 19.744,-10.541 41.847,-15.226 64.307,-14.78 22.606,0.448 47.718,4.786 66.932,16.046 l 1.886,1.104 1.093,-1.892 z"
       stroke="#ffffff"
       stroke-width="4.34324"
       id="path2" />
  </g>
  <path
     d="m 113.6588,122.9397 h 4.301 c 2.696,0 4.808,-2.077 4.808,-4.773 v -6.121 c 8.091,0.51 19.788,0.874 29.152,0.874 9.402,0 21.098,-0.364 29.189,-0.874 v 6.121 c 0,2.696 2.077,4.773 4.809,4.773 h 4.3 c 2.734,0 4.846,-2.077 4.846,-4.773 V 97.141703 c 0,-6.122 -1.239,-9.585 -4.627,-13.957 l -3.061,-3.972 c -1.348,-6.558 -3.753,-13.445 -5.028,-16.141 -1.932,-4.119 -5.721,-6.561 -10.568,-7.216 -2.44,-0.292 -10.421,-0.51 -19.86,-0.51 -9.4,0 -17.382,0.255 -19.823,0.51 -4.846,0.583 -8.635,3.097 -10.566,7.214 -1.275,2.698 -3.682,9.585 -5.03,16.143 l -3.061,3.972 c -3.389,4.374 -4.627,7.835 -4.627,13.957 V 118.1667 c 0,2.696 2.114,4.773 4.846,4.773 z m 10.204,-46.750997 c 0.874,-4.008 2.623,-9.22 3.825,-11.334 0.984,-1.71 2.041,-2.441 4.009,-2.695 2.768,-0.401 8.964,-0.62 20.223,-0.62 11.297,0 17.491,0.146 20.262,0.62 1.931,0.291 2.986,0.983 4.008,2.696 1.239,2.078 2.878,7.323 3.824,11.333 0.33,1.348 -0.217,1.858 -1.638,1.749 -6.048,-0.364 -13.264,-0.765 -26.456,-0.765 -13.153,0 -20.369,0.401 -26.418,0.765 -1.421,0.109 -1.931,-0.401 -1.641,-1.749 m 1.493,27.293997 c -3.461,0 -6.048,-2.625 -6.048,-6.049997 0,-3.462 2.587,-6.048 6.048,-6.048 3.462,0 6.05,2.586 6.05,6.048 0,3.424997 -2.588,6.047997 -6.048,6.047997 m 53.166,0 c -3.463,0 -6.048,-2.624 -6.048,-6.048997 0,-3.463 2.585,-6.048 6.048,-6.048 3.425,0 6.048,2.585 6.048,6.048 0,3.424997 -2.623,6.048997 -6.048,6.048997 z m -36.257,-1.677 c -2.551,0 -4.338,-1.822997 -4.338,-4.373997 0,-2.587 1.787,-4.372 4.338,-4.372 h 19.349 c 2.55,0 4.336,1.785 4.336,4.372 0,2.55 -1.786,4.373997 -4.338,4.373997 z"
     fill="#ffffff"
     id="path3" />
  <defs
     id="defs7">
    <filter
       id="filter0_d_1865_8889"
       x="34.187199"
       y="82.654297"
       width="308.43399"
       height="198.209"
       filterUnits="userSpaceOnUse"
       color-interpolation-filters="sRGB">
      <feFlood
         flood-opacity="0"
         result="BackgroundImageFix"
         id="feFlood3" />
      <feColorMatrix
         in="SourceAlpha"
         type="matrix"
         values="0 0 0 0 0 0 0 0 0 0 0 0 0 0 0 0 0 0 127 0"
         result="hardAlpha"
         id="feColorMatrix3" />
      <feOffset
         dy="3.70829"
         id="feOffset3" />
      <feGaussianBlur
         stdDeviation="1.85415"
         id="feGaussianBlur3" />
      <feComposite
         in2="hardAlpha"
         operator="out"
         id="feComposite3" />
      <feColorMatrix
         type="matrix"
         values="0 0 0 0 0 0 0 0 0 0 0 0 0 0 0 0 0 0 0.25 0"
         id="feColorMatrix4" />
      <feBlend
         mode="normal"
         in2="BackgroundImageFix"
         result="effect1_dropShadow_1865_8889"
         id="feBlend4" />
      <feBlend
         mode="normal"
         in="SourceGraphic"
         in2="effect1_dropShadow_1865_8889"
         result="shape"
         id="feBlend5" />
    </filter>
    <linearGradient
       id="paint0_linear_1865_8889"
       x1="133.522"
       y1="292.5"
       x2="259.022"
       y2="-44.000198"
       gradientUnits="userSpaceOnUse">
      <stop
         stop-color="#D4671B"
         id="stop5" />
      <stop
         stop-color="#D56A1D"
         id="stop6" />
      <stop
         offset="1"
         stop-color="#E5882F"
         id="stop7" />
    </linearGradient>
  </defs>
</svg>
