<svg width="343" height="325" viewBox="0 0 343 325" fill="none" xmlns="http://www.w3.org/2000/svg">
<g filter="url(#filter0_d_1865_8889)">
<path d="M332.993 127.643C289.292 102.034 239.753 88.06 189.111 87.0555C138.469 86.051 88.4157 98.0496 43.7329 121.905L118.853 266.183C138.96 255.448 161.437 250.695 184.226 251.147C207.015 251.599 232.548 255.966 252.213 267.49L332.993 127.643Z" fill="url(#paint0_linear_1865_8889)"/>
<path d="M334.874 128.729L335.953 126.86L334.091 125.769C290.069 99.9728 240.168 85.8962 189.154 84.8843C138.141 83.8724 87.7205 95.959 42.7102 119.989L40.8142 121.002L41.8067 122.908L116.927 267.186L117.94 269.132L119.876 268.098C139.62 257.557 161.723 252.872 184.183 253.318C206.789 253.766 231.901 258.104 251.115 269.364L253.001 270.468L254.094 268.576L334.874 128.729Z" stroke="white" stroke-width="4.34324"/>
</g>
<path d="M147.846 205.594H152.147C154.843 205.594 156.955 203.517 156.955 200.821V194.7C165.046 195.21 176.743 195.574 186.107 195.574C195.509 195.574 207.205 195.21 215.296 194.7V200.821C215.296 203.517 217.373 205.594 220.105 205.594H224.405C227.139 205.594 229.251 203.517 229.251 200.821V179.796C229.251 173.674 228.012 170.211 224.624 165.839L221.563 161.867C220.215 155.309 217.81 148.422 216.535 145.726C214.603 141.607 210.814 139.165 205.967 138.51C203.526 138.218 195.546 138 186.107 138C176.707 138 168.725 138.255 166.284 138.51C161.438 139.093 157.649 141.607 155.718 145.724C154.443 148.422 152.036 155.309 150.688 161.867L147.627 165.839C144.238 170.213 143 173.674 143 179.796V200.821C143 203.517 145.114 205.594 147.846 205.594ZM158.05 158.843C158.924 154.835 160.673 149.623 161.875 147.509C162.859 145.799 163.916 145.068 165.884 144.814C168.652 144.413 174.848 144.194 186.107 144.194C197.404 144.194 203.598 144.34 206.369 144.814C208.3 145.105 209.355 145.797 210.377 147.51C211.616 149.588 213.255 154.833 214.201 158.843C214.531 160.191 213.984 160.701 212.563 160.592C206.515 160.228 199.299 159.827 186.107 159.827C172.954 159.827 165.738 160.228 159.689 160.592C158.268 160.701 157.758 160.191 158.048 158.843M159.541 186.137C156.08 186.137 153.493 183.512 153.493 180.087C153.493 176.625 156.08 174.039 159.541 174.039C163.003 174.039 165.591 176.625 165.591 180.087C165.591 183.512 163.003 186.135 159.543 186.135M212.709 186.135C209.246 186.135 206.661 183.511 206.661 180.086C206.661 176.623 209.246 174.038 212.709 174.038C216.134 174.038 218.757 176.623 218.757 180.086C218.757 183.511 216.134 186.135 212.709 186.135ZM176.452 184.458C173.901 184.458 172.114 182.635 172.114 180.084C172.114 177.497 173.901 175.712 176.452 175.712H195.801C198.351 175.712 200.137 177.497 200.137 180.084C200.137 182.634 198.351 184.458 195.799 184.458H176.452Z" fill="white"/>
<defs>
<filter id="filter0_d_1865_8889" x="34.1872" y="82.6543" width="308.434" height="198.209" filterUnits="userSpaceOnUse" color-interpolation-filters="sRGB">
<feFlood flood-opacity="0" result="BackgroundImageFix"/>
<feColorMatrix in="SourceAlpha" type="matrix" values="0 0 0 0 0 0 0 0 0 0 0 0 0 0 0 0 0 0 127 0" result="hardAlpha"/>
<feOffset dy="3.70829"/>
<feGaussianBlur stdDeviation="1.85415"/>
<feComposite in2="hardAlpha" operator="out"/>
<feColorMatrix type="matrix" values="0 0 0 0 0 0 0 0 0 0 0 0 0 0 0 0 0 0 0.25 0"/>
<feBlend mode="normal" in2="BackgroundImageFix" result="effect1_dropShadow_1865_8889"/>
<feBlend mode="normal" in="SourceGraphic" in2="effect1_dropShadow_1865_8889" result="shape"/>
</filter>
<linearGradient id="paint0_linear_1865_8889" x1="133.522" y1="292.5" x2="259.022" y2="-44.0002" gradientUnits="userSpaceOnUse">
<stop stop-color="#D4671B"/>
<stop stop-color="#D56A1D"/>
<stop offset="1" stop-color="#E5882F"/>
</linearGradient>
</defs>
</svg>
