<svg width="14" height="14" viewBox="0 0 14 14" fill="none" xmlns="http://www.w3.org/2000/svg">
<path d="M6.91967 5.09337C7.77301 5.13337 7.99301 5.86004 8.00634 6.20004H9.19967C9.14634 4.88004 8.20634 4.07337 6.89967 4.07337C5.42634 4.07337 4.33301 5.00004 4.33301 7.09337C4.33301 8.38671 4.95301 9.92004 6.89301 9.92004C8.37301 9.92004 9.16634 8.82004 9.18634 7.95337H7.99301C7.97301 8.34671 7.69301 8.87337 6.90634 8.91337C6.03301 8.88671 5.66634 8.20671 5.66634 7.09337C5.66634 5.16671 6.51967 5.10671 6.91967 5.09337ZM6.99967 0.333374C3.31967 0.333374 0.333008 3.32004 0.333008 7.00004C0.333008 10.68 3.31967 13.6667 6.99967 13.6667C10.6797 13.6667 13.6663 10.68 13.6663 7.00004C13.6663 3.32004 10.6797 0.333374 6.99967 0.333374ZM6.99967 12.3334C4.05967 12.3334 1.66634 9.94004 1.66634 7.00004C1.66634 4.06004 4.05967 1.66671 6.99967 1.66671C9.93967 1.66671 12.333 4.06004 12.333 7.00004C12.333 9.94004 9.93967 12.3334 6.99967 12.3334Z" fill="white"/>
</svg>
