<svg width="71" height="69" viewBox="0 0 71 69" fill="none" xmlns="http://www.w3.org/2000/svg">
<path d="M35.4669 64.9416C52.5425 64.9416 66.385 50.7588 66.385 33.2633C66.385 15.7678 52.5425 1.58496 35.4669 1.58496C18.3913 1.58496 4.54883 15.7678 4.54883 33.2633C4.54883 50.7588 18.3913 64.9416 35.4669 64.9416Z" fill="black"/>
<path d="M35.4652 66.4767C29.048 66.4817 22.7735 64.5365 17.4355 60.8872C12.0974 57.238 7.93559 52.0486 5.47646 45.9756C3.01734 39.9025 2.37141 33.2186 3.62036 26.7693C4.86932 20.32 7.95705 14.3952 12.493 9.7442C17.0289 5.09321 22.8092 1.92508 29.1028 0.640526C35.3963 -0.644023 41.9203 0.0127255 47.8495 2.52772C53.7787 5.04271 58.8467 9.30293 62.4124 14.7695C65.9781 20.2361 67.8813 26.6634 67.8813 33.2383C67.8748 42.0473 64.4583 50.4939 58.3812 56.7252C52.3041 62.9564 44.0628 66.4634 35.4652 66.4767ZM35.4652 3.09486C29.6368 3.09486 23.9392 4.86571 19.093 8.18345C14.2468 11.5012 10.4697 16.2168 8.23925 21.734C6.0088 27.2512 5.42521 33.3222 6.56229 39.1792C7.69936 45.0362 10.506 50.4162 14.6274 54.6389C18.7487 58.8616 23.9996 61.7373 29.7161 62.9023C35.4325 64.0673 41.3578 63.4694 46.7426 61.1841C52.1274 58.8988 56.7298 55.0288 59.968 50.0635C63.2061 45.0981 64.9344 39.2604 64.9344 33.2887C64.9344 29.3236 64.1722 25.3973 62.6912 21.734C61.2102 18.0707 59.0395 14.7422 56.3031 11.9384C53.5666 9.13467 50.318 6.91061 46.7426 5.39323C43.1672 3.87585 39.3352 3.09486 35.4652 3.09486Z" fill="white"/>
<path d="M52.1707 39.5473L43.2197 35.5363L43.195 35.5249C42.7303 35.3262 42.2234 35.2464 41.7201 35.2929C41.2169 35.3393 40.7331 35.5105 40.3127 35.7909C40.2631 35.8236 40.2156 35.8592 40.1702 35.8973L35.5455 39.8399C32.6157 38.4168 29.5908 35.4147 28.1677 32.5229L32.116 27.8279C32.154 27.7804 32.1901 27.7329 32.2243 27.6816C32.4987 27.2623 32.6652 26.7817 32.7089 26.2824C32.7527 25.7832 32.6724 25.2809 32.4751 24.8202V24.7974L28.4527 15.8312C28.1919 15.2294 27.7435 14.7281 27.1744 14.4021C26.6053 14.0761 25.946 13.9429 25.2949 14.0224C22.7203 14.3612 20.3571 15.6256 18.6466 17.5794C16.9361 19.5333 15.9954 22.0429 16 24.6397C16 39.7259 28.2741 52 43.3603 52C45.9571 52.0046 48.4667 51.0639 50.4206 49.3534C52.3744 47.6429 53.6388 45.2797 53.9776 42.7051C54.0572 42.0543 53.9243 41.3951 53.5987 40.826C53.273 40.2569 52.7721 39.8084 52.1707 39.5473ZM43.3603 48.96C36.9123 48.9529 30.7305 46.3883 26.1711 41.8289C21.6117 37.2695 19.0471 31.0877 19.04 24.6397C19.0329 22.7843 19.7013 20.9898 20.9206 19.5912C22.1398 18.1926 23.8264 17.2856 25.6654 17.0396C25.6647 17.0472 25.6647 17.0549 25.6654 17.0624L29.6555 25.9925L25.7281 30.6932C25.6882 30.739 25.652 30.788 25.6198 30.8395C25.3339 31.2782 25.1662 31.7834 25.1329 32.306C25.0996 32.8287 25.2019 33.351 25.4298 33.8225C27.1512 37.3432 30.6986 40.864 34.2573 42.5835C34.7322 42.8093 35.2576 42.9081 35.7821 42.8701C36.3067 42.8321 36.8124 42.6587 37.2498 42.3669C37.2986 42.334 37.3455 42.2985 37.3904 42.2605L42.0094 38.3199L50.9395 42.3194H50.9604C50.7174 44.161 49.8117 45.851 48.4129 47.0732C47.0141 48.2955 45.2179 48.9662 43.3603 48.96Z" fill="white"/>
</svg>
