<svg width="73" height="72" viewBox="0 0 73 72" fill="none" xmlns="http://www.w3.org/2000/svg">
<g filter="url(#filter0_dd_53_38673)">
<path d="M69.7295 33.0816C69.7295 51.352 54.9184 66.1631 36.648 66.1631C18.3775 66.1631 3.56641 51.352 3.56641 33.0816C3.56641 14.8111 18.3775 0 36.648 0C54.9184 0 69.7295 14.8111 69.7295 33.0816Z" fill="#FF8828"/>
</g>
<path d="M54.3075 23.6931C54.3075 21.8681 52.6881 20.375 50.7088 20.375H21.9194C19.9401 20.375 18.3207 21.8681 18.3207 23.6931V43.6017C18.3207 45.4266 19.9401 46.9198 21.9194 46.9198H50.7088C52.6881 46.9198 54.3075 45.4266 54.3075 43.6017V23.6931ZM50.7088 23.6931L36.3141 31.9883L21.9194 23.6931H50.7088ZM50.7088 43.6017H21.9194V27.0112L36.3141 35.3064L50.7088 27.0112V43.6017Z" fill="white"/>
<defs>
<filter id="filter0_dd_53_38673" x="0.756023" y="0" width="71.7839" height="71.7848" filterUnits="userSpaceOnUse" color-interpolation-filters="sRGB">
<feFlood flood-opacity="0" result="BackgroundImageFix"/>
<feColorMatrix in="SourceAlpha" type="matrix" values="0 0 0 0 0 0 0 0 0 0 0 0 0 0 0 0 0 0 127 0" result="hardAlpha"/>
<feOffset dy="2.81038"/>
<feGaussianBlur stdDeviation="1.40519"/>
<feComposite in2="hardAlpha" operator="out"/>
<feColorMatrix type="matrix" values="0 0 0 0 0 0 0 0 0 0 0 0 0 0 0 0 0 0 0.25 0"/>
<feBlend mode="normal" in2="BackgroundImageFix" result="effect1_dropShadow_53_38673"/>
<feColorMatrix in="SourceAlpha" type="matrix" values="0 0 0 0 0 0 0 0 0 0 0 0 0 0 0 0 0 0 127 0" result="hardAlpha"/>
<feOffset dy="2.81038"/>
<feGaussianBlur stdDeviation="1.40519"/>
<feComposite in2="hardAlpha" operator="out"/>
<feColorMatrix type="matrix" values="0 0 0 0 0 0 0 0 0 0 0 0 0 0 0 0 0 0 0.25 0"/>
<feBlend mode="normal" in2="effect1_dropShadow_53_38673" result="effect2_dropShadow_53_38673"/>
<feBlend mode="normal" in="SourceGraphic" in2="effect2_dropShadow_53_38673" result="shape"/>
</filter>
</defs>
</svg>
