<svg width="29" height="27" viewBox="0 0 29 27" fill="none" xmlns="http://www.w3.org/2000/svg">
<path d="M26.9902 17.7048L20.3398 14.9395L20.3215 14.9317C19.9762 14.7947 19.5996 14.7397 19.2257 14.7717C18.8518 14.8037 18.4923 14.9217 18.18 15.1151C18.1432 15.1376 18.1078 15.1621 18.0741 15.1884L14.6381 17.9065C12.4613 16.9254 10.2139 14.8557 9.15656 12.862L12.09 9.62517C12.1182 9.59242 12.1451 9.55968 12.1705 9.52431C12.3744 9.23521 12.4981 8.90382 12.5306 8.55964C12.5631 8.21546 12.5034 7.86916 12.3568 7.55156V7.53584L9.36831 1.3543C9.17454 0.9394 8.84137 0.593777 8.41852 0.369024C7.99567 0.144272 7.50583 0.0524448 7.02211 0.107251C5.10926 0.340819 3.35344 1.21252 2.08259 2.55956C0.811736 3.90659 0.112765 5.63683 0.116224 7.42711C0.116224 17.8279 9.23561 26.29 20.4443 26.29C22.3736 26.2933 24.2382 25.6447 25.6899 24.4654C27.1416 23.2861 28.081 21.6569 28.3327 19.8819C28.3919 19.4332 28.2931 18.9788 28.0512 18.5864C27.8092 18.1941 27.4371 17.8848 26.9902 17.7048ZM20.4443 24.1942C15.6536 24.1893 11.0606 22.4212 7.67307 19.2778C4.28554 16.1345 2.38013 11.8725 2.3749 7.42711C2.36959 6.14796 2.86623 4.91074 3.77208 3.94652C4.67793 2.9823 5.93104 2.357 7.29739 2.18741C7.29683 2.19264 7.29683 2.1979 7.29739 2.20313L10.2619 8.35978L7.34397 11.6005C7.31436 11.6322 7.28745 11.6659 7.26351 11.7014C7.05107 12.0039 6.92645 12.3522 6.90172 12.7125C6.87699 13.0728 6.95298 13.4329 7.12234 13.758C8.40132 16.1853 11.0369 18.6126 13.681 19.7981C14.0338 19.9537 14.4242 20.0218 14.8139 19.9956C15.2036 19.9695 15.5793 19.8499 15.9043 19.6487C15.9406 19.6261 15.9755 19.6016 16.0088 19.5754L19.4406 16.8586L26.0754 19.616H26.091C25.9104 20.8856 25.2376 22.0508 24.1983 22.8934C23.159 23.7361 21.8244 24.1985 20.4443 24.1942Z" fill="#FF8828"/>
</svg>
