<svg width="24" height="30" viewBox="0 0 24 30" fill="none" xmlns="http://www.w3.org/2000/svg">
<path d="M0.699219 3C0.699219 2.20435 1.00531 1.44129 1.55016 0.878679C2.09501 0.31607 2.83398 0 3.60451 0H15.2257C15.6109 8.49561e-05 15.9803 0.158176 16.2527 0.4395L23.5159 7.9395C23.7884 8.22074 23.9415 8.60221 23.9416 9V27C23.9416 27.7956 23.6355 28.5587 23.0906 29.1213C22.5458 29.6839 21.8068 30 21.0363 30H3.60451C2.83398 30 2.09501 29.6839 1.55016 29.1213C1.00531 28.5587 0.699219 27.7956 0.699219 27V3ZM20.4349 9L15.2257 3.621V9H20.4349ZM12.3204 3H3.60451V27H21.0363V12H13.773C13.3878 12 13.0183 11.842 12.7459 11.5607C12.4734 11.2794 12.3204 10.8978 12.3204 10.5V3ZM6.5098 16.5C6.5098 16.1022 6.66285 15.7206 6.93527 15.4393C7.2077 15.158 7.57718 15 7.96245 15H16.6783C17.0636 15 17.4331 15.158 17.7055 15.4393C17.9779 15.7206 18.131 16.1022 18.131 16.5C18.131 16.8978 17.9779 17.2794 17.7055 17.5607C17.4331 17.842 17.0636 18 16.6783 18H7.96245C7.57718 18 7.2077 17.842 6.93527 17.5607C6.66285 17.2794 6.5098 16.8978 6.5098 16.5ZM6.5098 22.5C6.5098 22.1022 6.66285 21.7206 6.93527 21.4393C7.2077 21.158 7.57718 21 7.96245 21H16.6783C17.0636 21 17.4331 21.158 17.7055 21.4393C17.9779 21.7206 18.131 22.1022 18.131 22.5C18.131 22.8978 17.9779 23.2794 17.7055 23.5607C17.4331 23.842 17.0636 24 16.6783 24H7.96245C7.57718 24 7.2077 23.842 6.93527 23.5607C6.66285 23.2794 6.5098 22.8978 6.5098 22.5Z" fill="#FF8828"/>
</svg>
