<svg width="39" height="39" viewBox="0 0 39 39" fill="none" xmlns="http://www.w3.org/2000/svg">
<path d="M37.5744 11.77L35.8507 13.4945L25.5077 3.15288L27.2314 1.42822C29.1355 -0.476074 32.2232 -0.476074 34.1274 1.42822L37.5744 4.87616C39.4759 6.77942 39.4759 9.86582 37.5744 11.77ZM13.4417 32.4518C12.9657 32.9278 12.9657 33.6987 13.4417 34.1748C13.918 34.6534 14.6893 34.6534 15.1653 34.1748L34.1274 15.2179L32.4018 13.4932L13.4417 32.4518ZM4.82263 23.8347C4.3464 24.3111 4.3464 25.0817 4.82263 25.558C5.29863 26.0341 6.06993 26.0341 6.54616 25.558L25.5077 6.59969L23.7847 4.87616L4.82263 23.8347ZM27.2292 8.32194L8.26929 27.2814C7.31722 28.2316 7.31963 29.7764 8.26929 30.7285C9.22176 31.6806 10.764 31.685 11.7186 30.7259L30.6785 11.77L27.2292 8.32194ZM11.7137 35.8939C11.1307 35.3102 10.8497 34.5705 10.7452 33.8083C10.4973 33.8465 10.2478 33.8821 9.99282 33.8821C8.69055 33.8821 7.46745 33.3731 6.54616 32.4518C5.62488 31.5282 5.11786 30.3068 5.11786 29.0047C5.11786 28.7673 5.15347 28.5358 5.1869 28.3052C4.39897 28.1979 3.67067 27.8527 3.09935 27.2814C3.04453 27.227 3.02564 27.1531 2.97573 27.0935L0 39L11.8756 36.0272C11.8233 35.9795 11.764 35.9438 11.7137 35.8939Z" fill="white"/>
</svg>
