<svg width="90" height="90" viewBox="0 0 90 90" fill="none" xmlns="http://www.w3.org/2000/svg">
<path d="M42.6889 45.4566C42.6889 43.4813 42.048 41.7949 40.7661 40.3973C39.4842 38.9996 37.9374 38.3008 36.1257 38.3008C34.314 38.3008 32.7672 38.9996 31.4854 40.3973C30.2035 41.7949 29.5625 43.4813 29.5625 45.4566C29.5625 47.4319 30.2035 49.1183 31.4854 50.516C32.7672 51.9136 34.314 52.6124 36.1257 52.6124C37.9374 52.6124 39.4842 51.9136 40.7661 50.516C42.048 49.1183 42.6889 47.4319 42.6889 45.4566ZM62.3785 59.7681C62.3785 58.7991 62.0537 57.9606 61.4042 57.2524C60.7548 56.5443 59.9856 56.1903 59.0969 56.1903C58.2081 56.1903 57.439 56.5443 56.7895 57.2524C56.14 57.9606 55.8153 58.7991 55.8153 59.7681C55.8153 60.7558 56.1357 61.599 56.7767 62.2978C57.4176 62.9966 58.191 63.346 59.0969 63.346C60.0027 63.346 60.7761 62.9966 61.4171 62.2978C62.058 61.599 62.3785 60.7558 62.3785 59.7681ZM62.3785 31.1451C62.3785 30.1761 62.0537 29.3375 61.4042 28.6294C60.7548 27.9212 59.9856 27.5672 59.0969 27.5672C58.2081 27.5672 57.439 27.9212 56.7895 28.6294C56.14 29.3375 55.8153 30.1761 55.8153 31.1451C55.8153 32.1327 56.1357 32.9759 56.7767 33.6747C57.4176 34.3735 58.191 34.7229 59.0969 34.7229C60.0027 34.7229 60.7761 34.3735 61.4171 33.6747C62.058 32.9759 62.3785 32.1327 62.3785 31.1451ZM52.5337 42.913V48.0841C52.5337 48.2705 52.4739 48.4522 52.3542 48.6292C52.2346 48.8062 52.0979 48.904 51.944 48.9227L47.9702 49.5935C47.7822 50.2458 47.5088 50.9539 47.1498 51.7179C47.7309 52.6124 48.5001 53.6839 49.4572 54.9324C49.5768 55.1374 49.6367 55.3237 49.6367 55.4915C49.6367 55.7151 49.5768 55.8921 49.4572 56.0225C49.0641 56.5816 48.3591 57.4155 47.3421 58.5243C46.3252 59.633 45.6543 60.1874 45.3296 60.1874C45.1416 60.1874 44.9621 60.1222 44.7912 59.9918L41.8429 57.4761C41.2105 57.8301 40.5525 58.119 39.8688 58.3426C39.6808 60.3551 39.4842 61.7993 39.2791 62.6752C39.1595 63.1224 38.9031 63.346 38.51 63.346H33.7415C33.5534 63.346 33.3825 63.2761 33.2287 63.1364C33.0749 62.9966 32.9894 62.8336 32.9723 62.6472L32.3827 58.3705C31.8016 58.1842 31.1606 57.8953 30.4599 57.504L27.4346 59.9918C27.315 60.1222 27.1441 60.1874 26.9219 60.1874C26.7339 60.1874 26.5544 60.1129 26.3835 59.9638C23.9223 57.4854 22.6917 55.9946 22.6917 55.4915C22.6917 55.3237 22.7515 55.1467 22.8712 54.9604C23.0421 54.6995 23.3925 54.2057 23.9223 53.4789C24.4522 52.7521 24.8538 52.1838 25.1273 51.7738C24.7342 50.9539 24.4351 50.1898 24.23 49.4817L20.3331 48.8109C20.1622 48.7922 20.0169 48.7037 19.8972 48.5453C19.7776 48.3869 19.7178 48.2052 19.7178 48.0003V42.8291C19.7178 42.6427 19.7776 42.4611 19.8972 42.284C20.0169 42.107 20.1536 42.0092 20.3074 41.9905L24.2812 41.3197C24.4692 40.6675 24.7427 39.9593 25.1016 39.1953C24.5205 38.3008 23.7514 37.2293 22.7943 35.9808C22.6746 35.7758 22.6148 35.5895 22.6148 35.4218C22.6148 35.1981 22.6746 35.0118 22.7943 34.8627C23.1703 34.3037 23.871 33.4744 24.8965 32.375C25.922 31.2755 26.5972 30.7258 26.9219 30.7258C27.1099 30.7258 27.2894 30.791 27.4603 30.9214L30.4086 33.4371C30.9897 33.1017 31.6477 32.8036 32.3827 32.5427C32.5707 30.5301 32.7672 29.0952 32.9723 28.238C33.092 27.7908 33.3483 27.5672 33.7415 27.5672H38.51C38.698 27.5672 38.8689 27.6371 39.0228 27.7768C39.1766 27.9166 39.262 28.0796 39.2791 28.266L39.8688 32.5427C40.4499 32.729 41.0908 33.0179 41.7916 33.4092L44.8168 30.9214C44.9536 30.791 45.1245 30.7258 45.3296 30.7258C45.5176 30.7258 45.697 30.8003 45.868 30.9494C48.3291 33.4278 49.5597 34.9186 49.5597 35.4218C49.5597 35.5708 49.4999 35.7479 49.3803 35.9528C49.1752 36.251 48.8163 36.7541 48.3035 37.4623C47.7908 38.1704 47.4062 38.7294 47.1498 39.1394C47.5429 40.0339 47.8335 40.7979 48.0215 41.4315L51.9184 42.0744C52.0893 42.1117 52.2346 42.2095 52.3542 42.3679C52.4739 42.5263 52.5337 42.708 52.5337 42.913ZM68.9416 57.8115V61.7248C68.9416 62.023 67.6683 62.3118 65.1217 62.5913C64.9166 63.0945 64.6602 63.579 64.3526 64.0448C65.2242 66.1506 65.6601 67.4364 65.6601 67.9022C65.6601 67.9768 65.6259 68.042 65.5575 68.0979C63.4723 69.421 62.4126 70.0825 62.3785 70.0825C62.2417 70.0825 61.8486 69.6446 61.1991 68.7688C60.5497 67.8929 60.1053 67.2593 59.866 66.868C59.5242 66.9053 59.2678 66.9239 59.0969 66.9239C58.926 66.9239 58.6696 66.9053 58.3277 66.868C58.0885 67.2593 57.6441 67.8929 56.9946 68.7688C56.3451 69.6446 55.952 70.0825 55.8153 70.0825C55.7811 70.0825 54.7214 69.421 52.6362 68.0979C52.5679 68.042 52.5337 67.9768 52.5337 67.9022C52.5337 67.4364 52.9695 66.1506 53.8412 64.0448C53.5336 63.579 53.2772 63.0945 53.0721 62.5913C50.5254 62.3118 49.2521 62.023 49.2521 61.7248V57.8115C49.2521 57.5133 50.5254 57.2245 53.0721 56.945C53.2943 56.4046 53.5506 55.9201 53.8412 55.4915C52.9695 53.3857 52.5337 52.0999 52.5337 51.634C52.5337 51.5595 52.5679 51.4943 52.6362 51.4384C52.7046 51.4011 53.0037 51.2148 53.5336 50.8793C54.0634 50.5439 54.5676 50.2271 55.0462 49.929C55.5247 49.6308 55.7811 49.4817 55.8153 49.4817C55.952 49.4817 56.3451 49.915 56.9946 50.7815C57.6441 51.648 58.0885 52.2769 58.3277 52.6683C58.6696 52.631 58.926 52.6124 59.0969 52.6124C59.2678 52.6124 59.5242 52.631 59.866 52.6683C60.7377 51.3452 61.5239 50.3017 62.2246 49.5376L62.3785 49.4817C62.4468 49.4817 63.5065 50.1339 65.5575 51.4384C65.6259 51.4943 65.6601 51.5595 65.6601 51.634C65.6601 52.0999 65.2242 53.3857 64.3526 55.4915C64.6431 55.9201 64.8995 56.4046 65.1217 56.945C67.6683 57.2245 68.9416 57.5133 68.9416 57.8115ZM68.9416 29.1884V33.1017C68.9416 33.3999 67.6683 33.6887 65.1217 33.9682C64.9166 34.4714 64.6602 34.9559 64.3526 35.4218C65.2242 37.5275 65.6601 38.8133 65.6601 39.2792C65.6601 39.3537 65.6259 39.4189 65.5575 39.4748C63.4723 40.7979 62.4126 41.4594 62.3785 41.4594C62.2417 41.4594 61.8486 41.0215 61.1991 40.1457C60.5497 39.2698 60.1053 38.6363 59.866 38.2449C59.5242 38.2822 59.2678 38.3008 59.0969 38.3008C58.926 38.3008 58.6696 38.2822 58.3277 38.2449C58.0885 38.6363 57.6441 39.2698 56.9946 40.1457C56.3451 41.0215 55.952 41.4594 55.8153 41.4594C55.7811 41.4594 54.7214 40.7979 52.6362 39.4748C52.5679 39.4189 52.5337 39.3537 52.5337 39.2792C52.5337 38.8133 52.9695 37.5275 53.8412 35.4218C53.5336 34.9559 53.2772 34.4714 53.0721 33.9682C50.5254 33.6887 49.2521 33.3999 49.2521 33.1017V29.1884C49.2521 28.8902 50.5254 28.6014 53.0721 28.3219C53.2943 27.7815 53.5506 27.297 53.8412 26.8684C52.9695 24.7626 52.5337 23.4768 52.5337 23.011C52.5337 22.9364 52.5679 22.8712 52.6362 22.8153C52.7046 22.778 53.0037 22.5917 53.5336 22.2563C54.0634 21.9208 54.5676 21.604 55.0462 21.3059C55.5247 21.0077 55.7811 20.8586 55.8153 20.8586C55.952 20.8586 56.3451 21.2919 56.9946 22.1584C57.6441 23.0249 58.0885 23.6539 58.3277 24.0452C58.6696 24.0079 58.926 23.9893 59.0969 23.9893C59.2678 23.9893 59.5242 24.0079 59.866 24.0452C60.7377 22.7221 61.5239 21.6786 62.2246 20.9145L62.3785 20.8586C62.4468 20.8586 63.5065 21.5109 65.5575 22.8153C65.6259 22.8712 65.6601 22.9364 65.6601 23.011C65.6601 23.4768 65.2242 24.7626 64.3526 26.8684C64.6431 27.297 64.8995 27.7815 65.1217 28.3219C67.6683 28.6014 68.9416 28.8902 68.9416 29.1884Z" fill="white"/>
</svg>
