<svg width="251" height="278" viewBox="0 0 251 278" fill="none" xmlns="http://www.w3.org/2000/svg">
<path d="M204.883 118.4C231.844 164.809 246.668 217.291 247.991 270.956L76.7613 273.879C75.9693 249.61 69.1735 225.901 56.9711 204.897C44.7172 183.803 26.2986 167.626 5.67268 155.114L93.8337 5.58304C139.718 33.1876 177.924 71.9929 204.883 118.4Z" fill="#021B2B" stroke="white" stroke-width="4.34324"/>
<path d="M175.366 135.766L172.921 133.457C171.702 132.306 169.414 133.05 167.891 133.457L148.998 113.94L128.833 106.706L125.684 109.896L143.361 126.782L81.9831 187.321C80.2081 189.119 80.144 193.495 81.9831 195.232L83.7486 196.9C85.5867 198.636 89.8832 197.977 91.6573 196.18L152.795 135.642C152.795 135.642 160.705 139.307 160.343 140.81C159.981 142.312 159.37 144.799 160.588 145.95L163.034 148.259C164.872 149.996 167.803 149.945 169.577 148.148L175.482 142.166C177.255 140.368 177.205 137.504 175.366 135.766Z" fill="white"/>
<path d="M152.498 158.518L158.901 156.22C159.326 156.068 159.783 156.346 159.842 156.794L160.914 164.924C160.989 165.492 161.672 165.74 162.094 165.353L167.923 160.012C168.169 159.787 168.538 159.764 168.81 159.956L178.397 166.754C178.87 167.089 179.523 166.745 179.514 166.165L179.355 156.113C179.349 155.715 179.671 155.39 180.068 155.394L193.123 155.498C193.74 155.503 194.068 154.772 193.654 154.315L185.809 145.652C185.528 145.342 185.576 144.858 185.911 144.609L193.068 139.287C193.565 138.918 193.382 138.135 192.774 138.023L183.414 136.298C182.959 136.214 182.706 135.723 182.901 135.304L186.201 128.198" stroke="white" stroke-width="2.83149" stroke-linecap="round"/>
</svg>
