<svg width="76" height="76" viewBox="0 0 76 76" fill="none" xmlns="http://www.w3.org/2000/svg">
<path d="M58.1875 0H17.8125C7.97493 0 0 7.97493 0 17.8125V58.1875C0 68.0251 7.97493 76 17.8125 76H58.1875C68.0251 76 76 68.0251 76 58.1875V17.8125C76 7.97493 68.0251 0 58.1875 0Z" fill="url(#paint0_radial_406_7871)"/>
<path d="M58.1875 0H17.8125C7.97493 0 0 7.97493 0 17.8125V58.1875C0 68.0251 7.97493 76 17.8125 76H58.1875C68.0251 76 76 68.0251 76 58.1875V17.8125C76 7.97493 68.0251 0 58.1875 0Z" fill="url(#paint1_radial_406_7871)"/>
<path d="M58.1875 0H17.8125C7.97493 0 0 7.97493 0 17.8125V58.1875C0 68.0251 7.97493 76 17.8125 76H58.1875C68.0251 76 76 68.0251 76 58.1875V17.8125C76 7.97493 68.0251 0 58.1875 0Z" fill="url(#paint2_radial_406_7871)"/>
<path d="M38.0017 8.3125C29.9392 8.3125 28.9271 8.34783 25.7606 8.49181C22.6001 8.63669 20.4427 9.13692 18.5552 9.87109C16.6024 10.6293 14.9461 11.6437 13.2961 13.2944C11.6445 14.9447 10.6301 16.601 9.86952 18.5529C9.13327 20.441 8.63245 22.5993 8.49024 25.7584C8.34863 28.9251 8.31152 29.9375 8.31152 38.0003C8.31152 46.0631 8.34715 47.0719 8.49084 50.2384C8.6363 53.3989 9.13654 55.5563 9.87012 57.4438C10.6289 59.3967 11.6434 61.0529 13.294 62.703C14.9437 64.3545 16.6 65.3713 18.5513 66.1295C20.4404 66.8637 22.598 67.3639 25.758 67.5088C28.9247 67.6528 29.9359 67.6881 37.9981 67.6881C46.0616 67.6881 47.0703 67.6528 50.2368 67.5088C53.3973 67.3639 55.5571 66.8637 57.4461 66.1295C59.3981 65.3713 61.052 64.3545 62.7014 62.703C64.3529 61.0529 65.367 59.3967 66.1279 57.4447C66.8576 55.5563 67.3588 53.3983 67.5072 50.239C67.6494 47.0725 67.6865 46.0631 67.6865 38.0003C67.6865 29.9375 67.6494 28.9257 67.5072 25.759C67.3588 22.5984 66.8576 20.4413 66.1279 18.5538C65.367 16.601 64.3529 14.9447 62.7014 13.2944C61.0502 11.6431 59.3987 10.6287 57.4443 9.87139C55.5518 9.13692 53.3932 8.63639 50.2326 8.49181C47.0659 8.34783 46.0577 8.3125 37.9925 8.3125H38.0017ZM35.3384 13.6625C36.129 13.6613 37.011 13.6625 38.0017 13.6625C45.9286 13.6625 46.8679 13.691 49.9981 13.8332C52.8926 13.9656 54.4637 14.4492 55.5102 14.8556C56.8957 15.3936 57.8834 16.0369 58.9219 17.0763C59.9609 18.1153 60.604 19.1048 61.1434 20.4903C61.5498 21.5353 62.034 23.1064 62.1658 26.0009C62.308 29.1306 62.3389 30.0705 62.3389 37.9935C62.3389 45.9165 62.308 46.8567 62.1658 49.986C62.0334 52.8806 61.5498 54.4516 61.1434 55.4969C60.6055 56.8824 59.9609 57.869 58.9219 58.9074C57.8828 59.9465 56.8963 60.5895 55.5102 61.1278C54.4649 61.536 52.8926 62.0184 49.9981 62.1508C46.8685 62.293 45.9286 62.3239 38.0017 62.3239C30.0745 62.3239 29.1349 62.293 26.0056 62.1508C23.111 62.0172 21.54 61.5336 20.4926 61.1272C19.1074 60.5889 18.1176 59.9459 17.0785 58.9068C16.0395 57.8678 15.3964 56.8807 14.857 55.4945C14.4506 54.4493 13.9664 52.8782 13.8346 49.9837C13.6924 46.854 13.6639 45.9141 13.6639 37.986C13.6639 30.0583 13.6924 29.1231 13.8346 25.9935C13.967 23.099 14.4506 21.5279 14.857 20.4814C15.3953 19.0959 16.0395 18.1064 17.0788 17.0673C18.1179 16.0283 19.1074 15.385 20.4929 14.8458C21.5394 14.4376 23.111 13.9552 26.0056 13.8222C28.7442 13.6984 29.8056 13.6613 35.3384 13.6551V13.6625ZM53.8489 18.5918C51.8821 18.5918 50.2864 20.186 50.2864 22.1531C50.2864 24.1199 51.8821 25.7156 53.8489 25.7156C55.8157 25.7156 57.4114 24.1199 57.4114 22.1531C57.4114 20.1863 55.8157 18.5906 53.8489 18.5906V18.5918ZM38.0017 22.7543C29.5823 22.7543 22.756 29.5806 22.756 38.0003C22.756 46.42 29.5823 53.243 38.0017 53.243C46.4214 53.243 53.2453 46.42 53.2453 38.0003C53.2453 29.5809 46.4208 22.7543 38.0011 22.7543H38.0017ZM38.0017 28.1043C43.4669 28.1043 47.8977 32.5345 47.8977 38.0003C47.8977 43.4655 43.4669 47.8963 38.0017 47.8963C32.5362 47.8963 28.106 43.4655 28.106 38.0003C28.106 32.5345 32.5362 28.1043 38.0017 28.1043Z" fill="white"/>
<defs>
<radialGradient id="paint0_radial_406_7871" cx="0" cy="0" r="1" gradientUnits="userSpaceOnUse" gradientTransform="translate(20.1875 81.8535) rotate(-90) scale(75.3216 70.0551)">
<stop stop-color="#FFDD55"/>
<stop offset="0.1" stop-color="#FFDD55"/>
<stop offset="0.5" stop-color="#FF543E"/>
<stop offset="1" stop-color="#C837AB"/>
</radialGradient>
<radialGradient id="paint1_radial_406_7871" cx="0" cy="0" r="1" gradientUnits="userSpaceOnUse" gradientTransform="translate(-12.7303 5.47467) rotate(78.681) scale(33.6692 138.785)">
<stop stop-color="#3771C8"/>
<stop offset="0.128" stop-color="#3771C8"/>
<stop offset="1" stop-color="#6600FF" stop-opacity="0"/>
</radialGradient>
<radialGradient id="paint2_radial_406_7871" cx="0" cy="0" r="1" gradientUnits="userSpaceOnUse" gradientTransform="translate(-12.7303 5.47467) rotate(78.681) scale(33.6692 138.785)">
<stop stop-color="#3771C8"/>
<stop offset="0.128" stop-color="#3771C8"/>
<stop offset="1" stop-color="#6600FF" stop-opacity="0"/>
</radialGradient>
</defs>
</svg>
