<svg width="251" height="281" viewBox="0 0 251 281" fill="none" xmlns="http://www.w3.org/2000/svg">
<path d="M4.8081 2.8289L2.6368 2.79183L2.59806 4.96311C1.64867 58.1632 14.6629 110.71 40.3939 157.582C66.139 204.48 109.232 248.227 155.051 276.815L156.931 277.988L158.067 276.084L245.993 128.708L247.084 126.879L245.279 125.753C225.1 113.163 208.565 95.7256 197.248 75.1107C185.932 54.4962 180.21 31.3911 180.628 8.00263L180.667 5.83135L178.495 5.79428L4.8081 2.8289Z" fill="#021B2B" stroke="white" stroke-width="4.34324"/>
<g filter="url(#filter0_d_1182_1159)">
<path fill-rule="evenodd" clip-rule="evenodd" d="M105.727 96.4518C108.634 92.0267 112.897 88.6144 117.907 86.7034C122.917 84.7924 128.417 84.4805 133.619 85.8124C138.821 87.1443 143.459 90.0518 146.87 94.1186C150.28 98.1855 152.287 103.203 152.605 108.454C155.418 108.324 158.228 108.747 160.871 109.697C163.514 110.646 165.936 112.104 167.994 113.984C170.052 115.864 171.704 118.127 172.853 120.641C174.003 123.156 174.626 125.869 174.686 128.623C174.746 131.376 174.242 134.114 173.203 136.673C172.165 139.233 170.612 141.564 168.638 143.528C166.664 145.492 164.308 147.049 161.709 148.108C159.11 149.167 156.32 149.707 153.505 149.695H98.6374C94.7045 149.69 90.8179 148.865 87.2366 147.275C83.6553 145.685 80.4615 143.367 77.8683 140.474C75.275 137.582 73.3417 134.183 72.1974 130.502C71.053 126.822 70.7238 122.945 71.2318 119.131C71.7397 115.316 73.073 111.651 75.143 108.38C77.2129 105.109 79.9718 102.307 83.2359 100.161C86.5 98.0152 90.1943 96.5744 94.0724 95.9348C97.9506 95.2952 101.924 95.4714 105.727 96.4518ZM122.778 135.872C123.626 135.872 124.404 135.582 125.016 135.089L136.764 125.902C137.126 125.618 137.428 125.268 137.652 124.87C137.876 124.472 138.017 124.035 138.069 123.583C138.12 123.132 138.08 122.675 137.95 122.239C137.821 121.803 137.605 121.396 137.315 121.041C137.025 120.687 136.666 120.392 136.259 120.173C135.853 119.954 135.406 119.815 134.944 119.765C134.483 119.715 134.016 119.754 133.57 119.881C133.124 120.007 132.708 120.218 132.345 120.502L126.311 125.229V109.38C126.311 108.464 125.939 107.585 125.277 106.937C124.614 106.289 123.715 105.925 122.778 105.925C121.842 105.925 120.943 106.289 120.28 106.937C119.618 107.585 119.246 108.464 119.246 109.38V125.229L113.207 120.507C112.844 120.223 112.428 120.013 111.983 119.886C111.537 119.76 111.07 119.721 110.609 119.771C110.147 119.822 109.701 119.96 109.294 120.179C108.888 120.398 108.529 120.694 108.24 121.048C107.95 121.403 107.734 121.81 107.605 122.246C107.476 122.682 107.436 123.138 107.488 123.59C107.539 124.041 107.681 124.478 107.905 124.875C108.129 125.273 108.431 125.623 108.793 125.907L120.56 135.112C121.18 135.603 121.953 135.872 122.75 135.877L122.778 135.872Z" fill="white"/>
</g>
<defs>
<filter id="filter0_d_1182_1159" x="68.1685" y="85" width="109.354" height="70.3578" filterUnits="userSpaceOnUse" color-interpolation-filters="sRGB">
<feFlood flood-opacity="0" result="BackgroundImageFix"/>
<feColorMatrix in="SourceAlpha" type="matrix" values="0 0 0 0 0 0 0 0 0 0 0 0 0 0 0 0 0 0 127 0" result="hardAlpha"/>
<feOffset dy="2.83149"/>
<feGaussianBlur stdDeviation="1.41574"/>
<feComposite in2="hardAlpha" operator="out"/>
<feColorMatrix type="matrix" values="0 0 0 0 0 0 0 0 0 0 0 0 0 0 0 0 0 0 0.11 0"/>
<feBlend mode="normal" in2="BackgroundImageFix" result="effect1_dropShadow_1182_1159"/>
<feBlend mode="normal" in="SourceGraphic" in2="effect1_dropShadow_1182_1159" result="shape"/>
</filter>
</defs>
</svg>
