<svg width="355" height="341" viewBox="0 0 355 341" fill="none" xmlns="http://www.w3.org/2000/svg">
<path d="M243.261 4.99788L242.224 3.08995L240.297 4.09195C192.284 29.0621 151.619 65.6584 122.187 110.386C92.7385 155.138 74.5106 213.211 71.1607 266.277L71.018 268.538L73.319 268.587L247.729 272.357L249.809 272.402L249.938 270.359C251.413 247.001 258.986 224.4 271.939 204.716C284.892 185.031 302.79 168.923 323.925 157.931L325.852 156.929L324.814 155.022L243.261 4.99788Z" fill="#033452" stroke="#021B2B" stroke-width="4.34324"/>
<path d="M234.57 163.762L228.217 145.12C227.571 143.33 225.849 142.171 223.91 142.171H204.959C203.129 142.171 201.729 143.54 201.729 145.331V169.976C201.729 171.45 200.544 172.609 199.037 172.609H193.868L157.043 131.745C156.612 131.218 155.966 131.007 155.32 131.007H141.107C139.815 130.902 138.845 131.955 138.845 133.219V151.44C138.845 152.703 139.922 153.651 141.214 153.651C142.614 153.651 143.691 154.81 143.691 156.179C143.691 157.548 142.506 158.707 141.107 158.707C140.03 158.707 139.061 158.075 138.738 157.127C138.199 155.863 136.477 155.336 135.292 156.179C134.323 156.811 134.215 158.18 134.646 159.128C136.154 162.288 139.815 163.973 143.476 162.814C145.737 162.077 147.567 160.181 148.106 157.864C149.075 154.073 146.814 150.597 143.368 149.438V138.801H151.659L172.225 172.609H137.23C135.4 172.609 134 173.978 134 175.769V183.352C134.019 187.631 134 187.881 138.63 187.881H144.337C144.337 194.726 150.044 200.414 157.151 200.414C164.257 200.414 169.964 194.832 169.964 187.881H200.329C200.329 194.726 206.144 200.414 213.143 200.414C220.249 200.414 225.956 194.832 225.956 187.881H231.771C236.293 187.881 236.293 187.881 236.293 183.457V173.978C236.293 170.503 235.755 167.027 234.57 163.762ZM157.151 193.779C153.813 193.779 151.121 191.145 151.121 187.881C151.121 184.616 153.813 181.983 157.151 181.983C160.489 181.983 163.18 184.616 163.18 187.881C163.18 191.145 160.489 193.779 157.151 193.779ZM213.143 193.779C209.805 193.779 207.113 191.145 207.113 187.881C207.113 184.616 209.805 181.983 213.143 181.983C216.481 181.983 219.173 184.616 219.173 187.881C219.28 191.145 216.481 193.779 213.143 193.779ZM224.987 162.077H210.343C209.374 162.077 208.513 162.077 208.513 160.286V150.492C208.513 148.231 208.386 147.094 210.323 147.094H221.168C221.922 147.094 222.115 147.493 222.33 148.231L226.387 160.392C226.591 161.869 225.956 162.077 224.987 162.077Z" fill="white"/>
</svg>
