<svg width="355" height="341" viewBox="0 0 355 341" fill="none" xmlns="http://www.w3.org/2000/svg">
<path d="M243.261 4.99788L242.224 3.08995L240.297 4.09195C192.284 29.0621 151.619 65.6584 122.187 110.386C92.7385 155.138 74.5106 213.211 71.1607 266.277L71.018 268.538L73.319 268.587L247.729 272.357L249.809 272.402L249.938 270.359C251.413 247.001 258.986 224.4 271.939 204.716C284.892 185.031 302.79 168.923 323.925 157.931L325.852 156.929L324.814 155.022L243.261 4.99788Z" fill="#021B2B" stroke="white" stroke-width="4.34324"/>
<path d="M245.57 158.762L239.217 140.12C238.571 138.33 236.849 137.171 234.91 137.171H215.959C214.129 137.171 212.729 138.54 212.729 140.331V164.976C212.729 166.45 211.544 167.609 210.037 167.609H204.868L168.043 126.745C167.612 126.218 166.966 126.007 166.32 126.007H152.107C150.815 125.902 149.845 126.955 149.845 128.219V146.44C149.845 147.703 150.922 148.651 152.214 148.651C153.614 148.651 154.691 149.81 154.691 151.179C154.691 152.548 153.506 153.707 152.107 153.707C151.03 153.707 150.061 153.075 149.738 152.127C149.199 150.863 147.477 150.336 146.292 151.179C145.323 151.811 145.215 153.18 145.646 154.128C147.154 157.288 150.815 158.973 154.476 157.814C156.737 157.077 158.567 155.181 159.106 152.864C160.075 149.073 157.814 145.597 154.368 144.438V133.801H162.659L183.225 167.609H148.23C146.4 167.609 145 168.978 145 170.769V178.352C145.019 182.631 145 182.881 149.63 182.881H155.337C155.337 189.726 161.044 195.414 168.151 195.414C175.257 195.414 180.964 189.832 180.964 182.881H211.329C211.329 189.726 217.144 195.414 224.143 195.414C231.249 195.414 236.956 189.832 236.956 182.881H242.771C247.293 182.881 247.293 182.881 247.293 178.457V168.978C247.293 165.503 246.755 162.027 245.57 158.762ZM168.151 188.779C164.813 188.779 162.121 186.145 162.121 182.881C162.121 179.616 164.813 176.983 168.151 176.983C171.489 176.983 174.18 179.616 174.18 182.881C174.18 186.145 171.489 188.779 168.151 188.779ZM224.143 188.779C220.805 188.779 218.113 186.145 218.113 182.881C218.113 179.616 220.805 176.983 224.143 176.983C227.481 176.983 230.173 179.616 230.173 182.881C230.28 186.145 227.481 188.779 224.143 188.779ZM235.987 157.077H221.343C220.374 157.077 219.513 157.077 219.513 155.286V145.492C219.513 143.231 219.386 142.094 221.323 142.094H232.168C232.922 142.094 233.115 142.493 233.33 143.231L237.387 155.392C237.591 156.869 236.956 157.077 235.987 157.077Z" fill="white"/>
</svg>
