<svg width="24" height="31" viewBox="0 0 24 31" fill="none" xmlns="http://www.w3.org/2000/svg">
<path d="M11.625 0C5.16465 0 0 5.16465 0 11.625C0 13.8592 0.666016 15.5848 1.82246 17.3346L10.402 30.3521C10.6623 30.7457 11.1104 31 11.625 31C12.1396 31 12.5938 30.7396 12.848 30.3521L21.4275 17.3346C22.584 15.5848 23.25 13.8592 23.25 11.625C23.25 5.16465 18.0854 0 11.625 0ZM11.625 18.0793C8.05879 18.0793 5.16465 15.1852 5.16465 11.6129C5.16465 8.04062 8.05879 5.14648 11.625 5.14648C15.1912 5.14648 18.0854 8.04062 18.0854 11.6129C18.0854 15.1852 15.1912 18.0793 11.625 18.0793ZM11.625 7.75C9.48164 7.75 7.75 9.48164 7.75 11.625C7.75 13.7684 9.48164 15.5 11.625 15.5C13.7684 15.5 15.5 13.7684 15.5 11.625C15.5 9.48164 13.7684 7.75 11.625 7.75Z" fill="#FF8828"/>
</svg>
