<svg width="58" height="57" viewBox="0 0 58 57" fill="none" xmlns="http://www.w3.org/2000/svg">
<mask id="path-1-inside-1_480_2996" fill="white">
<path d="M1.4497 0H46.3458C47.1464 0 47.7962 0.652468 47.7962 1.45804V9.04255C53.595 9.77367 58 14.7785 58 20.6669V55.542C58 56.3475 57.3503 57 56.5496 57H1.4497C0.649048 57 0 56.3475 0 55.542V1.45804C0 0.652468 0.649048 0 1.4497 0ZM2.9001 48.8789H44.8954V2.91609H2.9001V48.8789ZM44.8954 51.7943H2.9001V54.0839H44.8954V51.7943ZM27.5234 29.5598C25.6161 29.5598 25.6161 26.6444 27.5234 26.6444H38.9813C40.8893 26.6444 40.8893 29.5598 38.9813 29.5598H27.5234ZM27.5234 39.1832C25.6161 39.1832 25.6161 36.2671 27.5234 36.2671H38.9813C40.8893 36.2671 40.8893 39.1832 38.9813 39.1832H27.5234ZM27.5234 34.3715C25.6161 34.3715 25.6161 31.4554 27.5234 31.4554H38.9813C40.8893 31.4554 40.8893 34.3715 38.9813 34.3715H27.5234ZM8.8142 25.2594H21.1426C21.9433 25.2594 22.5923 25.9119 22.5923 26.7168V39.1102C22.5923 39.915 21.9433 40.5682 21.1426 40.5682H8.8142C8.01354 40.5682 7.36379 39.915 7.36379 39.1102V26.7168C7.36379 25.9119 8.01354 25.2594 8.8142 25.2594ZM19.6922 28.1748H10.2646V37.6521H19.6922V28.1748ZM47.7962 11.9895V54.0839H55.0992V20.6669C55.0992 16.3854 51.9825 12.7003 47.7962 11.9895ZM10.6517 6.52749H37.1438C37.9445 6.52749 38.5942 7.17996 38.5942 7.98553V19.7349C38.5942 20.5397 37.9445 21.1922 37.1438 21.1922H10.6517C9.851 21.1922 9.20195 20.5397 9.20195 19.7349V7.98553C9.20195 7.17996 9.851 6.52749 10.6517 6.52749ZM35.6934 9.44288H12.1021V18.2768H35.6934V9.44288Z"/>
</mask>
<path d="M1.4497 0H46.3458C47.1464 0 47.7962 0.652468 47.7962 1.45804V9.04255C53.595 9.77367 58 14.7785 58 20.6669V55.542C58 56.3475 57.3503 57 56.5496 57H1.4497C0.649048 57 0 56.3475 0 55.542V1.45804C0 0.652468 0.649048 0 1.4497 0ZM2.9001 48.8789H44.8954V2.91609H2.9001V48.8789ZM44.8954 51.7943H2.9001V54.0839H44.8954V51.7943ZM27.5234 29.5598C25.6161 29.5598 25.6161 26.6444 27.5234 26.6444H38.9813C40.8893 26.6444 40.8893 29.5598 38.9813 29.5598H27.5234ZM27.5234 39.1832C25.6161 39.1832 25.6161 36.2671 27.5234 36.2671H38.9813C40.8893 36.2671 40.8893 39.1832 38.9813 39.1832H27.5234ZM27.5234 34.3715C25.6161 34.3715 25.6161 31.4554 27.5234 31.4554H38.9813C40.8893 31.4554 40.8893 34.3715 38.9813 34.3715H27.5234ZM8.8142 25.2594H21.1426C21.9433 25.2594 22.5923 25.9119 22.5923 26.7168V39.1102C22.5923 39.915 21.9433 40.5682 21.1426 40.5682H8.8142C8.01354 40.5682 7.36379 39.915 7.36379 39.1102V26.7168C7.36379 25.9119 8.01354 25.2594 8.8142 25.2594ZM19.6922 28.1748H10.2646V37.6521H19.6922V28.1748ZM47.7962 11.9895V54.0839H55.0992V20.6669C55.0992 16.3854 51.9825 12.7003 47.7962 11.9895ZM10.6517 6.52749H37.1438C37.9445 6.52749 38.5942 7.17996 38.5942 7.98553V19.7349C38.5942 20.5397 37.9445 21.1922 37.1438 21.1922H10.6517C9.851 21.1922 9.20195 20.5397 9.20195 19.7349V7.98553C9.20195 7.17996 9.851 6.52749 10.6517 6.52749ZM35.6934 9.44288H12.1021V18.2768H35.6934V9.44288Z" fill="white"/>
<path d="M47.7962 9.04255H37.7962V17.8609L46.5453 18.964L47.7962 9.04255ZM2.9001 48.8789H-7.0999V58.8789H2.9001V48.8789ZM44.8954 48.8789V58.8789H54.8954V48.8789H44.8954ZM44.8954 2.91609H54.8954V-7.08391H44.8954V2.91609ZM2.9001 2.91609V-7.08391H-7.0999V2.91609H2.9001ZM44.8954 51.7943H54.8954V41.7943H44.8954V51.7943ZM2.9001 51.7943V41.7943H-7.0999V51.7943H2.9001ZM2.9001 54.0839H-7.0999V64.0839H2.9001V54.0839ZM44.8954 54.0839V64.0839H54.8954V54.0839H44.8954ZM19.6922 28.1748H29.6922V18.1748H19.6922V28.1748ZM10.2646 28.1748V18.1748H0.264597V28.1748H10.2646ZM10.2646 37.6521H0.264597V47.6521H10.2646V37.6521ZM19.6922 37.6521V47.6521H29.6922V37.6521H19.6922ZM47.7962 11.9895L49.4701 2.13062L37.7962 0.148614V11.9895H47.7962ZM47.7962 54.0839H37.7962V64.0839H47.7962V54.0839ZM55.0992 54.0839V64.0839H65.0992V54.0839H55.0992ZM35.6934 9.44288H45.6934V-0.557123H35.6934V9.44288ZM12.1021 9.44288V-0.557123H2.10205V9.44288H12.1021ZM12.1021 18.2768H2.10205V28.2768H12.1021V18.2768ZM35.6934 18.2768V28.2768H45.6934V18.2768H35.6934ZM1.4497 10H46.3458V-10H1.4497V10ZM46.3458 10C41.5772 10 37.7962 6.12885 37.7962 1.45804H57.7962C57.7962 -4.82392 52.7156 -10 46.3458 -10V10ZM37.7962 1.45804V9.04255H57.7962V1.45804H37.7962ZM46.5453 18.964C47.3114 19.0606 48 19.7843 48 20.6669H68C68 9.77271 59.8786 0.486751 49.0471 -0.878905L46.5453 18.964ZM48 20.6669V55.542H68V20.6669H48ZM48 55.542C48 50.8712 51.7811 47 56.5496 47V67C62.9195 67 68 61.8239 68 55.542H48ZM56.5496 47H1.4497V67H56.5496V47ZM1.4497 47C6.22452 47 10 50.8774 10 55.542H-10C-10 61.8176 -4.92642 67 1.4497 67V47ZM10 55.542V1.45804H-10V55.542H10ZM10 1.45804C10 6.12255 6.22451 10 1.4497 10V-10C-4.92641 -10 -10 -4.81762 -10 1.45804H10ZM2.9001 58.8789H44.8954V38.8789H2.9001V58.8789ZM54.8954 48.8789V2.91609H34.8954V48.8789H54.8954ZM44.8954 -7.08391H2.9001V12.9161H44.8954V-7.08391ZM-7.0999 2.91609V48.8789H12.9001V2.91609H-7.0999ZM44.8954 41.7943H2.9001V61.7943H44.8954V41.7943ZM-7.0999 51.7943V54.0839H12.9001V51.7943H-7.0999ZM2.9001 64.0839H44.8954V44.0839H2.9001V64.0839ZM54.8954 54.0839V51.7943H34.8954V54.0839H54.8954ZM27.5234 19.5598C29.8266 19.5598 32.2553 20.5463 33.9864 22.5308C35.5449 24.3174 36.0929 26.3862 36.0929 28.1021C36.0929 29.8181 35.5449 31.8868 33.9864 33.6735C32.2553 35.658 29.8266 36.6444 27.5234 36.6444V16.6444C24.2665 16.6444 21.1226 17.9953 18.9147 20.5264C16.8794 22.8597 16.0929 25.6573 16.0929 28.1021C16.0929 30.5469 16.8794 33.3445 18.9147 35.6778C21.1226 38.209 24.2665 39.5598 27.5234 39.5598V19.5598ZM27.5234 36.6444H38.9813V16.6444H27.5234V36.6444ZM38.9813 36.6444C36.6796 36.6444 34.2513 35.659 32.5199 33.6748C30.9609 31.8883 30.4123 29.8191 30.4123 28.1021C30.4123 26.3852 30.9609 24.316 32.5199 22.5294C34.2513 20.5452 36.6796 19.5598 38.9813 19.5598V39.5598C42.237 39.5598 45.3808 38.21 47.5892 35.6792C49.6252 33.346 50.4123 30.5479 50.4123 28.1021C50.4123 25.6563 49.6252 22.8583 47.5892 20.5251C45.3808 17.9943 42.237 16.6444 38.9813 16.6444V36.6444ZM38.9813 19.5598H27.5234V39.5598H38.9813V19.5598ZM27.5234 29.1832C29.8275 29.1832 32.2563 30.1703 33.9872 32.1549C35.5453 33.9416 36.0929 36.0099 36.0929 37.7252C36.0929 39.4404 35.5453 41.5087 33.9872 43.2954C32.2563 45.28 29.8275 46.2671 27.5234 46.2671V26.2671C24.2657 26.2671 21.1216 27.6187 18.9139 30.1501C16.879 32.4835 16.0929 35.2809 16.0929 37.7252C16.0929 40.1694 16.879 42.9668 18.9139 45.3002C21.1216 47.8316 24.2657 49.1832 27.5234 49.1832V29.1832ZM27.5234 46.2671H38.9813V26.2671H27.5234V46.2671ZM38.9813 46.2671C36.6787 46.2671 34.2503 45.2811 32.5191 43.2967C30.9605 41.5102 30.4123 39.4414 30.4123 37.7252C30.4123 36.0089 30.9605 33.9401 32.5191 32.1536C34.2503 30.1692 36.6787 29.1832 38.9813 29.1832V49.1832C42.2379 49.1832 45.3818 47.8326 47.59 45.3015C49.6256 42.9682 50.4123 40.1704 50.4123 37.7252C50.4123 35.2799 49.6256 32.4821 47.59 30.1488C45.3818 27.6177 42.2379 26.2671 38.9813 26.2671V46.2671ZM38.9813 29.1832H27.5234V49.1832H38.9813V29.1832ZM27.5234 24.3715C29.8275 24.3715 32.2563 25.3586 33.9872 27.3432C35.5453 29.1299 36.0929 31.1982 36.0929 32.9135C36.0929 34.6287 35.5453 36.697 33.9872 38.4837C32.2563 40.4684 29.8275 41.4554 27.5234 41.4554V21.4554C24.2657 21.4554 21.1216 22.807 18.9139 25.3384C16.879 27.6718 16.0929 30.4692 16.0929 32.9135C16.0929 35.3577 16.879 38.1551 18.9139 40.4885C21.1216 43.0199 24.2657 44.3715 27.5234 44.3715V24.3715ZM27.5234 41.4554H38.9813V21.4554H27.5234V41.4554ZM38.9813 41.4554C36.6787 41.4554 34.2503 40.4694 32.5191 38.485C30.9605 36.6985 30.4123 34.6297 30.4123 32.9135C30.4123 31.1973 30.9605 29.1284 32.5191 27.3419C34.2503 25.3575 36.6787 24.3715 38.9813 24.3715V44.3715C42.2379 44.3715 45.3818 43.021 47.59 40.4899C49.6256 38.1565 50.4123 35.3587 50.4123 32.9135C50.4123 30.4682 49.6256 27.6704 47.59 25.3371C45.3818 22.806 42.2379 21.4554 38.9813 21.4554V41.4554ZM38.9813 24.3715H27.5234V44.3715H38.9813V24.3715ZM8.8142 35.2594H21.1426V15.2594H8.8142V35.2594ZM21.1426 35.2594C16.3709 35.2594 12.5923 31.3851 12.5923 26.7168H32.5923C32.5923 20.4387 27.5156 15.2594 21.1426 15.2594V35.2594ZM12.5923 26.7168V39.1102H32.5923V26.7168H12.5923ZM12.5923 39.1102C12.5923 34.4481 16.3647 30.5682 21.1426 30.5682V50.5682C27.5218 50.5682 32.5923 45.382 32.5923 39.1102H12.5923ZM21.1426 30.5682H8.8142V50.5682H21.1426V30.5682ZM8.8142 30.5682C13.5858 30.5682 17.3638 34.4418 17.3638 39.1102H-2.63621C-2.63621 45.3883 2.44124 50.5682 8.8142 50.5682V30.5682ZM17.3638 39.1102V26.7168H-2.63621V39.1102H17.3638ZM17.3638 26.7168C17.3638 31.3914 13.5796 35.2594 8.8142 35.2594V15.2594C2.44747 15.2594 -2.63621 20.4324 -2.63621 26.7168H17.3638ZM19.6922 18.1748H10.2646V38.1748H19.6922V18.1748ZM0.264597 28.1748V37.6521H20.2646V28.1748H0.264597ZM10.2646 47.6521H19.6922V27.6521H10.2646V47.6521ZM29.6922 37.6521V28.1748H9.69221V37.6521H29.6922ZM37.7962 11.9895V54.0839H57.7962V11.9895H37.7962ZM47.7962 64.0839H55.0992V44.0839H47.7962V64.0839ZM65.0992 54.0839V20.6669H45.0992V54.0839H65.0992ZM65.0992 20.6669C65.0992 11.5256 58.4814 3.66058 49.4701 2.13062L46.1223 21.8485C45.7802 21.7904 45.5242 21.6154 45.3713 21.4339C45.2171 21.251 45.0992 20.9813 45.0992 20.6669H65.0992ZM10.6517 16.5275H37.1438V-3.47251H10.6517V16.5275ZM37.1438 16.5275C32.3753 16.5275 28.5942 12.6563 28.5942 7.98553H48.5942C48.5942 1.70361 43.5137 -3.47251 37.1438 -3.47251V16.5275ZM28.5942 7.98553V19.7349H48.5942V7.98553H28.5942ZM28.5942 19.7349C28.5942 15.0603 32.3784 11.1922 37.1438 11.1922V31.1922C43.5106 31.1922 48.5942 26.0192 48.5942 19.7349H28.5942ZM37.1438 11.1922H10.6517V31.1922H37.1438V11.1922ZM10.6517 11.1922C15.4233 11.1922 19.2019 15.0665 19.2019 19.7349H-0.798052C-0.798052 26.013 4.27866 31.1922 10.6517 31.1922V11.1922ZM19.2019 19.7349V7.98553H-0.798052V19.7349H19.2019ZM19.2019 7.98553C19.2019 12.65 15.4265 16.5275 10.6517 16.5275V-3.47251C4.27553 -3.47251 -0.798052 1.70987 -0.798052 7.98553H19.2019ZM35.6934 -0.557123H12.1021V19.4429H35.6934V-0.557123ZM2.10205 9.44288V18.2768H22.1021V9.44288H2.10205ZM12.1021 28.2768H35.6934V8.27683H12.1021V28.2768ZM45.6934 18.2768V9.44288H25.6934V18.2768H45.6934Z" fill="white" mask="url(#path-1-inside-1_480_2996)"/>
</svg>
