<svg width="74" height="76" viewBox="0 0 74 76" fill="none" xmlns="http://www.w3.org/2000/svg">
<path d="M61.5471 73H12.4529C7.26909 73 3 68.9205 3 63.9669V38.0331C3 33.0794 7.26909 29 12.4529 29H61.5471C66.7309 29 71 33.0794 71 38.0331V63.9669C71 68.9205 66.7309 73 61.5471 73Z" fill="white" fill-opacity="0.15" stroke="white" stroke-width="5" stroke-miterlimit="10" stroke-linecap="round"/>
<path d="M47.5273 29H24.745C22.8725 29 21 27.5228 21 25.4546V16.2955C21 8.9091 27.2417 3 35.0438 3H36.9164C44.7185 3 50.9602 8.9091 50.9602 16.2955V25.4546C51.2723 27.5228 49.7119 29 47.5273 29Z" fill="white" fill-opacity="0.15" stroke="white" stroke-width="5" stroke-miterlimit="10" stroke-linecap="round"/>
<path d="M36.5 61C33.4063 61 31 59.0556 31 56.5556V45.4444C31 42.9444 33.4063 41 36.5 41C39.5937 41 42 42.9444 42 45.4444V56.5556C42 59.0556 39.5937 61 36.5 61Z" fill="white" fill-opacity="0.15"/>
<path d="M61.5471 73H12.4529C7.26909 73 3 68.9205 3 63.9669V38.0331C3 33.0794 7.26909 29 12.4529 29H61.5471C66.7309 29 71 33.0794 71 38.0331V63.9669C71 68.9205 66.7309 73 61.5471 73Z" fill="white" fill-opacity="0.15" stroke="white" stroke-width="5" stroke-miterlimit="10" stroke-linecap="round"/>
<path d="M47.5273 29H24.745C22.8725 29 21 27.5228 21 25.4546V16.2955C21 8.9091 27.2417 3 35.0438 3H36.9164C44.7185 3 50.9602 8.9091 50.9602 16.2955V25.4546C51.2723 27.5228 49.7119 29 47.5273 29Z" fill="white" fill-opacity="0.15" stroke="white" stroke-width="5" stroke-miterlimit="10" stroke-linecap="round"/>
<path d="M36.5 61C33.4063 61 31 59.0556 31 56.5556V45.4444C31 42.9444 33.4063 41 36.5 41C39.5937 41 42 42.9444 42 45.4444V56.5556C42 59.0556 39.5937 61 36.5 61Z" fill="white" fill-opacity="0.15"/>
</svg>
