<svg width="100" height="100" viewBox="0 0 100 100" fill="none" xmlns="http://www.w3.org/2000/svg">
<path d="M49.776 77.9998C48.9968 77.9998 48.3441 77.7491 47.818 77.2478C47.2918 76.7464 47.0278 76.1267 47.026 75.3886C47.026 75.084 47.0947 74.7681 47.2322 74.4408C47.3697 74.1135 47.576 73.8202 47.851 73.5609L59.6072 62.3984C59.8822 62.1373 60.0197 61.8213 60.0197 61.4505C60.0197 61.0798 59.8822 60.7647 59.6072 60.5053C59.3322 60.2442 58.9995 60.1241 58.609 60.145C58.2185 60.1659 57.8866 60.3077 57.6135 60.5706L45.926 71.6678C45.651 71.9289 45.3531 72.1248 45.0322 72.2553C44.7114 72.3859 44.3676 72.4511 44.001 72.4511C43.2218 72.4511 42.5691 72.2005 42.043 71.6991C41.5168 71.1978 41.2528 70.579 41.251 69.8426C41.251 69.4075 41.3197 69.048 41.4572 68.7643C41.5947 68.4805 41.7781 68.2307 42.0072 68.0149L53.7635 56.8498C54.0385 56.5886 54.176 56.284 54.176 55.9359C54.176 55.5877 54.0385 55.2831 53.7635 55.022C53.4885 54.7609 53.1676 54.6303 52.801 54.6303C52.4343 54.6303 52.1135 54.7609 51.8385 55.022L40.0822 66.1192C39.8072 66.3803 39.5093 66.5761 39.1885 66.7067C38.8676 66.8373 38.501 66.9025 38.0885 66.9025C37.3551 66.9025 36.7135 66.6414 36.1635 66.1192C35.6135 65.597 35.3385 64.9877 35.3385 64.2914C35.3385 63.9433 35.4072 63.6169 35.5447 63.3123C35.6822 63.0076 35.8885 62.7248 36.1635 62.4636L47.851 51.3664C48.126 51.1053 48.2635 50.7894 48.2635 50.4186C48.2635 50.0478 48.126 49.7327 47.851 49.4734C47.576 49.2123 47.2551 49.0817 46.8885 49.0817C46.5218 49.0817 46.201 49.2123 45.926 49.4734L34.2385 60.6359C34.0093 60.8535 33.7343 61.0275 33.4135 61.1581C33.0926 61.2887 32.7031 61.3539 32.2447 61.3539C31.4656 61.3539 30.8129 61.1033 30.2867 60.6019C29.7606 60.1006 29.4966 59.4809 29.4947 58.7428C29.4947 58.3947 29.5635 58.0683 29.701 57.7636C29.8385 57.459 30.0447 57.1762 30.3197 56.915L43.7947 44.1206C44.2989 43.6419 44.9296 43.4243 45.6867 43.4678C46.4439 43.5113 47.0736 43.7724 47.576 44.2512L55.9635 52.215C56.4676 52.6937 57.0635 53.075 57.751 53.3587C58.4385 53.6424 59.126 53.7834 59.8135 53.7817C61.2801 53.7817 62.5635 53.2926 63.6635 52.3143C64.7635 51.336 65.3135 50.0844 65.3135 48.5595C65.3135 47.9502 65.1989 47.3192 64.9697 46.6664C64.7405 46.0137 64.328 45.4044 63.7322 44.8387L51.426 33.1539C52.2051 32.4576 53.076 31.925 54.0385 31.5559C55.001 31.1869 55.9635 31.0015 56.926 30.9998C58.1176 30.9998 59.2176 31.1852 60.226 31.5559C61.2343 31.9267 62.151 32.5029 62.976 33.2845L74.5947 44.3817C75.4197 45.165 76.0275 46.0354 76.418 46.9928C76.8085 47.9502 77.0028 49.0599 77.001 50.322C77.001 51.1924 76.7947 52.074 76.3822 52.967C75.9697 53.86 75.3739 54.6756 74.5947 55.4137L51.701 77.2164C51.3343 77.5646 51.0135 77.7822 50.7385 77.8692C50.4635 77.9562 50.1426 77.9998 49.776 77.9998ZM26.1947 57.1109L24.4072 55.4137C23.6281 54.7174 23.0322 53.8905 22.6197 52.9331C22.2072 51.9757 22.001 50.9748 22.001 49.9303C22.001 48.7988 22.2301 47.7544 22.6885 46.797C23.1468 45.8396 23.7197 45.0345 24.4072 44.3817L36.026 33.2845C36.7593 32.5882 37.6301 32.0329 38.6385 31.6186C39.6468 31.2043 40.6322 30.998 41.5947 30.9998C42.8322 30.9998 43.9322 31.1634 44.8947 31.4907C45.8572 31.8179 46.7968 32.4159 47.7135 33.2845L61.8072 46.6664C62.0822 46.9275 62.2885 47.2104 62.426 47.515C62.5635 47.8197 62.6322 48.1461 62.6322 48.4942C62.6322 49.1905 62.3572 49.7998 61.8072 50.322C61.2572 50.8442 60.6155 51.1053 59.8822 51.1053C59.4697 51.1053 59.126 51.0514 58.851 50.9434C58.576 50.8355 58.278 50.6284 57.9572 50.322L49.501 42.3581C48.4468 41.3572 47.1525 40.8567 45.618 40.8567C44.0835 40.8567 42.7882 41.3572 41.7322 42.3581L26.1947 57.1109Z" fill="white"/>
</svg>
