<svg width="26" height="34" viewBox="0 0 26 34" fill="none" xmlns="http://www.w3.org/2000/svg">
<path d="M12.75 0C5.66445 0 0 5.66445 0 12.75C0 15.2004 0.730469 17.093 1.99883 19.0121L11.4086 33.2895C11.6941 33.7211 12.1855 34 12.75 34C13.3145 34 13.8125 33.7145 14.0914 33.2895L23.5012 19.0121C24.7695 17.093 25.5 15.2004 25.5 12.75C25.5 5.66445 19.8355 0 12.75 0ZM12.75 19.8289C8.83867 19.8289 5.66445 16.6547 5.66445 12.7367C5.66445 8.81875 8.83867 5.64453 12.75 5.64453C16.6613 5.64453 19.8355 8.81875 19.8355 12.7367C19.8355 16.6547 16.6613 19.8289 12.75 19.8289ZM12.75 8.5C10.3992 8.5 8.5 10.3992 8.5 12.75C8.5 15.1008 10.3992 17 12.75 17C15.1008 17 17 15.1008 17 12.75C17 10.3992 15.1008 8.5 12.75 8.5Z" fill="#0E1013"/>
</svg>
