<svg width="29" height="32" viewBox="0 0 29 32" fill="none" xmlns="http://www.w3.org/2000/svg">
<path d="M14.5 15.5075C12.5062 15.5075 10.7995 14.7482 9.37969 13.2298C7.9599 11.7114 7.25 9.886 7.25 7.75373C7.25 5.62145 7.9599 3.7961 9.37969 2.27766C10.7995 0.759219 12.5062 0 14.5 0C16.4937 0 18.2005 0.759219 19.6203 2.27766C21.0401 3.7961 21.75 5.62145 21.75 7.75373C21.75 9.886 21.0401 11.7114 19.6203 13.2298C18.2005 14.7482 16.4937 15.5075 14.5 15.5075ZM0 31.0149V25.5873C0 24.4889 0.264625 23.4796 0.793875 22.5595C1.32313 21.6394 2.02517 20.9364 2.9 20.4505C4.77292 19.4489 6.67604 18.6981 8.60937 18.198C10.5427 17.6979 12.5062 17.4472 14.5 17.4459C16.4937 17.4459 18.4573 17.6966 20.3906 18.198C22.324 18.6994 24.2271 19.4502 26.1 20.4505C26.976 20.9351 27.6787 21.6381 28.2079 22.5595C28.7372 23.4809 29.0012 24.4901 29 25.5873V31.0149H0Z" fill="white"/>
</svg>
