<svg width="99" height="94" viewBox="0 0 99 94" fill="none" xmlns="http://www.w3.org/2000/svg">
<path d="M50.3418 92.4477C76.4879 92.4477 97.6835 72.4242 97.6835 47.7239C97.6835 23.0236 76.4879 3 50.3418 3C24.1956 3 3 23.0236 3 47.7239C3 72.4242 24.1956 92.4477 50.3418 92.4477Z" fill="#0E1013"/>
<path d="M56.8481 52.2921C50.3928 52.2921 37.5063 55.257 37.5063 61.2089V65.6674H76.1898V61.2089C76.1898 55.257 63.3034 52.2921 56.8481 52.2921ZM35.0886 43.3753V36.6876H30.2532V43.3753H23V47.8337H30.2532V54.5213H35.0886V47.8337H42.3418V43.3753M56.8481 47.8337C59.4129 47.8337 61.8728 46.8942 63.6864 45.222C65.5001 43.5498 66.5189 41.2817 66.5189 38.9168C66.5189 36.5519 65.5001 34.2839 63.6864 32.6117C61.8728 30.9394 59.4129 30 56.8481 30C54.2832 30 51.8234 30.9394 50.0097 32.6117C48.1961 34.2839 47.1772 36.5519 47.1772 38.9168C47.1772 41.2817 48.1961 43.5498 50.0097 45.222C51.8234 46.8942 54.2832 47.8337 56.8481 47.8337Z" fill="white"/>
</svg>
