<svg width="251" height="278" viewBox="0 0 251 278" fill="none" xmlns="http://www.w3.org/2000/svg">
<path d="M204.883 118.4C231.844 164.809 246.668 217.291 247.991 270.956L76.7613 273.879C75.9693 249.61 69.1735 225.901 56.9711 204.897C44.7172 183.803 26.2986 167.626 5.67268 155.114L93.8337 5.58304C139.718 33.1876 177.924 71.9929 204.883 118.4Z" fill="#021B2B" stroke="white" stroke-width="4.34324"/>
<path d="M187.366 135.766L184.921 133.457C183.702 132.306 181.414 133.05 179.891 133.457L160.998 113.94L140.833 106.706L137.684 109.896L155.361 126.782L93.9831 187.321C92.2081 189.119 92.144 193.495 93.9831 195.232L95.7486 196.9C97.5867 198.636 101.883 197.977 103.657 196.18L164.795 135.642C164.795 135.642 172.705 139.307 172.343 140.81C171.981 142.312 171.37 144.799 172.588 145.95L175.034 148.259C176.872 149.996 179.803 149.945 181.577 148.148L187.482 142.166C189.255 140.368 189.205 137.504 187.366 135.766Z" fill="white"/>
</svg>
