<svg width="351" height="339" viewBox="0 0 351 339" fill="none" xmlns="http://www.w3.org/2000/svg">
<path d="M122.437 334.155L123.606 335.985L125.459 334.852C171.222 306.882 208.959 268.007 235.062 221.941C261.165 175.874 274.764 124.151 274.553 71.714L274.545 69.5267L272.318 69.5517L106.132 71.4228L104.141 71.4452L103.991 73.3946C101.936 100.194 92.4895 119.34 80.8666 139.852C69.3804 160.123 52.7726 177.233 32.6291 189.544L30.7761 190.677L31.9453 192.507L122.437 334.155Z" fill="#033452" stroke="#021B2B" stroke-width="4.34324"/>
<path d="M155.832 190.102L175.834 170.169L195.836 150.235L198.536 145.318L197.192 144L192.437 146.799L152 186.279L155.832 190.102Z" fill="white"/>
<path d="M118.402 220.837C121.476 223.839 126.287 224.022 129.357 221.02L148.885 201.54C149.154 201.272 149.154 200.846 148.885 200.578C148.083 199.785 148.083 198.523 148.885 197.734C149.682 196.957 150.986 196.957 151.791 197.734C152.061 198.007 152.502 198.007 152.777 197.734L155.502 195.079C155.725 194.856 155.75 194.524 155.597 194.261L145.186 184.095C144.917 183.947 144.577 183.967 144.354 184.19L141.629 186.85C141.355 187.118 141.36 187.544 141.634 187.811C142.436 188.599 142.436 189.873 141.634 190.654C140.827 191.438 139.524 191.434 138.722 190.654C138.454 190.383 138.013 190.383 137.733 190.654L118.214 210.134C115.14 213.133 115.327 217.834 118.402 220.837Z" fill="white"/>
<path d="M204.677 213.089L169.578 181L160 190.189L194.008 223.109C196.904 226.006 201.55 226.006 204.562 223.226C207.464 220.328 207.58 215.875 204.677 213.089ZM202.005 220.772C200.503 222.331 198.063 222.109 196.443 220.655C195.051 219.319 195.051 216.88 196.443 215.431C198.063 213.979 200.503 213.979 202.005 215.431C203.52 216.88 203.52 219.44 202.005 220.772Z" fill="white"/>
<path d="M151.235 180.665L160.703 171.421L151.54 163.256C148.846 160.398 148.136 159.248 148.846 155.919C149.668 152.253 149.008 145.515 142.615 141.928C135.273 137.802 127.815 141.581 127.815 141.581L127.231 142.498C127.231 142.498 133.811 146.744 134.633 147.205C135.567 147.779 138.388 150.871 134.978 155.805C131.685 160.734 128.053 159.134 126.993 158.327C126.175 157.866 119.59 153.739 119.59 153.739L119.006 154.655C119.006 154.655 118.534 163.256 125.816 167.843C129.225 170.023 132.863 170.023 135.449 169.111C138.032 168.309 139.914 169.225 143.081 172.203L151.235 180.665Z" fill="white"/>
</svg>
