<svg width="351" height="339" viewBox="0 0 351 339" fill="none" xmlns="http://www.w3.org/2000/svg">
<path d="M122.437 334.155L123.606 335.985L125.459 334.852C171.222 306.882 208.959 268.007 235.062 221.941C261.165 175.874 274.764 124.151 274.553 71.714L274.545 69.5267L272.318 69.5517L106.132 71.4228L104.141 71.4452L103.991 73.3946C101.936 100.194 92.4895 119.34 80.8666 139.852C69.3804 160.123 52.7726 177.233 32.6291 189.544L30.7762 190.677L31.9453 192.507L122.437 334.155Z" fill="#033452" stroke="#021B2B" stroke-width="4.34324"/>
<path d="M159.552 192.055L179.554 172.122L199.556 152.188L202.257 147.271L200.913 145.953L196.158 148.752L155.721 188.232L159.552 192.055Z" fill="white"/>
<path d="M123.402 222.982C126.476 225.984 131.287 226.167 134.357 223.166L153.885 203.685C154.154 203.417 154.154 202.991 153.885 202.723C153.083 201.931 153.083 200.668 153.885 199.88C154.682 199.102 155.986 199.102 156.791 199.88C157.061 200.153 157.502 200.153 157.777 199.88L160.502 197.224C160.725 197.001 160.75 196.67 160.597 196.407L150.186 186.241C149.917 186.092 149.577 186.112 149.354 186.335L146.629 188.996C146.355 189.263 146.36 189.69 146.634 189.956C147.436 190.745 147.436 192.018 146.634 192.8C145.827 193.583 144.524 193.579 143.722 192.8C143.454 192.528 143.013 192.528 142.733 192.8L123.214 212.279C120.14 215.278 120.327 219.98 123.402 222.982Z" fill="white"/>
<path d="M209.458 213.48L174.359 181.391L164.781 190.58L198.789 223.5C201.685 226.397 206.331 226.397 209.344 223.617C212.245 220.719 212.361 216.265 209.458 213.48ZM206.786 221.163C205.285 222.721 202.844 222.5 201.225 221.046C199.833 219.709 199.833 217.271 201.225 215.822C202.844 214.369 205.285 214.369 206.786 215.822C208.301 217.271 208.301 219.83 206.786 221.163Z" fill="white"/>
<path d="M157.247 183.665L166.715 174.421L157.551 166.256C154.857 163.398 154.148 162.248 154.857 158.919C155.679 155.253 155.02 148.515 148.627 144.928C141.285 140.802 133.827 144.581 133.827 144.581L133.243 145.498C133.243 145.498 139.823 149.744 140.645 150.205C141.579 150.779 144.4 153.871 140.99 158.805C137.697 163.734 134.065 162.134 133.004 161.327C132.187 160.866 125.602 156.739 125.602 156.739L125.018 157.655C125.018 157.655 124.546 166.256 131.827 170.843C135.236 173.023 138.875 173.023 141.461 172.111C144.044 171.309 145.926 172.225 149.092 175.203L157.247 183.665Z" fill="white"/>
</svg>
