<svg width="251" height="278" viewBox="0 0 251 278" fill="none" xmlns="http://www.w3.org/2000/svg">
<path d="M204.883 118.4C231.844 164.809 246.668 217.291 247.991 270.956L76.7613 273.879C75.9693 249.61 69.1735 225.901 56.9711 204.897C44.7172 183.803 26.2986 167.626 5.67268 155.114L93.8337 5.58304C139.718 33.1876 177.924 71.9929 204.883 118.4Z" fill="#033452" stroke="#021B2B" stroke-width="4.34324"/>
<path d="M180.366 144.766L177.921 142.457C176.702 141.306 174.414 142.05 172.891 142.457L153.998 122.94L133.833 115.706L130.684 118.896L148.361 135.782L86.9831 196.321C85.2081 198.119 85.144 202.495 86.9831 204.232L88.7486 205.9C90.5867 207.636 94.8832 206.977 96.6573 205.18L157.795 144.642C157.795 144.642 165.705 148.307 165.343 149.81C164.981 151.312 164.37 153.799 165.588 154.95L168.034 157.259C169.872 158.996 172.803 158.945 174.577 157.148L180.482 151.166C182.255 149.368 182.205 146.504 180.366 144.766Z" fill="white"/>
</svg>
