<svg width="67" height="67" viewBox="0 0 67 67" fill="none" xmlns="http://www.w3.org/2000/svg">
<path d="M26.6667 60C26.6667 61.7681 25.9643 63.4638 24.714 64.714C23.4638 65.9643 21.7681 66.6667 20 66.6667C18.2319 66.6667 16.5362 65.9643 15.286 64.714C14.0357 63.4638 13.3333 61.7681 13.3333 60C13.3333 58.2319 14.0357 56.5362 15.286 55.286C16.5362 54.0357 18.2319 53.3333 20 53.3333C21.7681 53.3333 23.4638 54.0357 24.714 55.286C25.9643 56.5362 26.6667 58.2319 26.6667 60ZM53.3333 53.3333C51.5652 53.3333 49.8695 54.0357 48.6193 55.286C47.369 56.5362 46.6667 58.2319 46.6667 60C46.6667 61.7681 47.369 63.4638 48.6193 64.714C49.8695 65.9643 51.5652 66.6667 53.3333 66.6667C55.1014 66.6667 56.7971 65.9643 58.0474 64.714C59.2976 63.4638 60 61.7681 60 60C60 58.2319 59.2976 56.5362 58.0474 55.286C56.7971 54.0357 55.1014 53.3333 53.3333 53.3333ZM20.6667 42.1C20.6333 42.2333 20.6333 42.3667 20.6667 42.5C20.6667 42.721 20.7545 42.933 20.9107 43.0893C21.067 43.2455 21.279 43.3333 21.5 43.3333H60V50H20C18.2319 50 16.5362 49.2976 15.286 48.0474C14.0357 46.7971 13.3333 45.1014 13.3333 43.3333C13.3333 42.1667 13.5667 41.0333 14.1333 40L18.6667 31.9667L6.66667 6.66667H0V0H10.9L14.0333 6.66667H63.3333C64.2174 6.66667 65.0652 7.01786 65.6904 7.64298C66.3155 8.2681 66.6667 9.11594 66.6667 10C66.6667 10.5667 66.5 11.1333 66.2667 11.6667L54.3333 33.3333C53.1333 35.4 50.9 36.6667 48.5 36.6667H23.6667L20.6667 42.1ZM26.6667 25H40V31.6667L50 21.6667L40 11.6667V18.3333H26.6667V25Z" fill="white"/>
</svg>
