<svg width="56" height="55" viewBox="0 0 56 55" fill="none" xmlns="http://www.w3.org/2000/svg">
<path d="M0.5 55V5.5C0.5 3.9875 1.039 2.69317 2.117 1.617C3.195 0.540833 4.48933 0.00183333 6 0H50C51.5125 0 52.8077 0.539 53.8857 1.617C54.9637 2.695 55.5018 3.98933 55.5 5.5V38.5C55.5 40.0125 54.9619 41.3078 53.8857 42.3857C52.8096 43.4637 51.5143 44.0018 50 44H11.5L0.5 55ZM19.9562 33.6875L28 28.8063L36.0437 33.6875L33.9125 24.5438L41.0625 18.3563L31.6437 17.6L28 8.9375L24.3562 17.6L14.9375 18.3563L22.0875 24.5438L19.9562 33.6875Z" fill="white"/>
</svg>
