<svg width="235" height="266" viewBox="0 0 235 266" fill="none" xmlns="http://www.w3.org/2000/svg">
<path d="M192.019 113.551C217.283 158.013 231.183 208.292 232.437 259.709L72.1214 262.507C71.3651 239.262 64.9917 216.554 53.5567 196.43C42.0691 176.213 24.8077 160.701 5.4758 148.701L88.0538 5.50605C131.002 31.9556 166.77 69.1152 192.019 113.551Z" fill="#3C4043" stroke="#252829" stroke-width="4.34324"/>
<path d="M159.5 136V193.5H93.5V136H159.5ZM158.25 129H94.9167C90.5229 129 87 132.523 87 136.917V192.333C87 196.727 90.5229 200.25 94.9167 200.25H126.583H158.25C162.644 200.25 166.167 196.727 166.167 192.333V136.917C166.167 132.523 162.644 129 158.25 129ZM150.333 176.5H102.833V184.417H150.333V176.5ZM118.667 144.833H102.833V168.583H118.667V144.833ZM126.583 152.75H150.333V144.833H126.583V152.75ZM150.333 160.667H126.583V168.583H150.333V160.667Z" fill="white"/>
</svg>
