<svg width="235" height="266" viewBox="0 0 235 266" fill="none" xmlns="http://www.w3.org/2000/svg">
<path d="M192.019 113.551C217.283 158.013 231.183 208.292 232.437 259.709L72.1214 262.507C71.3651 239.262 64.9917 216.554 53.5567 196.43C42.0691 176.213 24.8077 160.701 5.4758 148.701L88.0538 5.50605C131.002 31.9556 166.77 69.1152 192.019 113.551Z" fill="url(#paint0_linear_1865_8892)" stroke="white" stroke-width="4.34324"/>
<path d="M154.5 131V188.5H88.5V131H154.5ZM153.25 124H89.9167C85.5229 124 82 127.523 82 131.917V187.333C82 191.727 85.5229 195.25 89.9167 195.25H121.583H153.25C157.644 195.25 161.167 191.727 161.167 187.333V131.917C161.167 127.523 157.644 124 153.25 124ZM145.333 171.5H97.8333V179.417H145.333V171.5ZM113.667 139.833H97.8333V163.583H113.667V139.833ZM121.583 147.75H145.333V139.833H121.583V147.75ZM145.333 155.667H121.583V163.583H145.333V155.667Z" fill="white"/>
<defs>
<linearGradient id="paint0_linear_1865_8892" x1="115.041" y1="2.00757" x2="119.612" y2="263.85" gradientUnits="userSpaceOnUse">
<stop stop-color="#D97121"/>
<stop offset="1" stop-color="#DE7C28"/>
</linearGradient>
</defs>
</svg>
