<svg width="45" height="45" viewBox="0 0 45 45" fill="none" xmlns="http://www.w3.org/2000/svg">
<rect opacity="0.25" x="5.63895" y="5.63785" width="33.1687" height="33.1687" rx="1.56379" stroke="#0A0338" stroke-width="0.164609"/>
<rect opacity="0.25" x="3.78738" y="7.48965" width="36.8724" height="29.465" rx="1.56379" stroke="#0A0338" stroke-width="0.164609"/>
<rect opacity="0.25" x="7.49246" y="3.78604" width="29.465" height="36.8724" rx="1.56379" stroke="#0A0338" stroke-width="0.164609"/>
<circle opacity="0.25" cx="22.2236" cy="22.2223" r="18.4362" stroke="#0A0338" stroke-width="0.164609"/>
<circle opacity="0.25" cx="22.2241" cy="22.2223" r="9.17695" stroke="#0A0338" stroke-width="0.164609"/>
<path opacity="0.25" d="M22.1419 0.0823045V14.7325H14.8991V0.0823045L22.1419 0.0823045ZM14.8991 14.8971H22.1419V22.1399H14.8991V14.8971ZM22.3065 22.1399V14.8971H29.5493V22.1399H22.3065ZM14.8991 22.3045H22.1419V29.5473H14.8991V22.3045ZM22.3065 29.5473V22.3045H29.5493V29.5473H22.3065ZM14.8991 29.7119H22.1419V44.3621H14.8991V29.7119ZM22.3065 44.3621V29.7119H29.5493V44.3621H22.3065ZM14.7345 29.7119V44.3621H0.0842576L0.0842576 29.7119H14.7345ZM14.7345 29.5473H0.0842576L0.0842576 22.3045H14.7345V29.5473ZM14.7345 22.1399H0.0842576L0.0842576 14.8971H14.7345V22.1399ZM0.0842576 14.7325L0.0842576 0.0823045L14.7345 0.0823045V14.7325H0.0842576ZM22.3065 14.7325V0.0823045L29.5493 0.0823045V14.7325H22.3065ZM29.7139 14.7325V0.0823045L44.3641 0.0823045V14.7325H29.7139ZM29.7139 14.8971H44.3641V22.1399H29.7139V14.8971ZM29.7139 22.3045H44.3641V29.5473H29.7139V22.3045ZM29.7139 29.7119H44.3641V44.3621H29.7139V29.7119Z" stroke="#0A0338" stroke-width="0.164609"/>
<path d="M18.5195 14.8148L25.9269 22.2222L18.5195 29.6296" stroke="#FBFBFB" stroke-width="2.46914" stroke-linecap="round" stroke-linejoin="round"/>
</svg>
