<svg width="76" height="76" viewBox="0 0 76 76" fill="none" xmlns="http://www.w3.org/2000/svg">
<rect width="76" height="76" rx="16" fill="black"/>
<g clip-path="url(#clip0_1_16068)">
<path d="M48.405 31.2843C51.4965 33.4931 55.2839 34.7928 59.3743 34.7928V26.9257C58.6001 26.9259 57.8281 26.8451 57.0707 26.6847V32.8772C52.9806 32.8772 49.1937 31.5778 46.1015 29.3691V45.4236C46.1015 53.455 39.5874 59.9651 31.5525 59.9651C28.5545 59.9651 25.7679 59.0592 23.4531 57.5055C26.0951 60.2056 29.7795 61.8805 33.8556 61.8805C41.8911 61.8805 48.4053 55.3704 48.4053 47.3386V31.2843H48.405ZM51.2469 23.3474C49.6669 21.6222 48.6295 19.3927 48.405 16.9278V15.916H46.222C46.7715 19.0488 48.646 21.7252 51.2469 23.3474ZM28.5352 51.3427C27.6524 50.1859 27.1753 48.7707 27.1774 47.3156C27.1774 43.6425 30.1569 40.6642 33.8329 40.6642C34.5178 40.6638 35.1987 40.7689 35.8517 40.9758V32.9328C35.0887 32.8284 34.3187 32.7839 33.549 32.8003V39.0605C32.8958 38.8534 32.2145 38.7483 31.5292 38.749C27.8534 38.749 24.8741 41.7269 24.8741 45.4006C24.8741 47.9982 26.3632 50.2471 28.5352 51.3427Z" fill="#FF004F"/>
<path d="M46.1016 29.3689C49.1939 31.5776 52.9805 32.8771 57.0707 32.8771V26.6846C54.7876 26.1984 52.7664 25.0061 51.2468 23.3474C48.6457 21.725 46.7716 19.0486 46.2221 15.916H40.488V47.3383C40.475 51.0015 37.5006 53.9676 33.8326 53.9676C31.6713 53.9676 29.7509 52.9379 28.5349 51.3425C26.3633 50.2471 24.874 47.9981 24.874 45.4008C24.874 41.7274 27.8533 38.7491 31.5291 38.7491C32.2334 38.7491 32.9122 38.8587 33.5489 39.0606V32.8004C25.6551 32.9635 19.3066 39.41 19.3066 47.3385C19.3066 51.2963 20.8875 54.8842 23.4533 57.5059C25.7681 59.0592 28.5546 59.9654 31.5528 59.9654C39.5878 59.9654 46.1017 53.4548 46.1017 45.4236L46.1016 29.3689Z" fill="black"/>
<path d="M57.0705 26.6836V25.0095C55.0116 25.0127 52.9934 24.4364 51.2466 23.3466C52.7929 25.0385 54.829 26.2053 57.0705 26.6839M46.2217 15.915C46.1693 15.6157 46.1291 15.3144 46.1012 15.0118V14H38.1838V45.4226C38.1713 49.0855 35.1969 52.0516 31.5287 52.0516C30.4888 52.0531 29.4631 51.8101 28.5345 51.342C29.7506 52.9371 31.6709 53.9666 33.8322 53.9666C37.5001 53.9666 40.4748 51.0009 40.4877 47.3377V15.9152L46.2217 15.915ZM33.549 32.7994V31.017C32.8874 30.9266 32.2205 30.8813 31.5527 30.8816C23.5169 30.8816 17.0029 37.3921 17.0029 45.4226C17.0029 50.4575 19.563 54.8947 23.4533 57.5047C20.8875 54.8833 19.3066 51.2952 19.3066 47.3375C19.3066 39.4092 25.6548 32.9625 33.549 32.7994Z" fill="#00F2EA"/>
</g>
<defs>
<clipPath id="clip0_1_16068">
<rect width="42.378" height="48" fill="white" transform="translate(17 14)"/>
</clipPath>
</defs>
</svg>
