<svg width="365" height="341" viewBox="0 0 365 341" fill="none" xmlns="http://www.w3.org/2000/svg">
<path d="M360.626 139.076L361.765 137.227L359.894 136.125C313.316 108.674 260.319 93.365 205.966 91.6602C151.582 89.9543 91.2837 104.509 43.0238 128.974L40.9727 130.014L42.1103 131.968L128.449 280.24L129.481 282.012L131.342 281.069C152.585 270.3 176.298 265.038 200.218 265.788C224.138 266.539 247.463 273.276 267.965 285.359L269.836 286.461L270.975 284.612L360.626 139.076Z" fill="#033452" stroke="#021B2B" stroke-width="4.34324"/>
<path d="M234.246 153.01C233.385 152.188 232.006 152.203 231.166 153.044C230.325 153.884 230.34 155.234 231.2 156.057L239.215 163.722V173.706C239.215 173.894 239.292 174.076 239.43 174.209L246.879 181.432V197.317C246.879 199.147 246.356 205.126 239.62 205.126C232.884 205.126 232.36 199.147 232.36 197.317V187.375C232.36 178.701 227.412 175.82 221.795 174.944V148.261C221.795 145.908 219.845 144 217.439 144H179.204C176.799 144 174.849 145.908 174.849 148.261V217.612H169.903C168.3 217.612 167 218.886 167 220.454V225.682C167 226.072 167.326 226.392 167.725 226.392H228.918C229.319 226.392 229.644 226.072 229.644 225.682V220.454C229.644 218.886 228.344 217.612 226.74 217.612H221.794V179.262C226.333 180.14 228.003 182.539 228.003 187.375V197.317C228.003 201.799 230.449 209.388 239.619 209.388C248.788 209.388 251.235 201.8 251.235 197.317V170.155C251.235 169.581 250.998 169.031 250.58 168.631L234.246 153.01ZM216.338 181.634C216.338 182.026 216.014 182.344 215.614 182.344H181.03C180.629 182.344 180.304 182.026 180.304 181.634V153.489C180.304 153.097 180.63 152.779 181.03 152.779H215.613C216.014 152.779 216.337 153.098 216.337 153.489L216.338 181.634Z" fill="white"/>
</svg>
