<svg width="365" height="341" viewBox="0 0 365 341" fill="none" xmlns="http://www.w3.org/2000/svg">
<path d="M360.626 139.076L361.765 137.227L359.894 136.125C313.316 108.674 260.319 93.365 205.966 91.6602C151.582 89.9543 91.2837 104.509 43.0238 128.974L40.9727 130.014L42.1103 131.968L128.449 280.24L129.481 282.012L131.342 281.069C152.585 270.3 176.298 265.038 200.218 265.788C224.138 266.539 247.463 273.276 267.965 285.359L269.836 286.461L270.975 284.612L360.626 139.076Z" fill="#021B2B" stroke="white" stroke-width="4.34324"/>
<path d="M234.246 138.01C233.385 137.188 232.006 137.203 231.166 138.044C230.325 138.884 230.34 140.234 231.2 141.057L239.215 148.722V158.706C239.215 158.894 239.292 159.076 239.43 159.209L246.879 166.432V182.317C246.879 184.147 246.356 190.126 239.62 190.126C232.884 190.126 232.36 184.147 232.36 182.317V172.375C232.36 163.701 227.412 160.82 221.795 159.944V133.261C221.795 130.908 219.845 129 217.439 129H179.204C176.799 129 174.849 130.908 174.849 133.261V202.612H169.903C168.3 202.612 167 203.886 167 205.454V210.682C167 211.072 167.326 211.392 167.725 211.392H228.918C229.319 211.392 229.644 211.072 229.644 210.682V205.454C229.644 203.886 228.344 202.612 226.74 202.612H221.794V164.262C226.333 165.14 228.003 167.539 228.003 172.375V182.317C228.003 186.799 230.449 194.388 239.619 194.388C248.788 194.388 251.235 186.8 251.235 182.317V155.155C251.235 154.581 250.998 154.031 250.58 153.631L234.246 138.01ZM216.338 166.634C216.338 167.026 216.014 167.344 215.614 167.344H181.03C180.629 167.344 180.304 167.026 180.304 166.634V138.489C180.304 138.097 180.63 137.779 181.03 137.779H215.613C216.014 137.779 216.337 138.098 216.337 138.489L216.338 166.634Z" fill="white"/>
</svg>
