<svg width="49" height="47" viewBox="0 0 49 47" fill="none" xmlns="http://www.w3.org/2000/svg">
<path d="M12.9849 3.79803L9.64683 0.451697C4.0507 4.71066 0.349152 11.3338 0 18.8185H4.68154C5.03069 12.6221 8.2157 7.18924 12.9849 3.79803ZM44.3185 18.8185H49C48.6508 11.3338 44.9493 4.71066 39.3348 0.451697L35.9886 3.79803C40.7843 7.18924 43.9693 12.6221 44.3185 18.8185ZM39.7103 19.9925C39.7103 12.8079 34.7286 6.79316 28.0075 5.20471V3.6102C28.0075 1.67065 26.4436 0.100586 24.5 0.100586C22.5563 0.100586 20.9924 1.67065 20.9924 3.6102V5.20471C14.2713 6.79316 9.28956 12.8099 9.28956 19.9925V32.8611L4.61007 37.5365V39.8762H44.3898V37.5365L39.7103 32.8611V19.9925ZM24.5 46.8996C24.8287 46.8996 25.1308 46.8792 25.4391 46.8056C26.954 46.5035 28.2218 45.45 28.8037 44.0412C29.0385 43.4859 29.1814 42.8755 29.1814 42.218H19.8184C19.8184 44.7926 21.9254 46.8996 24.5 46.8996Z" fill="white"/>
</svg>
