<?xml version="1.0" encoding="UTF-8" standalone="no"?>
<svg
   width="234.06406"
   height="260.93463"
   viewBox="0 0 234.06406 260.93463"
   fill="none"
   version="1.1"
   id="svg2"
   sodipodi:docname="Group 1000004335.svg"
   inkscape:version="1.3.2 (091e20e, 2023-11-25, custom)"
   xmlns:inkscape="http://www.inkscape.org/namespaces/inkscape"
   xmlns:sodipodi="http://sodipodi.sourceforge.net/DTD/sodipodi-0.dtd"
   xmlns="http://www.w3.org/2000/svg"
   xmlns:svg="http://www.w3.org/2000/svg">
  <defs
     id="defs2" />
  <sodipodi:namedview
     id="namedview2"
     pagecolor="#505050"
     bordercolor="#eeeeee"
     borderopacity="1"
     inkscape:showpageshadow="0"
     inkscape:pageopacity="0"
     inkscape:pagecheckerboard="0"
     inkscape:deskcolor="#505050"
     inkscape:zoom="3.6226994"
     inkscape:cx="139.2608"
     inkscape:cy="120.7663"
     inkscape:window-width="2560"
     inkscape:window-height="1377"
     inkscape:window-x="-8"
     inkscape:window-y="-8"
     inkscape:window-maximized="1"
     inkscape:current-layer="svg2" />
  <path
     d="m 89.009191,256.09977 1.15,1.842 1.842,-1.151 c 42.938999,-26.831 78.345999,-64.122 102.836999,-108.311 24.491,-44.189 37.249,-93.799999 37.052,-144.0948986 l -0.009,-2.1882 -2.188,0.0252 -155.855199,1.7941 -1.9915,0.0229 -0.149,1.9861 c -1.9255,25.6714996 -10.7754,44.0117996 -21.6726,63.6727996 -10.7615,19.417 -26.3206,35.803999 -45.1912002,47.595999 l -1.8416,1.151 1.1507,1.842 z"
     fill="#3c4043"
     stroke="#26292a"
     stroke-width="4.34324"
     id="path1" />
  <path
     d="m 179.02119,111.52377 -6.806,-20.416999 c -0.692,-1.96 -2.537,-3.229 -4.614,-3.229 h -20.301 c -1.96,0 -3.46,1.499 -3.46,3.46 v 26.990999 c 0,1.615 -1.269,2.884 -2.884,2.884 h -5.536 L 95.971191,76.457771 c -0.461,-0.576 -1.153,-0.807 -1.845,-0.807 h -15.226 c -1.384,-0.115 -2.422,1.038 -2.422,2.422 v 19.955 c 0,1.384 1.153,2.421999 2.537,2.421999 1.5,0 2.653,1.269 2.653,2.769 0,1.499 -1.269,2.768 -2.768,2.768 -1.154,0 -2.192,-0.692 -2.538,-1.73 -0.576,-1.384 -2.422,-1.961 -3.6908,-1.038 -1.0382,0.692 -1.1535,2.191 -0.6921,3.23 1.6148,3.46 5.5369,5.305 9.4589,4.037 2.422,-0.808 4.383,-2.884 4.959,-5.422 1.039,-4.152 -1.384,-7.958999 -5.075,-9.226999 v -11.65 h 8.882 L 112.23519,121.21277 H 74.747191 c -1.9605,0 -3.46,1.499 -3.46,3.46 v 8.305 c 0.0207,4.687 0,4.96 4.96,4.96 h 6.113 c 0,7.498 6.114,13.726 13.727,13.726 7.611999,0 13.725999,-6.113 13.725999,-13.726 h 32.528 c 0,7.498 6.228,13.726 13.726,13.726 7.613,0 13.726,-6.113 13.726,-13.726 h 6.229 c 4.844,0 4.844,0 4.844,-4.844 v -10.382 c 0,-3.806 -0.576,-7.612 -1.845,-11.188 z m -82.933999,32.874 c -3.576,0 -6.46,-2.884 -6.46,-6.46 0,-3.576 2.884,-6.459 6.46,-6.459 3.575,0 6.458999,2.883 6.458999,6.459 0,3.576 -2.883999,6.46 -6.458999,6.46 z m 59.979999,0 c -3.576,0 -6.46,-2.884 -6.46,-6.46 0,-3.576 2.884,-6.459 6.46,-6.459 3.576,0 6.459,2.883 6.459,6.459 0.116,3.576 -2.883,6.46 -6.459,6.46 z m 12.688,-34.72 h -15.687 c -1.038,0 -1.961,0 -1.961,-1.961 V 96.989771 c 0,-2.476 -0.135,-3.721 1.939,-3.721 h 11.618 c 0.807,0 1.014,0.437 1.245,1.245 l 4.345,13.318999 c 0.219,1.618 -0.461,1.845 -1.499,1.845 z"
     fill="#ffffff"
     id="path2" />
</svg>
