<svg width="61" height="62" viewBox="0 0 61 62" fill="none" xmlns="http://www.w3.org/2000/svg">
<path d="M51.9937 8.91403C49.1906 6.08259 45.8518 3.83761 42.172 2.31005C38.4922 0.78248 34.545 0.00290372 30.5608 0.0167837C13.867 0.0167837 0.2612 13.6225 0.2612 30.3164C0.2612 35.6669 1.66764 40.8646 4.29707 45.4509L0.0166016 61.1663L16.0683 56.947C20.5017 59.3624 25.4854 60.6465 30.5608 60.6465C47.2546 60.6465 60.8604 47.0407 60.8604 30.3469C60.8604 22.2446 57.7111 14.6315 51.9937 8.91403ZM30.5608 55.5099C26.0357 55.5099 21.6024 54.287 17.7194 51.9939L16.8021 51.4435L7.26282 53.9506L9.80052 44.6559L9.18903 43.7081C6.67501 39.6935 5.34009 35.0531 5.33661 30.3164C5.33661 16.4354 16.6493 5.12277 30.5302 5.12277C37.2566 5.12277 43.5856 7.7522 48.3247 12.5219C50.6713 14.8577 52.5309 17.636 53.7957 20.6958C55.0606 23.7556 55.7055 27.036 55.6932 30.3469C55.7544 44.2279 44.4417 55.5099 30.5608 55.5099ZM44.3806 36.6759C43.6162 36.309 39.8861 34.4745 39.2134 34.1994C38.5102 33.9548 38.021 33.8325 37.5012 34.5662C36.9815 35.3306 35.5445 37.0428 35.1164 37.532C34.6884 38.0518 34.2297 38.1129 33.4654 37.7154C32.701 37.3485 30.255 36.523 27.381 33.9548C25.1185 31.9368 23.6203 29.4603 23.1617 28.6959C22.7336 27.9315 23.1005 27.5341 23.498 27.1366C23.8343 26.8003 24.2624 26.2499 24.6293 25.8219C24.9962 25.3938 25.149 25.0575 25.3936 24.5683C25.6382 24.0485 25.5159 23.6205 25.3325 23.2536C25.149 22.8867 23.6203 19.1566 23.0088 17.6278C22.3973 16.1603 21.7552 16.3437 21.2966 16.3131H19.829C19.3093 16.3131 18.5143 16.4966 17.8111 17.2609C17.1385 18.0253 15.1817 19.8598 15.1817 23.5899C15.1817 27.32 17.9028 30.9279 18.2697 31.4171C18.6366 31.9368 23.6203 39.5805 31.2028 42.852C33.0068 43.6469 34.4132 44.1056 35.5139 44.4419C37.3178 45.0228 38.9688 44.9311 40.2835 44.7476C41.7511 44.5336 44.778 42.9132 45.3895 41.1398C46.0316 39.3665 46.0316 37.8683 45.8176 37.532C45.6035 37.1957 45.1449 37.0428 44.3806 36.6759Z" fill="white"/>
</svg>
