<svg width="76" height="76" viewBox="0 0 76 76" fill="none" xmlns="http://www.w3.org/2000/svg">
<rect width="76" height="76" rx="16" fill="#FF0000"/>
<path d="M51.2295 37.5C51.2305 37.9048 51.1267 38.303 50.9282 38.6558C50.7298 39.0086 50.4433 39.3041 50.0969 39.5134L28.6244 52.649C28.2624 52.8707 27.8478 52.9917 27.4234 52.9996C26.9989 53.0075 26.5801 52.9019 26.2101 52.6937C25.8437 52.4888 25.5384 52.19 25.3257 51.8281C25.113 51.4661 25.0006 51.054 25 50.6341V24.3659C25.0006 23.946 25.113 23.5339 25.3257 23.1719C25.5384 22.81 25.8437 22.5111 26.2101 22.3063C26.5801 22.0981 26.9989 21.9925 27.4234 22.0004C27.8478 22.0083 28.2624 22.1293 28.6244 22.351L50.0969 35.4866C50.4433 35.6959 50.7298 35.9914 50.9282 36.3442C51.1267 36.697 51.2305 37.0952 51.2295 37.5Z" fill="white"/>
</svg>
