<svg width="29" height="29" viewBox="0 0 29 29" fill="none" xmlns="http://www.w3.org/2000/svg">
<path d="M16.2608 10.1535H13.4594V7.2525H16.2608M16.2608 21.7575H13.4594V13.0545H16.2608M14.8601 0C13.0207 0 11.1994 0.375183 9.50002 1.10413C7.80066 1.83307 6.25658 2.9015 4.95595 4.24842C2.32921 6.96863 0.853516 10.658 0.853516 14.505C0.853516 18.352 2.32921 22.0414 4.95595 24.7616C6.25658 26.1085 7.80066 27.1769 9.50002 27.9059C11.1994 28.6348 13.0207 29.01 14.8601 29.01C18.5749 29.01 22.1375 27.4818 24.7643 24.7616C27.391 22.0414 28.8667 18.352 28.8667 14.505C28.8667 12.6002 28.5044 10.714 27.8005 8.95418C27.0966 7.19435 26.0649 5.59533 24.7643 4.24842C23.4636 2.9015 21.9196 1.83307 20.2202 1.10413C18.5208 0.375183 16.6995 0 14.8601 0Z" fill="#FF8828"/>
</svg>
