<svg width="45" height="45" viewBox="0 0 45 45" fill="none" xmlns="http://www.w3.org/2000/svg">
<rect opacity="0.25" x="38.8064" y="38.8064" width="33.1687" height="33.1687" rx="1.56379" transform="rotate(-180 38.8064 38.8064)" stroke="#0A0338" stroke-width="0.164609"/>
<rect opacity="0.25" x="40.656" y="36.9546" width="36.8724" height="29.465" rx="1.56379" transform="rotate(-180 40.656 36.9546)" stroke="#0A0338" stroke-width="0.164609"/>
<rect opacity="0.25" x="36.9548" y="40.6584" width="29.465" height="36.8724" rx="1.56379" transform="rotate(-180 36.9548 40.6584)" stroke="#0A0338" stroke-width="0.164609"/>
<circle opacity="0.25" cx="22.2198" cy="22.2222" r="18.4362" transform="rotate(-180 22.2198 22.2222)" stroke="#0A0338" stroke-width="0.164609"/>
<circle opacity="0.25" cx="22.2212" cy="22.2219" r="9.17695" transform="rotate(-180 22.2212 22.2219)" stroke="#0A0338" stroke-width="0.164609"/>
<path opacity="0.25" d="M22.3034 44.362L22.3034 29.7118L29.5462 29.7118V44.362H22.3034ZM29.5462 29.5472L22.3034 29.5472V22.3044H29.5462L29.5462 29.5472ZM22.1388 22.3044V29.5472H14.896V22.3044H22.1388ZM29.5462 22.1398H22.3034V14.897H29.5462V22.1398ZM22.1388 14.897V22.1398H14.896V14.897H22.1388ZM29.5462 14.7324H22.3034L22.3034 0.0822029H29.5462L29.5462 14.7324ZM22.1388 0.0822029L22.1388 14.7324H14.896L14.896 0.0822029L22.1388 0.0822029ZM29.7109 14.7324L29.7109 0.0822029H44.3611V14.7324L29.7109 14.7324ZM29.7109 14.897L44.3611 14.897L44.3611 22.1398L29.7109 22.1398V14.897ZM29.7109 22.3044L44.3611 22.3044V29.5472H29.7109L29.7109 22.3044ZM44.3611 29.7118V44.362H29.7109V29.7118H44.3611ZM22.1388 29.7118L22.1388 44.362L14.896 44.362L14.896 29.7118H22.1388ZM14.7314 29.7118L14.7314 44.362H0.0812263V29.7118L14.7314 29.7118ZM14.7314 29.5472L0.0812263 29.5472V22.3044L14.7314 22.3044V29.5472ZM14.7314 22.1398L0.0812263 22.1398L0.0812263 14.897L14.7314 14.897V22.1398ZM14.7314 14.7324L0.0812263 14.7324V0.0822029H14.7314L14.7314 14.7324Z" stroke="#0A0338" stroke-width="0.164609"/>
<path d="M25.9258 29.6296L18.5184 22.2222L25.9258 14.8148" stroke="#FBFBFB" stroke-width="2.46914" stroke-linecap="round" stroke-linejoin="round"/>
</svg>
