<svg width="30" height="30" viewBox="0 0 30 30" fill="none" xmlns="http://www.w3.org/2000/svg">
<path d="M29.4835 15.4827C29.4168 15.6327 29.3335 15.766 29.2168 15.8827L25.0502 20.0493C24.8002 20.2993 24.4835 20.416 24.1668 20.416C23.8502 20.416 23.5335 20.2993 23.2835 20.0493C23.051 19.8141 22.9207 19.4967 22.9207 19.166C22.9207 18.8353 23.051 18.5179 23.2835 18.2827L25.3168 16.2493H16.2502V25.316L18.2835 23.2827C18.7668 22.7993 19.5668 22.7993 20.0502 23.2827C20.5335 23.766 20.5335 24.566 20.0502 25.0493L15.8835 29.216C15.6464 29.446 15.3305 29.5771 15.0002 29.5827C14.6698 29.5771 14.354 29.446 14.1168 29.216L9.95018 25.0493C9.46685 24.566 9.46685 23.766 9.95018 23.2827C10.4335 22.7993 11.2335 22.7993 11.7168 23.2827L13.7502 25.316V16.2493H4.68351L6.71685 18.2827C7.20018 18.766 7.20018 19.566 6.71685 20.0493C6.46685 20.2993 6.15018 20.416 5.83351 20.416C5.51685 20.416 5.20018 20.2993 4.95018 20.0493L0.783513 15.8827C0.671123 15.7666 0.580765 15.6311 0.516846 15.4827C0.450209 15.3332 0.415771 15.1714 0.415771 15.0077C0.415771 14.844 0.450209 14.6822 0.516846 14.5327C0.583513 14.3827 0.666846 14.2493 0.783513 14.1327L4.95018 9.96601C5.43351 9.48268 6.23351 9.48268 6.71685 9.96601C7.20018 10.4493 7.20018 11.2493 6.71685 11.7327L4.68351 13.766H13.7502V4.68268L11.7168 6.71602C11.2335 7.19935 10.4335 7.19935 9.95018 6.71602C9.46685 6.23268 9.46685 5.43268 9.95018 4.94935L14.1168 0.782682C14.2335 0.666016 14.3668 0.582682 14.5168 0.516016C14.8168 0.382682 15.1668 0.382682 15.4668 0.516016C15.6168 0.582682 15.7502 0.666016 15.8668 0.782682L20.0335 4.94935C20.5168 5.43268 20.5168 6.23268 20.0335 6.71602C19.7835 6.96602 19.4668 7.08268 19.1502 7.08268C18.8335 7.08268 18.5168 6.96602 18.2668 6.71602L16.2335 4.68268V13.7493H25.3002L23.2668 11.716C22.7835 11.2327 22.7835 10.4327 23.2668 9.94935C23.7502 9.46601 24.5502 9.46601 25.0335 9.94935L29.2002 14.116C29.3168 14.2327 29.4002 14.366 29.4668 14.516C29.6002 14.816 29.6002 15.166 29.4668 15.466L29.4835 15.4827Z" fill="white"/>
</svg>
