<svg width="65" height="56" viewBox="0 0 65 56" fill="none" xmlns="http://www.w3.org/2000/svg">
<path d="M0 0.188477V2.69536V45.3124C0 50.8522 4.47549 55.34 10 55.34H55C60.5245 55.34 65 50.8522 65 45.3124V20.2436V17.7367H62.5H50V2.69536V0.188477H47.5H2.5H0ZM5 5.20225H45V17.7367V20.2436V45.3124C45 47.1428 45.5526 48.8494 46.4062 50.3262H10C7.02451 50.3262 5 48.2961 5 45.3124V5.20225ZM10 10.216V12.7229V20.2436V22.7505H12.5H37.5H40V20.2436V12.7229V10.216H37.5H12.5H10ZM15 15.2298H35V17.7367H15V15.2298ZM50 22.7505H60V45.3124C60 48.2961 57.9755 50.3262 55 50.3262C52.0245 50.3262 50 48.2961 50 45.3124V22.7505ZM10 25.2573V30.2711H22.5V25.2573H10ZM27.5 25.2573V30.2711H40V25.2573H27.5ZM10 32.778V37.7918H22.5V32.778H10ZM27.5 32.778V37.7918H40V32.778H27.5ZM10 40.2987V45.3124H22.5V40.2987H10ZM27.5 40.2987V45.3124H40V40.2987H27.5Z" fill="white"/>
</svg>
