<svg width="41" height="41" viewBox="0 0 41 41" fill="none" xmlns="http://www.w3.org/2000/svg">
<path d="M38.915 14.9235L18.0548 35.529C14.5984 38.9435 8.99396 38.9435 5.53756 35.529C2.08116 32.1146 2.08116 26.5794 5.53756 23.1649L24.3127 4.62009C26.6175 2.34422 30.3523 2.34422 32.6571 4.62009C34.9619 6.8959 34.9619 10.5871 32.6571 12.8629L13.8819 31.4077C12.7303 32.5464 10.8621 32.5464 9.70899 31.4077C8.55735 30.2705 8.55735 28.425 9.70899 27.2863L26.3977 10.8021L24.3113 8.74149L7.62405 25.2271C5.31929 27.5029 5.31929 31.194 7.62405 33.4698C9.9288 35.7457 13.6636 35.7457 15.9684 33.4698L34.7436 14.925C38.2 11.5106 38.2 5.97536 34.7436 2.56084C31.2872 -0.853613 25.6828 -0.853613 22.2264 2.56084L2.4079 22.136L2.47971 22.2076C-1.12032 26.7798 -0.803836 33.3893 3.45114 37.5912C7.70612 41.7931 14.3947 42.1077 19.0248 38.5498L19.0966 38.6215L41 16.9857L38.915 14.9235Z" fill="white"/>
</svg>
