<svg width="66" height="56" viewBox="0 0 66 56" fill="none" xmlns="http://www.w3.org/2000/svg">
<path d="M0 0V2.54545V45.8182C0 51.4431 4.54434 56 10.1538 56H55.8462C61.4557 56 66 51.4431 66 45.8182V20.3636V17.8182H63.4615H50.7692V2.54545V0H48.2308H2.53846H0ZM5.07692 5.09091H45.6923V17.8182V20.3636V45.8182C45.6923 47.6767 46.2535 49.4096 47.1202 50.9091H10.1538C7.13258 50.9091 5.07692 48.8478 5.07692 45.8182V5.09091ZM10.1538 10.1818V12.7273V20.3636V22.9091H12.6923H38.0769H40.6154V20.3636V12.7273V10.1818H38.0769H12.6923H10.1538ZM15.2308 15.2727H35.5385V17.8182H15.2308V15.2727ZM50.7692 22.9091H60.9231V45.8182C60.9231 48.8478 58.8674 50.9091 55.8462 50.9091C52.8249 50.9091 50.7692 48.8478 50.7692 45.8182V22.9091ZM10.1538 25.4545V30.5455H22.8462V25.4545H10.1538ZM27.9231 25.4545V30.5455H40.6154V25.4545H27.9231ZM10.1538 33.0909V38.1818H22.8462V33.0909H10.1538ZM27.9231 33.0909V38.1818H40.6154V33.0909H27.9231ZM10.1538 40.7273V45.8182H22.8462V40.7273H10.1538ZM27.9231 40.7273V45.8182H40.6154V40.7273H27.9231Z" fill="white"/>
</svg>
