<svg width="65" height="67" viewBox="0 0 65 67" fill="none" xmlns="http://www.w3.org/2000/svg">
<path d="M32.4669 64.9416C49.5425 64.9416 63.385 50.7588 63.385 33.2633C63.385 15.7678 49.5425 1.58496 32.4669 1.58496C15.3913 1.58496 1.54883 15.7678 1.54883 33.2633C1.54883 50.7588 15.3913 64.9416 32.4669 64.9416Z" fill="black"/>
<path d="M32.4652 66.4767C26.048 66.4817 19.7735 64.5365 14.4355 60.8872C9.09741 57.238 4.93559 52.0486 2.47646 45.9756C0.0173407 39.9025 -0.628593 33.2186 0.620362 26.7693C1.86932 20.32 4.95705 14.3952 9.49298 9.7442C14.0289 5.09321 19.8092 1.92508 26.1028 0.640526C32.3963 -0.644023 38.9203 0.0127255 44.8495 2.52772C50.7787 5.04271 55.8467 9.30293 59.4124 14.7695C62.9781 20.2361 64.8813 26.6634 64.8813 33.2383C64.8748 42.0473 61.4583 50.4939 55.3812 56.7252C49.3041 62.9564 41.0628 66.4634 32.4652 66.4767ZM32.4652 3.09486C26.6368 3.09486 20.9392 4.86571 16.093 8.18345C11.2468 11.5012 7.46971 16.2168 5.23925 21.734C3.0088 27.2512 2.42521 33.3222 3.56229 39.1792C4.69936 45.0362 7.50603 50.4162 11.6274 54.6389C15.7487 58.8616 20.9996 61.7373 26.7161 62.9023C32.4325 64.0673 38.3578 63.4694 43.7426 61.1841C49.1274 58.8988 53.7298 55.0288 56.968 50.0635C60.2061 45.0981 61.9344 39.2604 61.9344 33.2887C61.9344 29.3236 61.1722 25.3973 59.6912 21.734C58.2102 18.0707 56.0395 14.7422 53.3031 11.9384C50.5666 9.13467 47.318 6.91061 43.7426 5.39323C40.1672 3.87585 36.3352 3.09486 32.4652 3.09486Z" fill="white"/>
<path d="M15.7148 32.645C15.7148 34.8308 16.1454 36.9953 16.9819 39.0147C17.8184 41.0342 19.0444 42.8691 20.59 44.4147C22.1357 45.9604 23.9706 47.1864 25.9901 48.0229C28.0095 48.8594 30.174 49.29 32.3598 49.29C34.5457 49.29 36.7101 48.8594 38.7296 48.0229C40.749 47.1864 42.584 45.9604 44.1296 44.4147C45.6752 42.8691 46.9013 41.0342 47.7378 39.0147C48.5743 36.9953 49.0048 34.8308 49.0048 32.645C49.0048 28.2305 47.2511 23.9967 44.1296 20.8752C41.0081 17.7537 36.7743 16 32.3598 16C27.9453 16 23.7116 17.7537 20.59 20.8752C17.4685 23.9967 15.7148 28.2305 15.7148 32.645Z" stroke="white" stroke-width="3.69888" stroke-linecap="round" stroke-linejoin="round"/>
<path d="M32.3594 23.3979V32.6452L37.9077 38.1935" stroke="white" stroke-width="3.69888" stroke-linecap="round" stroke-linejoin="round"/>
</svg>
