<svg width="103" height="103" viewBox="0 0 103 103" fill="none" xmlns="http://www.w3.org/2000/svg">
<g filter="url(#filter0_dd_1_18074)">
<path d="M98.1695 47.0847C98.1695 73.0889 77.0889 94.1695 51.0847 94.1695C25.0806 94.1695 4 73.0889 4 47.0847C4 21.0806 25.0806 0 51.0847 0C77.0889 0 98.1695 21.0806 98.1695 47.0847Z" fill="#FF8828"/>
</g>
<path d="M77.974 57.5013L64.0946 51.282L64.0563 51.2643C63.3358 50.9561 62.5497 50.8324 61.7694 50.9045C60.989 50.9765 60.2389 51.2419 59.587 51.6768C59.5102 51.7275 59.4364 51.7825 59.366 51.8417L52.195 57.955C47.652 55.7484 42.9617 51.0934 40.755 46.6093L46.8772 39.3293C46.9361 39.2557 46.9921 39.182 47.0451 39.1025C47.4706 38.4523 47.7288 37.707 47.7966 36.9328C47.8645 36.1587 47.7399 35.3799 47.434 34.6656V34.6302L41.1969 20.7272C40.7925 19.7941 40.0972 19.0167 39.2147 18.5112C38.3322 18.0057 37.3099 17.7992 36.3004 17.9225C32.3082 18.4478 28.6438 20.4083 25.9915 23.438C23.3393 26.4676 21.8805 30.3591 21.8877 34.3857C21.8877 57.7783 40.92 76.8106 64.3126 76.8106C68.3392 76.8178 72.2307 75.359 75.2603 72.7067C78.2899 70.0545 80.2505 66.39 80.7758 62.3979C80.8993 61.3887 80.6932 60.3667 80.1883 59.4842C79.6833 58.6018 78.9066 57.9062 77.974 57.5013ZM64.3126 72.0967C54.3144 72.0858 44.7288 68.1091 37.659 61.0393C30.5891 53.9695 26.6125 44.3839 26.6016 34.3857C26.5905 31.5087 27.627 28.7261 29.5175 26.5574C31.4081 24.3888 34.0233 22.9824 36.8749 22.601C36.8737 22.6127 36.8737 22.6246 36.8749 22.6363L43.0619 36.4833L36.9721 43.7722C36.9103 43.8433 36.8542 43.9191 36.8042 43.999C36.3608 44.6794 36.1008 45.4627 36.0491 46.2731C35.9975 47.0835 36.1561 47.8934 36.5096 48.6245C39.1788 54.0838 44.6793 59.543 50.1975 62.2093C50.9339 62.5595 51.7486 62.7126 52.5619 62.6537C53.3752 62.5949 54.1594 62.326 54.8377 61.8735C54.9134 61.8225 54.9861 61.7674 55.0557 61.7085L62.2179 55.5981L76.0649 61.7998H76.0973C75.7205 64.6554 74.3163 67.276 72.1472 69.1712C69.9782 71.0664 67.193 72.1064 64.3126 72.0967Z" fill="white"/>
<defs>
<filter id="filter0_dd_1_18074" x="0" y="0" width="102.17" height="102.17" filterUnits="userSpaceOnUse" color-interpolation-filters="sRGB">
<feFlood flood-opacity="0" result="BackgroundImageFix"/>
<feColorMatrix in="SourceAlpha" type="matrix" values="0 0 0 0 0 0 0 0 0 0 0 0 0 0 0 0 0 0 127 0" result="hardAlpha"/>
<feOffset dy="4"/>
<feGaussianBlur stdDeviation="2"/>
<feComposite in2="hardAlpha" operator="out"/>
<feColorMatrix type="matrix" values="0 0 0 0 0 0 0 0 0 0 0 0 0 0 0 0 0 0 0.25 0"/>
<feBlend mode="normal" in2="BackgroundImageFix" result="effect1_dropShadow_1_18074"/>
<feColorMatrix in="SourceAlpha" type="matrix" values="0 0 0 0 0 0 0 0 0 0 0 0 0 0 0 0 0 0 127 0" result="hardAlpha"/>
<feOffset dy="4"/>
<feGaussianBlur stdDeviation="2"/>
<feComposite in2="hardAlpha" operator="out"/>
<feColorMatrix type="matrix" values="0 0 0 0 0 0 0 0 0 0 0 0 0 0 0 0 0 0 0.25 0"/>
<feBlend mode="normal" in2="effect1_dropShadow_1_18074" result="effect2_dropShadow_1_18074"/>
<feBlend mode="normal" in="SourceGraphic" in2="effect2_dropShadow_1_18074" result="shape"/>
</filter>
</defs>
</svg>
