<svg width="19" height="19" viewBox="0 0 19 19" fill="none" xmlns="http://www.w3.org/2000/svg">
<path fill-rule="evenodd" clip-rule="evenodd" d="M9.15589 18.3118C14.2125 18.3118 18.3118 14.2125 18.3118 9.15589C18.3118 4.09923 14.2125 0 9.15589 0C4.09923 0 0 4.09923 0 9.15589C0 14.2125 4.09923 18.3118 9.15589 18.3118ZM12.4704 7.77547C12.7454 7.50043 12.7454 7.05449 12.4704 6.77944C12.1953 6.5044 11.7494 6.5044 11.4744 6.77944L8.21612 10.0377L6.836 8.65757C6.56096 8.38253 6.11502 8.38253 5.83997 8.65757C5.56493 8.93262 5.56493 9.37856 5.83997 9.6536L7.71811 11.5317C7.85019 11.6638 8.02933 11.738 8.21612 11.738C8.40291 11.738 8.58205 11.6638 8.71413 11.5317L12.4704 7.77547Z" fill="#65DAFF"/>
</svg>
