<svg width="235" height="270" viewBox="0 0 235 270" fill="none" xmlns="http://www.w3.org/2000/svg">
<path d="M4.51158 2.8284L2.34029 2.7905L2.30239 4.9618C1.41191 55.9774 13.6185 106.369 37.7558 151.322C61.9073 196.301 102.334 238.261 145.324 265.684L147.229 266.899L148.368 264.948L230.829 123.641L231.881 121.838L230.121 120.716C211.217 108.657 195.722 91.9529 185.115 72.1985C174.507 52.444 169.143 30.2995 169.535 7.88085L169.573 5.70955L167.401 5.67165L4.51158 2.8284Z" fill="#3C4043" stroke="#252829" stroke-width="4.34324"/>
<g filter="url(#filter0_d_1849_8968)">
<path fill-rule="evenodd" clip-rule="evenodd" d="M98.5678 101.98C101.294 97.7373 105.293 94.4656 109.991 92.6332C114.69 90.8009 119.847 90.5019 124.726 91.7789C129.605 93.056 133.955 95.8437 137.153 99.7431C140.351 103.642 142.234 108.454 142.532 113.488C145.17 113.364 147.806 113.769 150.284 114.68C152.763 115.59 155.034 116.988 156.964 118.79C158.894 120.592 160.444 122.763 161.522 125.173C162.599 127.584 163.184 130.186 163.24 132.826C163.296 135.466 162.824 138.091 161.85 140.545C160.876 143 159.42 145.234 157.569 147.117C155.717 149 153.508 150.493 151.07 151.509C148.633 152.525 146.016 153.042 143.376 153.03H91.9193C88.2309 153.025 84.5859 152.234 81.2272 150.71C77.8685 149.186 74.8733 146.963 72.4413 144.19C70.0092 141.417 68.1962 138.157 67.123 134.628C66.0497 131.099 65.741 127.382 66.2173 123.725C66.6937 120.067 67.9442 116.553 69.8854 113.417C71.8267 110.281 74.4141 107.594 77.4753 105.537C80.5364 103.479 84.001 102.098 87.6381 101.484C91.2752 100.871 95.0012 101.04 98.5678 101.98ZM114.56 139.777C115.355 139.777 116.084 139.499 116.658 139.026L127.676 130.218C128.015 129.945 128.299 129.609 128.508 129.228C128.718 128.846 128.851 128.427 128.899 127.994C128.947 127.562 128.909 127.124 128.788 126.705C128.667 126.287 128.464 125.897 128.192 125.557C127.92 125.217 127.584 124.934 127.202 124.724C126.821 124.514 126.402 124.381 125.969 124.333C125.536 124.285 125.098 124.323 124.68 124.444C124.262 124.566 123.872 124.768 123.532 125.04L117.873 129.573V114.376C117.873 113.497 117.524 112.655 116.902 112.033C116.281 111.412 115.438 111.063 114.56 111.063C113.681 111.063 112.838 111.412 112.217 112.033C111.595 112.655 111.246 113.497 111.246 114.376V129.573L105.583 125.045C105.243 124.773 104.853 124.571 104.435 124.45C104.017 124.329 103.579 124.291 103.146 124.339C102.714 124.387 102.295 124.52 101.914 124.73C101.533 124.941 101.196 125.224 100.925 125.564C100.653 125.904 100.451 126.294 100.33 126.712C100.209 127.13 100.171 127.568 100.219 128C100.268 128.433 100.401 128.852 100.611 129.233C100.821 129.614 101.104 129.95 101.444 130.222L112.479 139.048C113.061 139.519 113.785 139.777 114.533 139.782L114.56 139.777Z" fill="white"/>
</g>
<defs>
<filter id="filter0_d_1849_8968" x="63.1685" y="91" width="102.908" height="67.6932" filterUnits="userSpaceOnUse" color-interpolation-filters="sRGB">
<feFlood flood-opacity="0" result="BackgroundImageFix"/>
<feColorMatrix in="SourceAlpha" type="matrix" values="0 0 0 0 0 0 0 0 0 0 0 0 0 0 0 0 0 0 127 0" result="hardAlpha"/>
<feOffset dy="2.83149"/>
<feGaussianBlur stdDeviation="1.41574"/>
<feComposite in2="hardAlpha" operator="out"/>
<feColorMatrix type="matrix" values="0 0 0 0 0 0 0 0 0 0 0 0 0 0 0 0 0 0 0.11 0"/>
<feBlend mode="normal" in2="BackgroundImageFix" result="effect1_dropShadow_1849_8968"/>
<feBlend mode="normal" in="SourceGraphic" in2="effect1_dropShadow_1849_8968" result="shape"/>
</filter>
</defs>
</svg>
