<svg width="235" height="270" viewBox="0 0 235 270" fill="none" xmlns="http://www.w3.org/2000/svg">
<path d="M4.57737 2.60575L2.40609 2.56785L2.36819 4.73915C1.47771 55.7547 13.6843 106.146 37.8216 151.099C61.9731 196.079 102.4 238.038 145.39 265.461L147.295 266.676L148.434 264.725L230.894 123.418L231.946 121.616L230.187 120.493C211.283 108.435 195.787 91.7302 185.18 71.9758C174.573 52.2213 169.209 30.0768 169.6 7.6582L169.638 5.4869L167.467 5.449L4.57737 2.60575Z" fill="url(#paint0_linear_1865_8891)" stroke="white" stroke-width="4.34324"/>
<g filter="url(#filter0_d_1865_8891)">
<path fill-rule="evenodd" clip-rule="evenodd" d="M99.5678 83.9802C102.294 79.7373 106.293 76.4656 110.991 74.6332C115.69 72.8009 120.847 72.5019 125.726 73.7789C130.605 75.056 134.955 77.8437 138.153 81.7431C141.351 85.6425 143.234 90.4536 143.532 95.488C146.17 95.3638 148.806 95.769 151.284 96.6796C153.763 97.5902 156.034 98.9878 157.964 100.79C159.894 102.592 161.444 104.763 162.522 107.173C163.599 109.584 164.184 112.186 164.24 114.826C164.296 117.466 163.824 120.091 162.85 122.545C161.876 125 160.42 127.234 158.569 129.117C156.717 131 154.508 132.493 152.07 133.509C149.633 134.525 147.016 135.042 144.376 135.03H92.9193C89.2309 135.025 85.5859 134.234 82.2272 132.71C78.8685 131.186 75.8733 128.963 73.4413 126.19C71.0092 123.417 69.1962 120.157 68.123 116.628C67.0497 113.1 66.741 109.382 67.2173 105.725C67.6937 102.067 68.9442 98.5534 70.8854 95.4171C72.8267 92.2809 75.4141 89.5944 78.4753 87.5368C81.5364 85.4792 85.001 84.0977 88.6381 83.4844C92.2752 82.8711 96.0012 83.0401 99.5678 83.9802ZM115.56 121.777C116.355 121.777 117.084 121.499 117.658 121.026L128.676 112.218C129.015 111.945 129.299 111.609 129.508 111.228C129.718 110.846 129.851 110.427 129.899 109.994C129.947 109.562 129.909 109.124 129.788 108.705C129.667 108.287 129.464 107.897 129.192 107.557C128.92 107.217 128.584 106.934 128.202 106.724C127.821 106.514 127.402 106.381 126.969 106.333C126.536 106.285 126.098 106.323 125.68 106.444C125.262 106.566 124.872 106.768 124.532 107.04L118.873 111.573V96.376C118.873 95.4973 118.524 94.6545 117.902 94.0332C117.281 93.4118 116.438 93.0628 115.56 93.0628C114.681 93.0628 113.838 93.4118 113.217 94.0332C112.595 94.6545 112.246 95.4973 112.246 96.376V111.573L106.583 107.045C106.243 106.773 105.853 106.571 105.435 106.45C105.017 106.329 104.579 106.291 104.146 106.339C103.714 106.387 103.295 106.52 102.914 106.73C102.533 106.941 102.196 107.224 101.925 107.564C101.653 107.904 101.451 108.294 101.33 108.712C101.209 109.13 101.171 109.568 101.219 110C101.268 110.433 101.401 110.852 101.611 111.233C101.821 111.614 102.104 111.95 102.444 112.222L113.479 121.048C114.061 121.519 114.785 121.777 115.533 121.782L115.56 121.777Z" fill="white"/>
</g>
<defs>
<filter id="filter0_d_1865_8891" x="64.1685" y="73" width="102.908" height="67.6932" filterUnits="userSpaceOnUse" color-interpolation-filters="sRGB">
<feFlood flood-opacity="0" result="BackgroundImageFix"/>
<feColorMatrix in="SourceAlpha" type="matrix" values="0 0 0 0 0 0 0 0 0 0 0 0 0 0 0 0 0 0 127 0" result="hardAlpha"/>
<feOffset dy="2.83149"/>
<feGaussianBlur stdDeviation="1.41574"/>
<feComposite in2="hardAlpha" operator="out"/>
<feColorMatrix type="matrix" values="0 0 0 0 0 0 0 0 0 0 0 0 0 0 0 0 0 0 0.11 0"/>
<feBlend mode="normal" in2="BackgroundImageFix" result="effect1_dropShadow_1865_8891"/>
<feBlend mode="normal" in="SourceGraphic" in2="effect1_dropShadow_1865_8891" result="shape"/>
</filter>
<linearGradient id="paint0_linear_1865_8891" x1="117.77" y1="6.7535" x2="113.297" y2="263.05" gradientUnits="userSpaceOnUse">
<stop stop-color="#D76D1F"/>
<stop offset="1" stop-color="#DF7C28"/>
</linearGradient>
</defs>
</svg>
