<svg width="33" height="33" viewBox="0 0 33 33" fill="none" xmlns="http://www.w3.org/2000/svg">
<path d="M8.375 24.625L13.575 13.575L24.625 8.375L19.425 19.425L8.375 24.625ZM16.5 15.0375C16.1121 15.0375 15.7401 15.1916 15.4659 15.4659C15.1916 15.7401 15.0375 16.1121 15.0375 16.5C15.0375 16.8879 15.1916 17.2599 15.4659 17.5341C15.7401 17.8084 16.1121 17.9625 16.5 17.9625C16.8879 17.9625 17.2599 17.8084 17.5341 17.5341C17.8084 17.2599 17.9625 16.8879 17.9625 16.5C17.9625 16.1121 17.8084 15.7401 17.5341 15.4659C17.2599 15.1916 16.8879 15.0375 16.5 15.0375ZM16.5 0.25C18.634 0.25 20.7471 0.670319 22.7186 1.48696C24.6901 2.3036 26.4815 3.50056 27.9905 5.00951C29.4994 6.51847 30.6964 8.30985 31.513 10.2814C32.3297 12.2529 32.75 14.366 32.75 16.5C32.75 20.8098 31.038 24.943 27.9905 27.9905C24.943 31.038 20.8098 32.75 16.5 32.75C14.366 32.75 12.2529 32.3297 10.2814 31.513C8.30985 30.6964 6.51847 29.4994 5.00951 27.9905C1.96205 24.943 0.25 20.8098 0.25 16.5C0.25 12.1902 1.96205 8.05698 5.00951 5.00951C8.05698 1.96205 12.1902 0.25 16.5 0.25ZM16.5 3.5C13.0522 3.5 9.74558 4.86964 7.30761 7.30761C4.86964 9.74558 3.5 13.0522 3.5 16.5C3.5 19.9478 4.86964 23.2544 7.30761 25.6924C9.74558 28.1304 13.0522 29.5 16.5 29.5C19.9478 29.5 23.2544 28.1304 25.6924 25.6924C28.1304 23.2544 29.5 19.9478 29.5 16.5C29.5 13.0522 28.1304 9.74558 25.6924 7.30761C23.2544 4.86964 19.9478 3.5 16.5 3.5Z" fill="#FF8828"/>
</svg>
