<svg width="72" height="72" viewBox="0 0 72 72" fill="none" xmlns="http://www.w3.org/2000/svg">
<g filter="url(#filter0_dd_53_38645)">
<path d="M69.1631 33.0816C69.1631 51.352 54.352 66.1631 36.0816 66.1631C17.8111 66.1631 3 51.352 3 33.0816C3 14.8111 17.8111 0 36.0816 0C54.352 0 69.1631 14.8111 69.1631 33.0816Z" fill="#FF8828"/>
</g>
<path d="M54.9739 40.4007L45.2223 36.031L45.1954 36.0186C44.6891 35.8021 44.1369 35.7152 43.5886 35.7658C43.0403 35.8164 42.5133 36.0029 42.0552 36.3084C42.0013 36.344 41.9494 36.3827 41.9 36.4243L36.8617 40.7195C33.6698 39.1691 30.3744 35.8986 28.824 32.7481L33.1254 27.6332C33.1668 27.5814 33.2061 27.5297 33.2434 27.4738C33.5423 27.017 33.7237 26.4933 33.7714 25.9494C33.819 25.4055 33.7315 24.8583 33.5166 24.3564V24.3316L29.1345 14.5634C28.8503 13.9078 28.3618 13.3616 27.7418 13.0064C27.1217 12.6513 26.4035 12.5062 25.6942 12.5928C22.8893 12.9619 20.3147 14.3394 18.4512 16.468C16.5877 18.5966 15.5628 21.3307 15.5679 24.1598C15.5679 40.5953 28.9399 53.9673 45.3754 53.9673C48.2045 53.9724 50.9386 52.9475 53.0673 51.084C55.1959 49.2205 56.5733 46.6459 56.9424 43.841C57.0292 43.132 56.8844 42.4139 56.5296 41.7939C56.1749 41.1739 55.6291 40.6852 54.9739 40.4007ZM45.3754 50.6554C38.3507 50.6477 31.6159 47.8537 26.6487 42.8865C21.6815 37.9193 18.8875 31.1845 18.8798 24.1598C18.8721 22.1384 19.6003 20.1833 20.9286 18.6597C22.2568 17.136 24.0943 16.1479 26.0978 15.8799C26.097 15.8882 26.097 15.8965 26.0978 15.9047L30.4448 25.6336L26.1661 30.7547C26.1227 30.8047 26.0833 30.858 26.0481 30.9141C25.7366 31.3921 25.5539 31.9424 25.5176 32.5118C25.4814 33.0812 25.5928 33.6503 25.8411 34.1639C27.7165 37.9996 31.5812 41.8352 35.4582 43.7086C35.9756 43.9546 36.548 44.0622 37.1195 44.0208C37.6909 43.9794 38.2418 43.7905 38.7184 43.4726C38.7716 43.4368 38.8227 43.3981 38.8716 43.3567L43.9037 39.0635L53.6326 43.4208H53.6553C53.3906 45.4272 52.404 47.2683 50.88 48.5999C49.3561 49.9315 47.3992 50.6622 45.3754 50.6554Z" fill="white"/>
<defs>
<filter id="filter0_dd_53_38645" x="0.189616" y="0" width="71.7839" height="71.7848" filterUnits="userSpaceOnUse" color-interpolation-filters="sRGB">
<feFlood flood-opacity="0" result="BackgroundImageFix"/>
<feColorMatrix in="SourceAlpha" type="matrix" values="0 0 0 0 0 0 0 0 0 0 0 0 0 0 0 0 0 0 127 0" result="hardAlpha"/>
<feOffset dy="2.81038"/>
<feGaussianBlur stdDeviation="1.40519"/>
<feComposite in2="hardAlpha" operator="out"/>
<feColorMatrix type="matrix" values="0 0 0 0 0 0 0 0 0 0 0 0 0 0 0 0 0 0 0.25 0"/>
<feBlend mode="normal" in2="BackgroundImageFix" result="effect1_dropShadow_53_38645"/>
<feColorMatrix in="SourceAlpha" type="matrix" values="0 0 0 0 0 0 0 0 0 0 0 0 0 0 0 0 0 0 127 0" result="hardAlpha"/>
<feOffset dy="2.81038"/>
<feGaussianBlur stdDeviation="1.40519"/>
<feComposite in2="hardAlpha" operator="out"/>
<feColorMatrix type="matrix" values="0 0 0 0 0 0 0 0 0 0 0 0 0 0 0 0 0 0 0.25 0"/>
<feBlend mode="normal" in2="effect1_dropShadow_53_38645" result="effect2_dropShadow_53_38645"/>
<feBlend mode="normal" in="SourceGraphic" in2="effect2_dropShadow_53_38645" result="shape"/>
</filter>
</defs>
</svg>
