<svg width="73" height="73" viewBox="0 0 73 73" fill="none" xmlns="http://www.w3.org/2000/svg">
<g filter="url(#filter0_d_1228_7872)">
<path d="M69.2139 33.0816C69.2139 51.352 54.4028 66.1631 36.1323 66.1631C17.8619 66.1631 3.05078 51.352 3.05078 33.0816C3.05078 14.8111 17.8619 0 36.1323 0C54.4028 0 69.2139 14.8111 69.2139 33.0816Z" fill="#FF8828"/>
</g>
<path d="M52.1087 16.8021C50.1393 14.8127 47.7934 13.2354 45.208 12.1621C42.6226 11.0889 39.8494 10.5412 37.0501 10.5509C25.321 10.5509 15.7617 20.1103 15.7617 31.8393C15.7617 35.5986 16.7499 39.2505 18.5973 42.4727L15.5898 53.5143L26.8677 50.5498C29.9826 52.2469 33.4841 53.1491 37.0501 53.1491C48.7791 53.1491 58.3384 43.5898 58.3384 31.8607C58.3384 26.1681 56.1258 20.8192 52.1087 16.8021ZM37.0501 49.5402C33.8708 49.5402 30.7559 48.6809 28.0277 47.0698L27.3833 46.6831L20.681 48.4446L22.464 41.9142L22.0344 41.2482C20.268 38.4276 19.3301 35.1673 19.3277 31.8393C19.3277 22.0866 27.2759 14.1384 37.0286 14.1384C41.7545 14.1384 46.2013 15.9858 49.5309 19.3369C51.1796 20.978 52.4861 22.9301 53.3748 25.0799C54.2635 27.2297 54.7167 29.5345 54.708 31.8607C54.751 41.6134 46.8027 49.5402 37.0501 49.5402ZM46.7598 36.3075C46.2227 36.0497 43.602 34.7608 43.1294 34.5674C42.6353 34.3956 42.2916 34.3097 41.9264 34.8252C41.5612 35.3623 40.5516 36.5652 40.2508 36.9089C39.9501 37.2741 39.6279 37.3171 39.0908 37.0378C38.5538 36.7801 36.8352 36.2001 34.816 34.3956C33.2263 32.9778 32.1737 31.2378 31.8515 30.7007C31.5507 30.1637 31.8085 29.8844 32.0878 29.6052C32.3241 29.3689 32.6248 28.9822 32.8826 28.6815C33.1404 28.3807 33.2478 28.1444 33.4196 27.8007C33.5915 27.4355 33.5056 27.1348 33.3767 26.877C33.2478 26.6192 32.1737 23.9984 31.7441 22.9244C31.3144 21.8932 30.8633 22.0221 30.5411 22.0007H29.51C29.1448 22.0007 28.5863 22.1295 28.0922 22.6666C27.6196 23.2036 26.2448 24.4925 26.2448 27.1133C26.2448 29.7341 28.1566 32.2689 28.4144 32.6126C28.6722 32.9778 32.1737 38.3482 37.5012 40.6468C38.7686 41.2053 39.7567 41.5275 40.5301 41.7638C41.7975 42.172 42.9575 42.1075 43.8812 41.9786C44.9124 41.8283 47.039 40.6897 47.4687 39.4438C47.9198 38.1978 47.9198 37.1452 47.7694 36.9089C47.619 36.6726 47.2968 36.5652 46.7598 36.3075Z" fill="white"/>
<defs>
<filter id="filter0_d_1228_7872" x="0.0937037" y="0" width="72.0772" height="72.0782" filterUnits="userSpaceOnUse" color-interpolation-filters="sRGB">
<feFlood flood-opacity="0" result="BackgroundImageFix"/>
<feColorMatrix in="SourceAlpha" type="matrix" values="0 0 0 0 0 0 0 0 0 0 0 0 0 0 0 0 0 0 127 0" result="hardAlpha"/>
<feOffset dy="2.95708"/>
<feGaussianBlur stdDeviation="1.47854"/>
<feComposite in2="hardAlpha" operator="out"/>
<feColorMatrix type="matrix" values="0 0 0 0 0 0 0 0 0 0 0 0 0 0 0 0 0 0 0.25 0"/>
<feBlend mode="normal" in2="BackgroundImageFix" result="effect1_dropShadow_1228_7872"/>
<feBlend mode="normal" in="SourceGraphic" in2="effect1_dropShadow_1228_7872" result="shape"/>
</filter>
</defs>
</svg>
