<svg width="24" height="24" viewBox="0 0 24 24" fill="none" xmlns="http://www.w3.org/2000/svg">
<path d="M22.1762 23.55C19.4505 23.55 16.7575 22.956 14.0973 21.768C11.437 20.58 9.01658 18.8954 6.83603 16.7139C4.65548 14.5325 2.97122 12.1121 1.78326 9.45269C0.59529 6.79329 0.000872221 4.10031 0 1.37375C0 0.981248 0.130833 0.654165 0.392499 0.392499C0.654165 0.130833 0.981248 0 1.37375 0H6.67249C6.97777 0 7.25033 0.103794 7.4902 0.311383C7.73006 0.518971 7.87179 0.764065 7.9154 1.04666L8.76582 5.62582C8.80943 5.97471 8.79853 6.26909 8.73311 6.50895C8.66769 6.74881 8.54776 6.95596 8.37332 7.1304L5.20062 10.3358C5.63673 11.1426 6.15439 11.9219 6.7536 12.6738C7.35282 13.4257 8.01266 14.1509 8.73311 14.8496C9.40908 15.5255 10.1178 16.1527 10.8591 16.7309C11.6005 17.3092 12.3855 17.8378 13.2141 18.3166L16.2887 15.2421C16.485 15.0458 16.7414 14.8988 17.058 14.8011C17.3746 14.7035 17.6851 14.676 17.9896 14.7187L22.5033 15.6346C22.8086 15.7218 23.0593 15.8801 23.2556 16.1095C23.4518 16.3389 23.55 16.5949 23.55 16.8775V22.1762C23.55 22.5687 23.4191 22.8958 23.1575 23.1575C22.8958 23.4191 22.5687 23.55 22.1762 23.55ZM3.9577 7.84999L6.11645 5.69124L5.56041 2.61666H2.64937C2.7584 3.51069 2.91104 4.39381 3.10729 5.26603C3.30354 6.13825 3.58701 6.99957 3.9577 7.84999ZM15.6673 19.5595C16.5177 19.9302 17.3847 20.2246 18.2682 20.4427C19.1518 20.6607 20.0401 20.8025 20.9333 20.8679V17.9896L17.8587 17.3681L15.6673 19.5595Z" fill="white"/>
</svg>
