<svg width="23" height="23" viewBox="0 0 23 23" fill="none" xmlns="http://www.w3.org/2000/svg">
<path d="M8.0957 14.0173L11.4427 11.9862L14.7897 14.0173L13.9029 10.2126L16.878 7.63799L12.9588 7.32331L11.4427 3.71887L9.92652 7.32331L6.00741 7.63799L8.9825 10.2126L8.0957 14.0173ZM0 22.8854V2.28854C0 1.65919 0.224277 1.12062 0.67283 0.67283C1.12138 0.225039 1.65995 0.000762845 2.28854 0H20.5968C21.2262 0 21.7651 0.224277 22.2137 0.67283C22.6622 1.12138 22.8861 1.65995 22.8854 2.28854V16.0198C22.8854 16.6491 22.6615 17.188 22.2137 17.6366C21.7659 18.0852 21.2269 18.309 20.5968 18.3083H4.57707L0 22.8854ZM3.60444 16.0198H20.5968V2.28854H2.28854V17.3071L3.60444 16.0198Z" fill="white"/>
</svg>
