<svg width="27" height="27" viewBox="0 0 27 27" fill="none" xmlns="http://www.w3.org/2000/svg">
<path fill-rule="evenodd" clip-rule="evenodd" d="M26.6645 13.3322C26.6645 20.6956 20.6956 26.6644 13.3322 26.6644C11.1991 26.6644 9.18325 26.1631 7.39673 25.2725C6.92481 25.0286 6.38002 24.9656 5.86486 25.0952L2.89711 25.8898C2.60336 25.9682 2.29416 25.9679 2.00055 25.8891C1.70694 25.8102 1.43924 25.6554 1.22433 25.4404C1.00942 25.2254 0.85486 24.9576 0.776159 24.6639C0.697457 24.3702 0.697385 24.061 0.775952 23.7673L1.56922 20.7996C1.69824 20.2847 1.63471 19.7404 1.39057 19.2691C0.47282 17.4248 -0.00324681 15.3922 1.66658e-05 13.3322C1.66658e-05 5.96883 5.96885 0 13.3322 0C20.6956 0 26.6645 5.96883 26.6645 13.3322ZM13.3322 6.99941C13.5974 6.99941 13.8518 7.10476 14.0393 7.29228C14.2268 7.4798 14.3321 7.73414 14.3321 7.99933V8.01266C15.784 8.3793 16.9986 9.5232 16.9986 11.1097C16.9986 11.3749 16.8932 11.6293 16.7057 11.8168C16.5182 12.0043 16.2639 12.1097 15.9987 12.1097C15.7335 12.1097 15.4791 12.0043 15.2916 11.8168C15.1041 11.6293 14.9988 11.3749 14.9988 11.1097C14.9988 10.5978 14.4308 9.8885 13.3322 9.8885C12.2337 9.8885 11.6657 10.5978 11.6657 11.1097C11.6657 11.6217 12.2337 12.3323 13.3322 12.3323C15.1787 12.3323 16.9986 13.6122 16.9986 15.5547C16.9986 17.1412 15.784 18.2865 14.3321 18.6518V18.6651C14.3321 18.9303 14.2268 19.1846 14.0393 19.3722C13.8518 19.5597 13.5974 19.665 13.3322 19.665C13.067 19.665 12.8127 19.5597 12.6252 19.3722C12.4377 19.1846 12.3323 18.9303 12.3323 18.6651V18.6518C10.8804 18.2865 9.66587 17.1412 9.66587 15.5547C9.66587 15.2895 9.77122 15.0352 9.95874 14.8476C10.1463 14.6601 10.4006 14.5548 10.6658 14.5548C10.931 14.5548 11.1853 14.6601 11.3728 14.8476C11.5604 15.0352 11.6657 15.2895 11.6657 15.5547C11.6657 16.0667 12.2337 16.7759 13.3322 16.7759C14.4308 16.7759 14.9988 16.0667 14.9988 15.5547C14.9988 15.0427 14.4308 14.3321 13.3322 14.3321C11.4857 14.3321 9.66587 13.0522 9.66587 11.1097C9.66587 9.5232 10.8804 8.3793 12.3323 8.01266V7.99933C12.3323 7.73414 12.4377 7.4798 12.6252 7.29228C12.8127 7.10476 13.067 6.99941 13.3322 6.99941Z" fill="white"/>
</svg>
