<svg width="26" height="22" viewBox="0 0 26 22" fill="none" xmlns="http://www.w3.org/2000/svg">
<path d="M12.8602 5.14407H2.57204C1.88989 5.14407 1.23568 5.41505 0.753332 5.8974C0.270981 6.37975 0 7.03396 0 7.71611V12.8602C0 13.5423 0.270981 14.1965 0.753332 14.6789C1.23568 15.1612 1.88989 15.4322 2.57204 15.4322H3.85805V20.5763C3.85805 20.9174 3.99355 21.2445 4.23472 21.4856C4.4759 21.7268 4.803 21.8623 5.14407 21.8623H7.71611C8.05718 21.8623 8.38428 21.7268 8.62546 21.4856C8.86664 21.2445 9.00213 20.9174 9.00213 20.5763V15.4322H12.8602L19.2903 20.5763V0L12.8602 5.14407ZM16.7182 14.9178L14.1462 12.8602H2.57204V7.71611H14.1462L16.7182 5.65848V14.9178ZM25.0774 10.2881C25.0774 12.4872 23.8428 14.4806 21.8623 15.4322V5.14407C23.8299 6.10858 25.0774 8.10191 25.0774 10.2881Z" fill="white"/>
</svg>
