<svg width="22" height="23" viewBox="0 0 22 23" fill="none" xmlns="http://www.w3.org/2000/svg">
<path fill-rule="evenodd" clip-rule="evenodd" d="M2.90549 8.63042C2.90549 6.43758 3.77659 4.33455 5.32717 2.78398C6.87774 1.23341 8.98077 0.362305 11.1736 0.362305C13.3664 0.362305 15.4695 1.23341 17.02 2.78398C18.5706 4.33455 19.4417 6.43758 19.4417 8.63042V13.0763L21.5938 17.3804C21.6929 17.5786 21.7396 17.7987 21.7297 18.02C21.7197 18.2412 21.6534 18.4563 21.5369 18.6447C21.4205 18.8331 21.2578 18.9886 21.0643 19.0965C20.8709 19.2043 20.653 19.2609 20.4315 19.2609H15.7494C15.4867 20.2746 14.8948 21.1723 14.0666 21.8133C13.2384 22.4542 12.2208 22.8019 11.1736 22.8019C10.1264 22.8019 9.10882 22.4542 8.28064 21.8133C7.45245 21.1723 6.86053 20.2746 6.5978 19.2609H1.91568C1.69419 19.2609 1.47636 19.2043 1.28289 19.0965C1.08942 18.9886 0.926738 18.8331 0.810285 18.6447C0.693831 18.4563 0.627476 18.2412 0.617524 18.02C0.607571 17.7987 0.65435 17.5786 0.753418 17.3804L2.90549 13.0763V8.63042ZM9.12784 19.2609C9.33518 19.6199 9.63339 19.9181 9.9925 20.1255C10.3516 20.3328 10.759 20.4419 11.1736 20.4419C11.5883 20.4419 11.9956 20.3328 12.3547 20.1255C12.7138 19.9181 13.012 19.6199 13.2194 19.2609H9.12784ZM11.1736 2.72462C9.60729 2.72462 8.10513 3.34684 6.99758 4.45439C5.89003 5.56194 5.26781 7.06411 5.26781 8.63042V13.0763C5.26778 13.4429 5.18246 13.8044 5.01858 14.1323L3.63663 16.8985H18.7118L17.3298 14.1323C17.1655 13.8045 17.0798 13.443 17.0794 13.0763V8.63042C17.0794 7.06411 16.4572 5.56194 15.3496 4.45439C14.2421 3.34684 12.7399 2.72462 11.1736 2.72462Z" fill="white"/>
</svg>
