<svg width="22" height="23" viewBox="0 0 22 23" fill="none" xmlns="http://www.w3.org/2000/svg">
<path d="M11.1736 0.362305C8.98077 0.362305 6.87774 1.23341 5.32717 2.78398C3.77659 4.33455 2.90549 6.43758 2.90549 8.63042V12.7976C2.90566 12.9808 2.8632 13.1615 2.78147 13.3255L0.753418 17.3804C0.65435 17.5786 0.607571 17.7987 0.617524 18.02C0.627476 18.2412 0.693831 18.4563 0.810285 18.6447C0.926738 18.8331 1.08942 18.9886 1.28289 19.0965C1.47636 19.2043 1.69419 19.2609 1.91568 19.2609H20.4315C20.653 19.2609 20.8709 19.2043 21.0643 19.0965C21.2578 18.9886 21.4205 18.8331 21.5369 18.6447C21.6534 18.4563 21.7197 18.2412 21.7297 18.02C21.7396 17.7987 21.6929 17.5786 21.5938 17.3804L19.5669 13.3255C19.4848 13.1616 19.4419 12.9809 19.4417 12.7976V8.63042C19.4417 6.43758 18.5706 4.33455 17.02 2.78398C15.4695 1.23341 13.3664 0.362305 11.1736 0.362305ZM11.1736 22.8043C10.4405 22.8047 9.72535 22.5777 9.12668 22.1546C8.528 21.7315 8.07529 21.1332 7.83092 20.442H14.5163C14.2719 21.1332 13.8192 21.7315 13.2205 22.1546C12.6219 22.5777 11.9067 22.8047 11.1736 22.8043Z" fill="white"/>
</svg>
