<svg width="26" height="26" viewBox="0 0 26 26" fill="none" xmlns="http://www.w3.org/2000/svg">
<path d="M2.86232 25.7609C2.07518 25.7609 1.40158 25.4808 0.841522 24.9208C0.281461 24.3607 0.000954106 23.6866 0 22.8986V2.86232C0 2.07518 0.280507 1.40158 0.841522 0.841522C1.40254 0.281461 2.07614 0.000954106 2.86232 0H18.6051L25.7609 7.1558V22.8986C25.7609 23.6857 25.4808 24.3598 24.9208 24.9208C24.3607 25.4818 23.6866 25.7618 22.8986 25.7609H2.86232ZM5.72464 20.0362H20.0362V17.1739H5.72464V20.0362ZM5.72464 14.3116H20.0362V11.4493H5.72464V14.3116ZM17.1739 8.58696H22.8986L17.1739 2.86232V8.58696ZM5.72464 8.58696H12.8804V5.72464H5.72464V8.58696Z" fill="white"/>
</svg>
