<svg width="50" height="34" viewBox="0 0 50 34" fill="none" xmlns="http://www.w3.org/2000/svg">
<path fill-rule="evenodd" clip-rule="evenodd" d="M49.881 27.8957C49.881 27.9091 49.8881 27.9188 49.8881 27.9309C49.8881 27.937 49.8845 27.9431 49.8845 27.9504C49.8857 27.9564 49.8881 27.9625 49.8881 27.9698C49.8881 28.6402 49.3559 29.1842 48.6976 29.1842C48.7155 29.183 38.0952 29.1453 38.0952 29.1453C37.4369 29.1453 36.9048 28.6013 36.9048 27.9309C36.9048 27.2594 37.4369 26.7166 38.0952 26.7166H47.5548C47.5774 26.311 47.619 25.9126 47.619 25.5022C47.619 12.7596 37.4917 2.42878 25 2.42878C12.5083 2.42878 2.38095 12.7596 2.38095 25.5022C2.38095 25.9126 2.42262 26.311 2.44405 26.7166H11.9048C12.5631 26.7166 13.0952 27.2594 13.0952 27.9309C13.0952 28.6013 12.5631 29.1453 11.9048 29.1453C11.9048 29.1453 1.28571 29.183 1.30238 29.183C0.644047 29.183 0.111905 28.6389 0.111905 27.9686C0.111905 27.9613 0.114286 27.9552 0.115476 27.9492C0.115476 27.9419 0.111905 27.9358 0.111905 27.9297C0.111905 27.9164 0.119048 27.9067 0.119048 27.8957C0.0464285 27.1064 0 26.3097 0 25.5022C0 11.4165 11.1929 0 25 0C38.8071 0 50 11.4165 50 25.5022C50 26.3097 49.9536 27.1064 49.881 27.8957ZM17.2893 13.5137C17.7571 13.2514 18.319 13.3388 18.7048 13.6752L18.6452 13.5744C29.0905 21.3708 31.2369 24.9569 31.2762 25.0237C32.9821 27.886 31.9679 31.5462 29.0155 33.1978C26.0631 34.8493 22.2857 33.8693 20.581 31.007C20.5393 30.9426 18.4095 27.3468 16.6631 14.6832L16.7238 14.7828C16.6179 14.2921 16.8226 13.7748 17.2893 13.5137ZM22.7214 29.812C23.3821 30.9183 24.6131 31.6069 25.9345 31.6069C26.5798 31.6069 27.219 31.4405 27.7821 31.1248C28.6393 30.6451 29.2524 29.8728 29.5083 28.9462C29.7655 28.0184 29.6333 27.0517 29.1476 26.2357C29.1274 26.2053 27.2762 23.3381 19.55 17.3123C21.075 26.8028 22.7083 29.7877 22.7214 29.812Z" fill="white"/>
</svg>
