<svg width="24" height="23" viewBox="0 0 24 23" fill="none" xmlns="http://www.w3.org/2000/svg">
<path d="M2.37945 22.6047C1.7251 22.6047 1.16514 22.3719 0.699557 21.9064C0.233979 21.4408 0.000793148 20.8804 0 20.2253V7.13834C0 6.48399 0.233186 5.92403 0.699557 5.45845C1.16593 4.99287 1.72589 4.75968 2.37945 4.75889H7.13834V2.37945C7.13834 1.7251 7.37152 1.16514 7.83789 0.699557C8.30426 0.233979 8.86423 0.000793148 9.51778 0H14.2767C14.931 0 15.4914 0.233186 15.9578 0.699557C16.4241 1.16593 16.6569 1.72589 16.6561 2.37945V4.75889H21.415C22.0694 4.75889 22.6297 4.99208 23.0961 5.45845C23.5625 5.92482 23.7952 6.48478 23.7945 7.13834V20.2253C23.7945 20.8796 23.5617 21.44 23.0961 21.9064C22.6305 22.3727 22.0701 22.6055 21.415 22.6047H2.37945ZM2.37945 20.2253H21.415V7.13834H2.37945V20.2253ZM9.51778 4.75889H14.2767V2.37945H9.51778V4.75889Z" fill="white"/>
</svg>
