<svg width="23" height="23" viewBox="0 0 23 23" fill="none" xmlns="http://www.w3.org/2000/svg">
<path d="M2.55556 23C1.85278 23 1.25137 22.75 0.751333 22.2499C0.251296 21.7499 0.000851852 21.1481 0 20.4444V2.55556C0 1.85278 0.250445 1.25137 0.751333 0.751333C1.25222 0.251296 1.85363 0.000851852 2.55556 0H20.4444C21.1472 0 21.7491 0.250445 22.2499 0.751333C22.7508 1.25222 23.0009 1.85363 23 2.55556V20.4444C23 21.1472 22.75 21.7491 22.2499 22.2499C21.7499 22.7508 21.1481 23.0009 20.4444 23H2.55556ZM12.7778 12.7778V20.4444H20.4444V12.7778H12.7778ZM12.7778 10.2222H20.4444V2.55556H12.7778V10.2222ZM10.2222 10.2222V2.55556H2.55556V10.2222H10.2222ZM10.2222 12.7778H2.55556V20.4444H10.2222V12.7778Z" fill="white"/>
</svg>
