<svg width="23" height="18" viewBox="0 0 23 18" fill="none" xmlns="http://www.w3.org/2000/svg">
<path d="M16.0459 14.8998V17.1921H0V14.8998C0 14.8998 0 10.3152 8.02294 10.3152C16.0459 10.3152 16.0459 14.8998 16.0459 14.8998ZM12.0344 4.01151C12.0344 3.21812 11.7991 2.44254 11.3584 1.78286C10.9176 1.12318 10.2911 0.609016 9.55806 0.305397C8.82506 0.00177868 8.01849 -0.0776618 7.24034 0.0771216C6.46219 0.231905 5.74742 0.613961 5.1864 1.17497C4.62539 1.73599 4.24333 2.45076 4.08855 3.22891C3.93377 4.00706 4.01321 4.81363 4.31682 5.54663C4.62044 6.27963 5.1346 6.90614 5.79429 7.34693C6.45397 7.78771 7.22955 8.02298 8.02294 8.02298C9.08685 8.02298 10.1072 7.60034 10.8595 6.84805C11.6118 6.09575 12.0344 5.07542 12.0344 4.01151ZM15.9771 10.3152C16.6817 10.8605 17.2582 11.5536 17.6661 12.3456C18.0741 13.1377 18.3034 14.0095 18.3381 14.8998V17.1921H22.9227V14.8998C22.9227 14.8998 22.9227 10.7393 15.9771 10.3152ZM14.8997 4.21737e-05C14.111 -0.00362676 13.3396 0.23217 12.6877 0.676261C13.3839 1.64903 13.7583 2.81528 13.7583 4.01151C13.7583 5.20775 13.3839 6.374 12.6877 7.34676C13.3396 7.79085 14.111 8.02665 14.8997 8.02298C15.9637 8.02298 16.984 7.60034 17.7363 6.84805C18.4886 6.09575 18.9112 5.07542 18.9112 4.01151C18.9112 2.9476 18.4886 1.92727 17.7363 1.17497C16.984 0.422678 15.9637 4.21737e-05 14.8997 4.21737e-05Z" fill="white"/>
</svg>
