<svg width="24" height="19" viewBox="0 0 24 19" fill="none" xmlns="http://www.w3.org/2000/svg">
<path d="M13.284 7.88443C14.0129 6.86594 14.4049 5.64488 14.4049 4.39243C14.4049 3.13997 14.0129 1.91891 13.284 0.900427C13.9666 0.435464 14.7741 0.188586 15.6 0.192427C16.7139 0.192427 17.7822 0.634926 18.5699 1.42258C19.3575 2.21023 19.8 3.27852 19.8 4.39243C19.8 5.50634 19.3575 6.57462 18.5699 7.36227C17.7822 8.14993 16.7139 8.59243 15.6 8.59243C14.7741 8.59627 13.9666 8.34939 13.284 7.88443ZM4.2 4.39243C4.2 3.56175 4.44633 2.74972 4.90783 2.05903C5.36933 1.36835 6.02528 0.830021 6.79273 0.512133C7.56018 0.194245 8.40466 0.111071 9.21938 0.273129C10.0341 0.435187 10.7825 0.835198 11.3698 1.42258C11.9572 2.00996 12.3572 2.75833 12.5193 3.57305C12.6814 4.38777 12.5982 5.23225 12.2803 5.9997C11.9624 6.76715 11.4241 7.4231 10.7334 7.8846C10.0427 8.3461 9.23068 8.59243 8.4 8.59243C7.28609 8.59243 6.2178 8.14993 5.43015 7.36227C4.6425 6.57462 4.2 5.50634 4.2 4.39243ZM6.6 4.39243C6.6 4.74843 6.70557 5.09644 6.90336 5.39245C7.10114 5.68846 7.38226 5.91917 7.71117 6.05541C8.04008 6.19165 8.402 6.22729 8.75116 6.15784C9.10033 6.08839 9.42106 5.91695 9.67279 5.66522C9.92453 5.41348 10.096 5.09275 10.1654 4.74359C10.2349 4.39442 10.1992 4.0325 10.063 3.7036C9.92675 3.37469 9.69603 3.09357 9.40003 2.89578C9.10402 2.69799 8.75601 2.59243 8.4 2.59243C7.92261 2.59243 7.46477 2.78207 7.12721 3.11963C6.78964 3.4572 6.6 3.91504 6.6 4.39243ZM16.8 15.7924V18.1924H0V15.7924C0 15.7924 0 10.9924 8.4 10.9924C16.8 10.9924 16.8 15.7924 16.8 15.7924ZM14.4 15.7924C14.232 14.8564 12.804 13.3924 8.4 13.3924C3.996 13.3924 2.484 14.9644 2.4 15.7924M16.74 10.9924C17.4755 11.5645 18.0768 12.2906 18.5018 13.1199C18.9268 13.9491 19.1651 14.8613 19.2 15.7924V18.1924H24V15.7924C24 15.7924 24 11.4364 16.728 10.9924H16.74Z" fill="white"/>
</svg>
