<svg width="20" height="25" viewBox="0 0 20 25" fill="none" xmlns="http://www.w3.org/2000/svg">
<path d="M16.6731 12.75C17.4534 12.75 18.2018 13.06 18.7536 13.6118C19.3054 14.1636 19.6154 14.912 19.6154 15.6923V16.6731C19.6154 20.5393 15.9669 24.5192 9.80769 24.5192C3.64846 24.5192 0 20.5393 0 16.6731V15.6923C0 14.912 0.309992 14.1636 0.861782 13.6118C1.41357 13.06 2.16196 12.75 2.94231 12.75H16.6731ZM9.80769 0C11.2383 0 12.6104 0.568319 13.622 1.57993C14.6336 2.59155 15.2019 3.96359 15.2019 5.39423C15.2019 6.82487 14.6336 8.19691 13.622 9.20853C12.6104 10.2201 11.2383 10.7885 9.80769 10.7885C8.37705 10.7885 7.00501 10.2201 5.99339 9.20853C4.98178 8.19691 4.41346 6.82487 4.41346 5.39423C4.41346 3.96359 4.98178 2.59155 5.99339 1.57993C7.00501 0.568319 8.37705 0 9.80769 0Z" fill="white"/>
</svg>
