<svg width="29" height="29" viewBox="0 0 29 29" fill="none" xmlns="http://www.w3.org/2000/svg">
<path d="M14.3322 27.6644C21.6956 27.6644 27.6644 21.6956 27.6644 14.3322C27.6644 6.96883 21.6956 1 14.3322 1C6.96883 1 1 6.96883 1 14.3322C1 16.4654 1.50129 18.4812 2.39055 20.269C2.62786 20.7437 2.70652 21.2863 2.5692 21.7996L1.77594 24.7673C1.69737 25.061 1.69744 25.3702 1.77614 25.6639C1.85484 25.9576 2.00941 26.2254 2.22432 26.4404C2.43923 26.6554 2.70692 26.8102 3.00053 26.8891C3.29415 26.9679 3.60334 26.9682 3.89709 26.8898L6.86484 26.0952C7.38001 25.9656 7.92479 26.0286 8.39671 26.2725C10.2405 27.1906 12.2725 27.6672 14.3322 27.6644Z" stroke="white" stroke-width="1.99983"/>
<path d="M14.3325 18.7755C15.8057 18.7755 16.9989 17.781 16.9989 16.5544C16.9989 15.3278 15.8057 14.3319 14.3325 14.3319C12.8592 14.3319 11.666 13.3373 11.666 12.1094C11.666 10.8829 12.8592 9.88828 14.3325 9.88828M14.3325 18.7755C12.8592 18.7755 11.666 17.781 11.666 16.5544M14.3325 18.7755V19.6648M14.3325 9.88828V8.99902M14.3325 9.88828C15.8057 9.88828 16.9989 10.8829 16.9989 12.1094" stroke="white" stroke-width="1.99983" stroke-linecap="round"/>
</svg>
