<svg width="25" height="35" viewBox="0 0 25 35" fill="none" xmlns="http://www.w3.org/2000/svg">
<path d="M22.3307 9.14179V32.9757C22.3307 34.0858 21.4193 35 20.3125 35H4.65495C3.54818 35 2.63672 34.0858 2.63672 32.9757V9.14179H22.3307ZM17.2201 11.7864V32.2901H18.3919V11.7864H17.2201ZM11.9141 11.7864V32.2901H13.0859V11.7864H11.9141ZM6.60807 11.7864V32.2901H7.77995V11.7864H6.60807ZM7.91016 3.62407V1.92631C7.91016 0.848881 8.75651 0 9.83073 0H15.1693C16.2435 0 17.0898 0.848881 17.0898 1.92631V3.62407H22.9818C24.0885 3.62407 25 4.53825 25 5.64832V7.05224H0V5.61567C0 4.5056 0.911458 3.59142 2.01823 3.59142H7.91016V3.62407ZM9.83073 1.30597C9.50521 1.30597 9.24479 1.56716 9.24479 1.89366V3.59142H15.7878V1.89366C15.7878 1.56716 15.5273 1.30597 15.2018 1.30597H9.83073Z" fill="white"/>
</svg>
