<svg width="141" height="133" viewBox="0 0 141 133" fill="none" xmlns="http://www.w3.org/2000/svg">
<path d="M76.6531 3.61912C74.2455 -0.931633 66.7584 -0.931633 64.3508 3.61912L1.72578 121.911C1.16204 122.971 0.882566 124.159 0.914581 125.36C0.946596 126.56 1.28901 127.732 1.90846 128.76C2.52792 129.789 3.40328 130.64 4.44926 131.229C5.49524 131.819 6.67616 132.128 7.87695 132.126H133.127C134.327 132.128 135.507 131.82 136.552 131.23C137.598 130.641 138.472 129.791 139.091 128.762C139.71 127.734 140.052 126.563 140.083 125.364C140.115 124.164 139.835 122.977 139.271 121.918L76.6531 3.61912ZM77.4603 111.251H63.5436V97.3339H77.4603V111.251ZM63.5436 83.4173V48.6256H77.4603L77.4672 83.4173H63.5436Z" fill="black"/>
</svg>
