<svg width="76" height="77" viewBox="0 0 76 77" fill="none" xmlns="http://www.w3.org/2000/svg">
<path d="M0 16C0 7.16344 7.16344 0 16 0H60C68.8366 0 76 7.16344 76 16V60C76 68.8366 68.8366 76 60 76H16C7.16344 76 0 68.8366 0 60V16Z" fill="#4267B2"/>
<path d="M52.3777 49.1406L54.0625 38.1562H43.5234V31.0283C43.5234 28.0227 44.9956 25.0937 49.7162 25.0937H54.5078V15.7422C54.5078 15.7422 50.1592 15 46.0015 15C37.3217 15 31.6484 20.2606 31.6484 29.7844V38.1562H22V49.1406H31.6484V75.6946C33.6126 76.0024 35.5978 76.1568 37.5859 76.1562C39.5741 76.1568 41.5593 76.0025 43.5234 75.6946V49.1406H52.3777Z" fill="white"/>
</svg>
