<svg width="32" height="32" viewBox="0 0 32 32" fill="none" xmlns="http://www.w3.org/2000/svg">
<path d="M28.5712 5.71484H3.42829C2.82208 5.71484 2.2407 5.95566 1.81205 6.38431C1.38339 6.81297 1.14258 7.39435 1.14258 8.00056V24.0006C1.14258 24.6068 1.38339 25.1881 1.81205 25.6168C2.2407 26.0455 2.82208 26.2863 3.42829 26.2863H28.5712C29.1774 26.2863 29.7587 26.0455 30.1874 25.6168C30.616 25.1881 30.8569 24.6068 30.8569 24.0006V8.00056C30.8569 7.39435 30.616 6.81297 30.1874 6.38431C29.7587 5.95566 29.1774 5.71484 28.5712 5.71484Z" stroke="#FF8828" stroke-width="2.28571" stroke-linecap="round" stroke-linejoin="round"/>
<path d="M16.0001 20.5725C17.2125 20.5725 18.3752 20.0909 19.2325 19.2336C20.0899 18.3763 20.5715 17.2135 20.5715 16.0011C20.5715 14.7887 20.0899 13.6259 19.2325 12.7686C18.3752 11.9113 17.2125 11.4297 16.0001 11.4297C14.7876 11.4297 13.6249 11.9113 12.7676 12.7686C11.9103 13.6259 11.4286 14.7887 11.4286 16.0011C11.4286 17.2135 11.9103 18.3763 12.7676 19.2336C13.6249 20.0909 14.7876 20.5725 16.0001 20.5725ZM6.34291 16.5725C6.19136 16.5725 6.04602 16.5123 5.93885 16.4052C5.83169 16.298 5.77148 16.1527 5.77148 16.0011C5.77148 15.8496 5.83169 15.7042 5.93885 15.5971C6.04602 15.4899 6.19136 15.4297 6.34291 15.4297M6.34291 16.5725C6.49447 16.5725 6.63981 16.5123 6.74697 16.4052C6.85414 16.298 6.91434 16.1527 6.91434 16.0011C6.91434 15.8496 6.85414 15.7042 6.74697 15.5971C6.63981 15.4899 6.49447 15.4297 6.34291 15.4297M25.6572 16.5725C25.5056 16.5725 25.3603 16.5123 25.2531 16.4052C25.146 16.298 25.0858 16.1527 25.0858 16.0011C25.0858 15.8496 25.146 15.7042 25.2531 15.5971C25.3603 15.4899 25.5056 15.4297 25.6572 15.4297M25.6572 16.5725C25.8088 16.5725 25.9541 16.5123 26.0613 16.4052C26.1684 16.298 26.2286 16.1527 26.2286 16.0011C26.2286 15.8496 26.1684 15.7042 26.0613 15.5971C25.9541 15.4899 25.8088 15.4297 25.6572 15.4297" stroke="#FF8828" stroke-width="2.28571" stroke-linecap="round" stroke-linejoin="round"/>
</svg>
