<svg width="63" height="67" viewBox="0 0 63 67" fill="none" xmlns="http://www.w3.org/2000/svg">
<path d="M1.66372 6.94703H6.23435V1.66372C6.23435 0.744783 6.97994 0 7.89888 0H44.5923C44.9968 0 45.3676 0.144462 45.6557 0.38443L62.2978 12.2464C62.7528 12.5698 62.9952 13.0803 62.9952 13.5979L63 57.951C63 58.87 62.2544 59.6148 61.3363 59.6148H56.7657V64.8981C56.7657 65.817 56.0201 66.5618 55.1011 66.5618H1.66372C0.745586 66.5618 0 65.817 0 64.8981V8.61075C0 7.69181 0.745586 6.94703 1.66372 6.94703ZM9.5626 6.94703H38.3579C38.7616 6.94703 39.1324 7.09149 39.4214 7.33146L55.9615 19.1204C56.443 19.4117 56.7657 19.9414 56.7657 20.5449V56.2873H59.6717V14.4502L44.0682 3.32745H9.5626V6.94703ZM10.1252 39.3981C7.9366 39.3981 7.9366 36.0698 10.1252 36.0698H21.5249C23.7135 36.0698 23.7135 39.3981 21.5249 39.3981H10.1252ZM10.1252 57.3884C7.9366 57.3884 7.9366 54.0602 10.1252 54.0602H21.5249C23.7135 54.0602 23.7135 57.3884 21.5249 57.3884H10.1252ZM10.1252 45.3949C7.9366 45.3949 7.9366 42.0666 10.1252 42.0666H21.5249C23.7135 42.0666 23.7135 45.3949 21.5249 45.3949H10.1252ZM10.1252 51.3917C7.9366 51.3917 7.9366 48.0634 10.1252 48.0634H21.5249C23.7135 48.0634 23.7135 51.3917 21.5249 51.3917H10.1252ZM38.9085 43.3483V55.9029C38.9085 58.0915 35.5803 58.0915 35.5803 55.9029V43.3483C31.0803 42.5498 27.7873 38.6204 27.7873 34.0377C27.7873 28.8154 32.0217 24.5811 37.2448 24.5811C42.4671 24.5811 46.7014 28.8146 46.7014 34.0377C46.7014 38.6196 43.4093 42.5498 38.9085 43.3483ZM37.2448 27.9085C33.8596 27.9085 31.1156 30.6525 31.1156 34.0377C31.1156 37.423 33.8596 40.1669 37.2448 40.1669C40.6292 40.1669 43.3732 37.423 43.3732 34.0377C43.3732 30.6525 40.6292 27.9085 37.2448 27.9085ZM10.0361 14.7841H21.614C22.5329 14.7841 23.2777 15.5289 23.2777 16.4478V30.0746C23.2777 30.9936 22.5329 31.7384 21.614 31.7384H10.0361C9.11718 31.7384 8.37159 30.9936 8.37159 30.0746V16.4478C8.37159 15.5289 9.11718 14.7841 10.0361 14.7841ZM19.9502 18.1116H11.6998V28.4101H19.9502V18.1116ZM37.8331 10.2745H3.32825V63.2344H53.4374V21.3973L37.8331 10.2745Z" fill="white"/>
</svg>
