<svg width="60" height="56" viewBox="0 0 60 56" fill="none" xmlns="http://www.w3.org/2000/svg">
<path d="M35.6486 33.4172C34.2322 34.819 33.5603 36.4782 33.6328 38.3949C33.7053 40.3116 34.5011 41.9236 36.02 43.2308C37.5389 44.5379 39.3369 45.1581 41.4138 45.0911C43.4907 45.0242 45.2373 44.2898 46.6538 42.8881C48.0702 41.4863 48.7422 39.827 48.6696 37.9103C48.5971 35.9936 47.8014 34.3817 46.2824 33.0745C44.7635 31.7673 42.9656 31.1472 40.8887 31.2141C38.8118 31.2811 37.0651 32.0154 35.6486 33.4172ZM29.4034 9.05467C28.7085 9.74233 28.3795 10.5717 28.4162 11.5429C28.453 12.514 28.8439 13.3202 29.5891 13.9614C30.3342 14.6027 31.2329 14.9064 32.2852 14.8725C33.3375 14.8386 34.2111 14.4778 34.906 13.7901C35.6142 13.0892 35.9502 12.2596 35.9139 11.3012C35.8776 10.3429 35.4798 9.53691 34.7203 8.88332C33.9608 8.22973 33.0619 7.91967 32.0234 7.95314C30.985 7.98661 30.1116 8.35378 29.4034 9.05467ZM8.8785 29.3672C8.18364 30.0548 7.85459 30.8842 7.89134 31.8554C7.92809 32.8265 8.31903 33.6327 9.06417 34.2739C9.80931 34.9152 10.708 35.2189 11.7603 35.185C12.8126 35.1511 13.6862 34.7903 14.3811 34.1026C15.0893 33.4017 15.4253 32.5721 15.389 31.6137C15.3527 30.6554 14.9549 29.8494 14.1954 29.1958C13.4359 28.5422 12.537 28.2322 11.4985 28.2656C10.4601 28.2991 9.58671 28.6663 8.8785 29.3672ZM25.5708 28.1192L29.2789 24.4494C29.4125 24.3172 29.593 24.2314 29.8202 24.1921C30.0475 24.1528 30.2323 24.182 30.3746 24.2798L34.1873 26.6709C34.8126 26.3437 35.5497 26.0385 36.3984 25.7552C36.5526 24.7012 36.6762 23.3859 36.769 21.8092C36.8157 21.5775 36.8991 21.4021 37.0194 21.283C37.1798 21.1243 37.3569 21.0419 37.5507 21.0356C38.2812 20.9225 39.4702 20.8394 41.1179 20.7863C42.7656 20.7332 43.7256 20.8238 43.9978 21.0581C44.1555 21.1938 44.2592 21.3696 44.3089 21.5854L44.9768 25.498C45.7609 25.703 46.5197 25.9728 47.2532 26.3074C48.854 25.0148 50.0544 24.1317 50.8544 23.6582C51.2754 23.4271 51.6507 23.4534 51.9803 23.737L55.9783 27.1776C56.1359 27.3133 56.2291 27.4862 56.2578 27.6963C56.2866 27.9065 56.2413 28.0839 56.122 28.2285L53.5497 31.6889C53.9032 32.2404 54.2335 32.9078 54.5404 33.6911L58.8606 34.1084C59.0545 34.1022 59.2445 34.1792 59.4308 34.3395C59.5884 34.4752 59.6855 34.6576 59.7218 34.8867C60.0081 38.4213 59.9708 40.3671 59.61 40.7242C59.4898 40.8432 59.3127 40.9257 59.0787 40.9716C58.7484 41.0334 58.1005 41.1311 57.1351 41.2645C56.1698 41.398 55.4255 41.5115 54.9022 41.6051C54.6439 42.4706 54.3468 43.2287 54.0109 43.8792L56.797 47.1669C56.927 47.3034 56.9853 47.4711 56.972 47.6698C56.9587 47.8685 56.8786 48.0406 56.7316 48.1861L53.0235 51.8558C52.8899 51.9881 52.7094 52.0739 52.4822 52.1132C52.2549 52.1525 52.0702 52.1232 51.9278 52.0255L48.1151 49.6344C47.4898 49.9616 46.7528 50.2668 45.904 50.55C45.7498 51.6041 45.6263 52.9194 45.5334 54.496C45.4868 54.7278 45.4033 54.9032 45.283 55.0222C45.1227 55.1809 44.9389 55.27 44.7317 55.2895C44.0156 55.4149 42.8334 55.4978 41.1852 55.5381C39.5371 55.5784 38.5769 55.4814 38.3046 55.2471C38.147 55.1115 38.0433 54.9357 37.9935 54.7198L37.3256 50.8073C36.5979 50.6261 35.8324 50.3629 35.0291 50.0177C33.4284 51.3103 32.2346 52.1868 31.448 52.6471C31.027 52.8782 30.6517 52.8519 30.3221 52.5682L26.3242 49.1277C26.1665 48.992 26.0734 48.8191 26.0446 48.6089C26.0159 48.3988 26.0611 48.2214 26.1804 48.0768L28.7528 44.6164C28.3992 44.0649 28.069 43.3974 27.7621 42.6141L23.4418 42.1968C23.2336 42.1908 23.0436 42.1137 22.8716 41.9657C22.714 41.8301 22.617 41.6477 22.5806 41.4186C22.2943 37.884 22.3316 35.9381 22.6924 35.5811C22.7993 35.4753 22.9764 35.3928 23.2237 35.3337C23.6095 35.2701 24.2712 35.172 25.2088 35.0394C26.1465 34.9068 26.8698 34.7876 27.3787 34.6816C27.6905 33.7632 27.9948 33.0114 28.2915 32.4261L25.4854 29.1582C25.3688 29.0085 25.3171 28.8342 25.3304 28.6355C25.3437 28.4367 25.4238 28.2646 25.5708 28.1192ZM22.4978 5.70779L25.3039 2.93069C25.5177 2.7191 26.7924 3.43285 29.1279 5.07193C29.6607 4.86286 30.223 4.704 30.815 4.59537C31.5942 2.4721 32.1508 1.24516 32.4849 0.914554C32.5383 0.861657 32.6138 0.840036 32.7112 0.849691C35.4081 1.41525 36.7709 1.71036 36.7996 1.73503C36.9142 1.83368 36.9298 2.42809 36.8463 3.51824C36.7627 4.60839 36.681 5.37864 36.601 5.829C36.9143 6.04919 37.1426 6.22094 37.2859 6.34426C37.4292 6.46758 37.6308 6.66578 37.8907 6.93886C38.3719 6.8338 39.1988 6.7048 40.3713 6.55187C41.5439 6.39894 42.1875 6.3718 42.3021 6.47045C42.3308 6.49512 42.7449 7.72916 43.5443 10.1726C43.5616 10.2616 43.5435 10.3325 43.49 10.3854C43.1559 10.716 41.8685 11.314 39.6277 12.1795C39.5516 12.732 39.4191 13.2608 39.2303 13.7659C41.165 15.8017 42.0254 16.9254 41.8116 17.137L39.0055 19.9141C38.7917 20.1257 37.517 19.4119 35.1814 17.7728C34.6076 17.996 34.0453 18.1549 33.4943 18.2494C32.7152 20.3727 32.1586 21.5996 31.8245 21.9302C31.771 21.9831 31.6956 22.0047 31.5982 21.9951C31.5142 21.9722 31.1298 21.8886 30.445 21.7444C29.7603 21.6001 29.1104 21.4612 28.4954 21.3275C27.8803 21.1938 27.5585 21.1146 27.5298 21.0899C27.4152 20.9912 27.3963 20.4002 27.4731 19.3166C27.55 18.2331 27.6284 17.4661 27.7084 17.0158C27.3951 16.7956 27.1668 16.6238 27.0235 16.5005C26.8802 16.3772 26.6786 16.179 26.4187 15.9059C24.7392 16.2159 23.3317 16.3892 22.1963 16.4258L22.0273 16.3545C21.9699 16.3051 21.5492 15.0777 20.765 12.6722C20.7478 12.5832 20.7659 12.5123 20.8194 12.4594C21.1534 12.1287 22.4408 11.5307 24.6816 10.6653C24.7454 10.1515 24.8778 9.62271 25.0791 9.07889C23.1444 7.04308 22.284 5.91938 22.4978 5.70779ZM1.97286 26.0203L4.779 23.2432C4.9928 23.0316 6.26748 23.7454 8.60303 25.3844C9.13577 25.1754 9.69814 25.0165 10.2901 24.9079C11.0693 22.7846 11.6259 21.5577 11.96 21.2271C12.0134 21.1742 12.0889 21.1525 12.1863 21.1622C14.8832 21.7278 16.246 22.0229 16.2747 22.0475C16.3893 22.1462 16.4049 22.7406 16.3214 23.8307C16.2378 24.9209 16.1561 25.6911 16.0761 26.1415C16.3894 26.3617 16.6177 26.5334 16.761 26.6568C16.9043 26.7801 17.1059 26.9783 17.3658 27.2514C17.847 27.1463 18.6739 27.0173 19.8464 26.8644C21.019 26.7114 21.6626 26.6843 21.7772 26.783C21.8059 26.8076 22.22 28.0417 23.0194 30.4851C23.0367 30.5741 23.0186 30.645 22.9651 30.6979C22.631 31.0285 21.3436 31.6265 19.1028 32.492C19.0267 33.0445 18.8942 33.5733 18.7054 34.0784C20.6401 36.1142 21.5005 37.2379 21.2867 37.4495L18.4806 40.2266C18.2668 40.4382 16.9921 39.7244 14.6565 38.0853C14.0827 38.3085 13.5204 38.4674 12.9694 38.5619C12.1903 40.6852 11.6337 41.9121 11.2996 42.2427C11.2461 42.2956 11.1707 42.3172 11.0733 42.3076C10.9893 42.2847 10.6049 42.2011 9.92012 42.0569C9.23538 41.9126 8.58549 41.7737 7.97046 41.64C7.35543 41.5063 7.03359 41.4271 7.00493 41.4024C6.89029 41.3038 6.87139 40.7127 6.94823 39.6291C7.02506 38.5456 7.10348 37.7786 7.18348 37.3283C6.87016 37.1081 6.64185 36.9363 6.49856 36.813C6.35526 36.6897 6.15368 36.4915 5.89381 36.2184C4.21426 36.5284 2.80679 36.7017 1.67141 36.7383L1.50236 36.667C1.44504 36.6176 1.0243 35.3902 0.240126 32.9847C0.222895 32.8957 0.241004 32.8248 0.294454 32.7719C0.628518 32.4413 1.91594 31.8432 4.15672 30.9778C4.22045 30.464 4.35294 29.9352 4.55417 29.3914C2.6195 27.3556 1.75906 26.2319 1.97286 26.0203Z" fill="#65686B"/>
</svg>
