<svg width="229" height="220" viewBox="0 0 229 220" fill="none" xmlns="http://www.w3.org/2000/svg">
<g filter="url(#filter0_d_54_29)">
<g filter="url(#filter1_d_54_29)">
<path d="M121.461 122.972C121.906 128.057 120.312 133.11 117.032 137.02C113.751 140.93 109.051 143.376 103.967 143.821C98.882 144.266 93.829 142.673 89.9191 139.392C86.0093 136.111 83.5628 131.411 83.118 126.327C82.6731 121.242 84.2663 116.189 87.5471 112.279C90.8279 108.369 95.5275 105.923 100.612 105.478C105.697 105.033 110.75 106.627 114.66 109.907C118.569 113.188 121.016 117.888 121.461 122.972ZM104.042 83.4866C102.27 83.4209 100.503 83.4099 98.6952 83.5681C96.8876 83.7262 95.0944 84.0487 93.2512 84.4307L83.3116 73.6543C82.399 72.6854 80.8961 72.5409 79.7485 73.3037L61.7547 85.9168C60.6072 86.6796 60.2436 88.2016 60.842 89.3636L67.5128 102.523C65.6257 105.559 64.0221 108.679 62.9547 112.25L48.6165 115.547C47.9811 115.714 47.4256 116.102 47.0483 116.64C46.6711 117.178 46.4965 117.832 46.5556 118.487L48.4725 140.397C48.5923 141.766 49.6789 142.83 51.0126 142.934L65.7054 143.691C67.3767 147.022 69.4978 149.817 71.8833 152.478L67.599 166.597C67.2115 167.845 67.8338 169.281 69.0964 169.833L89.0071 179.13C90.2744 179.736 91.7246 179.278 92.4552 178.166L100.372 165.827C102.254 165.883 104.076 165.889 105.883 165.731C107.691 165.573 109.43 165.255 111.163 164.883L121.267 175.645C122.18 176.614 123.687 176.813 124.83 175.995L142.824 163.382C143.972 162.62 144.28 161.102 143.737 159.936L137.011 146.781C138.953 143.741 140.557 140.62 141.624 137.049L155.962 133.752C157.258 133.418 158.143 132.182 158.023 130.812L156.106 108.902C155.986 107.533 154.9 106.469 153.566 106.365L138.873 105.608C137.147 102.282 135.081 99.4821 132.641 96.8254L136.98 82.7024C137.312 81.459 136.745 80.0184 135.482 79.4665L115.572 70.1695C114.309 69.6177 112.854 70.0209 112.123 71.1335L104.042 83.4866Z" fill="#E5882F"/>
</g>
<g filter="url(#filter2_d_54_29)">
<path d="M151.941 43.5045C152.149 45.8807 151.404 48.2422 149.871 50.0695C148.338 51.8968 146.141 53.0401 143.765 53.248C141.389 53.4559 139.027 52.7113 137.2 51.1781C135.373 49.6448 134.23 47.4485 134.022 45.0722C133.814 42.696 134.558 40.3345 136.092 38.5072C137.625 36.6799 139.821 35.5366 142.197 35.3287C144.574 35.1208 146.935 35.8654 148.762 37.3986C150.59 38.9319 151.733 41.1282 151.941 43.5045ZM143.8 25.051C142.972 25.0203 142.146 25.0152 141.302 25.0891C140.457 25.163 139.619 25.3137 138.757 25.4923L134.112 20.4559C133.686 20.0031 132.983 19.9356 132.447 20.2921L124.038 26.1868C123.501 26.5432 123.331 27.2546 123.611 27.7976L126.729 33.9478C125.847 35.3663 125.097 36.8248 124.598 38.4935L117.898 40.0342C117.601 40.1125 117.341 40.2935 117.165 40.545C116.988 40.7965 116.907 41.1023 116.934 41.4082L117.83 51.6478C117.886 52.2877 118.394 52.785 119.017 52.8337L125.884 53.1873C126.665 54.7441 127.656 56.0503 128.771 57.2941L126.769 63.8922C126.588 64.4755 126.879 65.1465 127.469 65.4044L136.774 69.7493C137.366 70.0328 138.044 69.8188 138.385 69.2988L142.085 63.5324C142.965 63.5586 143.816 63.5615 144.661 63.4876C145.506 63.4137 146.318 63.2652 147.128 63.0912L151.85 68.1208C152.277 68.5736 152.982 68.6667 153.516 68.2846L161.925 62.3899C162.461 62.0335 162.606 61.3244 162.352 60.7791L159.208 54.6312C160.116 53.2104 160.865 51.7519 161.364 50.0832L168.065 48.5425C168.67 48.3864 169.084 47.8085 169.028 47.1685L168.132 36.9289C168.076 36.2889 167.569 35.7917 166.945 35.743L160.079 35.3894C159.272 33.8349 158.306 32.5264 157.166 31.2849L159.194 24.6845C159.349 24.1034 159.084 23.4302 158.494 23.1722L149.189 18.8274C148.599 18.5694 147.919 18.7579 147.577 19.2779L143.8 25.051Z" fill="#E5882F"/>
</g>
</g>
<defs>
<filter id="filter0_d_54_29" x="42.5444" y="18.7126" width="130.489" height="168.687" filterUnits="userSpaceOnUse" color-interpolation-filters="sRGB">
<feFlood flood-opacity="0" result="BackgroundImageFix"/>
<feColorMatrix in="SourceAlpha" type="matrix" values="0 0 0 0 0 0 0 0 0 0 0 0 0 0 0 0 0 0 127 0" result="hardAlpha"/>
<feOffset dy="4"/>
<feGaussianBlur stdDeviation="2"/>
<feComposite in2="hardAlpha" operator="out"/>
<feColorMatrix type="matrix" values="0 0 0 0 0 0 0 0 0 0 0 0 0 0 0 0 0 0 0.25 0"/>
<feBlend mode="normal" in2="BackgroundImageFix" result="effect1_dropShadow_54_29"/>
<feBlend mode="normal" in="SourceGraphic" in2="effect1_dropShadow_54_29" result="shape"/>
</filter>
<filter id="filter1_d_54_29" x="42.4635" y="69.9241" width="119.651" height="117.637" filterUnits="userSpaceOnUse" color-interpolation-filters="sRGB">
<feFlood flood-opacity="0" result="BackgroundImageFix"/>
<feColorMatrix in="SourceAlpha" type="matrix" values="0 0 0 0 0 0 0 0 0 0 0 0 0 0 0 0 0 0 127 0" result="hardAlpha"/>
<feOffset dy="4.08091"/>
<feGaussianBlur stdDeviation="2.04046"/>
<feComposite in2="hardAlpha" operator="out"/>
<feColorMatrix type="matrix" values="0 0 0 0 0 0 0 0 0 0 0 0 0 0 0 0 0 0 0.25 0"/>
<feBlend mode="normal" in2="BackgroundImageFix" result="effect1_dropShadow_54_29"/>
<feBlend mode="normal" in="SourceGraphic" in2="effect1_dropShadow_54_29" result="shape"/>
</filter>
<filter id="filter2_d_54_29" x="112.848" y="18.7126" width="60.2658" height="59.3245" filterUnits="userSpaceOnUse" color-interpolation-filters="sRGB">
<feFlood flood-opacity="0" result="BackgroundImageFix"/>
<feColorMatrix in="SourceAlpha" type="matrix" values="0 0 0 0 0 0 0 0 0 0 0 0 0 0 0 0 0 0 127 0" result="hardAlpha"/>
<feOffset dy="4.08091"/>
<feGaussianBlur stdDeviation="2.04046"/>
<feComposite in2="hardAlpha" operator="out"/>
<feColorMatrix type="matrix" values="0 0 0 0 0 0 0 0 0 0 0 0 0 0 0 0 0 0 0.25 0"/>
<feBlend mode="normal" in2="BackgroundImageFix" result="effect1_dropShadow_54_29"/>
<feBlend mode="normal" in="SourceGraphic" in2="effect1_dropShadow_54_29" result="shape"/>
</filter>
</defs>
</svg>
