<svg width="58" height="66" viewBox="0 0 58 66" fill="none" xmlns="http://www.w3.org/2000/svg">
<path d="M56.3593 53.1257C58.1517 51.8066 58.5343 49.2892 57.2152 47.4968C55.8961 45.7044 53.3787 45.3218 51.5863 46.6409L39.5331 55.5222H27.3892C26.5031 55.5222 25.7781 54.7972 25.7781 53.9111C25.7781 53.025 26.5031 52.3 27.3892 52.3H35.4448C37.2271 52.3 38.6671 50.86 38.6671 49.0777C38.6671 47.2954 37.2271 45.8555 35.4448 45.8555H19.5047C16.5745 45.8555 13.7349 46.8524 11.4491 48.6749L6.92785 52.3H3.22226C1.43995 52.3 0 53.7399 0 55.5222V61.9668C0 63.7491 1.43995 65.189 3.22226 65.189H35.4952C38.4153 65.189 41.265 64.2525 43.6213 62.5206L56.3694 53.1257H56.3593ZM19.4947 52.2899C19.4995 52.2967 19.5025 52.3045 19.5035 52.3128C19.5046 52.321 19.5035 52.3294 19.5006 52.3371C19.4976 52.3449 19.4927 52.3518 19.4864 52.3572C19.4801 52.3626 19.4726 52.3664 19.4645 52.3682C19.4564 52.37 19.448 52.3697 19.44 52.3675C19.432 52.3653 19.4247 52.3611 19.4187 52.3553C19.4127 52.3496 19.4082 52.3424 19.4057 52.3345C19.4031 52.3266 19.4026 52.3182 19.404 52.3101C19.3992 52.3033 19.3962 52.2954 19.3952 52.2872C19.3941 52.279 19.3951 52.2706 19.3981 52.2628C19.4011 52.2551 19.406 52.2482 19.4123 52.2428C19.4186 52.2374 19.4261 52.2336 19.4342 52.2318C19.4423 52.23 19.4507 52.2302 19.4587 52.2325C19.4667 52.2347 19.474 52.2389 19.48 52.2446C19.486 52.2504 19.4905 52.2575 19.493 52.2654C19.4956 52.2733 19.4961 52.2817 19.4947 52.2899Z" fill="white"/>
<path d="M28.5638 21.057C28.5638 19.4143 27.9826 18.0117 26.8202 16.8493C25.6579 15.687 24.2553 15.1058 22.6125 15.1058C20.9697 15.1058 19.5671 15.687 18.4048 16.8493C17.2424 18.0117 16.6613 19.4143 16.6613 21.057C16.6613 22.6998 17.2424 24.1024 18.4048 25.2648C19.5671 26.4271 20.9697 27.0083 22.6125 27.0083C24.2553 27.0083 25.6579 26.4271 26.8202 25.2648C27.9826 24.1024 28.5638 22.6998 28.5638 21.057ZM46.4175 32.9596C46.4175 32.1537 46.1231 31.4562 45.5341 30.8673C44.9452 30.2784 44.2478 29.9839 43.4419 29.9839C42.636 29.9839 41.9386 30.2784 41.3497 30.8673C40.7607 31.4562 40.4663 32.1537 40.4663 32.9596C40.4663 33.781 40.7569 34.4822 41.338 35.0634C41.9192 35.6446 42.6205 35.9352 43.4419 35.9352C44.2633 35.9352 44.9646 35.6446 45.5458 35.0634C46.1269 34.4822 46.4175 33.781 46.4175 32.9596ZM46.4175 9.15454C46.4175 8.34864 46.1231 7.65123 45.5341 7.0623C44.9452 6.47337 44.2478 6.17891 43.4419 6.17891C42.636 6.17891 41.9386 6.47337 41.3497 7.0623C40.7607 7.65123 40.4663 8.34864 40.4663 9.15454C40.4663 9.97593 40.7569 10.6772 41.338 11.2584C41.9192 11.8396 42.6205 12.1302 43.4419 12.1302C44.2633 12.1302 44.9646 11.8396 45.5458 11.2584C46.1269 10.6772 46.4175 9.97593 46.4175 9.15454ZM37.4907 18.9416V23.2423C37.4907 23.3973 37.4364 23.5484 37.3279 23.6956C37.2194 23.8428 37.0954 23.9242 36.956 23.9397L33.3527 24.4976C33.1822 25.04 32.9342 25.629 32.6088 26.2644C33.1357 27.0083 33.8331 27.8994 34.701 28.9378C34.8095 29.1083 34.8637 29.2633 34.8637 29.4028C34.8637 29.5887 34.8095 29.736 34.701 29.8444C34.3445 30.3094 33.7052 31.0029 32.7831 31.9251C31.861 32.8472 31.2527 33.3083 30.9582 33.3083C30.7877 33.3083 30.625 33.254 30.47 33.1455L27.7966 31.0533C27.2232 31.3478 26.6265 31.588 26.0066 31.774C25.8361 33.4477 25.6579 34.6488 25.4719 35.3773C25.3634 35.7492 25.1309 35.9352 24.7745 35.9352H20.4505C20.2801 35.9352 20.1251 35.8771 19.9856 35.7608C19.8461 35.6446 19.7686 35.509 19.7531 35.354L19.2184 31.7972C18.6915 31.6422 18.1103 31.402 17.4749 31.0765L14.7317 33.1455C14.6233 33.254 14.4683 33.3083 14.2668 33.3083C14.0963 33.3083 13.9336 33.2463 13.7786 33.1223C11.5469 31.061 10.431 29.8212 10.431 29.4028C10.431 29.2633 10.4853 29.116 10.5938 28.9611C10.7487 28.7441 11.0665 28.3334 11.5469 27.729C12.0273 27.1245 12.3915 26.6518 12.6395 26.3109C12.2831 25.629 12.0118 24.9936 11.8259 24.4046L8.29231 23.8467C8.13732 23.8312 8.00559 23.7576 7.8971 23.6258C7.78862 23.4941 7.73438 23.343 7.73438 23.1725V18.8718C7.73438 18.7168 7.78862 18.5657 7.8971 18.4185C8.00559 18.2713 8.12958 18.1899 8.26906 18.1744L11.8724 17.6165C12.0428 17.074 12.2908 16.4851 12.6163 15.8497C12.0893 15.1058 11.3919 14.2147 10.524 13.1763C10.4155 13.0058 10.3613 12.8508 10.3613 12.7113C10.3613 12.5254 10.4155 12.3704 10.524 12.2464C10.865 11.7815 11.5004 11.0918 12.4303 10.1774C13.3602 9.26302 13.9723 8.80583 14.2668 8.80583C14.4373 8.80583 14.6 8.86007 14.755 8.96856L17.4284 11.0608C17.9553 10.7818 18.552 10.5339 19.2184 10.3169C19.3889 8.6431 19.5671 7.44975 19.7531 6.73684C19.8616 6.36489 20.0941 6.17891 20.4505 6.17891H24.7745C24.945 6.17891 25.1 6.23703 25.2394 6.35326C25.3789 6.4695 25.4564 6.60511 25.4719 6.76009L26.0066 10.3169C26.5335 10.4719 27.1147 10.7121 27.7501 11.0376L30.4933 8.96856C30.6173 8.86007 30.7722 8.80583 30.9582 8.80583C31.1287 8.80583 31.2914 8.86782 31.4464 8.99181C33.6781 11.0531 34.794 12.2929 34.794 12.7113C34.794 12.8353 34.7397 12.9826 34.6313 13.153C34.4453 13.401 34.1198 13.8195 33.6549 14.4084C33.1899 14.9973 32.8412 15.4622 32.6088 15.8032C32.9652 16.5471 33.2287 17.1825 33.3992 17.7095L36.9327 18.2441C37.0877 18.2751 37.2194 18.3565 37.3279 18.4882C37.4364 18.62 37.4907 18.7711 37.4907 18.9416ZM52.3688 31.3323V34.5868C52.3688 34.8348 51.2142 35.075 48.905 35.3075C48.719 35.726 48.4865 36.1289 48.2076 36.5164C48.998 38.2676 49.3932 39.337 49.3932 39.7245C49.3932 39.7864 49.3622 39.8407 49.3002 39.8872C47.4094 40.9875 46.4485 41.5377 46.4175 41.5377C46.2935 41.5377 45.9371 41.1735 45.3482 40.4451C44.7592 39.7167 44.3563 39.1898 44.1393 38.8643C43.8294 38.8953 43.5969 38.9108 43.4419 38.9108C43.2869 38.9108 43.0545 38.8953 42.7445 38.8643C42.5275 39.1898 42.1246 39.7167 41.5356 40.4451C40.9467 41.1735 40.5903 41.5377 40.4663 41.5377C40.4353 41.5377 39.4744 40.9875 37.5836 39.8872C37.5216 39.8407 37.4907 39.7864 37.4907 39.7245C37.4907 39.337 37.8858 38.2676 38.6763 36.5164C38.3973 36.1289 38.1648 35.726 37.9788 35.3075C35.6696 35.075 34.515 34.8348 34.515 34.5868V31.3323C34.515 31.0843 35.6696 30.8441 37.9788 30.6116C38.1803 30.1622 38.4128 29.7592 38.6763 29.4028C37.8858 27.6515 37.4907 26.5821 37.4907 26.1947C37.4907 26.1327 37.5216 26.0784 37.5836 26.0319C37.6456 26.0009 37.9168 25.8459 38.3973 25.567C38.8777 25.288 39.3349 25.0245 39.7689 24.7766C40.2028 24.5286 40.4353 24.4046 40.4663 24.4046C40.5903 24.4046 40.9467 24.765 41.5356 25.4856C42.1246 26.2063 42.5275 26.7293 42.7445 27.0548C43.0545 27.0238 43.2869 27.0083 43.4419 27.0083C43.5969 27.0083 43.8294 27.0238 44.1393 27.0548C44.9297 25.9544 45.6426 25.0865 46.278 24.4511L46.4175 24.4046C46.4795 24.4046 47.4404 24.9471 49.3002 26.0319C49.3622 26.0784 49.3932 26.1327 49.3932 26.1947C49.3932 26.5821 48.998 27.6515 48.2076 29.4028C48.471 29.7592 48.7035 30.1622 48.905 30.6116C51.2142 30.8441 52.3688 31.0843 52.3688 31.3323ZM52.3688 7.52724V10.7818C52.3688 11.0298 51.2142 11.27 48.905 11.5025C48.719 11.9209 48.4865 12.3239 48.2076 12.7113C48.998 14.4626 49.3932 15.532 49.3932 15.9194C49.3932 15.9814 49.3622 16.0357 49.3002 16.0822C47.4094 17.1825 46.4485 17.7327 46.4175 17.7327C46.2935 17.7327 45.9371 17.3685 45.3482 16.6401C44.7592 15.9117 44.3563 15.3848 44.1393 15.0593C43.8294 15.0903 43.5969 15.1058 43.4419 15.1058C43.2869 15.1058 43.0545 15.0903 42.7445 15.0593C42.5275 15.3848 42.1246 15.9117 41.5356 16.6401C40.9467 17.3685 40.5903 17.7327 40.4663 17.7327C40.4353 17.7327 39.4744 17.1825 37.5836 16.0822C37.5216 16.0357 37.4907 15.9814 37.4907 15.9194C37.4907 15.532 37.8858 14.4626 38.6763 12.7113C38.3973 12.3239 38.1648 11.9209 37.9788 11.5025C35.6696 11.27 34.515 11.0298 34.515 10.7818V7.52724C34.515 7.27927 35.6696 7.03905 37.9788 6.80658C38.1803 6.35714 38.4128 5.95419 38.6763 5.59773C37.8858 3.84645 37.4907 2.77709 37.4907 2.38964C37.4907 2.32764 37.5216 2.2734 37.5836 2.22691C37.6456 2.19591 37.9168 2.04093 38.3973 1.76196C38.8777 1.483 39.3349 1.21953 39.7689 0.971563C40.2028 0.723594 40.4353 0.599609 40.4663 0.599609C40.5903 0.599609 40.9467 0.959939 41.5356 1.6806C42.1246 2.40126 42.5275 2.92432 42.7445 3.24978C43.0545 3.21878 43.2869 3.20328 43.4419 3.20328C43.5969 3.20328 43.8294 3.21878 44.1393 3.24978C44.9297 2.14942 45.6426 1.28152 46.278 0.646104L46.4175 0.599609C46.4795 0.599609 47.4404 1.14204 49.3002 2.22691C49.3622 2.2734 49.3932 2.32764 49.3932 2.38964C49.3932 2.77709 48.998 3.84645 48.2076 5.59773C48.471 5.95419 48.7035 6.35714 48.905 6.80658C51.2142 7.03905 52.3688 7.27927 52.3688 7.52724Z" fill="white"/>
</svg>
