<svg width="73" height="73" viewBox="0 0 73 73" fill="none" xmlns="http://www.w3.org/2000/svg">
<g filter="url(#filter0_d_53_38657)">
<path d="M69.3662 33.0816C69.3662 51.352 54.5551 66.1631 36.2847 66.1631C18.0142 66.1631 3.20312 51.352 3.20312 33.0816C3.20312 14.8111 18.0142 0 36.2847 0C54.5551 0 69.3662 14.8111 69.3662 33.0816Z" fill="#FF8828"/>
</g>
<path d="M51.9733 15.6508L52.9578 16.6353C54.3144 17.9936 54.1092 20.4015 52.4956 22.0134L32.1929 42.3161L25.615 44.7223C24.789 45.026 23.9847 44.6322 23.8212 43.8462C23.7659 43.5611 23.792 43.2662 23.8963 42.9952L26.3492 36.3606L46.5952 16.113C48.2088 14.5011 50.6166 14.2925 51.9733 15.6508ZM31.3068 17.6699C31.526 17.6699 31.743 17.713 31.9454 17.7969C32.1479 17.8808 32.3318 18.0037 32.4868 18.1586C32.6417 18.3136 32.7646 18.4975 32.8485 18.7C32.9323 18.9024 32.9755 19.1194 32.9755 19.3386C32.9755 19.5577 32.9323 19.7747 32.8485 19.9771C32.7646 20.1796 32.6417 20.3635 32.4868 20.5185C32.3318 20.6734 32.1479 20.7963 31.9454 20.8802C31.743 20.9641 31.526 21.0072 31.3068 21.0072H24.6322C23.7471 21.0072 22.8982 21.3588 22.2723 21.9847C21.6465 22.6106 21.2949 23.4594 21.2949 24.3445V44.3685C21.2949 45.2536 21.6465 46.1025 22.2723 46.7284C22.8982 47.3543 23.7471 47.7059 24.6322 47.7059H44.6562C45.5413 47.7059 46.3901 47.3543 47.016 46.7284C47.6419 46.1025 47.9935 45.2536 47.9935 44.3685V37.6939C47.9935 37.2513 48.1693 36.8269 48.4822 36.5139C48.7952 36.201 49.2196 36.0252 49.6622 36.0252C50.1047 36.0252 50.5292 36.201 50.8421 36.5139C51.155 36.8269 51.3308 37.2513 51.3308 37.6939V44.3685C51.3308 46.1388 50.6276 47.8365 49.3759 49.0882C48.1241 50.34 46.4264 51.0432 44.6562 51.0432H24.6322C22.8619 51.0432 21.1642 50.34 19.9125 49.0882C18.6607 47.8365 17.9575 46.1388 17.9575 44.3685V24.3445C17.9575 22.5743 18.6607 20.8766 19.9125 19.6249C21.1642 18.3731 22.8619 17.6699 24.6322 17.6699H31.3068Z" fill="white"/>
<defs>
<filter id="filter0_d_53_38657" x="0.246047" y="0" width="72.0772" height="72.0782" filterUnits="userSpaceOnUse" color-interpolation-filters="sRGB">
<feFlood flood-opacity="0" result="BackgroundImageFix"/>
<feColorMatrix in="SourceAlpha" type="matrix" values="0 0 0 0 0 0 0 0 0 0 0 0 0 0 0 0 0 0 127 0" result="hardAlpha"/>
<feOffset dy="2.95708"/>
<feGaussianBlur stdDeviation="1.47854"/>
<feComposite in2="hardAlpha" operator="out"/>
<feColorMatrix type="matrix" values="0 0 0 0 0 0 0 0 0 0 0 0 0 0 0 0 0 0 0.25 0"/>
<feBlend mode="normal" in2="BackgroundImageFix" result="effect1_dropShadow_53_38657"/>
<feBlend mode="normal" in="SourceGraphic" in2="effect1_dropShadow_53_38657" result="shape"/>
</filter>
</defs>
</svg>
