<svg width="756" height="772" viewBox="0 0 756 772" fill="none" xmlns="http://www.w3.org/2000/svg">
<g filter="url(#filter0_d_710_976)">
<path d="M743 390.001C743 591.585 579.584 755.001 378 755.001C176.416 755.001 13 591.585 13 390.001C13 188.418 176.416 25.0015 378 25.0015C579.584 25.0015 743 188.418 743 390.001Z" fill="white" fill-opacity="0.6" shape-rendering="crispEdges"/>
</g>
<g filter="url(#filter1_d_710_976)">
<path d="M738 390.001C738 588.824 576.823 750.001 378 750.001C179.177 750.001 18 588.824 18 390.001C18 191.179 179.177 30.0015 378 30.0015C576.823 30.0015 738 191.179 738 390.001Z" fill="#0E1013"/>
</g>
<path d="M381.5 71.0015V73.5015H386.5V71.0015H381.5ZM381.5 41.0015V71.0015H386.5V41.0015H381.5Z" fill="white"/>
<path d="M56 390.5H58.5V385.5H56V390.5ZM26 390.5H56V385.5H26V390.5Z" fill="white"/>
<path d="M148.445 163.981L150.213 165.749L153.749 162.213L151.981 160.445L148.445 163.981ZM127.232 142.768L148.445 163.981L151.981 160.445L130.768 139.232L127.232 142.768Z" fill="white"/>
<path d="M626.981 142.768L628.749 141L625.213 137.464L623.445 139.232L626.981 142.768ZM605.768 163.981L626.981 142.768L623.445 139.232L602.232 160.445L605.768 163.981Z" fill="white"/>
<path d="M620.125 638.978L621.893 640.746L625.428 637.211L623.661 635.443L620.125 638.978ZM598.912 617.765L620.125 638.978L623.661 635.443L602.447 614.23L598.912 617.765Z" fill="white"/>
<path d="M151.981 617.768L153.749 616L150.213 612.464L148.445 614.232L151.981 617.768ZM130.768 638.981L151.981 617.768L148.445 614.232L127.232 635.445L130.768 638.981Z" fill="white"/>
<path d="M723 390.5H725.5V385.5H723V390.5ZM693 390.5H723V385.5H693V390.5Z" fill="white"/>
<path d="M537.075 544.501H532.159V520.937H545.665V525.031H537.075V531.107H545.069V535.185H537.075V544.501ZM569.455 520.937V536.184C569.455 537.807 569.095 539.273 568.375 540.584C567.666 541.884 566.586 542.916 565.135 543.679C563.696 544.442 561.88 544.823 559.688 544.823C556.572 544.823 554.197 544.028 552.564 542.438C550.93 540.847 550.114 538.741 550.114 536.12V520.937H555.094V535.362C555.094 537.307 555.492 538.672 556.287 539.456C557.082 540.24 558.259 540.633 559.817 540.633C560.913 540.633 561.799 540.444 562.476 540.068C563.164 539.692 563.669 539.112 563.991 538.328C564.313 537.543 564.475 536.544 564.475 535.33V520.937H569.455ZM588.796 544.501H575.225V520.937H588.796V525.031H580.221V530.205H588.199V534.298H580.221V540.375H588.796V544.501ZM593.728 544.501V520.937H598.724V540.375H608.282V544.501H593.728ZM616.582 540.665L616.824 541.035C616.631 541.809 616.378 542.642 616.067 543.534C615.766 544.426 615.433 545.317 615.067 546.209C614.713 547.101 614.353 547.95 613.987 548.756H610.442C610.656 547.885 610.866 546.972 611.07 546.016C611.274 545.059 611.462 544.119 611.634 543.195C611.817 542.271 611.962 541.428 612.069 540.665H616.582ZM541.249 589.501H536.253V570.095H529.854V565.937H547.648V570.095H541.249V589.501ZM572.662 577.687C572.662 579.503 572.437 581.157 571.985 582.651C571.534 584.134 570.846 585.412 569.922 586.487C569.009 587.561 567.848 588.389 566.441 588.969C565.033 589.538 563.368 589.823 561.444 589.823C559.521 589.823 557.856 589.538 556.448 588.969C555.04 588.389 553.875 587.561 552.951 586.487C552.037 585.412 551.355 584.128 550.904 582.635C550.452 581.141 550.227 579.481 550.227 577.654C550.227 575.215 550.624 573.093 551.419 571.288C552.225 569.472 553.461 568.064 555.126 567.065C556.792 566.066 558.909 565.566 561.477 565.566C564.034 565.566 566.135 566.066 567.779 567.065C569.433 568.064 570.658 569.472 571.453 571.288C572.259 573.104 572.662 575.237 572.662 577.687ZM555.465 577.687C555.465 579.331 555.669 580.749 556.077 581.942C556.496 583.124 557.146 584.037 558.028 584.682C558.909 585.316 560.048 585.633 561.444 585.633C562.863 585.633 564.012 585.316 564.894 584.682C565.775 584.037 566.414 583.124 566.812 581.942C567.22 580.749 567.424 579.331 567.424 577.687C567.424 575.215 566.962 573.27 566.038 571.852C565.114 570.434 563.593 569.725 561.477 569.725C560.069 569.725 558.919 570.047 558.028 570.692C557.146 571.326 556.496 572.239 556.077 573.432C555.669 574.614 555.465 576.032 555.465 577.687ZM606.493 565.937L600.497 589.501H594.808L591.616 577.123C591.552 576.886 591.466 576.526 591.358 576.043C591.251 575.559 591.138 575.033 591.02 574.463C590.902 573.883 590.794 573.34 590.698 572.835C590.612 572.319 590.553 571.911 590.52 571.61C590.488 571.911 590.424 572.314 590.327 572.819C590.241 573.324 590.139 573.861 590.021 574.431C589.913 575 589.806 575.532 589.698 576.027C589.591 576.521 589.505 576.897 589.441 577.155L586.265 589.501H580.592L574.58 565.937H579.496L582.51 578.799C582.596 579.186 582.693 579.648 582.8 580.185C582.918 580.722 583.031 581.286 583.139 581.877C583.257 582.457 583.359 583.022 583.445 583.569C583.542 584.107 583.611 584.574 583.654 584.972C583.708 584.563 583.778 584.091 583.864 583.553C583.95 583.005 584.041 582.452 584.138 581.893C584.245 581.324 584.353 580.797 584.46 580.314C584.568 579.83 584.664 579.438 584.75 579.137L588.183 565.937H592.906L596.339 579.137C596.414 579.427 596.5 579.819 596.597 580.314C596.704 580.797 596.812 581.324 596.919 581.893C597.026 582.463 597.123 583.022 597.209 583.569C597.306 584.107 597.376 584.574 597.419 584.972C597.494 584.434 597.596 583.784 597.725 583.022C597.865 582.248 598.01 581.48 598.16 580.717C598.321 579.954 598.461 579.314 598.579 578.799L601.577 565.937H606.493Z" fill="white"/>
<path d="M642.38 237.964C667.645 282.426 681.544 332.705 682.798 384.122L522.483 386.92C521.726 363.675 515.353 340.967 503.918 320.843C492.43 300.626 475.169 285.114 455.837 273.114L538.415 129.919C581.363 156.369 617.131 193.528 642.38 237.964Z" fill="#033452" stroke="#021B2B" stroke-width="4.34324"/>
<path d="M538.69 645.474L539.841 647.316L541.683 646.165C584.622 619.334 620.028 582.043 644.52 537.854C669.011 493.665 681.769 444.053 681.571 393.759L681.563 391.571L679.375 391.596L523.519 393.39L521.528 393.413L521.379 395.399C519.453 421.07 510.603 439.41 499.706 459.072C488.945 478.488 473.386 494.876 454.515 506.668L452.673 507.819L453.824 509.66L538.69 645.474Z" fill="#033452" stroke="#021B2B" stroke-width="4.34324"/>
<g filter="url(#filter2_d_710_976)">
<path d="M528.971 127.643C485.269 102.034 435.731 88.0603 385.089 87.0558C334.447 86.0512 284.393 98.0499 239.71 121.905L314.831 266.183C334.938 255.448 357.414 250.695 380.203 251.147C402.992 251.599 428.525 255.966 448.191 267.49L528.971 127.643Z" fill="#021B2B"/>
<path d="M530.851 128.729L531.931 126.86L530.069 125.769C486.047 99.9731 436.145 85.8965 385.132 84.8846C334.119 83.8726 283.698 95.9593 238.688 119.99L236.792 121.002L237.784 122.908L312.905 267.186L313.918 269.132L315.854 268.099C335.598 257.557 357.7 252.873 380.16 253.318C402.767 253.767 427.879 258.104 447.093 269.364L448.978 270.469L450.071 268.576L530.851 128.729Z" stroke="white" stroke-width="4.34324"/>
</g>
<path d="M231.249 126.573L230.229 124.655L228.312 125.675C183.261 149.629 145.105 184.736 117.49 227.64C89.8592 270.57 72.7598 326.27 69.6173 377.166L69.478 379.421L71.7368 379.47L235.304 383.085L237.391 383.131L237.52 381.048C238.901 358.669 245.999 337.017 258.134 318.163C270.269 299.309 287.037 283.881 306.834 273.355L308.752 272.335L307.732 270.418L231.249 126.573Z" fill="#033452" stroke="#021B2B" stroke-width="4.34324"/>
<path d="M71.5769 385.606L69.4056 385.568L69.3677 387.739C68.4772 438.754 80.6838 489.146 104.821 534.099C128.973 579.078 169.399 621.038 212.39 648.461L214.295 649.676L215.433 647.725L297.894 506.418L298.946 504.615L297.186 503.493C278.283 491.434 262.787 474.73 252.18 454.976C241.573 435.221 236.209 413.077 236.6 390.658L236.638 388.487L234.467 388.449L71.5769 385.606Z" fill="#033452" stroke="#021B2B" stroke-width="4.34324"/>
<path d="M374.984 219.246L398.028 376.223L353.62 375.754L374.984 219.246Z" fill="#C40E0E"/>
<ellipse cx="377.669" cy="391.906" rx="34.6476" ry="33.9939" transform="rotate(-45 377.669 391.906)" fill="white"/>
<g filter="url(#filter3_d_710_976)">
<path fill-rule="evenodd" clip-rule="evenodd" d="M161.083 468.052C163.81 463.809 167.808 460.537 172.507 458.705C177.205 456.873 182.363 456.574 187.242 457.851C192.121 459.128 196.471 461.915 199.669 465.815C202.867 469.714 204.75 474.525 205.048 479.56C207.685 479.436 210.321 479.841 212.8 480.751C215.279 481.662 217.55 483.06 219.48 484.862C221.41 486.664 222.959 488.835 224.037 491.245C225.115 493.656 225.699 496.258 225.756 498.898C225.812 501.538 225.339 504.163 224.365 506.617C223.391 509.071 221.936 511.306 220.084 513.189C218.233 515.072 216.023 516.565 213.586 517.581C211.148 518.596 208.532 519.113 205.891 519.102H154.435C150.747 519.097 147.102 518.306 143.743 516.782C140.384 515.257 137.389 513.035 134.957 510.262C132.525 507.488 130.712 504.229 129.639 500.7C128.565 497.171 128.257 493.454 128.733 489.797C129.209 486.139 130.46 482.625 132.401 479.489C134.342 476.353 136.93 473.666 139.991 471.609C143.052 469.551 146.517 468.17 150.154 467.556C153.791 466.943 157.517 467.112 161.083 468.052ZM177.075 505.849C177.87 505.849 178.599 505.571 179.174 505.098L190.191 496.289C190.531 496.017 190.814 495.681 191.024 495.299C191.234 494.918 191.367 494.499 191.415 494.066C191.463 493.633 191.425 493.195 191.304 492.777C191.183 492.359 190.98 491.969 190.708 491.629C190.436 491.289 190.1 491.006 189.718 490.796C189.337 490.586 188.918 490.453 188.485 490.405C188.052 490.357 187.614 490.395 187.196 490.516C186.778 490.637 186.387 490.84 186.047 491.112L180.388 495.644V480.448C180.388 479.569 180.039 478.726 179.418 478.105C178.797 477.484 177.954 477.135 177.075 477.135C176.197 477.135 175.354 477.484 174.732 478.105C174.111 478.726 173.762 479.569 173.762 480.448V495.644L168.099 491.116C167.759 490.845 167.369 490.642 166.95 490.521C166.532 490.4 166.095 490.363 165.662 490.411C165.229 490.459 164.811 490.592 164.429 490.802C164.048 491.012 163.712 491.295 163.44 491.635C163.168 491.975 162.966 492.365 162.845 492.784C162.724 493.202 162.687 493.639 162.735 494.072C162.783 494.505 162.916 494.923 163.126 495.305C163.336 495.686 163.619 496.022 163.959 496.294L174.995 505.12C175.576 505.59 176.301 505.849 177.049 505.853L177.075 505.849Z" fill="white"/>
</g>
<path d="M228.065 279.291L222.107 261.417C221.501 259.7 219.886 258.589 218.068 258.589H200.295C198.578 258.589 197.266 259.902 197.266 261.619V285.249C197.266 286.663 196.155 287.774 194.741 287.774H189.894L155.357 248.592C154.954 248.087 154.348 247.885 153.742 247.885H140.412C139.2 247.784 138.291 248.794 138.291 250.006V267.476C138.291 268.688 139.301 269.597 140.513 269.597C141.826 269.597 142.836 270.707 142.836 272.02C142.836 273.333 141.725 274.444 140.412 274.444C139.402 274.444 138.493 273.838 138.19 272.929C137.685 271.717 136.07 271.212 134.959 272.02C134.05 272.626 133.949 273.939 134.353 274.848C135.767 277.877 139.2 279.493 142.634 278.382C144.754 277.675 146.471 275.858 146.976 273.636C147.885 270 145.764 266.668 142.533 265.557V255.358H150.308L169.596 287.774H136.777C135.06 287.774 133.747 289.086 133.747 290.803V298.074C133.765 302.177 133.747 302.416 138.089 302.416H143.441C143.441 308.98 148.794 314.433 155.458 314.433C162.123 314.433 167.475 309.081 167.475 302.416H195.953C195.953 308.98 201.406 314.433 207.97 314.433C214.635 314.433 219.987 309.081 219.987 302.416H225.44C229.681 302.416 229.681 302.416 229.681 298.175V289.086C229.681 285.754 229.176 282.421 228.065 279.291ZM155.458 308.071C152.328 308.071 149.803 305.547 149.803 302.416C149.803 299.286 152.328 296.761 155.458 296.761C158.589 296.761 161.114 299.286 161.114 302.416C161.114 305.547 158.589 308.071 155.458 308.071ZM207.97 308.071C204.839 308.071 202.315 305.547 202.315 302.416C202.315 299.286 204.839 296.761 207.97 296.761C211.1 296.761 213.625 299.286 213.625 302.416C213.726 305.547 211.1 308.071 207.97 308.071ZM219.078 277.675H205.344C204.435 277.675 203.627 277.675 203.627 275.958V266.567C203.627 264.399 203.509 263.309 205.325 263.309H215.496C216.203 263.309 216.384 263.692 216.586 264.399L220.391 276.059C220.582 277.476 219.987 277.675 219.078 277.675Z" fill="white"/>
<path d="M408.62 136.233C407.813 135.445 406.519 135.46 405.732 136.266C404.943 137.072 404.957 138.365 405.764 139.155L413.281 146.504V156.077C413.281 156.258 413.353 156.431 413.482 156.56L420.468 163.485V178.715C420.468 180.471 419.977 186.203 413.66 186.203C407.343 186.203 406.851 180.471 406.851 178.715V169.183C406.851 160.866 402.211 158.104 396.943 157.264V131.68C396.943 129.424 395.115 127.594 392.858 127.594H357C354.745 127.594 352.916 129.424 352.916 131.68V198.175H348.277C346.774 198.175 345.555 199.396 345.555 200.9V205.912C345.555 206.286 345.86 206.593 346.235 206.593H403.624C403.999 206.593 404.304 206.286 404.304 205.912V200.9C404.304 199.396 403.085 198.175 401.581 198.175H396.942V161.404C401.199 162.246 402.765 164.546 402.765 169.183V178.715C402.765 183.013 405.06 190.289 413.659 190.289C422.259 190.289 424.553 183.014 424.553 178.715V152.672C424.553 152.122 424.331 151.595 423.939 151.211L408.62 136.233ZM391.826 163.678C391.826 164.055 391.522 164.359 391.146 164.359H358.712C358.337 164.359 358.032 164.054 358.032 163.678V136.692C358.032 136.317 358.337 136.012 358.712 136.012H391.145C391.522 136.012 391.825 136.318 391.825 136.692L391.826 163.678Z" fill="white"/>
<path d="M612.287 259.595L609.994 257.38C608.851 256.277 606.705 256.991 605.277 257.38L587.558 238.668L568.647 231.731L565.693 234.79L582.271 250.981L524.709 309.026C523.045 310.75 522.985 314.946 524.709 316.612L526.365 318.211C528.089 319.875 532.118 319.243 533.782 317.52L591.12 259.475C591.12 259.475 598.538 262.99 598.198 264.43C597.859 265.871 597.285 268.255 598.428 269.359L600.721 271.573C602.445 273.238 605.194 273.189 606.858 271.466L612.396 265.731C614.059 264.007 614.012 261.26 612.287 259.595Z" fill="white"/>
<path d="M589.492 280.667L595.895 278.369C596.32 278.217 596.777 278.495 596.836 278.943L597.908 287.073C597.983 287.641 598.666 287.889 599.089 287.502L604.917 282.161C605.163 281.936 605.532 281.912 605.804 282.105L615.391 288.903C615.864 289.238 616.517 288.894 616.508 288.314L616.349 278.262C616.343 277.864 616.665 277.539 617.062 277.543L630.117 277.647C630.734 277.652 631.062 276.921 630.648 276.464L622.803 267.801C622.523 267.491 622.57 267.007 622.905 266.757L630.063 261.436C630.559 261.067 630.377 260.284 629.769 260.172L620.409 258.447C619.954 258.363 619.7 257.872 619.895 257.452L623.195 250.347" stroke="white" stroke-width="2.83149" stroke-linecap="round"/>
<path d="M566.026 498.878L584.785 479.766L603.543 460.653L606.076 455.939L604.815 454.675L600.356 457.359L562.433 495.212L566.026 498.878Z" fill="white"/>
<path d="M532.123 528.532C535.006 531.411 539.518 531.586 542.396 528.709L560.71 510.03C560.963 509.773 560.963 509.365 560.71 509.108C559.959 508.348 559.959 507.137 560.71 506.382C561.458 505.636 562.681 505.636 563.437 506.382C563.689 506.643 564.103 506.643 564.361 506.382L566.916 503.835C567.125 503.622 567.149 503.304 567.006 503.051L557.242 493.304C556.989 493.162 556.671 493.181 556.462 493.395L553.905 495.946C553.649 496.202 553.654 496.611 553.91 496.867C554.663 497.623 554.663 498.844 553.91 499.593C553.154 500.344 551.932 500.34 551.179 499.593C550.928 499.333 550.514 499.333 550.252 499.593L531.946 518.27C529.064 521.146 529.239 525.654 532.123 528.532Z" fill="white"/>
<path d="M612.827 519.421L579.91 488.654L570.928 497.464L602.822 529.028C605.537 531.806 609.895 531.806 612.72 529.14C615.441 526.362 615.55 522.092 612.827 519.421ZM610.322 526.788C608.913 528.282 606.624 528.07 605.106 526.676C603.8 525.394 603.8 523.056 605.106 521.666C606.624 520.274 608.913 520.274 610.322 521.666C611.742 523.056 611.742 525.51 610.322 526.788Z" fill="white"/>
<path d="M563.862 490.835L572.741 481.971L564.148 474.142C561.621 471.402 560.955 470.3 561.621 467.107C562.392 463.592 561.774 457.132 555.778 453.693C548.892 449.737 541.898 453.36 541.898 453.36L541.35 454.239C541.35 454.239 547.521 458.31 548.292 458.752C549.168 459.303 551.813 462.267 548.616 466.998C545.527 471.724 542.121 470.19 541.126 469.417C540.36 468.974 534.185 465.017 534.185 465.017L533.637 465.896C533.637 465.896 533.194 474.142 540.023 478.541C543.22 480.63 546.632 480.63 549.057 479.756C551.48 478.987 553.245 479.866 556.214 482.721L563.862 490.835Z" fill="white"/>
<g filter="url(#filter4_d_710_976)">
<path d="M187 105.003L197.58 119.565" stroke="white" stroke-opacity="0.5" stroke-width="2" shape-rendering="crispEdges"/>
</g>
<g filter="url(#filter5_d_710_976)">
<path d="M243 74.0027L249.451 90.8071" stroke="#033452" stroke-width="2"/>
</g>
<g filter="url(#filter6_d_710_976)">
<path d="M313.435 71.6721L310 54.0028" stroke="white" stroke-opacity="0.5" stroke-width="2" shape-rendering="crispEdges"/>
</g>
<g filter="url(#filter7_d_710_976)">
<path d="M571.435 107.002L560.854 121.565" stroke="white" stroke-opacity="0.5" stroke-width="2" shape-rendering="crispEdges"/>
</g>
<g filter="url(#filter8_d_710_976)">
<path d="M515.435 76.0024L508.984 92.8069" stroke="#033452" stroke-width="2"/>
</g>
<g filter="url(#filter9_d_710_976)">
<path d="M445 73.6719L448.435 56.0026" stroke="white" stroke-opacity="0.5" stroke-width="2" shape-rendering="crispEdges"/>
</g>
<g filter="url(#filter10_d_710_976)">
<path d="M96.3809 194.78L110.565 205.862" stroke="white" stroke-opacity="0.5" stroke-width="2" shape-rendering="crispEdges"/>
</g>
<g filter="url(#filter11_d_710_976)">
<path d="M63.4463 249.664L80.0154 256.697" stroke="#033452" stroke-width="2"/>
</g>
<g filter="url(#filter12_d_710_976)">
<path d="M58.6582 319.974L41.1195 315.925" stroke="white" stroke-opacity="0.5" stroke-width="2" shape-rendering="crispEdges"/>
</g>
<g filter="url(#filter13_d_710_976)">
<path d="M656.554 581.866L642.37 570.784" stroke="white" stroke-opacity="0.5" stroke-width="2" shape-rendering="crispEdges"/>
</g>
<g filter="url(#filter14_d_710_976)">
<path d="M689.489 526.982L672.92 519.949" stroke="#033452" stroke-width="2"/>
</g>
<g filter="url(#filter15_d_710_976)">
<path d="M694.276 456.671L711.815 460.721" stroke="white" stroke-opacity="0.5" stroke-width="2" shape-rendering="crispEdges"/>
</g>
<g filter="url(#filter16_d_710_976)">
<path d="M40.2998 457.931L58.1656 455.738" stroke="white" stroke-opacity="0.5" stroke-width="2" shape-rendering="crispEdges"/>
</g>
<g filter="url(#filter17_d_710_976)">
<path d="M55.8193 520.029L72.5086 513.286" stroke="#033452" stroke-width="2"/>
</g>
<g filter="url(#filter18_d_710_976)">
<path d="M102.151 573.131L86.8865 582.67" stroke="white" stroke-opacity="0.5" stroke-width="2" shape-rendering="crispEdges"/>
</g>
<g filter="url(#filter19_d_710_976)">
<path d="M208.059 660.649L198.52 675.914" stroke="white" stroke-opacity="0.5" stroke-width="2" shape-rendering="crispEdges"/>
</g>
<g filter="url(#filter20_d_710_976)">
<path d="M556.804 676.096L547 661" stroke="white" stroke-opacity="0.5" stroke-width="2" shape-rendering="crispEdges"/>
</g>
<g filter="url(#filter21_d_710_976)">
<path d="M714.399 314.527L696.73 317.962" stroke="white" stroke-opacity="0.5" stroke-width="2" shape-rendering="crispEdges"/>
</g>
<g filter="url(#filter22_d_710_976)">
<path d="M694.586 253.663L678.408 261.554" stroke="#033452" stroke-width="2"/>
</g>
<g filter="url(#filter23_d_710_976)">
<path d="M644.662 203.923L659.224 193.342" stroke="white" stroke-opacity="0.5" stroke-width="2" shape-rendering="crispEdges"/>
</g>
<defs>
<filter id="filter0_d_710_976" x="0.4" y="16.4015" width="755.2" height="755.2" filterUnits="userSpaceOnUse" color-interpolation-filters="sRGB">
<feFlood flood-opacity="0" result="BackgroundImageFix"/>
<feColorMatrix in="SourceAlpha" type="matrix" values="0 0 0 0 0 0 0 0 0 0 0 0 0 0 0 0 0 0 127 0" result="hardAlpha"/>
<feOffset dy="4"/>
<feGaussianBlur stdDeviation="6.3"/>
<feComposite in2="hardAlpha" operator="out"/>
<feColorMatrix type="matrix" values="0 0 0 0 0 0 0 0 0 0 0 0 0 0 0 0 0 0 1 0"/>
<feBlend mode="normal" in2="BackgroundImageFix" result="effect1_dropShadow_710_976"/>
<feBlend mode="normal" in="SourceGraphic" in2="effect1_dropShadow_710_976" result="shape"/>
</filter>
<filter id="filter1_d_710_976" x="14.3376" y="30.0015" width="727.325" height="727.325" filterUnits="userSpaceOnUse" color-interpolation-filters="sRGB">
<feFlood flood-opacity="0" result="BackgroundImageFix"/>
<feColorMatrix in="SourceAlpha" type="matrix" values="0 0 0 0 0 0 0 0 0 0 0 0 0 0 0 0 0 0 127 0" result="hardAlpha"/>
<feOffset dy="3.6624"/>
<feGaussianBlur stdDeviation="1.8312"/>
<feComposite in2="hardAlpha" operator="out"/>
<feColorMatrix type="matrix" values="0 0 0 0 0 0 0 0 0 0 0 0 0 0 0 0 0 0 0.25 0"/>
<feBlend mode="normal" in2="BackgroundImageFix" result="effect1_dropShadow_710_976"/>
<feBlend mode="normal" in="SourceGraphic" in2="effect1_dropShadow_710_976" result="shape"/>
</filter>
<filter id="filter2_d_710_976" x="230.165" y="82.6543" width="308.434" height="198.209" filterUnits="userSpaceOnUse" color-interpolation-filters="sRGB">
<feFlood flood-opacity="0" result="BackgroundImageFix"/>
<feColorMatrix in="SourceAlpha" type="matrix" values="0 0 0 0 0 0 0 0 0 0 0 0 0 0 0 0 0 0 127 0" result="hardAlpha"/>
<feOffset dy="3.70829"/>
<feGaussianBlur stdDeviation="1.85415"/>
<feComposite in2="hardAlpha" operator="out"/>
<feColorMatrix type="matrix" values="0 0 0 0 0 0 0 0 0 0 0 0 0 0 0 0 0 0 0.25 0"/>
<feBlend mode="normal" in2="BackgroundImageFix" result="effect1_dropShadow_710_976"/>
<feBlend mode="normal" in="SourceGraphic" in2="effect1_dropShadow_710_976" result="shape"/>
</filter>
<filter id="filter3_d_710_976" x="125.684" y="457.072" width="102.907" height="67.6932" filterUnits="userSpaceOnUse" color-interpolation-filters="sRGB">
<feFlood flood-opacity="0" result="BackgroundImageFix"/>
<feColorMatrix in="SourceAlpha" type="matrix" values="0 0 0 0 0 0 0 0 0 0 0 0 0 0 0 0 0 0 127 0" result="hardAlpha"/>
<feOffset dy="2.83149"/>
<feGaussianBlur stdDeviation="1.41574"/>
<feComposite in2="hardAlpha" operator="out"/>
<feColorMatrix type="matrix" values="0 0 0 0 0 0 0 0 0 0 0 0 0 0 0 0 0 0 0.11 0"/>
<feBlend mode="normal" in2="BackgroundImageFix" result="effect1_dropShadow_710_976"/>
<feBlend mode="normal" in="SourceGraphic" in2="effect1_dropShadow_710_976" result="shape"/>
</filter>
<filter id="filter4_d_710_976" x="182.191" y="104.415" width="20.1973" height="23.738" filterUnits="userSpaceOnUse" color-interpolation-filters="sRGB">
<feFlood flood-opacity="0" result="BackgroundImageFix"/>
<feColorMatrix in="SourceAlpha" type="matrix" values="0 0 0 0 0 0 0 0 0 0 0 0 0 0 0 0 0 0 127 0" result="hardAlpha"/>
<feOffset dy="4"/>
<feGaussianBlur stdDeviation="2"/>
<feComposite in2="hardAlpha" operator="out"/>
<feColorMatrix type="matrix" values="0 0 0 0 0 0 0 0 0 0 0 0 0 0 0 0 0 0 0.25 0"/>
<feBlend mode="normal" in2="BackgroundImageFix" result="effect1_dropShadow_710_976"/>
<feBlend mode="normal" in="SourceGraphic" in2="effect1_dropShadow_710_976" result="shape"/>
</filter>
<filter id="filter5_d_710_976" x="238.066" y="73.6443" width="16.3174" height="25.5212" filterUnits="userSpaceOnUse" color-interpolation-filters="sRGB">
<feFlood flood-opacity="0" result="BackgroundImageFix"/>
<feColorMatrix in="SourceAlpha" type="matrix" values="0 0 0 0 0 0 0 0 0 0 0 0 0 0 0 0 0 0 127 0" result="hardAlpha"/>
<feOffset dy="4"/>
<feGaussianBlur stdDeviation="2"/>
<feComposite in2="hardAlpha" operator="out"/>
<feColorMatrix type="matrix" values="0 0 0 0 0 0 0 0 0 0 0 0 0 0 0 0 0 0 0.25 0"/>
<feBlend mode="normal" in2="BackgroundImageFix" result="effect1_dropShadow_710_976"/>
<feBlend mode="normal" in="SourceGraphic" in2="effect1_dropShadow_710_976" result="shape"/>
</filter>
<filter id="filter6_d_710_976" x="305.019" y="53.812" width="13.3975" height="26.051" filterUnits="userSpaceOnUse" color-interpolation-filters="sRGB">
<feFlood flood-opacity="0" result="BackgroundImageFix"/>
<feColorMatrix in="SourceAlpha" type="matrix" values="0 0 0 0 0 0 0 0 0 0 0 0 0 0 0 0 0 0 127 0" result="hardAlpha"/>
<feOffset dy="4"/>
<feGaussianBlur stdDeviation="2"/>
<feComposite in2="hardAlpha" operator="out"/>
<feColorMatrix type="matrix" values="0 0 0 0 0 0 0 0 0 0 0 0 0 0 0 0 0 0 0.25 0"/>
<feBlend mode="normal" in2="BackgroundImageFix" result="effect1_dropShadow_710_976"/>
<feBlend mode="normal" in="SourceGraphic" in2="effect1_dropShadow_710_976" result="shape"/>
</filter>
<filter id="filter7_d_710_976" x="556.046" y="106.415" width="20.1973" height="23.738" filterUnits="userSpaceOnUse" color-interpolation-filters="sRGB">
<feFlood flood-opacity="0" result="BackgroundImageFix"/>
<feColorMatrix in="SourceAlpha" type="matrix" values="0 0 0 0 0 0 0 0 0 0 0 0 0 0 0 0 0 0 127 0" result="hardAlpha"/>
<feOffset dy="4"/>
<feGaussianBlur stdDeviation="2"/>
<feComposite in2="hardAlpha" operator="out"/>
<feColorMatrix type="matrix" values="0 0 0 0 0 0 0 0 0 0 0 0 0 0 0 0 0 0 0.25 0"/>
<feBlend mode="normal" in2="BackgroundImageFix" result="effect1_dropShadow_710_976"/>
<feBlend mode="normal" in="SourceGraphic" in2="effect1_dropShadow_710_976" result="shape"/>
</filter>
<filter id="filter8_d_710_976" x="504.051" y="75.644" width="16.3174" height="25.5212" filterUnits="userSpaceOnUse" color-interpolation-filters="sRGB">
<feFlood flood-opacity="0" result="BackgroundImageFix"/>
<feColorMatrix in="SourceAlpha" type="matrix" values="0 0 0 0 0 0 0 0 0 0 0 0 0 0 0 0 0 0 127 0" result="hardAlpha"/>
<feOffset dy="4"/>
<feGaussianBlur stdDeviation="2"/>
<feComposite in2="hardAlpha" operator="out"/>
<feColorMatrix type="matrix" values="0 0 0 0 0 0 0 0 0 0 0 0 0 0 0 0 0 0 0.25 0"/>
<feBlend mode="normal" in2="BackgroundImageFix" result="effect1_dropShadow_710_976"/>
<feBlend mode="normal" in="SourceGraphic" in2="effect1_dropShadow_710_976" result="shape"/>
</filter>
<filter id="filter9_d_710_976" x="440.019" y="55.8118" width="13.3975" height="26.051" filterUnits="userSpaceOnUse" color-interpolation-filters="sRGB">
<feFlood flood-opacity="0" result="BackgroundImageFix"/>
<feColorMatrix in="SourceAlpha" type="matrix" values="0 0 0 0 0 0 0 0 0 0 0 0 0 0 0 0 0 0 127 0" result="hardAlpha"/>
<feOffset dy="4"/>
<feGaussianBlur stdDeviation="2"/>
<feComposite in2="hardAlpha" operator="out"/>
<feColorMatrix type="matrix" values="0 0 0 0 0 0 0 0 0 0 0 0 0 0 0 0 0 0 0.25 0"/>
<feBlend mode="normal" in2="BackgroundImageFix" result="effect1_dropShadow_710_976"/>
<feBlend mode="normal" in="SourceGraphic" in2="effect1_dropShadow_710_976" result="shape"/>
</filter>
<filter id="filter10_d_710_976" x="91.7656" y="193.992" width="23.415" height="20.658" filterUnits="userSpaceOnUse" color-interpolation-filters="sRGB">
<feFlood flood-opacity="0" result="BackgroundImageFix"/>
<feColorMatrix in="SourceAlpha" type="matrix" values="0 0 0 0 0 0 0 0 0 0 0 0 0 0 0 0 0 0 127 0" result="hardAlpha"/>
<feOffset dy="4"/>
<feGaussianBlur stdDeviation="2"/>
<feComposite in2="hardAlpha" operator="out"/>
<feColorMatrix type="matrix" values="0 0 0 0 0 0 0 0 0 0 0 0 0 0 0 0 0 0 0.25 0"/>
<feBlend mode="normal" in2="BackgroundImageFix" result="effect1_dropShadow_710_976"/>
<feBlend mode="normal" in="SourceGraphic" in2="effect1_dropShadow_710_976" result="shape"/>
</filter>
<filter id="filter11_d_710_976" x="59.0557" y="248.743" width="25.3506" height="16.874" filterUnits="userSpaceOnUse" color-interpolation-filters="sRGB">
<feFlood flood-opacity="0" result="BackgroundImageFix"/>
<feColorMatrix in="SourceAlpha" type="matrix" values="0 0 0 0 0 0 0 0 0 0 0 0 0 0 0 0 0 0 127 0" result="hardAlpha"/>
<feOffset dy="4"/>
<feGaussianBlur stdDeviation="2"/>
<feComposite in2="hardAlpha" operator="out"/>
<feColorMatrix type="matrix" values="0 0 0 0 0 0 0 0 0 0 0 0 0 0 0 0 0 0 0.25 0"/>
<feBlend mode="normal" in2="BackgroundImageFix" result="effect1_dropShadow_710_976"/>
<feBlend mode="normal" in="SourceGraphic" in2="effect1_dropShadow_710_976" result="shape"/>
</filter>
<filter id="filter12_d_710_976" x="36.8945" y="314.951" width="25.9883" height="13.9978" filterUnits="userSpaceOnUse" color-interpolation-filters="sRGB">
<feFlood flood-opacity="0" result="BackgroundImageFix"/>
<feColorMatrix in="SourceAlpha" type="matrix" values="0 0 0 0 0 0 0 0 0 0 0 0 0 0 0 0 0 0 127 0" result="hardAlpha"/>
<feOffset dy="4"/>
<feGaussianBlur stdDeviation="2"/>
<feComposite in2="hardAlpha" operator="out"/>
<feColorMatrix type="matrix" values="0 0 0 0 0 0 0 0 0 0 0 0 0 0 0 0 0 0 0.25 0"/>
<feBlend mode="normal" in2="BackgroundImageFix" result="effect1_dropShadow_710_976"/>
<feBlend mode="normal" in="SourceGraphic" in2="effect1_dropShadow_710_976" result="shape"/>
</filter>
<filter id="filter13_d_710_976" x="637.754" y="569.996" width="23.415" height="20.658" filterUnits="userSpaceOnUse" color-interpolation-filters="sRGB">
<feFlood flood-opacity="0" result="BackgroundImageFix"/>
<feColorMatrix in="SourceAlpha" type="matrix" values="0 0 0 0 0 0 0 0 0 0 0 0 0 0 0 0 0 0 127 0" result="hardAlpha"/>
<feOffset dy="4"/>
<feGaussianBlur stdDeviation="2"/>
<feComposite in2="hardAlpha" operator="out"/>
<feColorMatrix type="matrix" values="0 0 0 0 0 0 0 0 0 0 0 0 0 0 0 0 0 0 0.25 0"/>
<feBlend mode="normal" in2="BackgroundImageFix" result="effect1_dropShadow_710_976"/>
<feBlend mode="normal" in="SourceGraphic" in2="effect1_dropShadow_710_976" result="shape"/>
</filter>
<filter id="filter14_d_710_976" x="668.529" y="519.028" width="25.3506" height="16.874" filterUnits="userSpaceOnUse" color-interpolation-filters="sRGB">
<feFlood flood-opacity="0" result="BackgroundImageFix"/>
<feColorMatrix in="SourceAlpha" type="matrix" values="0 0 0 0 0 0 0 0 0 0 0 0 0 0 0 0 0 0 127 0" result="hardAlpha"/>
<feOffset dy="4"/>
<feGaussianBlur stdDeviation="2"/>
<feComposite in2="hardAlpha" operator="out"/>
<feColorMatrix type="matrix" values="0 0 0 0 0 0 0 0 0 0 0 0 0 0 0 0 0 0 0.25 0"/>
<feBlend mode="normal" in2="BackgroundImageFix" result="effect1_dropShadow_710_976"/>
<feBlend mode="normal" in="SourceGraphic" in2="effect1_dropShadow_710_976" result="shape"/>
</filter>
<filter id="filter15_d_710_976" x="690.052" y="455.697" width="25.9883" height="13.9978" filterUnits="userSpaceOnUse" color-interpolation-filters="sRGB">
<feFlood flood-opacity="0" result="BackgroundImageFix"/>
<feColorMatrix in="SourceAlpha" type="matrix" values="0 0 0 0 0 0 0 0 0 0 0 0 0 0 0 0 0 0 127 0" result="hardAlpha"/>
<feOffset dy="4"/>
<feGaussianBlur stdDeviation="2"/>
<feComposite in2="hardAlpha" operator="out"/>
<feColorMatrix type="matrix" values="0 0 0 0 0 0 0 0 0 0 0 0 0 0 0 0 0 0 0.25 0"/>
<feBlend mode="normal" in2="BackgroundImageFix" result="effect1_dropShadow_710_976"/>
<feBlend mode="normal" in="SourceGraphic" in2="effect1_dropShadow_710_976" result="shape"/>
</filter>
<filter id="filter16_d_710_976" x="36.1777" y="454.745" width="26.1094" height="12.1787" filterUnits="userSpaceOnUse" color-interpolation-filters="sRGB">
<feFlood flood-opacity="0" result="BackgroundImageFix"/>
<feColorMatrix in="SourceAlpha" type="matrix" values="0 0 0 0 0 0 0 0 0 0 0 0 0 0 0 0 0 0 127 0" result="hardAlpha"/>
<feOffset dy="4"/>
<feGaussianBlur stdDeviation="2"/>
<feComposite in2="hardAlpha" operator="out"/>
<feColorMatrix type="matrix" values="0 0 0 0 0 0 0 0 0 0 0 0 0 0 0 0 0 0 0.25 0"/>
<feBlend mode="normal" in2="BackgroundImageFix" result="effect1_dropShadow_710_976"/>
<feBlend mode="normal" in="SourceGraphic" in2="effect1_dropShadow_710_976" result="shape"/>
</filter>
<filter id="filter17_d_710_976" x="51.4443" y="512.359" width="25.4385" height="16.5974" filterUnits="userSpaceOnUse" color-interpolation-filters="sRGB">
<feFlood flood-opacity="0" result="BackgroundImageFix"/>
<feColorMatrix in="SourceAlpha" type="matrix" values="0 0 0 0 0 0 0 0 0 0 0 0 0 0 0 0 0 0 127 0" result="hardAlpha"/>
<feOffset dy="4"/>
<feGaussianBlur stdDeviation="2"/>
<feComposite in2="hardAlpha" operator="out"/>
<feColorMatrix type="matrix" values="0 0 0 0 0 0 0 0 0 0 0 0 0 0 0 0 0 0 0.25 0"/>
<feBlend mode="normal" in2="BackgroundImageFix" result="effect1_dropShadow_710_976"/>
<feBlend mode="normal" in="SourceGraphic" in2="effect1_dropShadow_710_976" result="shape"/>
</filter>
<filter id="filter18_d_710_976" x="82.3564" y="572.283" width="24.3252" height="19.2346" filterUnits="userSpaceOnUse" color-interpolation-filters="sRGB">
<feFlood flood-opacity="0" result="BackgroundImageFix"/>
<feColorMatrix in="SourceAlpha" type="matrix" values="0 0 0 0 0 0 0 0 0 0 0 0 0 0 0 0 0 0 127 0" result="hardAlpha"/>
<feOffset dy="4"/>
<feGaussianBlur stdDeviation="2"/>
<feComposite in2="hardAlpha" operator="out"/>
<feColorMatrix type="matrix" values="0 0 0 0 0 0 0 0 0 0 0 0 0 0 0 0 0 0 0.25 0"/>
<feBlend mode="normal" in2="BackgroundImageFix" result="effect1_dropShadow_710_976"/>
<feBlend mode="normal" in="SourceGraphic" in2="effect1_dropShadow_710_976" result="shape"/>
</filter>
<filter id="filter19_d_710_976" x="193.672" y="660.119" width="19.2344" height="24.3247" filterUnits="userSpaceOnUse" color-interpolation-filters="sRGB">
<feFlood flood-opacity="0" result="BackgroundImageFix"/>
<feColorMatrix in="SourceAlpha" type="matrix" values="0 0 0 0 0 0 0 0 0 0 0 0 0 0 0 0 0 0 127 0" result="hardAlpha"/>
<feOffset dy="4"/>
<feGaussianBlur stdDeviation="2"/>
<feComposite in2="hardAlpha" operator="out"/>
<feColorMatrix type="matrix" values="0 0 0 0 0 0 0 0 0 0 0 0 0 0 0 0 0 0 0.25 0"/>
<feBlend mode="normal" in2="BackgroundImageFix" result="effect1_dropShadow_710_976"/>
<feBlend mode="normal" in="SourceGraphic" in2="effect1_dropShadow_710_976" result="shape"/>
</filter>
<filter id="filter20_d_710_976" x="542.161" y="660.456" width="19.4814" height="24.1853" filterUnits="userSpaceOnUse" color-interpolation-filters="sRGB">
<feFlood flood-opacity="0" result="BackgroundImageFix"/>
<feColorMatrix in="SourceAlpha" type="matrix" values="0 0 0 0 0 0 0 0 0 0 0 0 0 0 0 0 0 0 127 0" result="hardAlpha"/>
<feOffset dy="4"/>
<feGaussianBlur stdDeviation="2"/>
<feComposite in2="hardAlpha" operator="out"/>
<feColorMatrix type="matrix" values="0 0 0 0 0 0 0 0 0 0 0 0 0 0 0 0 0 0 0.25 0"/>
<feBlend mode="normal" in2="BackgroundImageFix" result="effect1_dropShadow_710_976"/>
<feBlend mode="normal" in="SourceGraphic" in2="effect1_dropShadow_710_976" result="shape"/>
</filter>
<filter id="filter21_d_710_976" x="692.539" y="313.545" width="26.0508" height="13.3979" filterUnits="userSpaceOnUse" color-interpolation-filters="sRGB">
<feFlood flood-opacity="0" result="BackgroundImageFix"/>
<feColorMatrix in="SourceAlpha" type="matrix" values="0 0 0 0 0 0 0 0 0 0 0 0 0 0 0 0 0 0 127 0" result="hardAlpha"/>
<feOffset dy="4"/>
<feGaussianBlur stdDeviation="2"/>
<feComposite in2="hardAlpha" operator="out"/>
<feColorMatrix type="matrix" values="0 0 0 0 0 0 0 0 0 0 0 0 0 0 0 0 0 0 0.25 0"/>
<feBlend mode="normal" in2="BackgroundImageFix" result="effect1_dropShadow_710_976"/>
<feBlend mode="normal" in="SourceGraphic" in2="effect1_dropShadow_710_976" result="shape"/>
</filter>
<filter id="filter22_d_710_976" x="673.97" y="252.765" width="25.0547" height="17.6882" filterUnits="userSpaceOnUse" color-interpolation-filters="sRGB">
<feFlood flood-opacity="0" result="BackgroundImageFix"/>
<feColorMatrix in="SourceAlpha" type="matrix" values="0 0 0 0 0 0 0 0 0 0 0 0 0 0 0 0 0 0 127 0" result="hardAlpha"/>
<feOffset dy="4"/>
<feGaussianBlur stdDeviation="2"/>
<feComposite in2="hardAlpha" operator="out"/>
<feColorMatrix type="matrix" values="0 0 0 0 0 0 0 0 0 0 0 0 0 0 0 0 0 0 0.25 0"/>
<feBlend mode="normal" in2="BackgroundImageFix" result="effect1_dropShadow_710_976"/>
<feBlend mode="normal" in="SourceGraphic" in2="effect1_dropShadow_710_976" result="shape"/>
</filter>
<filter id="filter23_d_710_976" x="640.074" y="192.533" width="23.7383" height="20.1982" filterUnits="userSpaceOnUse" color-interpolation-filters="sRGB">
<feFlood flood-opacity="0" result="BackgroundImageFix"/>
<feColorMatrix in="SourceAlpha" type="matrix" values="0 0 0 0 0 0 0 0 0 0 0 0 0 0 0 0 0 0 127 0" result="hardAlpha"/>
<feOffset dy="4"/>
<feGaussianBlur stdDeviation="2"/>
<feComposite in2="hardAlpha" operator="out"/>
<feColorMatrix type="matrix" values="0 0 0 0 0 0 0 0 0 0 0 0 0 0 0 0 0 0 0.25 0"/>
<feBlend mode="normal" in2="BackgroundImageFix" result="effect1_dropShadow_710_976"/>
<feBlend mode="normal" in="SourceGraphic" in2="effect1_dropShadow_710_976" result="shape"/>
</filter>
</defs>
</svg>
