<svg width="61" height="49" viewBox="0 0 61 49" fill="none" xmlns="http://www.w3.org/2000/svg">
<path d="M30.5001 9.7998L8.74471 27.7348C8.74471 27.7601 8.73835 27.7974 8.72563 27.8481C8.71317 27.8985 8.70654 27.935 8.70654 27.961V46.1221C8.70654 46.7778 8.94628 47.3461 9.42561 47.8246C9.90482 48.3034 10.4723 48.5444 11.1281 48.5444H25.6566V34.0151H35.3437V48.5449H49.872C50.5277 48.5449 51.096 48.3045 51.5745 47.8246C52.0539 47.3466 52.2944 46.778 52.2944 46.1221V27.961C52.2944 27.8603 52.2806 27.7842 52.2562 27.7348L30.5001 9.7998Z" fill="white"/>
<path d="M60.5792 23.6479L52.2936 16.7618V1.32457C52.2936 0.971658 52.1802 0.681433 51.9525 0.454289C51.7267 0.22741 51.4365 0.11397 51.0828 0.11397H43.8184C43.4651 0.11397 43.175 0.22741 42.9477 0.454289C42.721 0.681433 42.6077 0.971791 42.6077 1.32457V8.70252L33.3759 0.983718C32.5696 0.327862 31.6109 0 30.5009 0C29.391 0 28.4325 0.327862 27.6254 0.983718L0.420437 23.6479C0.168246 23.8494 0.0300241 24.1205 0.00431461 24.4611C-0.0212623 24.8014 0.0668655 25.0987 0.268963 25.3507L2.61475 28.1507C2.81685 28.3775 3.08137 28.5163 3.40936 28.567C3.71217 28.5925 4.01499 28.504 4.3178 28.3023L30.5001 6.47017L56.6827 28.3021C56.8849 28.4781 57.1493 28.566 57.4773 28.566H57.591C57.9184 28.5162 58.1824 28.3765 58.3856 28.1501L60.7316 25.3506C60.9333 25.098 61.0217 24.8013 60.9955 24.4606C60.9697 24.1209 60.8309 23.8498 60.5792 23.6479Z" fill="white"/>
</svg>
