<svg width="76" height="76" viewBox="0 0 76 76" fill="none" xmlns="http://www.w3.org/2000/svg">
<path d="M58.1875 0H17.8125C7.97493 0 0 7.97493 0 17.8125V58.1875C0 68.0251 7.97493 76 17.8125 76H58.1875C68.0251 76 76 68.0251 76 58.1875V17.8125C76 7.97493 68.0251 0 58.1875 0Z" fill="#0A66C2"/>
<path d="M54.8382 64.6252H63.5278C63.8427 64.6252 64.1447 64.5002 64.3674 64.2775C64.59 64.0549 64.7152 63.7529 64.7153 63.438L64.7197 45.0787C64.7197 35.4828 62.652 28.1069 51.4381 28.1069C47.1753 27.9484 43.1553 30.1459 40.986 33.8152C40.9754 33.8331 40.9593 33.8469 40.9401 33.8547C40.9209 33.8625 40.8996 33.8638 40.8796 33.8584C40.8596 33.853 40.8419 33.8411 40.8292 33.8247C40.8165 33.8083 40.8096 33.7882 40.8094 33.7674V30.1803C40.8094 29.8654 40.6843 29.5633 40.4616 29.3406C40.2389 29.1179 39.9369 28.9928 39.6219 28.9928H31.3756C31.0607 28.9928 30.7586 29.1179 30.5359 29.3406C30.3132 29.5633 30.1881 29.8654 30.1881 30.1803V63.4362C30.1881 63.7512 30.3132 64.0532 30.5359 64.2759C30.7586 64.4986 31.0607 64.6237 31.3756 64.6237H40.0646C40.3795 64.6237 40.6815 64.4986 40.9042 64.2759C41.1269 64.0532 41.2521 63.7512 41.2521 63.4362V46.9974C41.2521 42.3492 42.1338 37.8477 47.8964 37.8477C53.5771 37.8477 53.6507 43.1665 53.6507 47.2984V63.4377C53.6507 63.7527 53.7758 64.0547 53.9985 64.2774C54.2212 64.5001 54.5233 64.6252 54.8382 64.6252ZM11.2822 17.7021C11.2822 21.2242 14.1818 24.1223 17.7042 24.1223C21.2258 24.122 24.1236 21.2221 24.1236 17.7006C24.123 14.179 21.2249 11.2812 17.703 11.2812C14.1803 11.2812 11.2822 14.1799 11.2822 17.7021ZM13.3482 64.6252H22.0487C22.3636 64.6252 22.6657 64.5001 22.8884 64.2774C23.1111 64.0547 23.2362 63.7527 23.2362 63.4377V30.1803C23.2362 29.8654 23.1111 29.5633 22.8884 29.3406C22.6657 29.1179 22.3636 28.9928 22.0487 28.9928H13.3482C13.0332 28.9928 12.7312 29.1179 12.5085 29.3406C12.2858 29.5633 12.1607 29.8654 12.1607 30.1803V63.4377C12.1607 63.7527 12.2858 64.0547 12.5085 64.2774C12.7312 64.5001 13.0332 64.6252 13.3482 64.6252Z" fill="white"/>
</svg>
