<svg width="109" height="109" viewBox="0 0 109 109" fill="none" xmlns="http://www.w3.org/2000/svg">
<path d="M54.4999 37.7302C52.8415 37.7302 51.2205 37.2384 49.8416 36.3171C48.4628 35.3958 47.3881 34.0863 46.7535 32.5542C46.1189 31.0221 45.9528 29.3363 46.2763 27.7098C46.5999 26.0833 47.3984 24.5893 48.571 23.4167C49.7436 22.2441 51.2376 21.4456 52.8641 21.122C54.4906 20.7985 56.1764 20.9646 57.7085 21.5992C59.2406 22.2338 60.5501 23.3085 61.4714 24.6873C62.3927 26.0662 62.8845 27.6872 62.8845 29.3456C62.8845 31.5693 62.0011 33.702 60.4287 35.2744C58.8562 36.8468 56.7236 37.7302 54.4999 37.7302Z" fill="black"/>
<path d="M54.5 109C43.7209 109 33.1839 105.804 24.2214 99.8151C15.259 93.8266 8.27356 85.3148 4.14859 75.3563C0.023614 65.3977 -1.05567 54.4396 1.04723 43.8676C3.15012 33.2956 8.34074 23.5847 15.9627 15.9627C23.5847 8.34074 33.2956 3.15012 43.8676 1.04723C54.4396 -1.05567 65.3977 0.023614 75.3563 4.14859C85.3148 8.27356 93.8266 15.259 99.8151 24.2214C105.804 33.1839 109 43.7209 109 54.5C109 68.9543 103.258 82.8166 93.0373 93.0373C82.8166 103.258 68.9543 109 54.5 109ZM54.5 8.38464C45.3793 8.38464 36.4633 11.0893 28.8797 16.1565C21.296 21.2237 15.3853 28.4259 11.895 36.8524C8.4046 45.2789 7.49136 54.5512 9.27073 63.4967C11.0501 72.4422 15.4422 80.6592 21.8915 87.1085C28.3409 93.5579 36.5578 97.9499 45.5034 99.7293C54.4489 101.509 63.7211 100.595 72.1476 97.1051C80.5741 93.6147 87.7763 87.704 92.8436 80.1203C97.9108 72.5367 100.615 63.6208 100.615 54.5C100.615 42.2695 95.7568 30.5398 87.1085 21.8915C78.4602 13.2432 66.7306 8.38464 54.5 8.38464Z" fill="black"/>
<path d="M54.4998 88.0383C52.2761 88.0383 50.1435 87.1549 48.571 85.5825C46.9986 84.0101 46.1152 81.8774 46.1152 79.6537V54.4998C46.1152 52.2761 46.9986 50.1435 48.571 48.571C50.1435 46.9986 52.2761 46.1152 54.4998 46.1152C56.7236 46.1152 58.8562 46.9986 60.4287 48.571C62.0011 50.1435 62.8845 52.2761 62.8845 54.4998V79.6537C62.8845 81.8774 62.0011 84.0101 60.4287 85.5825C58.8562 87.1549 56.7236 88.0383 54.4998 88.0383Z" fill="black"/>
</svg>
