<svg width="54" height="51" viewBox="0 0 54 51" fill="none" xmlns="http://www.w3.org/2000/svg">
<path fill-rule="evenodd" clip-rule="evenodd" d="M54 20.6982L33.129 30.7707C32.8914 30.8844 32.6448 30.9393 32.4 30.9393V33.3697C32.4 34.4544 31.5936 35.3312 30.6 35.3312H23.4C22.4064 35.3312 21.6 34.4544 21.6 33.3697V30.9315C21.3552 30.9315 21.1068 30.8766 20.8692 30.7628L0 20.6982V45.1154C0 46.6768 0.5688 48.1734 1.5822 49.2758C2.5938 50.3802 3.9672 51 5.4 51C14.6772 51 39.3228 51 48.6 51C50.0328 51 51.4062 50.3802 52.4178 49.2758C53.4312 48.1734 54 46.6768 54 45.1154V20.6982ZM28.8 25.5V31.4082H25.2V25.5H28.8ZM10.8 7.84615H5.4C3.9672 7.84615 2.5938 8.466 1.5822 9.57035C0.5688 10.6727 0 12.1694 0 13.7308V16.4083L21.6 26.826V23.5385C21.6 22.4557 22.4064 21.5769 23.4 21.5769H30.6C31.5936 21.5769 32.4 22.4557 32.4 23.5385V26.8319L54 16.4063V13.7308C54 12.1694 53.4312 10.6727 52.4178 9.57035C51.4062 8.466 50.0328 7.84615 48.6 7.84615H43.2V5.88462C43.2 2.63435 40.7826 0 37.8 0H16.2C13.2174 0 10.8 2.63435 10.8 5.88462V7.84615ZM39.6 7.84615H14.4V5.88462C14.4 4.80185 15.2064 3.92308 16.2 3.92308H37.8C38.7936 3.92308 39.6 4.80185 39.6 5.88462V7.84615Z" fill="white"/>
</svg>
