<svg width="90" height="90" viewBox="0 0 90 90" fill="none" xmlns="http://www.w3.org/2000/svg">
<path d="M50.7293 23.9353C48.3014 23.9375 45.9084 24.5138 43.7458 25.6173C41.5831 26.7208 39.7121 28.3201 38.2854 30.2846C36.8588 32.2492 35.917 34.5233 35.537 36.9212C35.1569 39.3192 35.3494 41.7731 36.0986 44.0825L25.029 55.1502C24.8862 55.2931 24.773 55.4628 24.6958 55.6495C24.6186 55.8363 24.5789 56.0364 24.5791 56.2385V63.9297C24.5791 64.3377 24.7412 64.7289 25.0296 65.0174C25.3181 65.3059 25.7094 65.4679 26.1173 65.4679H33.8086C34.2165 65.4679 34.6078 65.3059 34.8963 65.0174C35.1848 64.7289 35.3468 64.3377 35.3468 63.9297V60.8532H38.4233C38.8313 60.8532 39.2225 60.6911 39.511 60.4027C39.7995 60.1142 39.9616 59.7229 39.9616 59.315V56.2385H43.0381C43.2401 56.2386 43.4402 56.199 43.627 56.1218C43.8137 56.0446 43.9834 55.9313 44.1264 55.7885L45.9646 53.9484C48.0787 54.6348 50.3166 54.8549 52.5239 54.5935C54.7313 54.332 56.8558 53.5953 58.7512 52.434C60.6465 51.2727 62.2676 49.7145 63.503 47.8665C64.7383 46.0186 65.5584 43.9249 65.907 41.7296C66.2555 39.5343 66.1241 37.2895 65.5218 35.1498C64.9195 33.0102 63.8607 31.0265 62.4182 29.3353C60.9757 27.6441 59.1838 26.2856 57.1659 25.3534C55.148 24.4212 52.9521 23.9374 50.7293 23.9353Z" fill="white"/>
</svg>
