<svg width="42" height="42" viewBox="0 0 42 42" fill="none" xmlns="http://www.w3.org/2000/svg">
<path d="M26.1502 0C23.7223 0.00217703 21.3293 0.578528 19.1666 1.682C17.004 2.78546 15.133 4.38476 13.7063 6.34931C12.2797 8.31386 11.3379 10.588 10.9579 12.9859C10.5778 15.3839 10.7703 17.8378 11.5195 20.1472L0.449937 31.2149C0.307135 31.3578 0.193899 31.5275 0.116697 31.7142C0.0394957 31.901 -0.000158418 32.1011 4.75623e-07 32.3032V39.9944C4.75623e-07 40.4024 0.162065 40.7936 0.450542 41.0821C0.739019 41.3706 1.13028 41.5326 1.53825 41.5326H9.22948C9.63745 41.5326 10.0287 41.3706 10.3172 41.0821C10.6057 40.7936 10.7677 40.4024 10.7677 39.9944V36.9179H13.8442C14.2522 36.9179 14.6434 36.7558 14.9319 36.4674C15.2204 36.1789 15.3825 35.7876 15.3825 35.3797V32.3032H18.459C18.661 32.3033 18.8611 32.2637 19.0479 32.1865C19.2346 32.1093 19.4043 31.996 19.5473 31.8532L21.3855 30.0131C23.4996 30.6995 25.7375 30.9196 27.9448 30.6581C30.1522 30.3967 32.2767 29.66 34.1721 28.4987C36.0674 27.3374 37.6885 25.7792 38.9239 23.9312C40.1592 22.0833 40.9793 19.9896 41.3279 17.7943C41.6764 15.599 41.545 13.3542 40.9427 11.2145C40.3404 9.07488 39.2816 7.09117 37.8391 5.39999C36.3966 3.70881 34.6047 2.35034 32.5868 1.41813C30.5689 0.485915 28.373 0.00210107 26.1502 0Z" fill="white"/>
<path d="M31.1842 14.823C31.1842 17.2945 29.1807 19.2979 26.7093 19.2979C24.2379 19.2979 22.2344 17.2945 22.2344 14.823C22.2344 12.3516 24.2379 10.3481 26.7093 10.3481C29.1807 10.3481 31.1842 12.3516 31.1842 14.823Z" fill="#0E1013"/>
</svg>
