<svg width="50" height="48" viewBox="0 0 50 48" fill="none" xmlns="http://www.w3.org/2000/svg">
<path d="M31.2188 0C28.5059 0.00243249 25.8322 0.646415 23.4157 1.87937C20.9993 3.11232 18.9087 4.89928 17.3147 7.09436C15.7206 9.28944 14.6683 11.8304 14.2437 14.5098C13.8191 17.1891 14.0341 19.9309 14.8713 22.5113L2.50273 34.8777C2.34318 35.0375 2.21665 35.2271 2.13039 35.4357C2.04413 35.6444 1.99982 35.868 2 36.0938V44.6875C2 45.1433 2.18108 45.5805 2.50341 45.9028C2.82574 46.2252 3.26291 46.4062 3.71875 46.4062H12.3125C12.7683 46.4062 13.2055 46.2252 13.5278 45.9028C13.8502 45.5805 14.0313 45.1433 14.0313 44.6875V41.25H17.4688C17.9246 41.25 18.3618 41.0689 18.6841 40.7466C19.0064 40.4243 19.1875 39.9871 19.1875 39.5312V36.0938H22.625C22.8508 36.0939 23.0744 36.0496 23.283 35.9634C23.4917 35.8771 23.6813 35.7506 23.841 35.591L25.8949 33.535C28.2572 34.3019 30.7576 34.5478 33.224 34.2557C35.6904 33.9636 38.0642 33.1404 40.1819 31.8429C42.2997 30.5453 44.1111 28.8042 45.4913 26.7394C46.8716 24.6747 47.788 22.3353 48.1774 19.8823C48.5668 17.4294 48.42 14.9212 47.7471 12.5305C47.0741 10.1398 45.891 7.92327 44.2793 6.03364C42.6675 4.14401 40.6654 2.62614 38.4107 1.58454C36.156 0.542934 33.7024 0.00234762 31.2188 0Z" fill="white"/>
<circle cx="33" cy="16" r="5" fill="#0E1013"/>
</svg>
