<svg width="355" height="341" viewBox="0 0 355 341" fill="none" xmlns="http://www.w3.org/2000/svg">
<path d="M243.261 4.99788L242.224 3.08995L240.297 4.09195C192.284 29.0621 151.619 65.6584 122.187 110.386C92.7385 155.138 74.5106 213.211 71.1607 266.277L71.018 268.538L73.319 268.587L247.729 272.357L249.809 272.402L249.938 270.359C251.413 247.001 258.986 224.4 271.939 204.716C284.892 185.031 302.79 168.923 323.925 157.931L325.852 156.929L324.814 155.022L243.261 4.99788Z" fill="#033452" stroke="#021B2B" stroke-width="4.34324"/>
<path d="M247.57 142.762L241.217 124.12C240.571 122.33 238.849 121.171 236.91 121.171H217.959C216.129 121.171 214.729 122.54 214.729 124.331V148.976C214.729 150.45 213.544 151.609 212.037 151.609H206.868L170.043 110.745C169.612 110.218 168.966 110.007 168.32 110.007H154.107C152.815 109.902 151.845 110.955 151.845 112.219V130.44C151.845 131.703 152.922 132.651 154.214 132.651C155.614 132.651 156.691 133.81 156.691 135.179C156.691 136.548 155.506 137.707 154.107 137.707C153.03 137.707 152.061 137.075 151.738 136.127C151.199 134.863 149.477 134.336 148.292 135.179C147.323 135.811 147.215 137.18 147.646 138.128C149.154 141.288 152.815 142.973 156.476 141.814C158.737 141.077 160.567 139.181 161.106 136.864C162.075 133.073 159.814 129.597 156.368 128.438V117.801H164.659L185.225 151.609H150.23C148.4 151.609 147 152.978 147 154.769V162.352C147.019 166.631 147 166.881 151.63 166.881H157.337C157.337 173.726 163.044 179.414 170.151 179.414C177.257 179.414 182.964 173.832 182.964 166.881H213.329C213.329 173.726 219.144 179.414 226.143 179.414C233.249 179.414 238.956 173.832 238.956 166.881H244.771C249.293 166.881 249.293 166.881 249.293 162.457V152.978C249.293 149.503 248.755 146.027 247.57 142.762ZM170.151 172.779C166.813 172.779 164.121 170.145 164.121 166.881C164.121 163.616 166.813 160.983 170.151 160.983C173.489 160.983 176.18 163.616 176.18 166.881C176.18 170.145 173.489 172.779 170.151 172.779ZM226.143 172.779C222.805 172.779 220.113 170.145 220.113 166.881C220.113 163.616 222.805 160.983 226.143 160.983C229.481 160.983 232.173 163.616 232.173 166.881C232.28 170.145 229.481 172.779 226.143 172.779ZM237.987 141.077H223.343C222.374 141.077 221.513 141.077 221.513 139.286V129.492C221.513 127.231 221.386 126.094 223.323 126.094H234.168C234.922 126.094 235.115 126.493 235.33 127.231L239.387 139.392C239.591 140.869 238.956 141.077 237.987 141.077Z" fill="white"/>
</svg>
