<svg width="251" height="281" viewBox="0 0 251 281" fill="none" xmlns="http://www.w3.org/2000/svg">
<path d="M4.8081 2.8289L2.6368 2.79183L2.59806 4.96311C1.64867 58.1632 14.6629 110.71 40.3939 157.582C66.139 204.48 109.232 248.227 155.051 276.815L156.931 277.988L158.067 276.084L245.993 128.708L247.084 126.879L245.279 125.753C225.1 113.163 208.565 95.7256 197.248 75.1107C185.932 54.4962 180.21 31.3911 180.628 8.00263L180.667 5.83135L178.495 5.79428L4.8081 2.8289Z" fill="#033452" stroke="#021B2B" stroke-width="4.34324"/>
<g filter="url(#filter0_d_1182_1164)">
<path fill-rule="evenodd" clip-rule="evenodd" d="M93.7267 89.4518C96.6336 85.0267 100.897 81.6144 105.907 79.7034C110.917 77.7924 116.417 77.4805 121.619 78.8124C126.821 80.1443 131.459 83.0518 134.87 87.1186C138.28 91.1855 140.287 96.2033 140.605 101.454C143.418 101.324 146.228 101.747 148.871 102.697C151.514 103.646 153.936 105.104 155.994 106.984C158.052 108.864 159.704 111.127 160.853 113.641C162.003 116.156 162.626 118.869 162.686 121.623C162.746 124.376 162.242 127.114 161.203 129.673C160.165 132.233 158.612 134.564 156.638 136.528C154.664 138.492 152.308 140.049 149.709 141.108C147.11 142.167 144.32 142.707 141.505 142.695H86.6374C82.7045 142.69 78.8179 141.865 75.2366 140.275C71.6553 138.685 68.4615 136.367 65.8683 133.474C63.275 130.582 61.3417 127.183 60.1974 123.502C59.053 119.822 58.7238 115.945 59.2318 112.131C59.7397 108.316 61.073 104.651 63.143 101.38C65.2129 98.1091 67.9718 95.3072 71.2359 93.1612C74.5 91.0152 78.1943 89.5744 82.0724 88.9348C85.9506 88.2952 89.9236 88.4714 93.7267 89.4518ZM110.778 128.872C111.626 128.872 112.404 128.582 113.016 128.089L124.764 118.902C125.126 118.618 125.428 118.268 125.652 117.87C125.876 117.472 126.017 117.035 126.069 116.583C126.12 116.132 126.08 115.675 125.95 115.239C125.821 114.803 125.605 114.396 125.315 114.041C125.025 113.687 124.666 113.392 124.259 113.173C123.853 112.954 123.406 112.815 122.944 112.765C122.483 112.715 122.016 112.754 121.57 112.881C121.124 113.007 120.708 113.218 120.345 113.502L114.311 118.229V102.38C114.311 101.464 113.939 100.585 113.277 99.9366C112.614 99.2886 111.715 98.9245 110.778 98.9245C109.842 98.9245 108.943 99.2886 108.28 99.9366C107.618 100.585 107.246 101.464 107.246 102.38V118.229L101.207 113.507C100.844 113.223 100.428 113.013 99.9825 112.886C99.5367 112.76 99.0699 112.721 98.6086 112.771C98.1474 112.822 97.7008 112.96 97.2943 113.179C96.8879 113.398 96.5295 113.694 96.2397 114.048C95.9499 114.403 95.7343 114.81 95.6053 115.246C95.4763 115.682 95.4363 116.138 95.4877 116.59C95.5391 117.041 95.6808 117.478 95.9048 117.875C96.1288 118.273 96.4307 118.623 96.7932 118.907L108.56 128.112C109.18 128.603 109.953 128.872 110.75 128.877L110.778 128.872Z" fill="white"/>
</g>
<defs>
<filter id="filter0_d_1182_1164" x="56.1685" y="78" width="109.354" height="70.3578" filterUnits="userSpaceOnUse" color-interpolation-filters="sRGB">
<feFlood flood-opacity="0" result="BackgroundImageFix"/>
<feColorMatrix in="SourceAlpha" type="matrix" values="0 0 0 0 0 0 0 0 0 0 0 0 0 0 0 0 0 0 127 0" result="hardAlpha"/>
<feOffset dy="2.83149"/>
<feGaussianBlur stdDeviation="1.41574"/>
<feComposite in2="hardAlpha" operator="out"/>
<feColorMatrix type="matrix" values="0 0 0 0 0 0 0 0 0 0 0 0 0 0 0 0 0 0 0.11 0"/>
<feBlend mode="normal" in2="BackgroundImageFix" result="effect1_dropShadow_1182_1164"/>
<feBlend mode="normal" in="SourceGraphic" in2="effect1_dropShadow_1182_1164" result="shape"/>
</filter>
</defs>
</svg>
