<svg width="99" height="94" viewBox="0 0 99 94" fill="none" xmlns="http://www.w3.org/2000/svg">
<path d="M50.3418 91.4477C76.4879 91.4477 97.6835 71.4242 97.6835 46.7239C97.6835 22.0236 76.4879 2 50.3418 2C24.1956 2 3 22.0236 3 46.7239C3 71.4242 24.1956 91.4477 50.3418 91.4477Z" fill="#0E1013"/>
<path d="M75.2198 32.7226C75.2198 30.1252 72.9149 28 70.0979 28H29.122C26.3049 28 24 30.1252 24 32.7226V61.0584C24 63.6558 26.3049 65.781 29.122 65.781H70.0979C72.9149 65.781 75.2198 63.6558 75.2198 61.0584V32.7226ZM70.0979 32.7226L49.6099 44.5292L29.122 32.7226H70.0979ZM70.0979 61.0584H29.122V37.4452L49.6099 49.2518L70.0979 37.4452V61.0584Z" fill="white"/>
</svg>
