<svg width="40" height="26" viewBox="0 0 40 26" fill="none" xmlns="http://www.w3.org/2000/svg">
<path fill-rule="evenodd" clip-rule="evenodd" d="M24 25.2025C31 26.2025 39.5 19.6061 39.5 12.7025C39.5 5.79897 29.5 -1.29741 23.5 0.202562C20 1.70259 19 5.79897 19 12.7025C19 19.6061 19.5 24.2026 24 25.2025ZM24.998 22.5625C30.12 23.2879 36.998 18.07 36.998 13.0626C36.998 8.05516 29.3883 2.47457 24.998 3.56258C21.8395 4.40657 21.498 7.91518 21.498 12.9226C21.498 17.93 21.8395 21.6358 24.998 22.5625Z" fill="#7B7531"/>
<rect y="21" width="17" height="4" fill="#7B7531"/>
<rect y="14" width="15" height="4" fill="#7B7531"/>
<rect y="7" width="15" height="4" fill="#7B7531"/>
<rect width="17" height="4" fill="#7B7531"/>
</svg>
