<svg width="68" height="75" viewBox="0 0 68 75" fill="none" xmlns="http://www.w3.org/2000/svg">
<path fill-rule="evenodd" clip-rule="evenodd" d="M31.1667 19.7829H36.8333V15.6181H31.1667V19.7829ZM62.3333 66.6058L48.1667 61.9183V25.7531L62.3333 30.4386V66.6058ZM44.4833 16.8675L41.5556 14.4477V26.0301H26.4444V14.4477L23.5167 16.8675L21.8167 14.3686L34 4.29809L38.7222 8.20261V6.24722H41.5556V10.5432L46.1833 14.3707L44.4833 16.8675ZM45.3333 61.5747L23.6111 66.1789V30.2074C28.0443 39.2097 34 47.8954 34 47.8954C34 47.8954 40.8567 37.8936 45.3333 28.2291V61.5747ZM20.7778 66.3643L5.66667 63.0366V25.0222L20.7778 30.02V66.3643ZM48.5973 19.3726C48.9203 18.0066 49.1111 16.7342 49.1111 15.6076C49.1111 5.35179 43.5464 0 33.949 0C24.3516 0 18.8889 5.35179 18.8889 15.6076C18.8889 17.7942 19.5821 20.5263 20.6644 23.4583L0 16.6301V68.1572L21.7109 72.9447L46.1304 67.7678L68 75V25.7885L48.5973 19.3726Z" fill="white"/>
</svg>
