<?xml version="1.0" encoding="UTF-8" standalone="no"?>
<svg
   width="244.51646"
   height="263.62955"
   viewBox="0 0 244.51646 263.62955"
   fill="none"
   version="1.1"
   id="svg2"
   sodipodi:docname="Group 1000004336.svg"
   inkscape:version="1.3.2 (091e20e, 2023-11-25, custom)"
   xmlns:inkscape="http://www.inkscape.org/namespaces/inkscape"
   xmlns:sodipodi="http://sodipodi.sourceforge.net/DTD/sodipodi-0.dtd"
   xmlns="http://www.w3.org/2000/svg"
   xmlns:svg="http://www.w3.org/2000/svg">
  <defs
     id="defs2" />
  <sodipodi:namedview
     id="namedview2"
     pagecolor="#505050"
     bordercolor="#eeeeee"
     borderopacity="1"
     inkscape:showpageshadow="0"
     inkscape:pageopacity="0"
     inkscape:pagecheckerboard="0"
     inkscape:deskcolor="#505050"
     inkscape:zoom="3.6116208"
     inkscape:cx="102.30864"
     inkscape:cy="163.5"
     inkscape:window-width="2560"
     inkscape:window-height="1377"
     inkscape:window-x="-8"
     inkscape:window-y="-8"
     inkscape:window-maximized="1"
     inkscape:current-layer="svg2" />
  <path
     d="m 164.07705,4.8543391 -1.019,-1.91742 -1.918,1.01952 C 116.08905,27.910459 77.934049,63.016959 50.319049,105.92146 c -27.6312,42.93 -44.7306001,98.63 -47.8731001,149.526 l -0.1392,2.255 2.2587,0.049 163.5676011,3.615 2.087,0.046 0.128,-2.083 c 1.382,-22.379 8.48,-44.031 20.615,-62.885 12.135,-18.854 28.902,-34.282 48.7,-44.808 l 1.917,-1.02 -1.019,-1.917 z"
     fill="#d87021"
     stroke="#ffffff"
     stroke-width="4.34324"
     id="path1" />
  <path
     d="m 116.82905,125.87346 c -16.672,0 -30.000001,13.328 -30.000001,30 0,5.766 1.719,10.219 4.703,14.734 l 22.141001,33.594 c 0.672,1.016 1.828,1.672 3.156,1.672 1.328,0 2.5,-0.672 3.156,-1.672 l 22.141,-33.594 c 2.984,-4.515 4.703,-8.968 4.703,-14.734 0,-16.672 -13.328,-30 -30,-30 z m 0,46.656 c -9.203,0 -16.672,-7.468 -16.672,-16.687 0,-9.219 7.469,-16.688 16.672,-16.688 9.203,0 16.672,7.469 16.672,16.688 0,9.219 -7.469,16.687 -16.672,16.687 z m 0,-26.656 c -5.531,0 -10,4.469 -10,10 0,5.531 4.469,10 10,10 5.531,0 10,-4.469 10,-10 0,-5.531 -4.469,-10 -10,-10 z"
     fill="#ffffff"
     id="path2" />
</svg>
