<svg width="333" height="327" viewBox="0 0 333 327" fill="none" xmlns="http://www.w3.org/2000/svg">
<path d="M228.248 5.57268L227.229 3.65525L225.311 4.67477C180.26 28.6288 142.104 63.7353 114.49 106.64C86.8587 149.57 69.7593 205.27 66.6168 256.165L66.4776 258.42L68.7363 258.47L232.304 262.085L234.39 262.131L234.519 260.048C235.901 237.668 242.998 216.017 255.134 197.163C267.269 178.309 284.036 162.881 303.834 152.355L305.751 151.335L304.732 149.418L228.248 5.57268Z" fill="#3C4043" stroke="#26292A" stroke-width="4.34324"/>
<path d="M184 123C167.328 123 154 136.328 154 153C154 158.766 155.719 163.219 158.703 167.734L180.844 201.328C181.516 202.344 182.672 203 184 203C185.328 203 186.5 202.328 187.156 201.328L209.297 167.734C212.281 163.219 214 158.766 214 153C214 136.328 200.672 123 184 123ZM184 169.656C174.797 169.656 167.328 162.188 167.328 152.969C167.328 143.75 174.797 136.281 184 136.281C193.203 136.281 200.672 143.75 200.672 152.969C200.672 162.188 193.203 169.656 184 169.656ZM184 143C178.469 143 174 147.469 174 153C174 158.531 178.469 163 184 163C189.531 163 194 158.531 194 153C194 147.469 189.531 143 184 143Z" fill="white"/>
</svg>
