<svg width="333" height="327" viewBox="0 0 333 327" fill="none" xmlns="http://www.w3.org/2000/svg">
<path d="M228.248 4.98088L227.229 3.06346L225.311 4.08298C180.26 28.037 142.105 63.1435 114.49 106.048C86.8588 148.978 69.7594 204.678 66.6169 255.574L66.4777 257.829L68.7364 257.878L232.304 261.493L234.391 261.539L234.519 259.456C235.901 237.077 242.999 215.425 255.134 196.571C267.269 177.717 284.036 162.289 303.834 151.763L305.751 150.743L304.732 148.826L228.248 4.98088Z" fill="#D87021" stroke="white" stroke-width="4.34324"/>
<path d="M181 126C164.328 126 151 139.328 151 156C151 161.766 152.719 166.219 155.703 170.734L177.844 204.328C178.516 205.344 179.672 206 181 206C182.328 206 183.5 205.328 184.156 204.328L206.297 170.734C209.281 166.219 211 161.766 211 156C211 139.328 197.672 126 181 126ZM181 172.656C171.797 172.656 164.328 165.188 164.328 155.969C164.328 146.75 171.797 139.281 181 139.281C190.203 139.281 197.672 146.75 197.672 155.969C197.672 165.188 190.203 172.656 181 172.656ZM181 146C175.469 146 171 150.469 171 156C171 161.531 175.469 166 181 166C186.531 166 191 161.531 191 156C191 150.469 186.531 146 181 146Z" fill="white"/>
</svg>
