<svg width="48" height="44" viewBox="0 0 48 44" fill="none" xmlns="http://www.w3.org/2000/svg">
<path d="M9.42823 12.5716C11.1636 12.5716 12.6448 11.958 13.8722 10.7302C15.1 9.50257 15.714 8.02096 15.714 6.28591C15.714 4.55103 15.1 3.06943 13.8722 1.8416C12.6448 0.613954 11.1635 0 9.42823 0C7.69301 0 6.21175 0.613954 4.9841 1.8416C3.75653 3.06943 3.14258 4.55069 3.14258 6.28591C3.14258 8.0213 3.75653 9.50257 4.9841 10.7302C6.21175 11.9576 7.69301 12.5716 9.42823 12.5716Z" fill="white"/>
<path d="M16.9039 22.3815C18.7454 24.2225 20.9672 25.1434 23.5703 25.1434C26.1734 25.1434 28.3952 24.2225 30.2366 22.3815C32.0778 20.5394 32.9986 18.3174 32.9986 15.7148C32.9986 13.1121 32.0778 10.8901 30.2366 9.04854C28.3952 7.20693 26.1734 6.28613 23.5703 6.28613C20.9672 6.28613 18.7453 7.20711 16.9039 9.04854C15.0626 10.8899 14.1416 13.1119 14.1416 15.7148C14.1416 18.3178 15.0626 20.5397 16.9039 22.3815Z" fill="white"/>
<path d="M37.7145 12.5716C39.4492 12.5716 40.9307 11.958 42.1582 10.7302C43.3858 9.50257 43.9994 8.02096 43.9994 6.28591C43.9994 4.55103 43.3858 3.06943 42.1582 1.8416C40.9308 0.613954 39.4492 0 37.7145 0C35.9787 0 34.4975 0.613954 33.2699 1.8416C32.0426 3.06943 31.4287 4.55069 31.4287 6.28591C31.4287 8.0213 32.0427 9.50257 33.2699 10.7302C34.4975 11.9576 35.9787 12.5716 37.7145 12.5716Z" fill="white"/>
<path d="M44.0977 12.5723C44 12.5723 43.644 12.7442 43.03 13.0879C42.4166 13.4318 41.6182 13.7797 40.6364 14.1317C39.6546 14.4834 38.6801 14.6594 37.7148 14.6594C36.6176 14.6594 35.5299 14.4713 34.4491 14.0946C34.5304 14.7 34.5716 15.2403 34.5716 15.715C34.5716 17.9904 33.9085 20.0855 32.582 22.0007C35.2344 22.0828 37.4028 23.1302 39.0895 25.1442H42.3795C43.7215 25.1442 44.851 24.812 45.7675 24.1492C46.6841 23.4867 47.1426 22.5164 47.1426 21.2398C47.1429 15.4611 46.1284 12.5719 44.0977 12.5723Z" fill="white"/>
<path d="M40.4286 32.4228C40.2567 31.4651 40.0396 30.5769 39.7776 29.7587C39.5157 28.9399 39.1637 28.1424 38.7223 27.3648C38.2802 26.5879 37.7725 25.9245 37.1996 25.3759C36.6262 24.8273 35.9264 24.39 35.1 24.0622C34.2736 23.7349 33.3606 23.5713 32.3624 23.5713C32.1984 23.5713 31.8467 23.7473 31.3065 24.0993C30.7661 24.451 30.1692 24.8445 29.5141 25.2777C28.8592 25.7109 27.9843 26.1041 26.8868 26.4561C25.7893 26.8081 24.6845 26.9841 23.572 26.9841C22.4591 26.9841 21.354 26.8081 20.2573 26.4561C19.1602 26.1041 18.2848 25.7109 17.63 25.2777C16.975 24.8445 16.3777 24.451 15.8376 24.0993C15.2973 23.7473 14.9456 23.5713 14.7816 23.5713C13.7833 23.5713 12.8707 23.7349 12.044 24.0622C11.2173 24.39 10.5176 24.8273 9.94474 25.3759C9.37138 25.9239 8.86441 26.5879 8.42212 27.3648C7.98033 28.1424 7.62842 28.9399 7.36646 29.7587C7.1046 30.5769 6.88796 31.4651 6.71579 32.4228C6.54379 33.3805 6.42932 34.2723 6.37205 35.0992C6.31468 35.926 6.28613 36.7733 6.28613 37.6409C6.28613 39.6048 6.8834 41.156 8.07829 42.2933C9.2736 43.4305 10.8615 43.9997 12.8417 43.9997H34.3017C36.2822 43.9997 37.8699 43.4305 39.0655 42.2933C40.2603 41.156 40.8578 39.6048 40.8578 37.6409C40.8578 36.7733 40.829 35.9262 40.7725 35.0992C40.7143 34.2723 40.5999 33.3804 40.4286 32.4228Z" fill="white"/>
<path d="M14.5601 22.0007C13.2341 20.0855 12.5713 17.9904 12.5716 15.715C12.5716 15.2403 12.6126 14.7003 12.6943 14.0946C11.6138 14.4711 10.5253 14.6594 9.42852 14.6594C8.46274 14.6594 7.48905 14.4834 6.50676 14.1317C5.5249 13.7797 4.72664 13.4318 4.11304 13.0879C3.49917 12.7442 3.14287 12.5723 3.04474 12.5723C1.01489 12.5724 0 15.4615 0 21.2398C0 22.5164 0.45838 23.4867 1.37488 24.1492C2.29164 24.812 3.42117 25.1436 4.76302 25.1436H8.05338C9.73958 23.1302 11.9082 22.0827 14.5601 22.0007Z" fill="white"/>
</svg>
