<svg width="131" height="130" viewBox="0 0 131 130" fill="none" xmlns="http://www.w3.org/2000/svg">
<path d="M127.294 40.9225L124.572 38.3517C123.216 37.0706 120.669 37.8995 118.974 38.3517L97.945 16.6293L75.5008 8.57745L71.9956 12.1277L91.6705 30.9228L23.355 98.3047C21.3793 100.306 21.308 105.177 23.355 107.111L25.3201 108.967C27.366 110.899 32.1481 110.165 34.1227 108.165L102.172 40.7836C102.172 40.7836 110.976 44.8636 110.573 46.5357C110.17 48.2078 109.49 50.9758 110.846 52.2568L113.568 54.8276C115.614 56.7601 118.876 56.7033 120.85 54.7033L127.423 48.0456C129.397 46.0445 129.341 42.8561 127.294 40.9225Z" fill="white"/>
<path d="M61.3124 55.5518L71.7554 45.3779L61.9893 35.7031C58.8457 32.5321 57.2527 31.4713 58.081 27.7778C59.04 23.7111 58.2706 16.2371 50.8107 12.2584C42.2431 7.68122 33.5408 11.873 33.5408 11.873L32.8592 12.8902C32.8592 12.8902 40.5376 17.5998 41.4966 18.1112C42.5864 18.7485 45.8778 22.1779 41.8988 27.6518C38.0566 33.1193 33.8182 31.3443 32.5807 30.4495C31.6267 29.9372 23.9433 25.36 23.9433 25.36L23.2617 26.3762C23.2617 26.3762 22.7108 35.9169 31.2075 41.0054C35.1855 43.4232 39.4308 43.4232 42.4487 42.4116C45.4626 41.5223 47.6591 42.5386 51.3536 45.842L61.3124 55.5518Z" fill="white"/>
<path d="M124.077 99.3255C126.889 102.238 126.808 106.878 123.896 109.69V109.69C120.984 112.503 116.343 112.422 113.531 109.509L76.7291 71.3997L87.2749 61.2158L124.077 99.3255Z" fill="white"/>
</svg>
