<svg width="614" height="613" viewBox="0 0 614 613" fill="none" xmlns="http://www.w3.org/2000/svg">
<g filter="url(#filter0_d_429_7856)">
<g filter="url(#filter1_d_429_7856)">
<g filter="url(#filter2_d_429_7856)">
<path d="M603 303C603 466.476 470.476 599 307 599C143.524 599 11 466.476 11 303C11 139.524 143.524 7 307 7C470.476 7 603 139.524 603 303Z" fill="white" fill-opacity="0.6" shape-rendering="crispEdges"/>
</g>
<g filter="url(#filter3_d_429_7856)">
<path d="M598.945 303C598.945 464.237 468.237 594.945 307 594.945C145.763 594.945 15.0547 464.237 15.0547 303C15.0547 141.763 145.763 11.0547 307 11.0547C468.237 11.0547 598.945 141.763 598.945 303Z" fill="#0E1013"/>
</g>
<path d="M309.838 44.3034V46.3308H313.893V44.3034H309.838ZM309.838 19.9746V44.3034H313.893V19.9746H309.838Z" fill="white"/>
<path d="M45.8717 303.406H47.8991V299.352H45.8717V303.406ZM21.543 303.406H45.8717V299.352H21.543V303.406Z" fill="white"/>
<path d="M120.841 119.707L122.274 121.141L125.141 118.273L123.708 116.84L120.841 119.707ZM103.638 102.504L120.841 119.707L123.708 116.84L106.505 99.6367L103.638 102.504Z" fill="white"/>
<path d="M508.913 102.504L510.347 101.07L507.479 98.2032L506.046 99.6368L508.913 102.504ZM491.71 119.707L508.913 102.504L506.046 99.6368L488.843 116.84L491.71 119.707Z" fill="white"/>
<path d="M503.353 504.91L504.787 506.344L507.654 503.476L506.221 502.043L503.353 504.91ZM486.15 487.707L503.353 504.91L506.221 502.043L489.018 484.84L486.15 487.707Z" fill="white"/>
<path d="M123.708 487.711L125.141 486.277L122.274 483.41L120.841 484.844L123.708 487.711ZM106.505 504.914L123.708 487.711L120.841 484.844L103.638 502.047L106.505 504.914Z" fill="white"/>
<path d="M586.781 303.406H588.808V299.352H586.781V303.406ZM562.452 303.406H586.781V299.352H562.452V303.406Z" fill="white"/>
<g filter="url(#filter4_d_429_7856)">
<path d="M152.106 71.877L160.687 83.6864" stroke="white" stroke-opacity="0.5" stroke-width="1.62192" shape-rendering="crispEdges"/>
</g>
<g filter="url(#filter5_d_429_7856)">
<path d="M197.521 46.7383L202.752 60.366" stroke="#E5882F" stroke-width="1.62192"/>
</g>
<g filter="url(#filter6_d_429_7856)">
<path d="M254.641 44.8477L251.855 30.5186" stroke="white" stroke-opacity="0.5" stroke-width="1.62192" shape-rendering="crispEdges"/>
</g>
<g filter="url(#filter7_d_429_7856)">
<path d="M463.867 73.498L455.287 85.3075" stroke="white" stroke-opacity="0.5" stroke-width="1.62192" shape-rendering="crispEdges"/>
</g>
<g filter="url(#filter8_d_429_7856)">
<path d="M418.454 48.3594L413.223 61.9871" stroke="#E5882F" stroke-width="1.62192"/>
</g>
<g filter="url(#filter9_d_429_7856)">
<path d="M361.334 46.4688L364.119 32.1397" stroke="white" stroke-opacity="0.5" stroke-width="1.62192" shape-rendering="crispEdges"/>
</g>
<g filter="url(#filter10_d_429_7856)">
<path d="M78.6191 144.684L90.1219 153.671" stroke="white" stroke-opacity="0.5" stroke-width="1.62192" shape-rendering="crispEdges"/>
</g>
<g filter="url(#filter11_d_429_7856)">
<path d="M51.9102 189.193L65.347 194.897" stroke="#E5882F" stroke-width="1.62192"/>
</g>
<g filter="url(#filter12_d_429_7856)">
<path d="M48.0273 246.211L33.8042 242.927" stroke="white" stroke-opacity="0.5" stroke-width="1.62192" shape-rendering="crispEdges"/>
</g>
<g filter="url(#filter13_d_429_7856)">
<path d="M532.896 458.596L521.393 449.609" stroke="white" stroke-opacity="0.5" stroke-width="1.62192" shape-rendering="crispEdges"/>
</g>
<g filter="url(#filter14_d_429_7856)">
<path d="M559.604 414.088L546.168 408.384" stroke="#E5882F" stroke-width="1.62192"/>
</g>
<g filter="url(#filter15_d_429_7856)">
<path d="M563.487 357.068L577.71 360.352" stroke="white" stroke-opacity="0.5" stroke-width="1.62192" shape-rendering="crispEdges"/>
</g>
<g filter="url(#filter16_d_429_7856)">
<path d="M33.1387 358.09L47.6271 356.311" stroke="white" stroke-opacity="0.5" stroke-width="1.62192" shape-rendering="crispEdges"/>
</g>
<g filter="url(#filter17_d_429_7856)">
<path d="M45.7246 408.447L59.259 402.979" stroke="#E5882F" stroke-width="1.62192"/>
</g>
<g filter="url(#filter18_d_429_7856)">
<path d="M83.2979 451.512L70.9187 459.247" stroke="white" stroke-opacity="0.5" stroke-width="1.62192" shape-rendering="crispEdges"/>
</g>
<g filter="url(#filter19_d_429_7856)">
<path d="M169.185 522.486L161.449 534.866" stroke="white" stroke-opacity="0.5" stroke-width="1.62192" shape-rendering="crispEdges"/>
</g>
<g filter="url(#filter20_d_429_7856)">
<path d="M452.002 535.012L444.052 522.769" stroke="white" stroke-opacity="0.5" stroke-width="1.62192" shape-rendering="crispEdges"/>
</g>
<g filter="url(#filter21_d_429_7856)">
<path d="M579.807 241.795L565.478 244.58" stroke="white" stroke-opacity="0.5" stroke-width="1.62192" shape-rendering="crispEdges"/>
</g>
<g filter="url(#filter22_d_429_7856)">
<path d="M563.738 192.436L550.618 198.835" stroke="#E5882F" stroke-width="1.62192"/>
</g>
<g filter="url(#filter23_d_429_7856)">
<path d="M523.252 152.098L535.061 143.518" stroke="white" stroke-opacity="0.5" stroke-width="1.62192" shape-rendering="crispEdges"/>
</g>
</g>
<path d="M148.655 476.873V470.174H136.308V466.357L149.979 449.22H152.939V466.318H156.366V470.174H152.939V476.873H148.655ZM140.671 466.318H149.122V455.725L140.671 466.318ZM171.441 477.263C169.494 477.211 167.78 476.756 166.3 475.899C164.82 475.043 163.587 473.926 162.6 472.55C161.613 471.148 160.86 469.642 160.341 468.032C159.848 466.396 159.601 464.799 159.601 463.241C159.601 461.58 159.874 459.918 160.419 458.256C160.964 456.594 161.756 455.088 162.795 453.738C163.833 452.362 165.08 451.272 166.534 450.467C167.988 449.636 169.624 449.22 171.441 449.22C173.388 449.22 175.089 449.662 176.543 450.545C178.023 451.427 179.257 452.57 180.243 453.972C181.23 455.374 181.97 456.893 182.463 458.529C182.982 460.165 183.242 461.736 183.242 463.241C183.242 464.929 182.969 466.604 182.424 468.266C181.879 469.901 181.087 471.394 180.048 472.745C179.01 474.095 177.764 475.185 176.309 476.016C174.881 476.821 173.259 477.237 171.441 477.263ZM164.041 463.241C164.093 464.436 164.262 465.63 164.547 466.825C164.859 467.993 165.326 469.071 165.949 470.057C166.573 471.044 167.339 471.836 168.247 472.433C169.156 473.03 170.221 473.329 171.441 473.329C172.713 473.329 173.804 473.017 174.713 472.394C175.647 471.745 176.413 470.914 177.011 469.901C177.608 468.863 178.049 467.759 178.335 466.591C178.646 465.423 178.802 464.306 178.802 463.241C178.802 462.047 178.633 460.866 178.296 459.697C177.984 458.503 177.517 457.412 176.894 456.426C176.271 455.439 175.505 454.647 174.596 454.05C173.687 453.453 172.635 453.154 171.441 453.154C170.169 453.154 169.065 453.479 168.131 454.128C167.196 454.751 166.43 455.582 165.833 456.62C165.235 457.633 164.781 458.724 164.469 459.892C164.184 461.06 164.041 462.177 164.041 463.241Z" fill="white"/>
<path d="M70.3681 315.909C68.3688 315.909 66.5772 315.468 64.9934 314.585C63.4355 313.676 62.2281 312.443 61.3713 310.885L63.9418 308.431C64.6688 309.548 65.6035 310.443 66.746 311.118C67.8884 311.768 69.1088 312.092 70.407 312.092C71.4716 312.092 72.4193 311.871 73.2502 311.43C74.0811 310.963 74.7302 310.327 75.1976 309.522C75.6909 308.717 75.9376 307.782 75.9376 306.717C75.9376 305.679 75.7039 304.77 75.2365 303.991C74.7951 303.186 74.172 302.563 73.367 302.122C72.5881 301.68 71.7053 301.46 70.7186 301.46C69.732 301.46 68.7972 301.68 67.9144 302.122C67.0576 302.563 66.3695 303.186 65.8502 303.991H62.0334L65.1881 287.867H78.7028V291.801H68.3039L66.9018 299.317C67.3692 298.85 67.9663 298.474 68.6934 298.188C69.4463 297.902 70.3032 297.76 71.2639 297.76C73.0035 297.76 74.5484 298.136 75.8986 298.889C77.2748 299.642 78.3523 300.681 79.1313 302.005C79.9362 303.329 80.3386 304.861 80.3386 306.601C80.3386 308.444 79.8972 310.067 79.0144 311.469C78.1316 312.845 76.9372 313.936 75.4313 314.741C73.9513 315.52 72.2635 315.909 70.3681 315.909ZM95.4298 315.909C93.4824 315.857 91.7688 315.403 90.2888 314.546C88.8088 313.689 87.5754 312.573 86.5888 311.196C85.6021 309.794 84.8491 308.288 84.3298 306.678C83.8365 305.043 83.5898 303.446 83.5898 301.888C83.5898 300.226 83.8624 298.564 84.4077 296.903C84.953 295.241 85.7449 293.735 86.7835 292.385C87.8221 291.009 89.0684 289.918 90.5224 289.113C91.9765 288.282 93.6123 287.867 95.4298 287.867C97.3772 287.867 99.0779 288.308 100.532 289.191C102.012 290.074 103.245 291.216 104.232 292.618C105.219 294.021 105.959 295.54 106.452 297.175C106.971 298.811 107.231 300.382 107.231 301.888C107.231 303.576 106.958 305.25 106.413 306.912C105.868 308.548 105.076 310.041 104.037 311.391C102.999 312.741 101.752 313.832 100.298 314.663C98.8702 315.468 97.2474 315.883 95.4298 315.909ZM88.0298 301.888C88.0817 303.082 88.2505 304.277 88.5361 305.471C88.8477 306.64 89.3151 307.717 89.9382 308.704C90.5614 309.69 91.3274 310.482 92.2361 311.08C93.1449 311.677 94.2095 311.975 95.4298 311.975C96.7021 311.975 97.7926 311.664 98.7014 311.041C99.6361 310.391 100.402 309.561 100.999 308.548C101.596 307.509 102.038 306.406 102.323 305.237C102.635 304.069 102.791 302.953 102.791 301.888C102.791 300.694 102.622 299.512 102.285 298.344C101.973 297.149 101.506 296.059 100.882 295.072C100.259 294.085 99.4933 293.294 98.5845 292.696C97.6758 292.099 96.6242 291.801 95.4298 291.801C94.1575 291.801 93.054 292.125 92.1193 292.774C91.1845 293.397 90.4186 294.228 89.8214 295.267C89.2242 296.28 88.7698 297.37 88.4582 298.538C88.1726 299.707 88.0298 300.823 88.0298 301.888Z" fill="white"/>
<path d="M155.597 140.523C155.597 142.289 155.156 143.899 154.273 145.353C153.416 146.807 152.222 147.962 150.69 148.819C149.184 149.676 147.496 150.104 145.627 150.104C143.602 150.104 141.823 149.624 140.291 148.663C138.785 147.677 137.604 146.262 136.747 144.418C135.916 142.574 135.501 140.38 135.501 137.836C135.501 134.305 135.929 131.358 136.786 128.995C137.669 126.632 138.902 124.853 140.486 123.659C142.07 122.465 143.926 121.867 146.055 121.867C147.821 121.867 149.431 122.283 150.885 123.114C152.365 123.919 153.559 125.048 154.468 126.502L151.936 129.151C151.339 128.06 150.508 127.203 149.444 126.58C148.405 125.931 147.25 125.606 145.977 125.606C144.705 125.606 143.576 125.983 142.589 126.736C141.628 127.463 140.875 128.527 140.33 129.93C139.811 131.332 139.538 133.032 139.512 135.032C139.902 134.253 140.408 133.591 141.031 133.045C141.68 132.474 142.433 132.033 143.29 131.721C144.147 131.41 145.056 131.254 146.016 131.254C147.834 131.254 149.457 131.669 150.885 132.5C152.339 133.331 153.481 134.447 154.312 135.85C155.169 137.226 155.597 138.784 155.597 140.523ZM145.627 146.443C146.691 146.443 147.665 146.184 148.548 145.664C149.457 145.119 150.171 144.392 150.69 143.483C151.235 142.574 151.508 141.588 151.508 140.523C151.508 139.459 151.235 138.485 150.69 137.602C150.171 136.719 149.47 136.018 148.587 135.499C147.704 134.954 146.717 134.681 145.627 134.681C144.588 134.681 143.615 134.954 142.706 135.499C141.797 136.018 141.07 136.719 140.525 137.602C140.005 138.485 139.746 139.459 139.746 140.523C139.746 141.588 140.018 142.574 140.564 143.483C141.109 144.366 141.823 145.08 142.706 145.625C143.615 146.171 144.588 146.443 145.627 146.443ZM170.842 150.104C168.895 150.052 167.181 149.598 165.701 148.741C164.221 147.884 162.988 146.768 162.001 145.392C161.015 143.99 160.262 142.484 159.742 140.874C159.249 139.238 159.002 137.641 159.002 136.083C159.002 134.422 159.275 132.76 159.82 131.098C160.365 129.436 161.157 127.93 162.196 126.58C163.235 125.204 164.481 124.113 165.935 123.309C167.389 122.478 169.025 122.062 170.842 122.062C172.79 122.062 174.49 122.504 175.944 123.386C177.424 124.269 178.658 125.412 179.644 126.814C180.631 128.216 181.371 129.735 181.864 131.371C182.384 133.006 182.643 134.577 182.643 136.083C182.643 137.771 182.371 139.446 181.825 141.107C181.28 142.743 180.488 144.236 179.45 145.586C178.411 146.937 177.165 148.027 175.711 148.858C174.283 149.663 172.66 150.078 170.842 150.104ZM163.442 136.083C163.494 137.278 163.663 138.472 163.949 139.666C164.26 140.835 164.727 141.912 165.351 142.899C165.974 143.886 166.74 144.678 167.649 145.275C168.557 145.872 169.622 146.171 170.842 146.171C172.115 146.171 173.205 145.859 174.114 145.236C175.049 144.587 175.815 143.756 176.412 142.743C177.009 141.705 177.45 140.601 177.736 139.433C178.047 138.264 178.203 137.148 178.203 136.083C178.203 134.889 178.035 133.707 177.697 132.539C177.385 131.345 176.918 130.254 176.295 129.267C175.672 128.281 174.906 127.489 173.997 126.892C173.088 126.294 172.037 125.996 170.842 125.996C169.57 125.996 168.466 126.32 167.532 126.97C166.597 127.593 165.831 128.424 165.234 129.462C164.637 130.475 164.182 131.565 163.871 132.734C163.585 133.902 163.442 135.019 163.442 136.083Z" fill="white"/>
<path d="M302.173 61.4549H288.775V57.5212H308.95L295.084 85.1738H290.255L302.173 61.4549ZM321.886 85.5633C319.939 85.5114 318.225 85.057 316.745 84.2001C315.265 83.3433 314.032 82.2268 313.045 80.8507C312.058 79.4486 311.305 77.9426 310.786 76.3328C310.293 74.697 310.046 73.1001 310.046 71.5422C310.046 69.8805 310.319 68.2187 310.864 66.557C311.409 64.8952 312.201 63.3893 313.24 62.0391C314.278 60.663 315.525 59.5724 316.979 58.7675C318.433 57.9366 320.069 57.5212 321.886 57.5212C323.833 57.5212 325.534 57.9626 326.988 58.8454C328.468 59.7282 329.702 60.8707 330.688 62.2728C331.675 63.6749 332.415 65.1938 332.908 66.8296C333.428 68.4654 333.687 70.0363 333.687 71.5422C333.687 73.23 333.415 74.9047 332.869 76.5665C332.324 78.2022 331.532 79.6952 330.493 81.0454C329.455 82.3956 328.209 83.4861 326.755 84.317C325.326 85.1219 323.704 85.5373 321.886 85.5633ZM314.486 71.5422C314.538 72.7366 314.707 73.931 314.992 75.1254C315.304 76.2938 315.771 77.3714 316.395 78.358C317.018 79.3447 317.784 80.1366 318.692 80.7338C319.601 81.331 320.666 81.6296 321.886 81.6296C323.158 81.6296 324.249 81.318 325.158 80.6949C326.092 80.0458 326.858 79.2149 327.456 78.2022C328.053 77.1637 328.494 76.0601 328.78 74.8917C329.091 73.7233 329.247 72.6068 329.247 71.5422C329.247 70.3479 329.078 69.1665 328.741 67.998C328.429 66.8037 327.962 65.7131 327.339 64.7265C326.716 63.7398 325.95 62.9479 325.041 62.3507C324.132 61.7535 323.081 61.4549 321.886 61.4549C320.614 61.4549 319.51 61.7794 318.576 62.4286C317.641 63.0517 316.875 63.8826 316.278 64.9212C315.681 65.9338 315.226 67.0244 314.915 68.1928C314.629 69.3612 314.486 70.4777 314.486 71.5422Z" fill="white"/>
<path d="M451.341 141.731C451.341 143.392 450.887 144.846 449.978 146.093C449.095 147.339 447.888 148.313 446.356 149.014C444.85 149.689 443.201 150.026 441.409 150.026C439.566 150.026 437.904 149.663 436.424 148.936C434.944 148.183 433.763 147.17 432.88 145.898C431.997 144.626 431.556 143.172 431.556 141.536C431.556 140.445 431.802 139.472 432.296 138.615C432.789 137.732 433.399 136.979 434.126 136.356C434.853 135.733 435.593 135.252 436.346 134.915C435.645 134.577 434.996 134.149 434.399 133.63C433.828 133.084 433.36 132.461 432.997 131.76C432.659 131.059 432.491 130.306 432.491 129.501C432.491 128.307 432.75 127.255 433.269 126.346C433.815 125.412 434.529 124.633 435.412 124.01C436.294 123.36 437.255 122.88 438.294 122.569C439.358 122.231 440.41 122.062 441.448 122.062C442.513 122.062 443.565 122.231 444.603 122.569C445.668 122.88 446.641 123.347 447.524 123.971C448.433 124.594 449.147 125.373 449.666 126.307C450.212 127.216 450.484 128.268 450.484 129.462C450.484 130.267 450.302 131.033 449.939 131.76C449.601 132.461 449.121 133.084 448.498 133.63C447.901 134.175 447.252 134.603 446.551 134.915C447.381 135.278 448.16 135.785 448.887 136.434C449.64 137.083 450.238 137.849 450.679 138.732C451.12 139.614 451.341 140.614 451.341 141.731ZM447.018 141.458C447.018 140.705 446.849 140.03 446.512 139.433C446.2 138.836 445.772 138.342 445.226 137.953C444.681 137.537 444.084 137.226 443.435 137.018C442.786 136.81 442.123 136.706 441.448 136.706C440.488 136.706 439.592 136.901 438.761 137.291C437.93 137.68 437.255 138.238 436.736 138.965C436.216 139.666 435.957 140.497 435.957 141.458C435.957 142.185 436.113 142.847 436.424 143.444C436.736 144.016 437.151 144.509 437.671 144.924C438.216 145.34 438.813 145.651 439.462 145.859C440.137 146.067 440.812 146.171 441.487 146.171C442.422 146.171 443.305 145.976 444.136 145.586C444.993 145.171 445.681 144.613 446.2 143.912C446.745 143.185 447.018 142.367 447.018 141.458ZM436.814 129.657C436.814 130.462 437.047 131.15 437.515 131.721C437.982 132.292 438.579 132.721 439.306 133.006C440.033 133.292 440.747 133.435 441.448 133.435C442.175 133.435 442.889 133.292 443.591 133.006C444.318 132.695 444.915 132.253 445.382 131.682C445.875 131.111 446.122 130.41 446.122 129.579C446.122 128.826 445.901 128.177 445.46 127.632C445.019 127.06 444.434 126.632 443.707 126.346C443.006 126.035 442.253 125.879 441.448 125.879C440.643 125.879 439.878 126.035 439.151 126.346C438.449 126.658 437.878 127.099 437.437 127.671C437.021 128.216 436.814 128.878 436.814 129.657ZM466.709 150.104C464.762 150.052 463.048 149.598 461.568 148.741C460.088 147.884 458.855 146.768 457.868 145.392C456.881 143.99 456.128 142.484 455.609 140.874C455.116 139.238 454.869 137.641 454.869 136.083C454.869 134.422 455.142 132.76 455.687 131.098C456.232 129.436 457.024 127.93 458.063 126.58C459.101 125.204 460.348 124.113 461.802 123.309C463.256 122.478 464.892 122.062 466.709 122.062C468.656 122.062 470.357 122.504 471.811 123.386C473.291 124.269 474.525 125.412 475.511 126.814C476.498 128.216 477.238 129.735 477.731 131.371C478.251 133.006 478.51 134.577 478.51 136.083C478.51 137.771 478.238 139.446 477.692 141.107C477.147 142.743 476.355 144.236 475.316 145.586C474.278 146.937 473.032 148.027 471.578 148.858C470.149 149.663 468.527 150.078 466.709 150.104ZM459.309 136.083C459.361 137.278 459.53 138.472 459.815 139.666C460.127 140.835 460.594 141.912 461.218 142.899C461.841 143.886 462.607 144.678 463.515 145.275C464.424 145.872 465.489 146.171 466.709 146.171C467.981 146.171 469.072 145.859 469.981 145.236C470.915 144.587 471.681 143.756 472.279 142.743C472.876 141.705 473.317 140.601 473.603 139.433C473.914 138.264 474.07 137.148 474.07 136.083C474.07 134.889 473.901 133.707 473.564 132.539C473.252 131.345 472.785 130.254 472.162 129.267C471.539 128.281 470.773 127.489 469.864 126.892C468.955 126.294 467.903 125.996 466.709 125.996C465.437 125.996 464.333 126.32 463.399 126.97C462.464 127.593 461.698 128.424 461.101 129.462C460.503 130.475 460.049 131.565 459.738 132.734C459.452 133.902 459.309 135.019 459.309 136.083Z" fill="white"/>
<path d="M499.166 297.253C499.166 295.462 499.607 293.839 500.49 292.385C501.373 290.931 502.567 289.788 504.073 288.957C505.605 288.101 507.306 287.672 509.175 287.672C511.226 287.672 512.992 288.165 514.472 289.152C515.978 290.113 517.146 291.502 517.977 293.32C518.834 295.137 519.263 297.331 519.263 299.902C519.263 303.433 518.821 306.38 517.938 308.743C517.082 311.105 515.861 312.897 514.277 314.117C512.719 315.312 510.876 315.909 508.747 315.909C506.981 315.909 505.358 315.507 503.878 314.702C502.398 313.871 501.204 312.715 500.295 311.235L502.827 308.587C503.424 309.651 504.255 310.508 505.319 311.157C506.384 311.807 507.539 312.131 508.786 312.131C510.084 312.131 511.213 311.768 512.174 311.041C513.135 310.314 513.888 309.249 514.433 307.847C514.978 306.419 515.251 304.718 515.251 302.745C514.888 303.498 514.381 304.16 513.732 304.731C513.083 305.302 512.33 305.744 511.473 306.055C510.642 306.367 509.733 306.523 508.747 306.523C506.981 306.523 505.358 306.107 503.878 305.276C502.424 304.445 501.269 303.329 500.412 301.927C499.581 300.525 499.166 298.967 499.166 297.253ZM509.136 291.294C508.072 291.294 507.098 291.567 506.215 292.112C505.332 292.631 504.618 293.345 504.073 294.254C503.554 295.163 503.294 296.15 503.294 297.214C503.294 298.279 503.554 299.253 504.073 300.135C504.618 301.018 505.332 301.732 506.215 302.277C507.124 302.797 508.111 303.056 509.175 303.056C510.24 303.056 511.213 302.797 512.096 302.277C513.005 301.732 513.719 301.018 514.238 300.135C514.784 299.253 515.056 298.292 515.056 297.253C515.056 296.163 514.784 295.176 514.238 294.293C513.693 293.384 512.966 292.657 512.057 292.112C511.175 291.567 510.201 291.294 509.136 291.294ZM534.703 315.909C532.756 315.857 531.042 315.403 529.562 314.546C528.082 313.689 526.849 312.573 525.862 311.196C524.875 309.794 524.122 308.288 523.603 306.678C523.11 305.043 522.863 303.446 522.863 301.888C522.863 300.226 523.136 298.564 523.681 296.903C524.226 295.241 525.018 293.735 526.057 292.385C527.095 291.009 528.342 289.918 529.796 289.113C531.25 288.282 532.886 287.867 534.703 287.867C536.65 287.867 538.351 288.308 539.805 289.191C541.285 290.074 542.519 291.216 543.505 292.618C544.492 294.021 545.232 295.54 545.725 297.175C546.245 298.811 546.504 300.382 546.504 301.888C546.504 303.576 546.232 305.25 545.686 306.912C545.141 308.548 544.349 310.041 543.31 311.391C542.272 312.741 541.026 313.832 539.572 314.663C538.143 315.468 536.521 315.883 534.703 315.909ZM527.303 301.888C527.355 303.082 527.524 304.277 527.809 305.471C528.121 306.64 528.588 307.717 529.212 308.704C529.835 309.69 530.601 310.482 531.509 311.08C532.418 311.677 533.483 311.975 534.703 311.975C535.975 311.975 537.066 311.664 537.975 311.041C538.909 310.391 539.675 309.561 540.273 308.548C540.87 307.509 541.311 306.406 541.597 305.237C541.908 304.069 542.064 302.953 542.064 301.888C542.064 300.694 541.895 299.512 541.558 298.344C541.246 297.149 540.779 296.059 540.156 295.072C539.533 294.085 538.767 293.294 537.858 292.696C536.949 292.099 535.897 291.801 534.703 291.801C533.431 291.801 532.327 292.125 531.393 292.774C530.458 293.397 529.692 294.228 529.095 295.267C528.497 296.28 528.043 297.37 527.732 298.538C527.446 299.707 527.303 300.823 527.303 301.888Z" fill="white"/>
<path d="M436.121 473.017V476.873H421.438V473.017H426.774V453.31C426.566 453.621 426.215 453.972 425.722 454.361C425.255 454.725 424.722 455.088 424.125 455.452C423.528 455.79 422.905 456.075 422.256 456.309C421.633 456.543 421.061 456.659 420.542 456.659V452.687C421.243 452.687 421.944 452.505 422.645 452.141C423.372 451.778 424.047 451.363 424.67 450.895C425.294 450.402 425.787 449.96 426.15 449.571C426.54 449.181 426.748 448.974 426.774 448.948H431.175V473.017H436.121ZM450.525 477.263C448.578 477.211 446.864 476.756 445.384 475.899C443.904 475.043 442.671 473.926 441.684 472.55C440.698 471.148 439.945 469.642 439.425 468.032C438.932 466.396 438.685 464.799 438.685 463.241C438.685 461.58 438.958 459.918 439.503 458.256C440.049 456.594 440.841 455.088 441.879 453.738C442.918 452.362 444.164 451.272 445.618 450.467C447.072 449.636 448.708 449.22 450.525 449.22C452.473 449.22 454.173 449.662 455.628 450.545C457.108 451.427 458.341 452.57 459.328 453.972C460.314 455.374 461.054 456.893 461.548 458.529C462.067 460.165 462.326 461.736 462.326 463.241C462.326 464.929 462.054 466.604 461.509 468.266C460.963 469.901 460.171 471.394 459.133 472.745C458.094 474.095 456.848 475.185 455.394 476.016C453.966 476.821 452.343 477.237 450.525 477.263ZM443.125 463.241C443.177 464.436 443.346 465.63 443.632 466.825C443.943 467.993 444.411 469.071 445.034 470.057C445.657 471.044 446.423 471.836 447.332 472.433C448.241 473.03 449.305 473.329 450.525 473.329C451.798 473.329 452.888 473.017 453.797 472.394C454.732 471.745 455.498 470.914 456.095 469.901C456.692 468.863 457.133 467.759 457.419 466.591C457.731 465.423 457.886 464.306 457.886 463.241C457.886 462.047 457.718 460.866 457.38 459.697C457.069 458.503 456.601 457.412 455.978 456.426C455.355 455.439 454.589 454.647 453.68 454.05C452.771 453.453 451.72 453.154 450.525 453.154C449.253 453.154 448.15 453.479 447.215 454.128C446.28 454.751 445.514 455.582 444.917 456.62C444.32 457.633 443.865 458.724 443.554 459.892C443.268 461.06 443.125 462.177 443.125 463.241ZM477.606 477.263C475.659 477.211 473.945 476.756 472.465 475.899C470.985 475.043 469.752 473.926 468.765 472.55C467.778 471.148 467.025 469.642 466.506 468.032C466.013 466.396 465.766 464.799 465.766 463.241C465.766 461.58 466.039 459.918 466.584 458.256C467.129 456.594 467.921 455.088 468.96 453.738C469.998 452.362 471.245 451.272 472.699 450.467C474.153 449.636 475.788 449.22 477.606 449.22C479.553 449.22 481.254 449.662 482.708 450.545C484.188 451.427 485.421 452.57 486.408 453.972C487.395 455.374 488.135 456.893 488.628 458.529C489.147 460.165 489.407 461.736 489.407 463.241C489.407 464.929 489.134 466.604 488.589 468.266C488.044 469.901 487.252 471.394 486.213 472.745C485.175 474.095 483.928 475.185 482.474 476.016C481.046 476.821 479.424 477.237 477.606 477.263ZM470.206 463.241C470.258 464.436 470.427 465.63 470.712 466.825C471.024 467.993 471.491 469.071 472.114 470.057C472.738 471.044 473.504 471.836 474.412 472.433C475.321 473.03 476.386 473.329 477.606 473.329C478.878 473.329 479.969 473.017 480.878 472.394C481.812 471.745 482.578 470.914 483.175 469.901C483.773 468.863 484.214 467.759 484.5 466.591C484.811 465.423 484.967 464.306 484.967 463.241C484.967 462.047 484.798 460.866 484.461 459.697C484.149 458.503 483.682 457.412 483.059 456.426C482.435 455.439 481.67 454.647 480.761 454.05C479.852 453.453 478.8 453.154 477.606 453.154C476.334 453.154 475.23 453.479 474.295 454.128C473.361 454.751 472.595 455.582 471.998 456.62C471.4 457.633 470.946 458.724 470.634 459.892C470.349 461.06 470.206 462.177 470.206 463.241Z" fill="white"/>
</g>
<defs>
<filter id="filter0_d_429_7856" x="6.54887" y="7" width="600.902" height="600.902" filterUnits="userSpaceOnUse" color-interpolation-filters="sRGB">
<feFlood flood-opacity="0" result="BackgroundImageFix"/>
<feColorMatrix in="SourceAlpha" type="matrix" values="0 0 0 0 0 0 0 0 0 0 0 0 0 0 0 0 0 0 127 0" result="hardAlpha"/>
<feOffset dy="4.45113"/>
<feGaussianBlur stdDeviation="2.22556"/>
<feComposite in2="hardAlpha" operator="out"/>
<feColorMatrix type="matrix" values="0 0 0 0 0 0 0 0 0 0 0 0 0 0 0 0 0 0 0.25 0"/>
<feBlend mode="normal" in2="BackgroundImageFix" result="effect1_dropShadow_429_7856"/>
<feBlend mode="normal" in="SourceGraphic" in2="effect1_dropShadow_429_7856" result="shape"/>
</filter>
<filter id="filter1_d_429_7856" x="6.54887" y="7" width="600.902" height="600.902" filterUnits="userSpaceOnUse" color-interpolation-filters="sRGB">
<feFlood flood-opacity="0" result="BackgroundImageFix"/>
<feColorMatrix in="SourceAlpha" type="matrix" values="0 0 0 0 0 0 0 0 0 0 0 0 0 0 0 0 0 0 127 0" result="hardAlpha"/>
<feOffset dy="4.45113"/>
<feGaussianBlur stdDeviation="2.22556"/>
<feComposite in2="hardAlpha" operator="out"/>
<feColorMatrix type="matrix" values="0 0 0 0 0 0 0 0 0 0 0 0 0 0 0 0 0 0 0.25 0"/>
<feBlend mode="normal" in2="BackgroundImageFix" result="effect1_dropShadow_429_7856"/>
<feBlend mode="normal" in="SourceGraphic" in2="effect1_dropShadow_429_7856" result="shape"/>
</filter>
<filter id="filter2_d_429_7856" x="0.781918" y="0.025753" width="612.436" height="612.436" filterUnits="userSpaceOnUse" color-interpolation-filters="sRGB">
<feFlood flood-opacity="0" result="BackgroundImageFix"/>
<feColorMatrix in="SourceAlpha" type="matrix" values="0 0 0 0 0 0 0 0 0 0 0 0 0 0 0 0 0 0 127 0" result="hardAlpha"/>
<feOffset dy="3.24384"/>
<feGaussianBlur stdDeviation="5.10904"/>
<feComposite in2="hardAlpha" operator="out"/>
<feColorMatrix type="matrix" values="0 0 0 0 0 0 0 0 0 0 0 0 0 0 0 0 0 0 1 0"/>
<feBlend mode="normal" in2="BackgroundImageFix" result="effect1_dropShadow_429_7856"/>
<feBlend mode="normal" in="SourceGraphic" in2="effect1_dropShadow_429_7856" result="shape"/>
</filter>
<filter id="filter3_d_429_7856" x="12.0846" y="11.0547" width="589.831" height="589.831" filterUnits="userSpaceOnUse" color-interpolation-filters="sRGB">
<feFlood flood-opacity="0" result="BackgroundImageFix"/>
<feColorMatrix in="SourceAlpha" type="matrix" values="0 0 0 0 0 0 0 0 0 0 0 0 0 0 0 0 0 0 127 0" result="hardAlpha"/>
<feOffset dy="2.97006"/>
<feGaussianBlur stdDeviation="1.48503"/>
<feComposite in2="hardAlpha" operator="out"/>
<feColorMatrix type="matrix" values="0 0 0 0 0 0 0 0 0 0 0 0 0 0 0 0 0 0 0.25 0"/>
<feBlend mode="normal" in2="BackgroundImageFix" result="effect1_dropShadow_429_7856"/>
<feBlend mode="normal" in="SourceGraphic" in2="effect1_dropShadow_429_7856" result="shape"/>
</filter>
<filter id="filter4_d_429_7856" x="148.206" y="71.4004" width="16.3802" height="19.2494" filterUnits="userSpaceOnUse" color-interpolation-filters="sRGB">
<feFlood flood-opacity="0" result="BackgroundImageFix"/>
<feColorMatrix in="SourceAlpha" type="matrix" values="0 0 0 0 0 0 0 0 0 0 0 0 0 0 0 0 0 0 127 0" result="hardAlpha"/>
<feOffset dy="3.24384"/>
<feGaussianBlur stdDeviation="1.62192"/>
<feComposite in2="hardAlpha" operator="out"/>
<feColorMatrix type="matrix" values="0 0 0 0 0 0 0 0 0 0 0 0 0 0 0 0 0 0 0.25 0"/>
<feBlend mode="normal" in2="BackgroundImageFix" result="effect1_dropShadow_429_7856"/>
<feBlend mode="normal" in="SourceGraphic" in2="effect1_dropShadow_429_7856" result="shape"/>
</filter>
<filter id="filter5_d_429_7856" x="193.52" y="46.4473" width="13.2328" height="20.6967" filterUnits="userSpaceOnUse" color-interpolation-filters="sRGB">
<feFlood flood-opacity="0" result="BackgroundImageFix"/>
<feColorMatrix in="SourceAlpha" type="matrix" values="0 0 0 0 0 0 0 0 0 0 0 0 0 0 0 0 0 0 127 0" result="hardAlpha"/>
<feOffset dy="3.24384"/>
<feGaussianBlur stdDeviation="1.62192"/>
<feComposite in2="hardAlpha" operator="out"/>
<feColorMatrix type="matrix" values="0 0 0 0 0 0 0 0 0 0 0 0 0 0 0 0 0 0 0.25 0"/>
<feBlend mode="normal" in2="BackgroundImageFix" result="effect1_dropShadow_429_7856"/>
<feBlend mode="normal" in="SourceGraphic" in2="effect1_dropShadow_429_7856" result="shape"/>
</filter>
<filter id="filter6_d_429_7856" x="247.816" y="30.3633" width="10.8646" height="21.1263" filterUnits="userSpaceOnUse" color-interpolation-filters="sRGB">
<feFlood flood-opacity="0" result="BackgroundImageFix"/>
<feColorMatrix in="SourceAlpha" type="matrix" values="0 0 0 0 0 0 0 0 0 0 0 0 0 0 0 0 0 0 127 0" result="hardAlpha"/>
<feOffset dy="3.24384"/>
<feGaussianBlur stdDeviation="1.62192"/>
<feComposite in2="hardAlpha" operator="out"/>
<feColorMatrix type="matrix" values="0 0 0 0 0 0 0 0 0 0 0 0 0 0 0 0 0 0 0.25 0"/>
<feBlend mode="normal" in2="BackgroundImageFix" result="effect1_dropShadow_429_7856"/>
<feBlend mode="normal" in="SourceGraphic" in2="effect1_dropShadow_429_7856" result="shape"/>
</filter>
<filter id="filter7_d_429_7856" x="451.387" y="73.0215" width="16.3802" height="19.2494" filterUnits="userSpaceOnUse" color-interpolation-filters="sRGB">
<feFlood flood-opacity="0" result="BackgroundImageFix"/>
<feColorMatrix in="SourceAlpha" type="matrix" values="0 0 0 0 0 0 0 0 0 0 0 0 0 0 0 0 0 0 127 0" result="hardAlpha"/>
<feOffset dy="3.24384"/>
<feGaussianBlur stdDeviation="1.62192"/>
<feComposite in2="hardAlpha" operator="out"/>
<feColorMatrix type="matrix" values="0 0 0 0 0 0 0 0 0 0 0 0 0 0 0 0 0 0 0.25 0"/>
<feBlend mode="normal" in2="BackgroundImageFix" result="effect1_dropShadow_429_7856"/>
<feBlend mode="normal" in="SourceGraphic" in2="effect1_dropShadow_429_7856" result="shape"/>
</filter>
<filter id="filter8_d_429_7856" x="409.222" y="48.0684" width="13.2328" height="20.6967" filterUnits="userSpaceOnUse" color-interpolation-filters="sRGB">
<feFlood flood-opacity="0" result="BackgroundImageFix"/>
<feColorMatrix in="SourceAlpha" type="matrix" values="0 0 0 0 0 0 0 0 0 0 0 0 0 0 0 0 0 0 127 0" result="hardAlpha"/>
<feOffset dy="3.24384"/>
<feGaussianBlur stdDeviation="1.62192"/>
<feComposite in2="hardAlpha" operator="out"/>
<feColorMatrix type="matrix" values="0 0 0 0 0 0 0 0 0 0 0 0 0 0 0 0 0 0 0.25 0"/>
<feBlend mode="normal" in2="BackgroundImageFix" result="effect1_dropShadow_429_7856"/>
<feBlend mode="normal" in="SourceGraphic" in2="effect1_dropShadow_429_7856" result="shape"/>
</filter>
<filter id="filter9_d_429_7856" x="357.294" y="31.9844" width="10.8646" height="21.1263" filterUnits="userSpaceOnUse" color-interpolation-filters="sRGB">
<feFlood flood-opacity="0" result="BackgroundImageFix"/>
<feColorMatrix in="SourceAlpha" type="matrix" values="0 0 0 0 0 0 0 0 0 0 0 0 0 0 0 0 0 0 127 0" result="hardAlpha"/>
<feOffset dy="3.24384"/>
<feGaussianBlur stdDeviation="1.62192"/>
<feComposite in2="hardAlpha" operator="out"/>
<feColorMatrix type="matrix" values="0 0 0 0 0 0 0 0 0 0 0 0 0 0 0 0 0 0 0.25 0"/>
<feBlend mode="normal" in2="BackgroundImageFix" result="effect1_dropShadow_429_7856"/>
<feBlend mode="normal" in="SourceGraphic" in2="effect1_dropShadow_429_7856" result="shape"/>
</filter>
<filter id="filter10_d_429_7856" x="74.8763" y="144.045" width="18.9886" height="16.7533" filterUnits="userSpaceOnUse" color-interpolation-filters="sRGB">
<feFlood flood-opacity="0" result="BackgroundImageFix"/>
<feColorMatrix in="SourceAlpha" type="matrix" values="0 0 0 0 0 0 0 0 0 0 0 0 0 0 0 0 0 0 127 0" result="hardAlpha"/>
<feOffset dy="3.24384"/>
<feGaussianBlur stdDeviation="1.62192"/>
<feComposite in2="hardAlpha" operator="out"/>
<feColorMatrix type="matrix" values="0 0 0 0 0 0 0 0 0 0 0 0 0 0 0 0 0 0 0.25 0"/>
<feBlend mode="normal" in2="BackgroundImageFix" result="effect1_dropShadow_429_7856"/>
<feBlend mode="normal" in="SourceGraphic" in2="effect1_dropShadow_429_7856" result="shape"/>
</filter>
<filter id="filter11_d_429_7856" x="48.3499" y="188.447" width="20.558" height="13.683" filterUnits="userSpaceOnUse" color-interpolation-filters="sRGB">
<feFlood flood-opacity="0" result="BackgroundImageFix"/>
<feColorMatrix in="SourceAlpha" type="matrix" values="0 0 0 0 0 0 0 0 0 0 0 0 0 0 0 0 0 0 127 0" result="hardAlpha"/>
<feOffset dy="3.24384"/>
<feGaussianBlur stdDeviation="1.62192"/>
<feComposite in2="hardAlpha" operator="out"/>
<feColorMatrix type="matrix" values="0 0 0 0 0 0 0 0 0 0 0 0 0 0 0 0 0 0 0.25 0"/>
<feBlend mode="normal" in2="BackgroundImageFix" result="effect1_dropShadow_429_7856"/>
<feBlend mode="normal" in="SourceGraphic" in2="effect1_dropShadow_429_7856" result="shape"/>
</filter>
<filter id="filter12_d_429_7856" x="30.3782" y="242.137" width="21.0756" height="11.3529" filterUnits="userSpaceOnUse" color-interpolation-filters="sRGB">
<feFlood flood-opacity="0" result="BackgroundImageFix"/>
<feColorMatrix in="SourceAlpha" type="matrix" values="0 0 0 0 0 0 0 0 0 0 0 0 0 0 0 0 0 0 127 0" result="hardAlpha"/>
<feOffset dy="3.24384"/>
<feGaussianBlur stdDeviation="1.62192"/>
<feComposite in2="hardAlpha" operator="out"/>
<feColorMatrix type="matrix" values="0 0 0 0 0 0 0 0 0 0 0 0 0 0 0 0 0 0 0.25 0"/>
<feBlend mode="normal" in2="BackgroundImageFix" result="effect1_dropShadow_429_7856"/>
<feBlend mode="normal" in="SourceGraphic" in2="effect1_dropShadow_429_7856" result="shape"/>
</filter>
<filter id="filter13_d_429_7856" x="517.65" y="448.969" width="18.9886" height="16.7533" filterUnits="userSpaceOnUse" color-interpolation-filters="sRGB">
<feFlood flood-opacity="0" result="BackgroundImageFix"/>
<feColorMatrix in="SourceAlpha" type="matrix" values="0 0 0 0 0 0 0 0 0 0 0 0 0 0 0 0 0 0 127 0" result="hardAlpha"/>
<feOffset dy="3.24384"/>
<feGaussianBlur stdDeviation="1.62192"/>
<feComposite in2="hardAlpha" operator="out"/>
<feColorMatrix type="matrix" values="0 0 0 0 0 0 0 0 0 0 0 0 0 0 0 0 0 0 0.25 0"/>
<feBlend mode="normal" in2="BackgroundImageFix" result="effect1_dropShadow_429_7856"/>
<feBlend mode="normal" in="SourceGraphic" in2="effect1_dropShadow_429_7856" result="shape"/>
</filter>
<filter id="filter14_d_429_7856" x="542.607" y="407.639" width="20.558" height="13.683" filterUnits="userSpaceOnUse" color-interpolation-filters="sRGB">
<feFlood flood-opacity="0" result="BackgroundImageFix"/>
<feColorMatrix in="SourceAlpha" type="matrix" values="0 0 0 0 0 0 0 0 0 0 0 0 0 0 0 0 0 0 127 0" result="hardAlpha"/>
<feOffset dy="3.24384"/>
<feGaussianBlur stdDeviation="1.62192"/>
<feComposite in2="hardAlpha" operator="out"/>
<feColorMatrix type="matrix" values="0 0 0 0 0 0 0 0 0 0 0 0 0 0 0 0 0 0 0.25 0"/>
<feBlend mode="normal" in2="BackgroundImageFix" result="effect1_dropShadow_429_7856"/>
<feBlend mode="normal" in="SourceGraphic" in2="effect1_dropShadow_429_7856" result="shape"/>
</filter>
<filter id="filter15_d_429_7856" x="560.061" y="356.277" width="21.0756" height="11.3529" filterUnits="userSpaceOnUse" color-interpolation-filters="sRGB">
<feFlood flood-opacity="0" result="BackgroundImageFix"/>
<feColorMatrix in="SourceAlpha" type="matrix" values="0 0 0 0 0 0 0 0 0 0 0 0 0 0 0 0 0 0 127 0" result="hardAlpha"/>
<feOffset dy="3.24384"/>
<feGaussianBlur stdDeviation="1.62192"/>
<feComposite in2="hardAlpha" operator="out"/>
<feColorMatrix type="matrix" values="0 0 0 0 0 0 0 0 0 0 0 0 0 0 0 0 0 0 0.25 0"/>
<feBlend mode="normal" in2="BackgroundImageFix" result="effect1_dropShadow_429_7856"/>
<feBlend mode="normal" in="SourceGraphic" in2="effect1_dropShadow_429_7856" result="shape"/>
</filter>
<filter id="filter16_d_429_7856" x="29.7962" y="355.506" width="21.1732" height="9.87634" filterUnits="userSpaceOnUse" color-interpolation-filters="sRGB">
<feFlood flood-opacity="0" result="BackgroundImageFix"/>
<feColorMatrix in="SourceAlpha" type="matrix" values="0 0 0 0 0 0 0 0 0 0 0 0 0 0 0 0 0 0 127 0" result="hardAlpha"/>
<feOffset dy="3.24384"/>
<feGaussianBlur stdDeviation="1.62192"/>
<feComposite in2="hardAlpha" operator="out"/>
<feColorMatrix type="matrix" values="0 0 0 0 0 0 0 0 0 0 0 0 0 0 0 0 0 0 0.25 0"/>
<feBlend mode="normal" in2="BackgroundImageFix" result="effect1_dropShadow_429_7856"/>
<feBlend mode="normal" in="SourceGraphic" in2="effect1_dropShadow_429_7856" result="shape"/>
</filter>
<filter id="filter17_d_429_7856" x="42.1771" y="402.227" width="20.6293" height="13.4603" filterUnits="userSpaceOnUse" color-interpolation-filters="sRGB">
<feFlood flood-opacity="0" result="BackgroundImageFix"/>
<feColorMatrix in="SourceAlpha" type="matrix" values="0 0 0 0 0 0 0 0 0 0 0 0 0 0 0 0 0 0 127 0" result="hardAlpha"/>
<feOffset dy="3.24384"/>
<feGaussianBlur stdDeviation="1.62192"/>
<feComposite in2="hardAlpha" operator="out"/>
<feColorMatrix type="matrix" values="0 0 0 0 0 0 0 0 0 0 0 0 0 0 0 0 0 0 0.25 0"/>
<feBlend mode="normal" in2="BackgroundImageFix" result="effect1_dropShadow_429_7856"/>
<feBlend mode="normal" in="SourceGraphic" in2="effect1_dropShadow_429_7856" result="shape"/>
</filter>
<filter id="filter18_d_429_7856" x="67.2454" y="450.824" width="19.726" height="15.599" filterUnits="userSpaceOnUse" color-interpolation-filters="sRGB">
<feFlood flood-opacity="0" result="BackgroundImageFix"/>
<feColorMatrix in="SourceAlpha" type="matrix" values="0 0 0 0 0 0 0 0 0 0 0 0 0 0 0 0 0 0 127 0" result="hardAlpha"/>
<feOffset dy="3.24384"/>
<feGaussianBlur stdDeviation="1.62192"/>
<feComposite in2="hardAlpha" operator="out"/>
<feColorMatrix type="matrix" values="0 0 0 0 0 0 0 0 0 0 0 0 0 0 0 0 0 0 0.25 0"/>
<feBlend mode="normal" in2="BackgroundImageFix" result="effect1_dropShadow_429_7856"/>
<feBlend mode="normal" in="SourceGraphic" in2="effect1_dropShadow_429_7856" result="shape"/>
</filter>
<filter id="filter19_d_429_7856" x="157.518" y="522.057" width="15.598" height="19.726" filterUnits="userSpaceOnUse" color-interpolation-filters="sRGB">
<feFlood flood-opacity="0" result="BackgroundImageFix"/>
<feColorMatrix in="SourceAlpha" type="matrix" values="0 0 0 0 0 0 0 0 0 0 0 0 0 0 0 0 0 0 127 0" result="hardAlpha"/>
<feOffset dy="3.24384"/>
<feGaussianBlur stdDeviation="1.62192"/>
<feComposite in2="hardAlpha" operator="out"/>
<feColorMatrix type="matrix" values="0 0 0 0 0 0 0 0 0 0 0 0 0 0 0 0 0 0 0.25 0"/>
<feBlend mode="normal" in2="BackgroundImageFix" result="effect1_dropShadow_429_7856"/>
<feBlend mode="normal" in="SourceGraphic" in2="effect1_dropShadow_429_7856" result="shape"/>
</filter>
<filter id="filter20_d_429_7856" x="440.128" y="522.328" width="15.7972" height="19.6127" filterUnits="userSpaceOnUse" color-interpolation-filters="sRGB">
<feFlood flood-opacity="0" result="BackgroundImageFix"/>
<feColorMatrix in="SourceAlpha" type="matrix" values="0 0 0 0 0 0 0 0 0 0 0 0 0 0 0 0 0 0 127 0" result="hardAlpha"/>
<feOffset dy="3.24384"/>
<feGaussianBlur stdDeviation="1.62192"/>
<feComposite in2="hardAlpha" operator="out"/>
<feColorMatrix type="matrix" values="0 0 0 0 0 0 0 0 0 0 0 0 0 0 0 0 0 0 0.25 0"/>
<feBlend mode="normal" in2="BackgroundImageFix" result="effect1_dropShadow_429_7856"/>
<feBlend mode="normal" in="SourceGraphic" in2="effect1_dropShadow_429_7856" result="shape"/>
</filter>
<filter id="filter21_d_429_7856" x="562.079" y="240.998" width="21.1254" height="10.8666" filterUnits="userSpaceOnUse" color-interpolation-filters="sRGB">
<feFlood flood-opacity="0" result="BackgroundImageFix"/>
<feColorMatrix in="SourceAlpha" type="matrix" values="0 0 0 0 0 0 0 0 0 0 0 0 0 0 0 0 0 0 127 0" result="hardAlpha"/>
<feOffset dy="3.24384"/>
<feGaussianBlur stdDeviation="1.62192"/>
<feComposite in2="hardAlpha" operator="out"/>
<feColorMatrix type="matrix" values="0 0 0 0 0 0 0 0 0 0 0 0 0 0 0 0 0 0 0.25 0"/>
<feBlend mode="normal" in2="BackgroundImageFix" result="effect1_dropShadow_429_7856"/>
<feBlend mode="normal" in="SourceGraphic" in2="effect1_dropShadow_429_7856" result="shape"/>
</filter>
<filter id="filter22_d_429_7856" x="547.019" y="191.707" width="20.3187" height="14.3431" filterUnits="userSpaceOnUse" color-interpolation-filters="sRGB">
<feFlood flood-opacity="0" result="BackgroundImageFix"/>
<feColorMatrix in="SourceAlpha" type="matrix" values="0 0 0 0 0 0 0 0 0 0 0 0 0 0 0 0 0 0 127 0" result="hardAlpha"/>
<feOffset dy="3.24384"/>
<feGaussianBlur stdDeviation="1.62192"/>
<feComposite in2="hardAlpha" operator="out"/>
<feColorMatrix type="matrix" values="0 0 0 0 0 0 0 0 0 0 0 0 0 0 0 0 0 0 0.25 0"/>
<feBlend mode="normal" in2="BackgroundImageFix" result="effect1_dropShadow_429_7856"/>
<feBlend mode="normal" in="SourceGraphic" in2="effect1_dropShadow_429_7856" result="shape"/>
</filter>
<filter id="filter23_d_429_7856" x="519.532" y="142.861" width="19.2504" height="16.3802" filterUnits="userSpaceOnUse" color-interpolation-filters="sRGB">
<feFlood flood-opacity="0" result="BackgroundImageFix"/>
<feColorMatrix in="SourceAlpha" type="matrix" values="0 0 0 0 0 0 0 0 0 0 0 0 0 0 0 0 0 0 127 0" result="hardAlpha"/>
<feOffset dy="3.24384"/>
<feGaussianBlur stdDeviation="1.62192"/>
<feComposite in2="hardAlpha" operator="out"/>
<feColorMatrix type="matrix" values="0 0 0 0 0 0 0 0 0 0 0 0 0 0 0 0 0 0 0.25 0"/>
<feBlend mode="normal" in2="BackgroundImageFix" result="effect1_dropShadow_429_7856"/>
<feBlend mode="normal" in="SourceGraphic" in2="effect1_dropShadow_429_7856" result="shape"/>
</filter>
</defs>
</svg>
