<svg width="66" height="66" viewBox="0 0 66 66" fill="none" xmlns="http://www.w3.org/2000/svg">
<path d="M33.0256 64.4759C50.3956 64.4759 64.4768 50.3948 64.4768 33.0248C64.4768 15.6548 50.3956 1.57361 33.0256 1.57361C15.6556 1.57361 1.57446 15.6548 1.57446 33.0248C1.57446 50.3948 15.6556 64.4759 33.0256 64.4759Z" fill="#181B1D" fill-opacity="0.01"/>
<path d="M33.025 66C26.4971 66.0049 20.1145 64.0737 14.6844 60.4506C9.25427 56.8276 5.02069 51.6754 2.51916 45.6459C0.0176397 39.6163 -0.639431 32.9804 0.631059 26.5774C1.90155 20.1743 5.04252 14.292 9.65666 9.67432C14.2708 5.05669 20.1508 1.91127 26.5528 0.635933C32.9549 -0.639405 39.5914 0.0126342 45.6228 2.50959C51.6542 5.00655 56.8096 9.23622 60.4368 14.6636C64.064 20.0909 66 26.4722 66 33C65.9934 41.7458 62.5179 50.1318 56.3361 56.3184C50.1542 62.5049 41.7708 65.9868 33.025 66ZM33.025 3.07267C27.096 3.07267 21.3002 4.83082 16.3705 8.12477C11.4408 11.4187 7.5985 16.1005 5.32959 21.5781C3.06068 27.0558 2.46703 33.0832 3.62371 38.8982C4.78039 44.7133 7.63545 50.0547 11.8278 54.2471C16.0202 58.4395 21.3617 61.2946 27.1767 62.4512C32.9917 63.6079 39.0192 63.0143 44.4968 60.7454C49.9744 58.4764 54.6563 54.6342 57.9502 49.7045C61.2442 44.7747 63.0023 38.9789 63.0023 33.05C63.0023 29.1133 62.2269 25.2152 60.7204 21.5781C59.2139 17.9411 57.0058 14.6365 54.2221 11.8528C51.4385 9.06916 48.1338 6.86105 44.4968 5.35455C40.8598 3.84805 36.9617 3.07267 33.025 3.07267Z" fill="#F19A41"/>
<path d="M49.1707 39.5473L40.2197 35.5363L40.195 35.5249C39.7303 35.3262 39.2234 35.2464 38.7201 35.2929C38.2169 35.3393 37.7331 35.5105 37.3127 35.7909C37.2631 35.8236 37.2156 35.8592 37.1702 35.8973L32.5455 39.8399C29.6157 38.4168 26.5908 35.4147 25.1677 32.5229L29.116 27.8279C29.154 27.7804 29.1901 27.7329 29.2243 27.6816C29.4987 27.2623 29.6652 26.7817 29.7089 26.2824C29.7527 25.7832 29.6724 25.2809 29.4751 24.8202V24.7974L25.4527 15.8312C25.1919 15.2294 24.7435 14.7281 24.1744 14.4021C23.6053 14.0761 22.946 13.9429 22.2949 14.0224C19.7203 14.3612 17.3571 15.6256 15.6466 17.5794C13.9361 19.5333 12.9954 22.0429 13 24.6397C13 39.7259 25.2741 52 40.3603 52C42.9571 52.0046 45.4667 51.0639 47.4206 49.3534C49.3744 47.6429 50.6388 45.2797 50.9776 42.7051C51.0572 42.0543 50.9243 41.3951 50.5987 40.826C50.273 40.2569 49.7721 39.8084 49.1707 39.5473ZM40.3603 48.96C33.9123 48.9529 27.7305 46.3883 23.1711 41.8289C18.6117 37.2695 16.0471 31.0877 16.04 24.6397C16.0329 22.7843 16.7013 20.9898 17.9206 19.5912C19.1398 18.1926 20.8264 17.2856 22.6654 17.0396C22.6647 17.0472 22.6647 17.0549 22.6654 17.0624L26.6555 25.9925L22.7281 30.6932C22.6882 30.739 22.652 30.788 22.6198 30.8395C22.3339 31.2782 22.1662 31.7834 22.1329 32.306C22.0996 32.8287 22.2019 33.351 22.4298 33.8225C24.1512 37.3432 27.6986 40.864 31.2573 42.5835C31.7322 42.8093 32.2576 42.9081 32.7821 42.8701C33.3067 42.8321 33.8124 42.6587 34.2498 42.3669C34.2986 42.334 34.3455 42.2985 34.3904 42.2605L39.0094 38.3199L47.9395 42.3194H47.9604C47.7174 44.161 46.8117 45.851 45.4129 47.0732C44.0141 48.2955 42.2179 48.9662 40.3603 48.96Z" fill="#F19A41"/>
</svg>
