<svg width="66" height="66" viewBox="0 0 66 66" fill="none" xmlns="http://www.w3.org/2000/svg">
<path d="M33.025 66C26.4971 66.0049 20.1145 64.0737 14.6844 60.4506C9.25427 56.8276 5.02069 51.6754 2.51916 45.6459C0.0176397 39.6163 -0.639431 32.9804 0.631059 26.5774C1.90155 20.1743 5.04252 14.292 9.65666 9.67432C14.2708 5.05669 20.1508 1.91127 26.5528 0.635933C32.9549 -0.639405 39.5914 0.0126342 45.6228 2.50959C51.6542 5.00655 56.8096 9.23622 60.4368 14.6636C64.064 20.0909 66 26.4722 66 33C65.9934 41.7458 62.5179 50.1318 56.3361 56.3184C50.1542 62.5049 41.7708 65.9868 33.025 66ZM33.025 3.07267C27.096 3.07267 21.3002 4.83082 16.3705 8.12477C11.4408 11.4187 7.5985 16.1005 5.32959 21.5781C3.06068 27.0558 2.46703 33.0832 3.62371 38.8982C4.78039 44.7133 7.63545 50.0547 11.8278 54.2471C16.0202 58.4395 21.3617 61.2946 27.1767 62.4512C32.9917 63.6079 39.0192 63.0143 44.4968 60.7454C49.9744 58.4764 54.6563 54.6342 57.9502 49.7045C61.2442 44.7747 63.0023 38.9789 63.0023 33.05C63.0023 29.1133 62.2269 25.2152 60.7204 21.5781C59.2139 17.9411 57.0058 14.6365 54.2221 11.8528C51.4385 9.06916 48.1338 6.86105 44.4968 5.35455C40.8598 3.84805 36.9617 3.07267 33.025 3.07267Z" fill="#F19A41"/>
<path d="M15.9858 32.4109C15.9858 34.581 16.4238 36.73 17.2747 38.7349C18.1256 40.7399 19.3728 42.5617 20.9451 44.0962C22.5174 45.6308 24.3839 46.8481 26.4382 47.6785C28.4925 48.509 30.6943 48.9365 32.9178 48.9365C35.1413 48.9365 37.3431 48.509 39.3974 47.6785C41.4517 46.8481 43.3182 45.6308 44.8905 44.0962C46.4628 42.5617 47.71 40.7399 48.5609 38.7349C49.4118 36.73 49.8498 34.581 49.8498 32.4109C49.8498 28.028 48.0659 23.8246 44.8905 20.7255C41.7152 17.6263 37.4084 15.8853 32.9178 15.8853C28.4272 15.8853 24.1205 17.6263 20.9451 20.7255C17.7697 23.8246 15.9858 28.028 15.9858 32.4109Z" stroke="#F19A41" stroke-width="3.69888" stroke-linecap="round" stroke-linejoin="round"/>
<path d="M32.9177 23.2301V32.411L38.5617 37.9195" stroke="#F19A41" stroke-width="3.69888" stroke-linecap="round" stroke-linejoin="round"/>
</svg>
