<svg width="66" height="66" viewBox="0 0 66 66" fill="none" xmlns="http://www.w3.org/2000/svg">
<path d="M33.0256 64.4761C50.3956 64.4761 64.4768 50.3949 64.4768 33.0249C64.4768 15.6549 50.3956 1.57373 33.0256 1.57373C15.6556 1.57373 1.57446 15.6549 1.57446 33.0249C1.57446 50.3949 15.6556 64.4761 33.0256 64.4761Z" fill="#181B1D" fill-opacity="0.01"/>
<path d="M33.025 66C26.4971 66.0049 20.1145 64.0737 14.6844 60.4506C9.25427 56.8276 5.02069 51.6754 2.51916 45.6459C0.0176397 39.6163 -0.639431 32.9804 0.631059 26.5774C1.90155 20.1743 5.04252 14.292 9.65666 9.67432C14.2708 5.05669 20.1508 1.91127 26.5528 0.635933C32.9549 -0.639405 39.5914 0.0126342 45.6228 2.50959C51.6542 5.00655 56.8096 9.23622 60.4368 14.6636C64.064 20.0909 66 26.4722 66 33C65.9934 41.7458 62.5179 50.1318 56.3361 56.3184C50.1542 62.5049 41.7708 65.9868 33.025 66ZM33.025 3.07267C27.096 3.07267 21.3002 4.83082 16.3705 8.12477C11.4408 11.4187 7.5985 16.1005 5.32959 21.5781C3.06068 27.0558 2.46703 33.0832 3.62371 38.8982C4.78039 44.7133 7.63545 50.0547 11.8278 54.2471C16.0202 58.4395 21.3617 61.2946 27.1767 62.4512C32.9917 63.6079 39.0192 63.0143 44.4968 60.7454C49.9744 58.4764 54.6563 54.6342 57.9502 49.7045C61.2442 44.7747 63.0023 38.9789 63.0023 33.05C63.0023 29.1133 62.2269 25.2152 60.7204 21.5781C59.2139 17.9411 57.0058 14.6365 54.2221 11.8528C51.4385 9.06916 48.1338 6.86105 44.4968 5.35455C40.8598 3.84805 36.9617 3.07267 33.025 3.07267Z" fill="#F19A41"/>
<path d="M32.3923 35.3667C35.5094 35.3667 38.0363 32.9004 38.0363 29.8581C38.0363 26.8159 35.5094 24.3496 32.3923 24.3496C29.2752 24.3496 26.7483 26.8159 26.7483 29.8581C26.7483 32.9004 29.2752 35.3667 32.3923 35.3667Z" stroke="#F19A41" stroke-width="3.69888" stroke-linecap="round" stroke-linejoin="round"/>
<path d="M32.3922 15.1688C28.4005 15.1688 24.5723 16.7165 21.7498 19.4713C18.9272 22.2261 17.3416 25.9624 17.3416 29.8583C17.3416 33.3323 18.0978 35.6055 20.1635 38.1211L32.3922 51.8924L44.6208 38.1211C46.6865 35.6055 47.4428 33.3323 47.4428 29.8583C47.4428 25.9624 45.8571 22.2261 43.0346 19.4713C40.2121 16.7165 36.3839 15.1688 32.3922 15.1688Z" stroke="#F19A41" stroke-width="3.69888" stroke-linecap="round" stroke-linejoin="round"/>
</svg>
