<svg width="50" height="67" viewBox="0 0 50 67" fill="none" xmlns="http://www.w3.org/2000/svg">
<path d="M25 0.544922C11.2457 0.544922 0.25 11.5406 0.25 25.2949C0.25 30.0516 1.66797 33.7254 4.13008 37.4508L22.3961 65.1656C22.9504 66.0035 23.9043 66.5449 25 66.5449C26.0957 66.5449 27.0625 65.9906 27.6039 65.1656L45.8699 37.4508C48.332 33.7254 49.75 30.0516 49.75 25.2949C49.75 11.5406 38.7543 0.544922 25 0.544922ZM25 39.0363C17.4074 39.0363 11.2457 32.8746 11.2457 25.2691C11.2457 17.6637 17.4074 11.502 25 11.502C32.5926 11.502 38.7543 17.6637 38.7543 25.2691C38.7543 32.8746 32.5926 39.0363 25 39.0363ZM25 17.0449C20.4367 17.0449 16.75 20.7316 16.75 25.2949C16.75 29.8582 20.4367 33.5449 25 33.5449C29.5633 33.5449 33.25 29.8582 33.25 25.2949C33.25 20.7316 29.5633 17.0449 25 17.0449Z" fill="white"/>
</svg>
