<svg width="43" height="43" viewBox="0 0 43 43" fill="none" xmlns="http://www.w3.org/2000/svg">
<path fill-rule="evenodd" clip-rule="evenodd" d="M21.5 0C9.6342 0 0 9.6342 0 21.5C0 33.3658 9.6342 43 21.5 43C33.3658 43 43 33.3658 43 21.5C43 9.6342 33.3658 0 21.5 0ZM33.0769 35.529V31.6723C33.0769 30.8321 32.583 30.0735 31.8178 29.7317C31.8156 29.7317 31.8156 29.7317 31.8134 29.7317C28.5983 28.3028 25.1186 27.5641 21.6014 27.5641C21.5331 27.5641 21.4669 27.5641 21.3986 27.5641C17.8814 27.5641 14.4017 28.3028 11.1866 29.7317C11.1844 29.7317 11.1844 29.7317 11.1822 29.7317C10.417 30.0735 9.92308 30.8321 9.92308 31.6723V35.529C13.0676 38.1289 17.103 39.6923 21.5 39.6923C25.897 39.6923 29.9324 38.1289 33.0769 35.529ZM36.3846 31.9567C38.4685 28.9974 39.6923 25.3898 39.6923 21.5C39.6923 11.4601 31.5399 3.30769 21.5 3.30769C11.4601 3.30769 3.30769 11.4601 3.30769 21.5C3.30769 25.3898 4.53154 28.9974 6.61538 31.9567V31.6723C6.61538 29.5267 7.87892 27.5817 9.83928 26.7107C9.84149 26.7107 9.84149 26.7085 9.84149 26.7085C13.4799 25.0922 17.4183 24.2564 21.3986 24.2564C21.4669 24.2564 21.5331 24.2564 21.6014 24.2564C25.5817 24.2564 29.5201 25.0922 33.1585 26.7085C33.1585 26.7085 33.1585 26.7107 33.1607 26.7107C35.1211 27.5817 36.3846 29.5267 36.3846 31.6723V31.9567Z" fill="white"/>
<path fill-rule="evenodd" clip-rule="evenodd" d="M21.4997 5.5127C16.9351 5.5127 13.2305 9.21731 13.2305 13.7819C13.2305 18.3465 16.9351 22.0512 21.4997 22.0512C26.0643 22.0512 29.7689 18.3465 29.7689 13.7819C29.7689 9.21731 26.0643 5.5127 21.4997 5.5127ZM21.4997 8.82039C24.2385 8.82039 26.4612 11.0432 26.4612 13.7819C26.4612 16.5207 24.2385 18.7435 21.4997 18.7435C18.7609 18.7435 16.5382 16.5207 16.5382 13.7819C16.5382 11.0432 18.7609 8.82039 21.4997 8.82039Z" fill="white"/>
</svg>
