<svg width="48" height="56" viewBox="0 0 48 56" fill="none" xmlns="http://www.w3.org/2000/svg">
<path fill-rule="evenodd" clip-rule="evenodd" d="M0 2.79999C0 2.05739 0.316071 1.3452 0.87868 0.820098C1.44129 0.294998 2.20435 0 3 0H45C45.7957 0 46.5587 0.294998 47.1213 0.820098C47.6839 1.3452 48 2.05739 48 2.79999V53.1998C48 53.7351 47.8357 54.2591 47.5264 54.7099C47.2172 55.1607 46.776 55.5193 46.2551 55.7432C45.7342 55.9671 45.1554 56.047 44.5874 55.9734C44.0194 55.8998 43.4858 55.6757 43.05 55.3278L39.951 52.8498C39.4074 52.4153 38.7152 52.1764 37.9995 52.1764C37.2838 52.1764 36.5916 52.4153 36.048 52.8498L32.952 55.325C32.4082 55.7603 31.7154 55.9996 30.999 55.9996C30.2826 55.9996 29.5898 55.7603 29.046 55.325L25.953 52.8498C25.4092 52.4145 24.7164 52.1752 24 52.1752C23.2836 52.1752 22.5908 52.4145 22.047 52.8498L18.954 55.325C18.4102 55.7603 17.7174 55.9996 17.001 55.9996C16.2846 55.9996 15.5918 55.7603 15.048 55.325L11.952 52.8498C11.4084 52.4153 10.7162 52.1764 10.0005 52.1764C9.28476 52.1764 8.59261 52.4153 8.049 52.8498L4.953 55.325C4.51745 55.6737 3.98391 55.8984 3.41565 55.9726C2.84739 56.0468 2.26825 55.9673 1.74691 55.7436C1.22557 55.5199 0.783898 55.1614 0.474269 54.7105C0.16464 54.2597 4.45994e-05 53.7354 0 53.1998V2.79999ZM15 11.2C14.2044 11.2 13.4413 11.495 12.8787 12.0201C12.3161 12.5452 12 13.2573 12 14C12 14.7426 12.3161 15.4547 12.8787 15.9798C13.4413 16.5049 14.2044 16.7999 15 16.7999H33C33.7957 16.7999 34.5587 16.5049 35.1213 15.9798C35.6839 15.4547 36 14.7426 36 14C36 13.2573 35.6839 12.5452 35.1213 12.0201C34.5587 11.495 33.7957 11.2 33 11.2H15ZM15 22.3999C14.2044 22.3999 13.4413 22.6949 12.8787 23.22C12.3161 23.7451 12 24.4573 12 25.1999C12 25.9425 12.3161 26.6547 12.8787 27.1798C13.4413 27.7049 14.2044 27.9999 15 27.9999H33C33.7957 27.9999 34.5587 27.7049 35.1213 27.1798C35.6839 26.6547 36 25.9425 36 25.1999C36 24.4573 35.6839 23.7451 35.1213 23.22C34.5587 22.6949 33.7957 22.3999 33 22.3999H15ZM18 36.3999C18 35.6573 18.3161 34.9451 18.8787 34.42C19.4413 33.8949 20.2044 33.5999 21 33.5999H33C33.7957 33.5999 34.5587 33.8949 35.1213 34.42C35.6839 34.9451 36 35.6573 36 36.3999C36 37.1425 35.6839 37.8547 35.1213 38.3798C34.5587 38.9049 33.7957 39.1999 33 39.1999H21C20.2044 39.1999 19.4413 38.9049 18.8787 38.3798C18.3161 37.8547 18 37.1425 18 36.3999Z" fill="#65686B"/>
</svg>
