<svg width="90" height="90" viewBox="0 0 90 90" fill="none" xmlns="http://www.w3.org/2000/svg">
<path d="M19.7168 73.6628V29.3614C19.7168 28.0077 20.1992 26.8493 21.164 25.8861C22.1288 24.923 23.2872 24.4406 24.6392 24.439H64.0183C65.3719 24.439 66.5312 24.9214 67.4959 25.8861C68.4607 26.8509 68.9423 28.0093 68.9407 29.3614V58.8957C68.9407 60.2493 68.4591 61.4086 67.4959 62.3733C66.5328 63.3381 65.3736 63.8197 64.0183 63.8181H29.5616L19.7168 73.6628ZM37.1297 54.5886L44.3287 50.22L51.5277 54.5886L49.6203 46.4051L56.0194 40.8674L47.5898 40.1906L44.3287 32.4378L41.0677 40.1906L32.6381 40.8674L39.0372 46.4051L37.1297 54.5886Z" fill="white"/>
</svg>
