<svg width="30" height="29" viewBox="0 0 30 29" fill="none" xmlns="http://www.w3.org/2000/svg">
<path d="M13.4699 1.06283C13.6258 0.795303 13.8491 0.573332 14.1176 0.419056C14.3861 0.264781 14.6903 0.183594 14.9999 0.183594C15.3096 0.183594 15.6138 0.264781 15.8822 0.419056C16.1507 0.573332 16.374 0.795303 16.5299 1.06283L20.4895 7.85999L28.1792 9.52599C28.4816 9.59172 28.7616 9.73559 28.9911 9.94325C29.2207 10.1509 29.3918 10.4151 29.4874 10.7095C29.583 11.0039 29.5998 11.3182 29.536 11.6211C29.4723 11.924 29.3302 12.2049 29.1241 12.4358L23.8824 18.3022L24.6758 26.1293C24.707 26.4375 24.6569 26.7486 24.5304 27.0313C24.4039 27.3141 24.2055 27.5588 23.9548 27.7409C23.7042 27.923 23.4102 28.0361 23.1022 28.069C22.7941 28.102 22.4829 28.0535 22.1994 27.9285L14.9999 24.7552L7.80042 27.9285C7.51697 28.0535 7.20569 28.102 6.89765 28.069C6.58962 28.0361 6.29561 27.923 6.04499 27.7409C5.79436 27.5588 5.59589 27.3141 5.46939 27.0313C5.34289 26.7486 5.29279 26.4375 5.32408 26.1293L6.11742 18.3022L0.875751 12.4372C0.66924 12.2064 0.526905 11.9253 0.462954 11.6223C0.399003 11.3192 0.415675 11.0046 0.511305 10.71C0.606934 10.4153 0.778176 10.151 1.00793 9.9432C1.23769 9.73544 1.51793 9.59158 1.82067 9.52599L9.51033 7.85999L13.4699 1.06283Z" fill="#FF8828"/>
</svg>
