<svg width="151" height="171" viewBox="0 0 151 171" fill="none" xmlns="http://www.w3.org/2000/svg">
<path d="M123.35 72.9437C139.579 101.505 148.508 133.804 149.314 166.833L46.3296 168.631C45.8438 153.699 41.7496 139.111 34.404 126.183C27.0245 113.197 15.936 103.232 3.51757 95.5236L56.5644 3.53726C84.1534 20.528 107.13 44.3988 123.35 72.9437Z" fill="#021B2B" stroke="white" stroke-width="2.79003"/>
<path d="M111.794 89.3985L110.173 88.0542C109.366 87.3843 107.849 87.8179 106.84 88.0544L94.3202 76.6956L80.957 72.4857L78.8698 74.3425L90.5837 84.1704L49.9052 119.409C48.7288 120.456 48.6861 123.003 49.9049 124.014L51.0748 124.985C52.2929 125.995 55.1403 125.611 56.3161 124.565L96.836 89.3266C96.836 89.3266 102.078 91.4599 101.838 92.3344C101.598 93.2088 101.193 94.6563 102 95.3262L103.621 96.6704C104.839 97.6809 106.781 97.6511 107.957 96.6052L111.871 93.1234C113.046 92.0769 113.013 90.4095 111.794 89.3985Z" fill="white"/>
<path d="M70.0249 99L76.0537 93.8495L70.4157 88.9517C68.6008 87.3464 67.6812 86.8094 68.1594 84.9396C68.713 82.8808 68.2688 79.0972 63.9622 77.083C59.016 74.7658 53.9921 76.8879 53.9921 76.8879L53.5986 77.4028C53.5986 77.4028 58.0314 79.787 58.5851 80.0459C59.2142 80.3686 61.1143 82.1047 58.8173 84.8758C56.5991 87.6437 54.1523 86.7451 53.4379 86.2921C52.8871 86.0328 48.4514 83.7156 48.4514 83.7156L48.0579 84.23C48.0579 84.23 47.7399 89.0599 52.6451 91.636C54.9416 92.86 57.3925 92.86 59.1347 92.3479C60.8747 91.8977 62.1427 92.4121 64.2756 94.0844L70.0249 99Z" fill="white"/>
<path d="M107.955 124.104C109.728 125.717 109.89 128.106 108.318 129.44V129.44C106.745 130.774 104.032 130.548 102.259 128.935L79.0539 107.831L84.7499 103L107.955 124.104Z" fill="white"/>
</svg>
