<svg width="251" height="278" viewBox="0 0 252 279" fill="none" xmlns="http://www.w3.org/2000/svg">
<path d="M251.19 274.079C250.212 219.092 235.198 165.264 207.58 117.738C179.963 70.2123 140.666 30.5771 93.4436 2.61943L2.7068 156.449C23.9568 169.03 42.8718 185.36 55.2996 206.746C67.7274 228.133 74.4841 252.355 74.9241 277.1L251.19 274.079Z" fill="#033452"/>
<path d="M181.698 146.362L179.466 144.23C178.354 143.167 176.265 143.855 174.876 144.23L157.632 126.214L139.227 119.537L136.352 122.482L152.486 138.07L96.46 193.96C94.8397 195.62 94.7809 199.66 96.4595 201.264L98.0708 202.803C99.7485 204.406 103.67 203.797 105.289 202.138L161.097 146.248C161.097 146.248 168.316 149.631 167.986 151.018C167.655 152.405 167.097 154.701 168.209 155.763L170.441 157.895C172.119 159.498 174.794 159.451 176.413 157.792L181.804 152.27C183.422 150.61 183.376 147.965 181.698 146.362Z" fill="white"/>
<path d="M124.171 161.59L132.474 153.421L124.709 145.653C122.209 143.107 120.943 142.255 121.601 139.29C122.364 136.024 121.752 130.023 115.821 126.829C109.008 123.153 102.089 126.519 102.089 126.519L101.547 127.336C101.547 127.336 107.652 131.117 108.415 131.528C109.281 132.04 111.898 134.793 108.735 139.188C105.68 143.578 102.31 142.153 101.326 141.435C100.567 141.023 94.4579 137.348 94.4579 137.348L93.9159 138.164C93.9159 138.164 93.4779 145.825 100.234 149.91C103.397 151.852 106.772 151.852 109.172 151.039C111.568 150.325 113.315 151.141 116.252 153.794L124.171 161.59Z" fill="white"/>
<path d="M176.411 201.407C178.853 203.965 179.076 207.754 176.91 209.869V209.869C174.744 211.985 171.008 211.627 168.566 209.069L136.606 175.596L144.451 167.934L176.411 201.407Z" fill="white"/>
</svg>
