<svg width="251" height="278" viewBox="0 0 251 278" fill="none" xmlns="http://www.w3.org/2000/svg">
<path d="M250.208 273.09C249.23 218.301 234.271 164.666 206.761 117.31C179.25 69.9542 140.107 30.4595 93.0709 2.59959L2.7068 155.867C23.8729 168.404 42.7137 184.676 55.0935 205.986C67.4733 227.297 74.2048 251.432 74.6448 276.087L250.208 273.09Z" fill="#033452"/>
<path d="M180.973 145.817L178.75 143.692C177.643 142.634 175.562 143.319 174.178 143.692L157.003 125.742L138.672 119.089L135.808 122.023L151.877 137.555L96.0753 193.243C94.4614 194.897 94.4029 198.923 96.0748 200.521L97.6797 202.054C99.3506 203.651 103.257 203.045 104.87 201.392L160.454 145.703C160.454 145.703 167.645 149.074 167.316 150.456C166.987 151.838 166.431 154.126 167.538 155.184L169.761 157.309C171.432 158.906 174.096 158.858 175.709 157.205L181.078 151.703C182.69 150.049 182.645 147.414 180.973 145.817Z" fill="white"/>
<path d="M123.675 160.99L131.946 152.851L124.211 145.11C121.722 142.574 120.46 141.725 121.116 138.77C121.876 135.517 121.266 129.537 115.359 126.354C108.574 122.692 101.682 126.046 101.682 126.046L101.142 126.859C101.142 126.859 107.223 130.627 107.982 131.036C108.845 131.546 111.452 134.29 108.301 138.669C105.258 143.043 101.902 141.623 100.922 140.907C100.166 140.498 94.0812 136.836 94.0812 136.836L93.5414 137.649C93.5414 137.649 93.1051 145.282 99.8341 149.352C102.984 151.287 106.346 151.287 108.736 150.478C111.123 149.766 112.863 150.579 115.789 153.222L123.675 160.99Z" fill="white"/>
<path d="M175.707 200.663C178.139 203.212 178.362 206.987 176.205 209.095V209.095C174.047 211.203 170.326 210.846 167.893 208.298L136.061 174.946L143.875 167.311L175.707 200.663Z" fill="white"/>
</svg>
