<svg width="151" height="171" viewBox="0 0 151 171" fill="none" xmlns="http://www.w3.org/2000/svg">
<path d="M123.35 72.9437C139.579 101.505 148.508 133.804 149.314 166.833L46.3296 168.631C45.8438 153.699 41.7496 139.111 34.404 126.183C27.0245 113.197 15.936 103.232 3.51757 95.5236L56.5644 3.53726C84.1534 20.528 107.13 44.3988 123.35 72.9437Z" fill="#033452" stroke="#021B2B" stroke-width="2.79003"/>
<path d="M112.74 90.3985L111.12 89.0542C110.312 88.3843 108.796 88.8179 107.787 89.0544L95.2665 77.6956L81.9032 73.4857L79.8161 75.3425L91.53 85.1704L50.8515 120.409C49.6751 121.456 49.6324 124.003 50.8512 125.014L52.0211 125.985C53.2392 126.995 56.0866 126.611 57.2624 125.565L97.7823 90.3266C97.7823 90.3266 103.024 92.4599 102.784 93.3344C102.544 94.2088 102.139 95.6563 102.946 96.3262L104.567 97.6704C105.785 98.6809 107.727 98.6511 108.903 97.6052L112.817 94.1234C113.992 93.0769 113.959 91.4095 112.74 90.3985Z" fill="white"/>
<path d="M70.9711 100L77 94.8495L71.362 89.9517C69.5471 88.3464 68.6275 87.8094 69.1057 85.9396C69.6593 83.8808 69.2151 80.0972 64.9085 78.083C59.9623 75.7658 54.9384 77.8879 54.9384 77.8879L54.5449 78.4028C54.5449 78.4028 58.9777 80.787 59.5314 81.0459C60.1605 81.3686 62.0606 83.1047 59.7636 85.8758C57.5454 88.6437 55.0986 87.7451 54.3842 87.2921C53.8334 87.0328 49.3977 84.7156 49.3977 84.7156L49.0042 85.23C49.0042 85.23 48.6862 90.0599 53.5914 92.636C55.8879 93.86 58.3388 93.86 60.081 93.3479C61.821 92.8977 63.089 93.4121 65.2219 95.0844L70.9711 100Z" fill="white"/>
<path d="M108.901 125.104C110.674 126.717 110.837 129.106 109.264 130.44V130.44C107.691 131.774 104.978 131.548 103.205 129.935L80.0002 108.831L85.6962 104L108.901 125.104Z" fill="white"/>
</svg>
