<svg width="251" height="278" viewBox="0 0 252 279" fill="none" xmlns="http://www.w3.org/2000/svg">
<path d="M205.703 118.828C232.77 165.408 247.65 218.083 248.973 271.945L77.0408 274.891C76.2486 250.533 69.4275 226.737 57.1771 205.656C44.8752 184.486 26.3826 168.251 5.67324 155.696L94.206 5.60242C140.277 33.305 178.637 72.2511 205.703 118.828Z" fill="#021B2B" stroke="white" stroke-width="4.34324"/>
<path d="M182.702 147.365L180.47 145.233C179.358 144.171 177.269 144.858 175.879 145.233L158.636 127.218L140.231 120.541L137.356 123.486L153.49 139.073L97.4639 194.964C95.8436 196.623 95.7848 200.664 97.4634 202.267L99.0747 203.807C100.752 205.409 104.674 204.801 106.293 203.142L162.101 147.251C162.101 147.251 169.32 150.635 168.99 152.022C168.659 153.409 168.101 155.704 169.213 156.767L171.445 158.899C173.123 160.502 175.798 160.454 177.417 158.795L182.808 153.273C184.426 151.613 184.38 148.969 182.702 147.365Z" fill="white"/>
<path d="M125.174 162.594L133.478 154.425L125.713 146.657C123.213 144.11 121.947 143.259 122.605 140.293C123.368 137.028 122.756 131.027 116.824 127.832C110.012 124.157 103.093 127.523 103.093 127.523L102.551 128.339C102.551 128.339 108.656 132.121 109.419 132.532C110.285 133.043 112.902 135.797 109.739 140.192C106.684 144.582 103.314 143.157 102.33 142.438C101.571 142.027 95.4618 138.352 95.4618 138.352L94.9198 139.168C94.9198 139.168 94.4818 146.828 101.238 150.914C104.401 152.855 107.776 152.855 110.176 152.043C112.572 151.329 114.319 152.145 117.256 154.797L125.174 162.594Z" fill="white"/>
<path d="M177.414 202.411C179.857 204.968 180.08 208.757 177.914 210.873V210.873C175.748 212.989 172.012 212.63 169.57 210.073L137.61 176.6L145.455 168.938L177.414 202.411Z" fill="white"/>
</svg>
