<svg width="251" height="278" viewBox="0 0 251 278" fill="none" xmlns="http://www.w3.org/2000/svg">
<path d="M204.883 118.4C231.844 164.81 246.668 217.291 247.991 270.956L76.7613 273.879C75.9693 249.61 69.1735 225.901 56.9711 204.897C44.7172 183.803 26.2986 167.626 5.67268 155.114L93.8337 5.58316C139.718 33.1878 177.924 71.993 204.883 118.4Z" fill="#021B2B" stroke="white" stroke-width="4.34324"/>
<path d="M181.973 146.817L179.75 144.692C178.643 143.634 176.562 144.319 175.178 144.692L158.003 126.742L139.672 120.089L136.808 123.023L152.877 138.555L97.0753 194.243C95.4614 195.897 95.4029 199.923 97.0748 201.521L98.6797 203.054C100.351 204.651 104.257 204.045 105.87 202.392L161.454 146.703C161.454 146.703 168.645 150.074 168.316 151.456C167.987 152.838 167.431 155.126 168.538 156.184L170.761 158.309C172.432 159.906 175.096 159.858 176.709 158.205L182.078 152.703C183.69 151.049 183.645 148.414 181.973 146.817Z" fill="white"/>
<path d="M124.675 161.99L132.946 153.851L125.211 146.11C122.722 143.574 121.46 142.725 122.116 139.77C122.876 136.517 122.266 130.537 116.359 127.354C109.574 123.692 102.682 127.046 102.682 127.046L102.142 127.859C102.142 127.859 108.223 131.627 108.982 132.036C109.845 132.546 112.452 135.29 109.301 139.669C106.258 144.043 102.902 142.623 101.922 141.907C101.166 141.498 95.0812 137.836 95.0812 137.836L94.5414 138.649C94.5414 138.649 94.1051 146.282 100.834 150.352C103.984 152.287 107.346 152.287 109.736 151.478C112.123 150.766 113.863 151.579 116.789 154.222L124.675 161.99Z" fill="white"/>
<path d="M176.707 201.663C179.139 204.212 179.362 207.987 177.205 210.095V210.095C175.047 212.203 171.326 211.846 168.893 209.298L137.061 175.946L144.875 168.311L176.707 201.663Z" fill="white"/>
</svg>
