<svg width="251" height="278" viewBox="0 0 251 278" fill="none" xmlns="http://www.w3.org/2000/svg">
<path d="M204.883 118.4C231.844 164.809 246.668 217.291 247.991 270.956L76.7613 273.879C75.9693 249.61 69.1735 225.901 56.9711 204.897C44.7172 183.803 26.2986 167.626 5.67268 155.114L93.8337 5.58304C139.718 33.1876 177.924 71.9929 204.883 118.4Z" fill="#033452" stroke="#021B2B" stroke-width="4.34324"/>
<path d="M180.366 144.766L177.921 142.457C176.702 141.306 174.414 142.05 172.891 142.457L153.998 122.94L133.833 115.706L130.684 118.896L148.361 135.782L86.9831 196.321C85.2081 198.119 85.144 202.495 86.9831 204.232L88.7486 205.9C90.5867 207.636 94.8832 206.977 96.6573 205.18L157.795 144.642C157.795 144.642 165.705 148.307 165.343 149.81C164.981 151.312 164.37 153.799 165.588 154.95L168.034 157.259C169.872 158.996 172.803 158.945 174.577 157.148L180.482 151.166C182.255 149.368 182.205 146.504 180.366 144.766Z" fill="white"/>
<path d="M155.498 167.518L161.901 165.22C162.326 165.068 162.783 165.346 162.842 165.794L163.914 173.924C163.989 174.492 164.672 174.74 165.094 174.353L170.923 169.012C171.169 168.787 171.538 168.764 171.81 168.956L181.397 175.754C181.87 176.089 182.523 175.745 182.514 175.165L182.355 165.113C182.349 164.715 182.671 164.39 183.068 164.394L196.123 164.498C196.74 164.503 197.068 163.772 196.654 163.315L188.809 154.652C188.528 154.342 188.576 153.858 188.911 153.609L196.068 148.287C196.565 147.918 196.382 147.135 195.774 147.023L186.414 145.298C185.959 145.214 185.706 144.723 185.901 144.304L189.201 137.198" stroke="white" stroke-width="2.83149" stroke-linecap="round"/>
</svg>
