<svg width="351" height="339" viewBox="0 0 351 339" fill="none" xmlns="http://www.w3.org/2000/svg">
<path d="M122.437 334.155L123.606 335.985L125.459 334.852C171.222 306.882 208.959 268.007 235.062 221.941C261.165 175.874 274.764 124.151 274.553 71.714L274.545 69.5267L272.318 69.5517L106.132 71.4228L104.141 71.4452L103.991 73.3946C101.936 100.194 92.4895 119.34 80.8666 139.852C69.3804 160.123 52.7726 177.233 32.6291 189.544L30.7762 190.677L31.9453 192.507L122.437 334.155Z" fill="#021B2B" stroke="white" stroke-width="4.34324"/>
<path d="M162.969 181.395L186.818 159.292L210.668 137.189L213.888 131.736L212.285 130.275L206.615 133.379L158.4 177.155L162.969 181.395Z" fill="white"/>
<path d="M119.864 215.688C123.53 219.017 129.266 219.22 132.926 215.892L156.21 194.291C156.531 193.994 156.531 193.521 156.21 193.224C155.254 192.345 155.254 190.945 156.21 190.071C157.16 189.209 158.715 189.209 159.676 190.071C159.997 190.374 160.523 190.374 160.851 190.071L164.1 187.126C164.366 186.879 164.395 186.512 164.214 186.22L151.8 174.948C151.479 174.783 151.074 174.805 150.808 175.052L147.558 178.003C147.232 178.299 147.238 178.772 147.564 179.067C148.521 179.942 148.521 181.354 147.564 182.22C146.603 183.089 145.049 183.084 144.092 182.22C143.773 181.92 143.247 181.92 142.913 182.22L119.64 203.82C115.975 207.145 116.198 212.359 119.864 215.688Z" fill="white"/>
<path d="M222.474 205.151L180.623 169.569L169.203 179.759L209.753 216.262C213.205 219.474 218.745 219.474 222.337 216.391C225.797 213.178 225.935 208.24 222.474 205.151ZM219.288 213.67C217.497 215.399 214.587 215.153 212.657 213.541C210.997 212.059 210.997 209.355 212.657 207.748C214.587 206.137 217.497 206.137 219.288 207.748C221.094 209.355 221.094 212.193 219.288 213.67Z" fill="white"/>
<path d="M160.219 172.092L171.508 161.841L160.582 152.787C157.37 149.618 156.523 148.344 157.37 144.652C158.35 140.586 157.564 133.116 149.941 129.138C141.186 124.563 132.294 128.753 132.294 128.753L131.598 129.77C131.598 129.77 139.444 134.478 140.424 134.989C141.537 135.626 144.9 139.054 140.834 144.526C136.908 149.991 132.578 148.217 131.313 147.322C130.338 146.81 122.487 142.235 122.487 142.235L121.791 143.251C121.791 143.251 121.228 152.787 129.91 157.874C133.975 160.291 138.313 160.291 141.396 159.28C144.476 158.391 146.721 159.406 150.496 162.709L160.219 172.092Z" fill="white"/>
</svg>
