<svg width="351" height="339" viewBox="0 0 351 339" fill="none" xmlns="http://www.w3.org/2000/svg">
<path d="M122.437 334.155L123.606 335.985L125.459 334.852C171.222 306.882 208.959 268.007 235.062 221.941C261.165 175.874 274.764 124.151 274.553 71.714L274.545 69.5267L272.318 69.5517L106.132 71.4228L104.141 71.4452L103.991 73.3946C101.936 100.194 92.4895 119.34 80.8666 139.852C69.3804 160.123 52.7726 177.233 32.6291 189.544L30.7761 190.677L31.9453 192.507L122.437 334.155Z" fill="#021B2B" stroke="white" stroke-width="4.34324"/>
<path d="M151.568 180.133L175.48 158.098L199.392 136.062L202.628 130.619L201.029 129.153L195.35 132.241L147.011 175.88L151.568 180.133Z" fill="white"/>
<path d="M110.864 213.846C114.53 217.175 120.266 217.378 123.926 214.05L147.21 192.449C147.531 192.152 147.531 191.68 147.21 191.382C146.254 190.504 146.254 189.103 147.21 188.229C148.16 187.367 149.715 187.367 150.676 188.229C150.997 188.532 151.523 188.532 151.851 188.229L155.1 185.285C155.366 185.037 155.395 184.67 155.214 184.378L142.8 173.106C142.479 172.941 142.074 172.963 141.808 173.211L138.558 176.161C138.232 176.457 138.238 176.93 138.564 177.226C139.521 178.1 139.521 179.512 138.564 180.379C137.603 181.247 136.049 181.243 135.092 180.379C134.773 180.078 134.247 180.078 133.913 180.379L110.64 201.978C106.975 205.304 107.198 210.517 110.864 213.846Z" fill="white"/>
<path d="M212.271 200.582L170.42 165L159 175.189L199.55 211.692C203.002 214.905 208.542 214.905 212.134 211.822C215.594 208.609 215.732 203.67 212.271 200.582ZM209.085 209.101C207.294 210.829 204.384 210.584 202.453 208.971C200.794 207.489 200.794 204.785 202.453 203.179C204.384 201.568 207.294 201.568 209.085 203.179C210.891 204.785 210.891 207.623 209.085 209.101Z" fill="white"/>
<path d="M151.436 169.092L162.724 158.841L151.799 149.787C148.587 146.618 147.74 145.344 148.587 141.652C149.567 137.586 148.78 130.116 141.158 126.138C132.403 121.563 123.511 125.753 123.511 125.753L122.814 126.77C122.814 126.77 130.66 131.478 131.64 131.989C132.754 132.626 136.117 136.054 132.051 141.526C128.125 146.991 123.794 145.217 122.53 144.322C121.555 143.81 113.704 139.235 113.704 139.235L113.007 140.251C113.007 140.251 112.445 149.787 121.127 154.874C125.191 157.291 129.529 157.291 132.613 156.28C135.693 155.391 137.937 156.406 141.712 159.709L151.436 169.092Z" fill="white"/>
</svg>
