<svg width="90" height="90" viewBox="0 0 90 90" fill="none" xmlns="http://www.w3.org/2000/svg">
<path d="M68.4785 60.4375L79.9072 71.7674L68.4785 60.4375Z" fill="#333333"/>
<path fill-rule="evenodd" clip-rule="evenodd" d="M50.8491 48.8671C51.9882 47.718 53.8431 47.71 54.9921 48.8491L65.2214 58.9899C66.3704 60.129 66.3784 61.9839 65.2393 63.1329C64.1002 64.282 62.2454 64.29 61.0963 63.1509L50.8671 53.0101C49.718 51.871 49.71 50.0161 50.8491 48.8671Z" fill="white"/>
<path fill-rule="evenodd" clip-rule="evenodd" d="M42.5 28.7834C36.5426 28.7834 31.7484 33.6009 31.7484 39.5C31.7484 45.3991 36.5426 50.2166 42.5 50.2166C48.4574 50.2166 53.2516 45.3991 53.2516 39.5C53.2516 33.6009 48.4574 28.7834 42.5 28.7834ZM27 39.5C27 30.9201 33.9591 24 42.5 24C51.0409 24 58 30.9201 58 39.5C58 48.0799 51.0409 55 42.5 55C33.9591 55 27 48.0799 27 39.5Z" fill="white"/>
</svg>
