<svg width="50" height="50" viewBox="0 0 50 50" fill="none" xmlns="http://www.w3.org/2000/svg">
<path d="M0 49.2239V4.92239C0 3.56873 0.482394 2.41033 1.44718 1.44718C2.41197 0.484035 3.57037 0.0016408 4.92239 0H44.3015C45.6551 0 46.8144 0.482394 47.7792 1.44718C48.7439 2.41197 49.2255 3.57037 49.2239 4.92239V34.4567C49.2239 35.8104 48.7423 36.9696 47.7792 37.9344C46.816 38.8992 45.6568 39.3807 44.3015 39.3791H9.84477L0 49.2239ZM17.4129 30.1496L24.6119 25.781L31.8109 30.1496L29.9035 21.9662L36.3026 16.4285L27.873 15.7516L24.6119 7.99888L21.3509 15.7516L12.9213 16.4285L19.3204 21.9662L17.4129 30.1496Z" fill="white"/>
</svg>
