<svg width="60" height="34" viewBox="0 0 60 34" fill="none" xmlns="http://www.w3.org/2000/svg">
<path d="M13.9967 19.5392V21.3477H1.48019V20.0508L9.23755 8.04596H11.0341L9.10667 11.5201L3.97873 19.5392H13.9967ZM11.5814 8.04596V25.3691H9.38032V8.04596H11.5814ZM16.2691 24.2032C16.2691 23.8304 16.3842 23.5171 16.6142 23.2632C16.8521 23.0015 17.1932 22.8706 17.6374 22.8706C18.0816 22.8706 18.4187 23.0015 18.6487 23.2632C18.8867 23.5171 19.0056 23.8304 19.0056 24.2032C19.0056 24.568 18.8867 24.8774 18.6487 25.1312C18.4187 25.385 18.0816 25.5119 17.6374 25.5119C17.1932 25.5119 16.8521 25.385 16.6142 25.1312C16.3842 24.8774 16.2691 24.568 16.2691 24.2032ZM25.2044 17.124L23.4435 16.6719L24.312 8.04596H33.1997V10.0805H26.18L25.6565 14.792C25.9738 14.6096 26.3743 14.439 26.8582 14.2804C27.3499 14.1218 27.9131 14.0424 28.5477 14.0424C29.3488 14.0424 30.0666 14.1813 30.7012 14.4589C31.3357 14.7286 31.8751 15.1172 32.3193 15.6249C32.7714 16.1325 33.1164 16.7432 33.3544 17.4571C33.5923 18.171 33.7113 18.9681 33.7113 19.8486C33.7113 20.6814 33.5963 21.4468 33.3663 22.1448C33.1442 22.8428 32.8071 23.4536 32.355 23.9771C31.9028 24.4927 31.3317 24.8932 30.6417 25.1788C29.9595 25.4643 29.1544 25.6071 28.2264 25.6071C27.5284 25.6071 26.8661 25.5119 26.2395 25.3215C25.6208 25.1233 25.0656 24.8258 24.5738 24.4292C24.09 24.0247 23.6934 23.525 23.384 22.9301C23.0826 22.3273 22.8922 21.6213 22.8129 20.8123H24.9069C25.0021 21.4627 25.1925 22.01 25.478 22.4542C25.7636 22.8984 26.1364 23.2355 26.5964 23.4655C27.0644 23.6876 27.6077 23.7986 28.2264 23.7986C28.7499 23.7986 29.2139 23.7074 29.6185 23.525C30.023 23.3426 30.3641 23.0808 30.6417 22.7397C30.9193 22.3987 31.1295 21.9862 31.2723 21.5024C31.423 21.0185 31.4983 20.4752 31.4983 19.8724C31.4983 19.3251 31.423 18.8174 31.2723 18.3494C31.1215 17.8815 30.8955 17.473 30.5941 17.124C30.3006 16.775 29.9397 16.5053 29.5114 16.3149C29.0831 16.1166 28.5913 16.0175 28.0361 16.0175C27.2984 16.0175 26.7392 16.1166 26.3585 16.3149C25.9857 16.5132 25.601 16.7829 25.2044 17.124Z" fill="white"/>
<path fill-rule="evenodd" clip-rule="evenodd" d="M51.1054 8.74609L53.4527 14.3151L59.2161 14.9638L54.9009 19.0306L56.0946 24.9905L51.0807 21.9347L46.0551 24.9698L47.2714 19.0143L42.9717 14.93L48.7372 14.3052L51.1054 8.74609Z" fill="#FFB400"/>
</svg>
