<svg width="38" height="38" viewBox="0 0 38 38" fill="none" xmlns="http://www.w3.org/2000/svg">
<path id="Vector" d="M14.2156 7.10779H21.3234V3.55389H14.2156V7.10779ZM28.4312 37.3159C25.973 37.3159 23.878 36.4493 22.1461 34.7162C20.4142 32.9831 19.5476 30.8881 19.5464 28.4312C19.5452 25.9742 20.4118 23.8792 22.1461 22.1461C23.8804 20.413 25.9754 19.5464 28.4312 19.5464C30.8869 19.5464 32.9825 20.413 34.718 22.1461C36.4535 23.8792 37.3194 25.9742 37.3159 28.4312C37.3123 30.8881 36.4458 32.9837 34.7162 34.718C32.9867 36.4523 30.8916 37.3183 28.4312 37.3159ZM3.55389 33.762C2.57657 33.762 1.74022 33.4143 1.04485 32.7189C0.349466 32.0236 0.00118463 31.1866 0 30.2081V10.6617C0 9.68436 0.348282 8.84801 1.04485 8.15263C1.74141 7.45726 2.57776 7.10897 3.55389 7.10779H10.6617V3.55389C10.6617 2.57657 11.01 1.74022 11.7065 1.04485C12.4031 0.349466 13.2394 0.00118463 14.2156 0H21.3234C22.3007 0 23.1376 0.348282 23.8342 1.04485C24.5308 1.74141 24.8784 2.57776 24.8773 3.55389V7.10779H31.9851C32.9624 7.10779 33.7993 7.45607 34.4959 8.15263C35.1924 8.8492 35.5401 9.68555 35.5389 10.6617V18.2581C34.5024 17.5177 33.377 16.955 32.1627 16.57C30.9485 16.185 29.7046 15.9925 28.4312 15.9925C24.9957 15.9925 22.0638 17.2068 19.6353 19.6353C17.2068 22.0638 15.9925 24.9957 15.9925 28.4312C15.9925 29.3492 16.0891 30.2602 16.2822 31.1641C16.4753 32.068 16.7785 32.9339 17.192 33.762H3.55389ZM28.4312 33.762C28.6681 33.762 28.8754 33.6732 29.0531 33.4955C29.2308 33.3178 29.3196 33.1105 29.3196 32.8735C29.3196 32.6366 29.2308 32.4293 29.0531 32.2516C28.8754 32.0739 28.6681 31.9851 28.4312 31.9851C28.1942 31.9851 27.9869 32.0739 27.8092 32.2516C27.6315 32.4293 27.5427 32.6366 27.5427 32.8735C27.5427 33.1105 27.6315 33.3178 27.8092 33.4955C27.9869 33.6732 28.1942 33.762 28.4312 33.762ZM27.5427 30.2081H29.3196V23.1003H27.5427V30.2081Z" fill="#65686B"/>
</svg>
