<svg width="100" height="101" viewBox="0 0 100 101" fill="none" xmlns="http://www.w3.org/2000/svg">
<path d="M100 50.5C100 78.3904 77.6142 101 50 101C22.3858 101 0 78.3904 0 50.5C0 22.6096 22.3858 0 50 0C77.6142 0 100 22.6096 100 50.5Z" fill="white"/>
<path d="M49.5 78.7802C45.6958 78.7802 42.1208 78.0507 38.775 76.5916C35.4292 75.1324 32.5187 73.1539 30.0437 70.656C27.5687 68.1563 25.6098 65.2168 24.167 61.8375C22.7242 58.4582 22.0018 54.8474 22 51.0052C22 47.163 22.7223 43.5523 24.167 40.173C25.6117 36.7937 27.5706 33.8542 30.0437 31.3544C32.5187 28.8547 35.4292 26.8762 38.775 25.4189C42.1208 23.9616 45.6958 23.2321 49.5 23.2302C53.3042 23.2302 56.8792 23.9598 60.225 25.4189C63.5708 26.878 66.4812 28.8565 68.9562 31.3544C71.4312 33.8542 73.3911 36.7937 74.8357 40.173C76.2804 43.5523 77.0018 47.163 77 51.0052C77 54.8474 76.2777 58.4582 74.833 61.8375C73.3883 65.2168 71.4294 68.1563 68.9562 70.656C66.4812 73.1558 63.5708 75.1352 60.225 76.5943C56.8792 78.0534 53.3042 78.7821 49.5 78.7802ZM49.5 73.2252C55.6417 73.2252 60.8437 71.0727 65.1062 66.7675C69.3687 62.4624 71.5 57.2083 71.5 51.0052C71.5 44.8021 69.3687 39.548 65.1062 35.2429C60.8437 30.9378 55.6417 28.7852 49.5 28.7852C43.3583 28.7852 38.1562 30.9378 33.8937 35.2429C29.6312 39.548 27.5 44.8021 27.5 51.0052C27.5 57.2083 29.6312 62.4624 33.8937 66.7675C38.1562 71.0727 43.3583 73.2252 49.5 73.2252ZM49.5 67.6702C44.9167 67.6702 41.0208 66.05 37.8125 62.8096C34.6042 59.5692 33 55.6344 33 51.0052C33 46.3761 34.6042 42.4413 37.8125 39.2008C41.0208 35.9604 44.9167 34.3402 49.5 34.3402C54.0833 34.3402 57.9792 35.9604 61.1875 39.2008C64.3958 42.4413 66 46.3761 66 51.0052C66 55.6344 64.3958 59.5692 61.1875 62.8096C57.9792 66.05 54.0833 67.6702 49.5 67.6702ZM49.5 62.1152C52.525 62.1152 55.1146 61.0274 57.2687 58.8517C59.4229 56.676 60.5 54.0605 60.5 51.0052C60.5 47.95 59.4229 45.3345 57.2687 43.1588C55.1146 40.9831 52.525 39.8952 49.5 39.8952C46.475 39.8952 43.8854 40.9831 41.7312 43.1588C39.5771 45.3345 38.5 47.95 38.5 51.0052C38.5 54.0605 39.5771 56.676 41.7312 58.8517C43.8854 61.0274 46.475 62.1152 49.5 62.1152ZM49.5 56.5602C47.9875 56.5602 46.6932 56.0168 45.617 54.9298C44.5408 53.8429 44.0018 52.5347 44 51.0052C44 49.4776 44.539 48.1703 45.617 47.0834C46.695 45.9965 47.9893 45.4521 49.5 45.4502C51.0125 45.4502 52.3077 45.9946 53.3857 47.0834C54.4637 48.1722 55.0018 49.4794 55 51.0052C55 52.5328 54.4619 53.841 53.3857 54.9298C52.3096 56.0186 51.0143 56.5621 49.5 56.5602Z" fill="#0E1013"/>
</svg>
