<svg width="100" height="100" viewBox="0 0 100 100" fill="none" xmlns="http://www.w3.org/2000/svg">
<path d="M49.5 78.0002C45.6958 78.0002 42.1208 77.2779 38.775 75.8332C35.4292 74.3886 32.5187 72.4297 30.0437 69.9565C27.5688 67.4815 25.6098 64.5711 24.167 61.2252C22.7242 57.8794 22.0018 54.3044 22 50.5002C22 46.6961 22.7223 43.1211 24.167 39.7752C25.6117 36.4294 27.5706 33.519 30.0437 31.044C32.5187 28.569 35.4292 26.6101 38.775 25.1672C42.1208 23.7244 45.6958 23.0021 49.5 23.0002C53.3042 23.0002 56.8792 23.7226 60.225 25.1672C63.5708 26.6119 66.4812 28.5708 68.9562 31.044C71.4312 33.519 73.3911 36.4294 74.8357 39.7752C76.2804 43.1211 77.0018 46.6961 77 50.5002C77 54.3044 76.2777 57.8794 74.833 61.2252C73.3883 64.5711 71.4294 67.4815 68.9562 69.9565C66.4812 72.4315 63.5708 74.3913 60.225 75.836C56.8792 77.2807 53.3042 78.0021 49.5 78.0002ZM49.5 72.5002C55.6417 72.5002 60.8437 70.369 65.1062 66.1065C69.3687 61.844 71.5 56.6419 71.5 50.5002C71.5 44.3586 69.3687 39.1565 65.1062 34.894C60.8437 30.6315 55.6417 28.5002 49.5 28.5002C43.3583 28.5002 38.1562 30.6315 33.8937 34.894C29.6312 39.1565 27.5 44.3586 27.5 50.5002C27.5 56.6419 29.6312 61.844 33.8937 66.1065C38.1562 70.369 43.3583 72.5002 49.5 72.5002ZM49.5 67.0002C44.9167 67.0002 41.0208 65.3961 37.8125 62.1877C34.6042 58.9794 33 55.0836 33 50.5002C33 45.9169 34.6042 42.0211 37.8125 38.8127C41.0208 35.6044 44.9167 34.0002 49.5 34.0002C54.0833 34.0002 57.9792 35.6044 61.1875 38.8127C64.3958 42.0211 66 45.9169 66 50.5002C66 55.0836 64.3958 58.9794 61.1875 62.1877C57.9792 65.3961 54.0833 67.0002 49.5 67.0002ZM49.5 61.5002C52.525 61.5002 55.1146 60.4232 57.2687 58.269C59.4229 56.1148 60.5 53.5252 60.5 50.5002C60.5 47.4752 59.4229 44.8857 57.2687 42.7315C55.1146 40.5773 52.525 39.5002 49.5 39.5002C46.475 39.5002 43.8854 40.5773 41.7312 42.7315C39.5771 44.8857 38.5 47.4752 38.5 50.5002C38.5 53.5252 39.5771 56.1148 41.7312 58.269C43.8854 60.4232 46.475 61.5002 49.5 61.5002ZM49.5 56.0002C47.9875 56.0002 46.6932 55.4622 45.617 54.386C44.5408 53.3098 44.0018 52.0146 44 50.5002C44 48.9877 44.539 47.6934 45.617 46.6172C46.695 45.5411 47.9893 45.0021 49.5 45.0002C51.0125 45.0002 52.3077 45.5392 53.3857 46.6172C54.4637 47.6952 55.0018 48.9896 55 50.5002C55 52.0127 54.4619 53.308 53.3857 54.386C52.3096 55.464 51.0143 56.0021 49.5 56.0002Z" fill="#0E1013"/>
</svg>
