<svg width="36" height="36" viewBox="0 0 36 36" fill="none" xmlns="http://www.w3.org/2000/svg">
<path d="M18 0C14.4399 0 10.9598 1.05568 7.99974 3.03355C5.03966 5.01141 2.73255 7.82263 1.37018 11.1117C0.00779912 14.4008 -0.348661 18.02 0.345873 21.5116C1.04041 25.0033 2.75474 28.2106 5.27208 30.7279C7.78943 33.2453 10.9967 34.9596 14.4884 35.6541C17.98 36.3487 21.5992 35.9922 24.8883 34.6298C28.1774 33.2674 30.9886 30.9603 32.9665 28.0003C34.9443 25.0402 36 21.5601 36 18C35.995 13.2276 34.0969 8.6522 30.7224 5.27764C27.3478 1.90308 22.7724 0.00503969 18 0ZM18 33.2308C14.9876 33.2308 12.0429 32.3375 9.53824 30.6639C7.03356 28.9903 5.08139 26.6116 3.92861 23.8286C2.77583 21.0455 2.47421 17.9831 3.06189 15.0286C3.64958 12.0741 5.10017 9.36028 7.23023 7.23022C9.36029 5.10016 12.0742 3.64957 15.0286 3.06188C17.9831 2.4742 21.0455 2.77582 23.8286 3.9286C26.6116 5.08138 28.9903 7.03355 30.6639 9.53824C32.3375 12.0429 33.2308 14.9876 33.2308 18C33.2262 22.038 31.6201 25.9094 28.7647 28.7647C25.9094 31.62 22.038 33.2262 18 33.2308ZM15.2308 13.8462C15.2308 14.2134 15.0849 14.5656 14.8252 14.8252C14.5656 15.0849 14.2134 15.2308 13.8462 15.2308H12.4615V22.1538C12.4615 22.5211 12.3157 22.8732 12.056 23.1329C11.7963 23.3926 11.4442 23.5385 11.0769 23.5385C10.7097 23.5385 10.3575 23.3926 10.0979 23.1329C9.83819 22.8732 9.69231 22.5211 9.69231 22.1538V15.2308H8.3077C7.94048 15.2308 7.58829 15.0849 7.32863 14.8252C7.06896 14.5656 6.92308 14.2134 6.92308 13.8462C6.92308 13.4789 7.06896 13.1267 7.32863 12.8671C7.58829 12.6074 7.94048 12.4615 8.3077 12.4615H13.8462C14.2134 12.4615 14.5656 12.6074 14.8252 12.8671C15.0849 13.1267 15.2308 13.4789 15.2308 13.8462ZM29.0769 13.8462V22.1538C29.0769 22.5211 28.931 22.8732 28.6714 23.1329C28.4117 23.3926 28.0595 23.5385 27.6923 23.5385C27.3251 23.5385 26.9729 23.3926 26.7132 23.1329C26.4536 22.8732 26.3077 22.5211 26.3077 22.1538V17.531L23.8846 20.3002C23.7547 20.4475 23.5949 20.5655 23.4158 20.6463C23.2368 20.7272 23.0426 20.769 22.8462 20.769C22.6497 20.769 22.4555 20.7272 22.2765 20.6463C22.0974 20.5655 21.9376 20.4475 21.8077 20.3002L19.3846 17.531V22.1538C19.3846 22.5211 19.2387 22.8732 18.9791 23.1329C18.7194 23.3926 18.3672 23.5385 18 23.5385C17.6328 23.5385 17.2806 23.3926 17.0209 23.1329C16.7613 22.8732 16.6154 22.5211 16.6154 22.1538V13.8462C16.6161 13.5652 16.7023 13.2912 16.8625 13.0604C17.0227 12.8296 17.2493 12.653 17.5122 12.554C17.7751 12.4551 18.0619 12.4384 18.3345 12.5063C18.6071 12.5741 18.8526 12.7233 19.0385 12.934L22.8462 17.2817L26.6538 12.934C26.8397 12.7233 27.0852 12.5741 27.3578 12.5063C27.6304 12.4384 27.9172 12.4551 28.1801 12.554C28.443 12.653 28.6696 12.8296 28.8298 13.0604C28.99 13.2912 29.0762 13.5652 29.0769 13.8462Z" fill="black"/>
</svg>
