<svg width="365" height="341" viewBox="0 0 365 341" fill="none" xmlns="http://www.w3.org/2000/svg">
<path d="M360.626 139.076L361.765 137.227L359.894 136.125C313.316 108.674 260.319 93.365 205.966 91.6602C151.582 89.9543 91.2837 104.509 43.0238 128.974L40.9727 130.014L42.1103 131.968L128.449 280.24L129.481 282.012L131.342 281.069C152.585 270.3 176.298 265.038 200.218 265.788C224.138 266.539 247.463 273.276 267.965 285.359L269.836 286.461L270.975 284.612L360.626 139.076Z" fill="#033452" stroke="#021B2B" stroke-width="4.34324"/>
<path d="M228.246 148.01C227.385 147.188 226.006 147.203 225.166 148.044C224.325 148.884 224.34 150.234 225.2 151.057L233.215 158.722V168.706C233.215 168.894 233.292 169.076 233.43 169.209L240.879 176.432V192.317C240.879 194.147 240.356 200.126 233.62 200.126C226.884 200.126 226.36 194.147 226.36 192.317V182.375C226.36 173.701 221.412 170.82 215.795 169.944V143.261C215.795 140.908 213.845 139 211.439 139H173.204C170.799 139 168.849 140.908 168.849 143.261V212.612H163.903C162.3 212.612 161 213.886 161 215.454V220.682C161 221.072 161.326 221.392 161.725 221.392H222.918C223.319 221.392 223.644 221.072 223.644 220.682V215.454C223.644 213.886 222.344 212.612 220.74 212.612H215.794V174.262C220.333 175.14 222.003 177.539 222.003 182.375V192.317C222.003 196.799 224.449 204.388 233.619 204.388C242.788 204.388 245.235 196.8 245.235 192.317V165.155C245.235 164.581 244.998 164.031 244.58 163.631L228.246 148.01ZM210.338 176.634C210.338 177.026 210.014 177.344 209.614 177.344H175.03C174.629 177.344 174.304 177.026 174.304 176.634V148.489C174.304 148.097 174.63 147.779 175.03 147.779H209.613C210.014 147.779 210.337 148.098 210.337 148.489L210.338 176.634Z" fill="white"/>
</svg>
