<svg width="365" height="341" viewBox="0 0 365 341" fill="none" xmlns="http://www.w3.org/2000/svg">
<path d="M360.626 139.076L361.765 137.227L359.894 136.125C313.316 108.674 260.319 93.365 205.966 91.6602C151.582 89.9543 91.2837 104.509 43.0238 128.974L40.9727 130.014L42.1103 131.968L128.449 280.24L129.481 282.012L131.342 281.069C152.585 270.3 176.298 265.038 200.218 265.788C224.138 266.539 247.463 273.276 267.965 285.359L269.836 286.461L270.975 284.612L360.626 139.076Z" fill="#021B2B" stroke="white" stroke-width="4.34324"/>
<path d="M235.246 147.01C234.385 146.188 233.006 146.203 232.166 147.044C231.325 147.884 231.34 149.234 232.2 150.057L240.215 157.722V167.706C240.215 167.894 240.292 168.076 240.43 168.209L247.879 175.432V191.317C247.879 193.147 247.356 199.126 240.62 199.126C233.884 199.126 233.36 193.147 233.36 191.317V181.375C233.36 172.701 228.412 169.82 222.795 168.944V142.261C222.795 139.908 220.845 138 218.439 138H180.204C177.799 138 175.849 139.908 175.849 142.261V211.612H170.903C169.3 211.612 168 212.886 168 214.454V219.682C168 220.072 168.326 220.392 168.725 220.392H229.918C230.319 220.392 230.644 220.072 230.644 219.682V214.454C230.644 212.886 229.344 211.612 227.74 211.612H222.794V173.262C227.333 174.14 229.003 176.539 229.003 181.375V191.317C229.003 195.799 231.449 203.388 240.619 203.388C249.788 203.388 252.235 195.8 252.235 191.317V164.155C252.235 163.581 251.998 163.031 251.58 162.631L235.246 147.01ZM217.338 175.634C217.338 176.026 217.014 176.344 216.614 176.344H182.03C181.629 176.344 181.304 176.026 181.304 175.634V147.489C181.304 147.097 181.63 146.779 182.03 146.779H216.613C217.014 146.779 217.337 147.098 217.337 147.489L217.338 175.634Z" fill="white"/>
</svg>
