<svg width="50" height="37" viewBox="0 0 50 37" fill="none" xmlns="http://www.w3.org/2000/svg">
<path fill-rule="evenodd" clip-rule="evenodd" d="M25 0C42.211 0 50 18.5 50 18.5C50 18.5 42.2512 37 25 37C7.74881 37 0 18.5 0 18.5C0 18.5 7.78904 0 25 0ZM25 9.25C19.8223 9.25 15.625 13.3914 15.625 18.5C15.625 23.6086 19.8223 27.75 25 27.75C30.1777 27.75 34.375 23.6086 34.375 18.5C34.375 13.3914 30.1777 9.25 25 9.25ZM25 12.3333C28.4518 12.3333 31.25 15.0942 31.25 18.5C31.25 21.9058 28.4518 24.6667 25 24.6667C21.5482 24.6667 18.75 21.9058 18.75 18.5C18.75 15.0942 21.5482 12.3333 25 12.3333Z" fill="white"/>
</svg>
