<svg width="330" height="326" viewBox="0 0 330 326" fill="none" xmlns="http://www.w3.org/2000/svg">
<path d="M114.722 320.457L115.872 322.299L117.714 321.148C160.653 294.317 196.06 257.026 220.551 212.837C245.042 168.648 257.8 119.037 257.603 68.7421L257.594 66.5539L255.406 66.5791L99.5508 68.3731L97.5593 68.3961L97.4103 70.3822C95.4848 96.0537 86.6349 114.394 75.7377 134.055C64.9762 153.472 49.4171 169.859 30.5465 181.651L28.7049 182.802L29.8556 184.644L114.722 320.457Z" fill="#3C4043" stroke="#26292A" stroke-width="4.34324"/>
<path d="M204.734 175.881L197.928 155.464C197.236 153.504 195.391 152.235 193.314 152.235H173.013C171.053 152.235 169.553 153.734 169.553 155.695V182.686C169.553 184.301 168.284 185.57 166.669 185.57H161.133L121.684 140.815C121.223 140.239 120.531 140.008 119.839 140.008H104.613C103.229 139.893 102.191 141.046 102.191 142.43V162.385C102.191 163.769 103.344 164.807 104.728 164.807C106.228 164.807 107.381 166.076 107.381 167.576C107.381 169.075 106.112 170.344 104.613 170.344C103.459 170.344 102.421 169.652 102.075 168.614C101.499 167.23 99.653 166.653 98.3842 167.576C97.346 168.268 97.2307 169.767 97.6921 170.806C99.3069 174.266 103.229 176.111 107.151 174.843C109.573 174.035 111.534 171.959 112.11 169.421C113.149 165.269 110.726 161.462 107.035 160.194V148.544H115.917L137.948 185.57H100.46C98.4995 185.57 97 187.069 97 189.03V197.335C97.0207 202.022 97 202.295 101.96 202.295H108.073C108.073 209.793 114.187 216.021 121.8 216.021C129.412 216.021 135.526 209.908 135.526 202.295H168.054C168.054 209.793 174.282 216.021 181.78 216.021C189.393 216.021 195.506 209.908 195.506 202.295H201.735C206.579 202.295 206.579 202.295 206.579 197.451V187.069C206.579 183.263 206.003 179.457 204.734 175.881ZM121.8 208.755C118.224 208.755 115.34 205.871 115.34 202.295C115.34 198.719 118.224 195.836 121.8 195.836C125.375 195.836 128.259 198.719 128.259 202.295C128.259 205.871 125.375 208.755 121.8 208.755ZM181.78 208.755C178.204 208.755 175.32 205.871 175.32 202.295C175.32 198.719 178.204 195.836 181.78 195.836C185.356 195.836 188.239 198.719 188.239 202.295C188.355 205.871 185.356 208.755 181.78 208.755ZM194.468 174.035H178.781C177.743 174.035 176.82 174.035 176.82 172.074V161.347C176.82 158.871 176.685 157.626 178.759 157.626H190.377C191.184 157.626 191.391 158.063 191.622 158.871L195.967 172.19C196.186 173.808 195.506 174.035 194.468 174.035Z" fill="white"/>
</svg>
