<svg width="330" height="326" viewBox="0 0 330 326" fill="none" xmlns="http://www.w3.org/2000/svg">
<path d="M115.69 320.474L116.84 322.316L118.682 321.165C161.621 294.334 197.028 257.043 221.519 212.854C246.01 168.665 258.768 119.053 258.571 68.7587L258.562 66.5705L256.374 66.5957L100.519 68.3898L98.5274 68.4127L98.3784 70.3988C96.4529 96.0703 87.603 114.41 76.7058 134.072C65.9443 153.488 50.3852 169.876 31.5146 181.668L29.673 182.819L30.8238 184.66L115.69 320.474Z" fill="#DD7B27" stroke="white" stroke-width="4.34324"/>
<path d="M207.734 168.881L200.928 148.464C200.236 146.504 198.391 145.235 196.314 145.235H176.013C174.053 145.235 172.553 146.734 172.553 148.695V175.686C172.553 177.301 171.284 178.57 169.669 178.57H164.133L124.684 133.815C124.223 133.239 123.531 133.008 122.839 133.008H107.613C106.229 132.893 105.191 134.046 105.191 135.43V155.385C105.191 156.769 106.344 157.807 107.728 157.807C109.228 157.807 110.381 159.076 110.381 160.576C110.381 162.075 109.112 163.344 107.613 163.344C106.459 163.344 105.421 162.652 105.075 161.614C104.499 160.23 102.653 159.653 101.384 160.576C100.346 161.268 100.231 162.767 100.692 163.806C102.307 167.266 106.229 169.111 110.151 167.843C112.573 167.035 114.534 164.959 115.11 162.421C116.149 158.269 113.726 154.462 110.035 153.194V141.544H118.917L140.948 178.57H103.46C101.5 178.57 100 180.069 100 182.03V190.335C100.021 195.022 100 195.295 104.96 195.295H111.073C111.073 202.793 117.187 209.021 124.8 209.021C132.412 209.021 138.526 202.908 138.526 195.295H171.054C171.054 202.793 177.282 209.021 184.78 209.021C192.393 209.021 198.506 202.908 198.506 195.295H204.735C209.579 195.295 209.579 195.295 209.579 190.451V180.069C209.579 176.263 209.003 172.457 207.734 168.881ZM124.8 201.755C121.224 201.755 118.34 198.871 118.34 195.295C118.34 191.719 121.224 188.836 124.8 188.836C128.375 188.836 131.259 191.719 131.259 195.295C131.259 198.871 128.375 201.755 124.8 201.755ZM184.78 201.755C181.204 201.755 178.32 198.871 178.32 195.295C178.32 191.719 181.204 188.836 184.78 188.836C188.356 188.836 191.239 191.719 191.239 195.295C191.355 198.871 188.356 201.755 184.78 201.755ZM197.468 167.035H181.781C180.743 167.035 179.82 167.035 179.82 165.074V154.347C179.82 151.871 179.685 150.626 181.759 150.626H193.377C194.184 150.626 194.391 151.063 194.622 151.871L198.967 165.19C199.186 166.808 198.506 167.035 197.468 167.035Z" fill="white"/>
</svg>
