<?xml version="1.0" encoding="UTF-8" standalone="no"?>
<svg
   width="234.06448"
   height="260.93503"
   viewBox="0 0 234.06448 260.93503"
   fill="none"
   version="1.1"
   id="svg2"
   sodipodi:docname="Group 1000004339.svg"
   inkscape:version="1.3.2 (091e20e, 2023-11-25, custom)"
   xmlns:inkscape="http://www.inkscape.org/namespaces/inkscape"
   xmlns:sodipodi="http://sodipodi.sourceforge.net/DTD/sodipodi-0.dtd"
   xmlns="http://www.w3.org/2000/svg"
   xmlns:svg="http://www.w3.org/2000/svg">
  <defs
     id="defs2" />
  <sodipodi:namedview
     id="namedview2"
     pagecolor="#505050"
     bordercolor="#eeeeee"
     borderopacity="1"
     inkscape:showpageshadow="0"
     inkscape:pageopacity="0"
     inkscape:pagecheckerboard="0"
     inkscape:deskcolor="#505050"
     inkscape:zoom="3.6226994"
     inkscape:cx="138.15665"
     inkscape:cy="98.683319"
     inkscape:window-width="2560"
     inkscape:window-height="1377"
     inkscape:window-x="-8"
     inkscape:window-y="-8"
     inkscape:window-maximized="1"
     inkscape:current-layer="svg2" />
  <path
     d="m 89.009612,256.10017 1.15,1.842 1.842,-1.151 c 42.938998,-26.831 78.345998,-64.122 102.836998,-108.311 24.491,-44.189 37.249,-93.800999 37.052,-144.0952986 l -0.009,-2.1882 -2.188,0.0252 -155.854998,1.7941 -1.9916,0.0229 -0.149,1.9861 c -1.9255,25.6714996 -10.7754,44.0111996 -21.6726,63.6731996 -10.7615,19.416 -26.3206,35.803999 -45.1911999,47.595999 l -1.8416,1.151 1.1508,1.841 z"
     fill="#dd7b27"
     stroke="#ffffff"
     stroke-width="4.34324"
     id="path1" />
  <path
     d="m 181.05361,104.50717 -6.806,-20.416999 c -0.692,-1.96 -2.537,-3.229 -4.614,-3.229 h -20.301 c -1.96,0 -3.46,1.499 -3.46,3.46 v 26.990999 c 0,1.615 -1.269,2.884 -2.884,2.884 h -5.536 L 98.003612,69.441171 c -0.461,-0.576 -1.153,-0.807 -1.845,-0.807 h -15.226 c -1.384,-0.115 -2.422,1.038 -2.422,2.422 v 19.955 c 0,1.384 1.153,2.422 2.537,2.422 1.5,0 2.653,1.269 2.653,2.769 0,1.499 -1.269,2.768 -2.768,2.768 -1.154,0 -2.192,-0.692 -2.538,-1.73 -0.576,-1.384 -2.422,-1.961 -3.691,-1.038 -1.038,0.692 -1.153,2.191 -0.692,3.23 1.615,3.459999 5.537,5.304999 9.459,4.036999 2.422,-0.808 4.383,-2.884 4.959,-5.421999 1.039,-4.152 -1.384,-7.959 -5.075,-9.227 v -11.65 h 8.882 L 114.26761,114.19617 H 76.779612 c -1.96,0 -3.46,1.499 -3.46,3.46 v 8.305 c 0.021,4.687 0,4.96 4.96,4.96 h 6.113 c 0,7.498 6.114,13.726 13.727,13.726 7.611998,0 13.725998,-6.113 13.725998,-13.726 h 32.528 c 0,7.498 6.228,13.726 13.726,13.726 7.613,0 13.726,-6.113 13.726,-13.726 h 6.229 c 4.844,0 4.844,0 4.844,-4.844 v -10.382 c 0,-3.806 -0.576,-7.612 -1.845,-11.188 z m -82.933998,32.874 c -3.576,0 -6.46,-2.884 -6.46,-6.46 0,-3.576 2.884,-6.459 6.46,-6.459 3.574998,0 6.458998,2.883 6.458998,6.459 0,3.576 -2.884,6.46 -6.458998,6.46 z m 59.979998,0 c -3.576,0 -6.46,-2.884 -6.46,-6.46 0,-3.576 2.884,-6.459 6.46,-6.459 3.576,0 6.459,2.883 6.459,6.459 0.116,3.576 -2.883,6.46 -6.459,6.46 z m 12.688,-34.72 h -15.687 c -1.038,0 -1.961,0 -1.961,-1.961 V 89.973171 c 0,-2.476 -0.135,-3.721 1.939,-3.721 h 11.618 c 0.807,0 1.014,0.437 1.245,1.245 l 4.345,13.318999 c 0.219,1.618 -0.461,1.845 -1.499,1.845 z"
     fill="#ffffff"
     id="path2" />
</svg>
