<svg width="36" height="27" viewBox="0 0 36 27" fill="none" xmlns="http://www.w3.org/2000/svg">
<path d="M19.4822 0.777603C19.317 0.537786 19.096 0.341702 18.8383 0.20624C18.5805 0.0707779 18.2936 0 18.0024 0C17.7112 0 17.4244 0.0707779 17.1666 0.20624C16.9088 0.341702 16.6879 0.537786 16.5227 0.777603L0.321453 24.176C0.133923 24.4459 0.0239525 24.762 0.00348663 25.09C-0.0169792 25.4179 0.052845 25.7453 0.205372 26.0364C0.357895 26.3274 0.587292 26.5712 0.868633 26.7411C1.14997 26.911 1.4725 27.0005 1.80117 27L34.2037 27C34.5316 26.9986 34.853 26.9079 35.1332 26.7376C35.4134 26.5673 35.6418 26.3239 35.794 26.0335C35.9462 25.7431 36.0163 25.4167 35.9968 25.0894C35.9773 24.7621 35.869 24.4463 35.6834 24.176L19.4822 0.777603Z" fill="#22C55E"/>
</svg>
